<svg id="图层_1" data-name="图层 1" xmlns="http://www.w3.org/2000/svg" viewBox="0 0 329.59 263.96"><defs><style>.cls-1{fill:#bc8757;}.cls-2{fill:#d3a179;}.cls-3{fill:#faf0de;}</style></defs><title>asteroids</title><path class="cls-1" d="M177,165.61c-17.34-30.35-27.8-17.87-82.35-14.37-25.62,0-40.85,19.61-44.7,34.53-1.49,5.77,20.35,31.32,27.36,35.76,34.68,19.17,46.34,3.07,75.85-11.18C176.09,199.26,192.14,191.17,177,165.61Z"/><path class="cls-2" d="M160.85,162.22c0,3.66.94,6.63-4,6.63s-14-3-14-6.63-.31-6.63,4.65-6.63S160.85,158.56,160.85,162.22Z"/><path class="cls-2" d="M170.33,178.6c-2.68.8-4.66,1.82-5.74-.16s-.86-6.21,1.82-7,4.79-1.57,5.88.41S173,177.8,170.33,178.6Z"/><path class="cls-2" d="M155.44,178.71c-1.28,1.34-2,2.61-3.79,1.67s-4.1-3.74-2.82-5.08,2.2-2.5,4-1.56S156.72,177.36,155.44,178.71Z"/><path class="cls-2" d="M77.06,186.71c0,3.67.94,6.63-4,6.63s-14-3-14-6.63-.31-6.63,4.66-6.63S77.06,183.05,77.06,186.71Z"/><path class="cls-2" d="M125.34,215.93c-3.59-.89-6.69-1.21-5.7-3.37s5.68-5.36,9.27-4.48,6.56,1.48,5.58,3.64S128.93,216.81,125.34,215.93Z"/><path class="cls-2" d="M82.47,203.27c.45,2.11,1.35,3.76-1.51,4.08s-8.4-.79-8.84-2.9-1-3.79,1.88-4.12S82,201.16,82.47,203.27Z"/><path class="cls-2" d="M71.64,174.45c-1.27,1.34-2,2.61-3.79,1.67S63.76,172.38,65,171s2.2-2.5,4-1.56S72.92,173.1,71.64,174.45Z"/><path class="cls-3" d="M256.43,64c1.34-.07,1.58.57.54,1.42l-4,3.25a3.62,3.62,0,0,0-1,3.83l1.85,4.82c.49,1.25,0,1.68-1.17,1l-4.34-2.81a3.57,3.57,0,0,0-4,.21l-4,3.25c-1.05.85-1.62.47-1.27-.83l1.34-5a3.61,3.61,0,0,0-1.42-3.7l-4.34-2.81c-1.13-.73-1-1.39.39-1.46l5.16-.27a3.6,3.6,0,0,0,3.08-2.49l1.34-5c.35-1.3,1-1.33,1.51-.08l1.85,4.82a3.61,3.61,0,0,0,3.33,2.16Z"/><path class="cls-3" d="M158.9,36c.81.08,1,.63.47,1.23L158,38.77a3.17,3.17,0,0,0-.68,2.53l.46,2c.18.8-.28,1.17-1,.83l-1.89-.87a3.17,3.17,0,0,0-2.61.13l-1.79,1.07c-.7.41-1.19.09-1.1-.71l.24-2.07a3.12,3.12,0,0,0-.93-2.44l-1.57-1.38c-.61-.53-.46-1.1.34-1.26l2-.41a3.18,3.18,0,0,0,2-1.65l.82-1.91c.32-.75.91-.78,1.3-.07l1,1.82a3.15,3.15,0,0,0,2.2,1.42Z"/><polygon class="cls-3" points="218.91 90.98 220.43 87.41 217.16 82.87 222.21 84.47 224.68 81.47 225.55 85.26 229.17 86.68 225.84 88.68 225.61 92.56 222.67 90.01 218.91 90.98"/><path class="cls-3" d="M182,70c1-.88,1.6-.53,1.3.78l-1.17,5a3.63,3.63,0,0,0,1.55,3.65l4.43,2.66c1.15.7,1,1.36-.34,1.48l-5.15.45a3.58,3.58,0,0,0-3,2.59l-1.17,5c-.3,1.31-1,1.37-1.5.13l-2-4.76a3.61,3.61,0,0,0-3.4-2l-5.14.45c-1.34.12-1.61-.51-.59-1.4l3.9-3.38a3.63,3.63,0,0,0,.89-3.86l-2-4.76c-.52-1.24,0-1.69,1.15-1l4.42,2.66a3.62,3.62,0,0,0,3.95-.34Z"/><path class="cls-3" d="M205.5,108.94c1.46-1,2.54-.29,2.4,1.44l-.37,4.44a6.73,6.73,0,0,0,2.19,5.16l3.44,2.82c1.35,1.1,1.07,2.33-.63,2.73l-4.33,1a6.78,6.78,0,0,0-4.24,3.68l-1.62,4.15c-.63,1.62-1.88,1.73-2.79.24l-2.31-3.81a6.75,6.75,0,0,0-4.8-2.89l-4.45-.25c-1.74-.1-2.23-1.26-1.09-2.58l2.9-3.38a6.76,6.76,0,0,0,1.27-5.46l-1.13-4.31c-.44-1.68.51-2.51,2.11-1.84l4.11,1.73a6.8,6.8,0,0,0,5.59-.49Z"/><path class="cls-3" d="M259.07,107.25c1-.66,1.78-.2,1.68,1l-.26,3.11A4.76,4.76,0,0,0,262,115l2.42,2c.94.78.74,1.64-.44,1.92l-3,.71a4.74,4.74,0,0,0-3,2.58l-1.13,2.9c-.44,1.14-1.32,1.22-2,.17l-1.61-2.66a4.74,4.74,0,0,0-3.37-2l-3.11-.18c-1.22-.07-1.57-.88-.77-1.81l2-2.36a4.76,4.76,0,0,0,.88-3.83l-.79-3c-.31-1.18.36-1.76,1.48-1.29l2.88,1.21a4.74,4.74,0,0,0,3.91-.34Z"/><polygon class="cls-3" points="162.14 116.9 161.13 113.15 155.76 111.58 160.73 109.74 160.83 105.85 163.85 108.3 167.57 107.2 166.18 110.82 168.38 114.02 164.5 113.82 162.14 116.9"/><polygon class="cls-3" points="198.18 47.65 195.8 38.76 183.09 35.03 194.85 30.68 195.1 21.47 202.25 27.26 211.07 24.66 207.78 33.25 212.98 40.83 203.79 40.35 198.18 47.65"/><path class="cls-3" d="M112.77,24.24c1.26-.47,1.68.07.93,1.19l-2.87,4.29a3.61,3.61,0,0,0,.15,4l3.19,4.06c.84,1,.46,1.62-.84,1.25l-5-1.4A3.6,3.6,0,0,0,104.64,39l-2.87,4.29c-.75,1.12-1.41.93-1.46-.41l-.2-5.17a3.6,3.6,0,0,0-2.45-3.11l-5-1.41c-1.29-.36-1.32-1-.06-1.51l4.85-1.78a3.61,3.61,0,0,0,2.21-3.3l-.2-5.16c0-1.34.59-1.58,1.42-.52l3.2,4.06A3.61,3.61,0,0,0,107.92,26Z"/><path class="cls-3" d="M11.32,26.26c.8-.16,1.16.3.81,1l-.9,1.88a3.2,3.2,0,0,0,.1,2.62l1,1.8c.41.71.08,1.19-.73,1.09L9.58,34.4a3.17,3.17,0,0,0-2.46.91L5.73,36.85c-.55.61-1.11.45-1.26-.35l-.38-2a3.18,3.18,0,0,0-1.62-2.06l-1.9-.85c-.74-.33-.76-.92,0-1.3l1.83-1a3.13,3.13,0,0,0,1.46-2.17L4,25c.08-.81.64-1,1.23-.45L6.77,26a3.13,3.13,0,0,0,2.51.71Z"/><polygon class="cls-3" points="84.89 61.05 85.28 57.19 80.82 53.81 86.11 53.86 87.59 50.26 89.54 53.62 93.41 53.91 90.83 56.81 91.74 60.58 88.19 59.01 84.89 61.05"/><path class="cls-3" d="M43.41,51.86c.71-1.15,1.37-1,1.47.36l.37,5.15a3.61,3.61,0,0,0,2.56,3l5,1.24c1.31.32,1.36,1,.11,1.51L48.14,65.1a3.59,3.59,0,0,0-2.08,3.36l.37,5.15c.1,1.35-.54,1.6-1.4.57L41.7,70.24a3.6,3.6,0,0,0-3.85-.95l-4.78,1.94c-1.25.51-1.69,0-1-1.15l2.73-4.39a3.6,3.6,0,0,0-.29-3.95l-3.33-4c-.87-1-.51-1.61.8-1.29l5,1.24a3.6,3.6,0,0,0,3.67-1.5Z"/><path class="cls-3" d="M77.37,82.17c1.12-1.34,2.35-1,2.72.67l1,4.35a6.74,6.74,0,0,0,3.61,4.28l4.13,1.68c1.61.65,1.7,1.91.2,2.79L85.15,98.2a6.8,6.8,0,0,0-3,4.76l-.32,4.44c-.12,1.74-1.29,2.22-2.6,1.06l-3.33-3a6.77,6.77,0,0,0-5.44-1.34l-4.32,1.07c-1.7.42-2.51-.55-1.81-2.14L66.15,99a6.75,6.75,0,0,0-.4-5.59l-2.36-3.78c-.92-1.48-.25-2.55,1.48-2.38l4.43.43a6.79,6.79,0,0,0,5.2-2.11Z"/><path class="cls-3" d="M128.05,64.74c.79-.94,1.65-.72,1.91.47l.67,3a4.73,4.73,0,0,0,2.53,3l2.89,1.17c1.13.46,1.19,1.34.14,2L133.5,76a4.76,4.76,0,0,0-2.07,3.33l-.22,3.12c-.09,1.21-.91,1.55-1.82.74l-2.34-2.08a4.73,4.73,0,0,0-3.81-.93l-3,.74c-1.18.3-1.75-.38-1.27-1.5l1.26-2.85a4.79,4.79,0,0,0-.29-3.92L118.26,70c-.64-1-.17-1.79,1-1.67l3.1.31A4.74,4.74,0,0,0,126,67.12Z"/><polygon class="cls-3" points="38.29 102.58 36.22 99.29 30.63 99.37 34.83 96.15 33.79 92.41 37.39 93.85 40.62 91.7 40.37 95.58 43.41 97.99 39.65 98.94 38.29 102.58"/><polygon class="cls-3" points="52.28 25.77 47.39 17.98 34.13 18.17 44.09 10.54 41.61 1.67 50.15 5.09 57.81 0 57.2 9.18 64.41 14.89 55.49 17.14 52.28 25.77"/><path class="cls-3" d="M184.05,169.22c1.35-.07,1.59.57.55,1.41l-4,3.26a3.6,3.6,0,0,0-1,3.82l1.85,4.83c.49,1.25,0,1.68-1.17,1l-4.34-2.81a3.57,3.57,0,0,0-4,.21l-4,3.25c-1,.84-1.62.48-1.27-.83l1.34-5a3.58,3.58,0,0,0-1.42-3.69l-4.34-2.82c-1.13-.73-1-1.39.39-1.46l5.16-.27a3.6,3.6,0,0,0,3.08-2.49l1.34-5c.35-1.3,1-1.33,1.51-.08l1.85,4.83a3.62,3.62,0,0,0,3.33,2.15Z"/><path class="cls-3" d="M86.53,141.2c.81.08,1,.62.47,1.22L85.59,144a3.17,3.17,0,0,0-.68,2.53l.46,2c.18.79-.28,1.16-1,.83l-1.89-.87a3.17,3.17,0,0,0-2.61.13l-1.79,1.07c-.7.41-1.19.09-1.1-.71l.25-2.07a3.2,3.2,0,0,0-.94-2.45l-1.57-1.37c-.61-.54-.46-1.1.34-1.26l2-.41a3.18,3.18,0,0,0,2-1.65l.82-1.91c.32-.75.91-.78,1.3-.07l1,1.81a3.16,3.16,0,0,0,2.2,1.43Z"/><polygon class="cls-3" points="146.54 196.16 148.06 192.59 144.79 188.04 149.84 189.65 152.31 186.65 153.19 190.43 156.8 191.86 153.47 193.86 153.24 197.73 150.31 195.19 146.54 196.16"/><path class="cls-3" d="M109.63,175.13c1-.88,1.6-.53,1.3.78l-1.17,5a3.63,3.63,0,0,0,1.55,3.65l4.43,2.66c1.15.7,1,1.36-.34,1.48l-5.15.45a3.58,3.58,0,0,0-3,2.59l-1.17,5c-.3,1.31-1,1.37-1.5.13l-2-4.76a3.58,3.58,0,0,0-3.39-2l-5.15.45c-1.34.12-1.61-.51-.59-1.4l3.9-3.38a3.59,3.59,0,0,0,.89-3.86l-2-4.76c-.53-1.24,0-1.69,1.14-1l4.43,2.67a3.6,3.6,0,0,0,3.94-.34Z"/><path class="cls-3" d="M135.83,215.47c1.18-.75,2-.23,1.93,1.16l-.29,3.57a5.42,5.42,0,0,0,1.75,4.14L142,226.6c1.08.89.85,1.88-.51,2.19l-3.48.82a5.41,5.41,0,0,0-3.39,2.95l-1.3,3.34c-.51,1.3-1.52,1.39-2.25.19L129.21,233a5.41,5.41,0,0,0-3.86-2.31l-3.57-.21c-1.39-.08-1.79-1-.87-2.07l2.33-2.71a5.47,5.47,0,0,0,1-4.39l-.91-3.45c-.36-1.36.41-2,1.7-1.48l3.3,1.38a5.41,5.41,0,0,0,4.48-.39Z"/><path class="cls-3" d="M186.7,212.43c1-.66,1.78-.2,1.68,1l-.26,3.11a4.77,4.77,0,0,0,1.53,3.62l2.42,2c.94.77.74,1.64-.44,1.92l-3,.71a4.76,4.76,0,0,0-3,2.58l-1.13,2.9c-.44,1.14-1.32,1.22-2,.17l-1.61-2.67a4.76,4.76,0,0,0-3.37-2l-3.11-.18c-1.22-.07-1.57-.88-.77-1.81l2-2.36a4.76,4.76,0,0,0,.88-3.83l-.79-3c-.31-1.18.36-1.76,1.48-1.29l2.88,1.21a4.74,4.74,0,0,0,3.91-.34Z"/><polygon class="cls-3" points="106.94 113.19 105.94 109.44 100.57 107.86 105.54 106.03 105.64 102.14 108.66 104.59 112.38 103.48 110.99 107.11 113.19 110.31 109.31 110.11 106.94 113.19"/><polygon class="cls-3" points="125.81 152.82 123.44 143.94 110.72 140.21 122.48 135.85 122.73 126.65 129.88 132.44 138.7 129.84 135.41 138.43 140.61 146.01 131.43 145.53 125.81 152.82"/><path class="cls-3" d="M321,197.92c1.34-.07,1.59.57.54,1.41l-4,3.26a3.59,3.59,0,0,0-1,3.82l1.86,4.82c.48,1.26,0,1.69-1.18,1l-4.34-2.81a3.59,3.59,0,0,0-3.95.2l-4,3.26c-1,.85-1.61.47-1.27-.83l1.34-5a3.61,3.61,0,0,0-1.42-3.7l-4.33-2.81c-1.14-.73-1-1.39.39-1.46l5.16-.27a3.59,3.59,0,0,0,3.07-2.49l1.34-5c.35-1.3,1-1.33,1.51-.08L312.5,196a3.6,3.6,0,0,0,3.32,2.15Z"/><path class="cls-3" d="M223.45,169.9c.81.07,1,.62.47,1.22l-1.41,1.53a3.21,3.21,0,0,0-.68,2.53l.46,2c.18.79-.27,1.16-1,.83l-1.89-.88a3.16,3.16,0,0,0-2.62.14L215,178.37c-.7.41-1.19.09-1.1-.72l.25-2.06a3.2,3.2,0,0,0-.94-2.45l-1.57-1.37c-.61-.54-.46-1.1.34-1.26l2-.41a3.16,3.16,0,0,0,2-1.65l.82-1.91c.32-.75.91-.78,1.31-.07l1,1.81a3.12,3.12,0,0,0,2.19,1.43Z"/><polygon class="cls-3" points="283.47 224.86 284.98 221.29 281.72 216.74 286.76 218.35 289.23 215.35 290.11 219.13 293.72 220.56 290.39 222.56 290.16 226.43 287.23 223.89 283.47 224.86"/><path class="cls-3" d="M246.55,203.83c1-.89,1.6-.53,1.3.78l-1.17,5a3.63,3.63,0,0,0,1.55,3.65l4.43,2.66c1.15.69,1,1.36-.34,1.48l-5.15.44a3.61,3.61,0,0,0-3,2.6l-1.17,5c-.3,1.32-1,1.38-1.5.14l-2-4.76a3.58,3.58,0,0,0-3.39-2l-5.15.45c-1.34.11-1.61-.51-.59-1.4l3.9-3.38a3.59,3.59,0,0,0,.89-3.86l-2-4.76c-.53-1.24,0-1.69,1.14-1l4.43,2.67a3.6,3.6,0,0,0,3.94-.34Z"/><path class="cls-3" d="M273.91,244.75c1.06-.67,1.83-.21,1.73,1l-.27,3.19a4.9,4.9,0,0,0,1.57,3.71l2.48,2c1,.79.77,1.68-.45,2l-3.12.73a4.89,4.89,0,0,0-3,2.64l-1.16,3c-.45,1.17-1.36,1.25-2,.18L268,260.47a4.89,4.89,0,0,0-3.45-2.08l-3.19-.18c-1.25-.07-1.61-.91-.79-1.85l2.09-2.43a4.84,4.84,0,0,0,.91-3.92l-.81-3.1c-.32-1.21.36-1.8,1.52-1.32l2.95,1.24a4.86,4.86,0,0,0,4-.35Z"/><path class="cls-3" d="M323.62,241.13c1-.66,1.78-.21,1.68,1l-.26,3.11a4.74,4.74,0,0,0,1.54,3.62l2.41,2c.94.78.74,1.63-.44,1.91l-3,.72a4.77,4.77,0,0,0-3,2.57L321.41,259c-.44,1.14-1.32,1.21-2,.17l-1.62-2.67a4.75,4.75,0,0,0-3.37-2l-3.11-.18c-1.22-.07-1.57-.88-.77-1.81l2-2.36a4.73,4.73,0,0,0,.88-3.83l-.79-3c-.31-1.19.36-1.76,1.48-1.29l2.88,1.21a4.74,4.74,0,0,0,3.91-.35Z"/><polygon class="cls-3" points="226.69 250.78 225.68 247.03 220.32 245.45 225.28 243.61 225.39 239.73 228.4 242.17 232.13 241.07 230.74 244.7 232.93 247.9 229.06 247.7 226.69 250.78"/><polygon class="cls-3" points="262.74 181.52 260.36 172.64 247.64 168.91 259.4 164.55 259.65 155.35 266.8 161.14 275.62 158.53 272.33 167.13 277.53 174.71 268.35 174.23 262.74 181.52"/></svg>