<svg id="图层_1" data-name="图层 1" xmlns="http://www.w3.org/2000/svg" viewBox="0 0 1142 395"><defs><style>.cls-1{fill:#fcb66b;}.cls-2{fill:none;}.cls-3{fill:#a57c52;}.cls-4{fill:#c59b6d;}.cls-5{fill:#2e3191;}.cls-6{fill:#b2b2b2;}.cls-7{fill:#989898;}.cls-8{fill:#cbcbcb;}.cls-9{fill:#ee3435;}.cls-10{fill:#f05232;}.cls-11{fill:#ffd772;}.cls-12{fill:#ec6f2c;}.cls-13{fill:#e28026;}.cls-14{fill:#eac51b;}</style></defs><path class="cls-1" d="M629.52,211.28a8.62,8.62,0,0,0,.25-1.12,8.34,8.34,0,0,0,0-1c0-.82-.39-1.32-.18-2.09,0-.1,0-.2.09-.25s-.09-.1-.09-.21c0-.35.22-.71.26-1.11a3.75,3.75,0,0,0,0-.67c-.09-.81-.18-1.62-.23-2.44a2.59,2.59,0,0,0,0-1c1,1.22,2,2.39,3,3.6a6.69,6.69,0,0,1,.65.86c.17.26.3.51.47.76A5.84,5.84,0,0,0,635,208c1.43,1.21,2.84,2.38,4.31,3.55a8.81,8.81,0,0,0,.94.66,15,15,0,0,1,1.9.8,8.74,8.74,0,0,1,1.76,1.73,2.74,2.74,0,0,0,2,1.11c-1.07-2.48-3.23-4.36-3.57-7.16a3.92,3.92,0,0,0-.23-1.17c-.21-.46-.6-.71-.86-1.12a5.19,5.19,0,0,1-.6-2.18,14.45,14.45,0,0,0-2.3-4.93,5.91,5.91,0,0,0-.9-1.22c-.86-.81-2.19-.9-2.75-2,1.33.45,2.71.85,4.08,1.21a5.86,5.86,0,0,0,1.81.25,7.57,7.57,0,0,1,1.5-.16c.69,0,1.38.36,2.07.1.21-.05.38-.2.6-.2a7,7,0,0,1,1.07.29c.65.16,1.29-.35,1.94-.45a4,4,0,0,1,1.37.15l4.43,1a15.83,15.83,0,0,0-3.22-2.29,7.18,7.18,0,0,1-1-.5,16.34,16.34,0,0,0-2.67-1.93c-.82-.31-1.33-1.33-2.11-1.82s-1.54-.46-2.19-1c-.26-.21-.48-.46-.7-.66a4.54,4.54,0,0,0-2.06-.86c-.56-.15-1-.35-1.5-.45a15.19,15.19,0,0,0-5.25.26,16.74,16.74,0,0,0,2.54-1l1.42-.62a4.19,4.19,0,0,0,.86-.46,4,4,0,0,0,1-1,3.92,3.92,0,0,1,.81-1.12c.39-.25.86-.31,1.25-.56a3.91,3.91,0,0,0,.81-1.13c.65-.91,1.64-1.32,2.36-2.08s1.12-1.53,1.93-1.69a29.8,29.8,0,0,0-4.3.77,38.3,38.3,0,0,1-7.08,1.65,4,4,0,0,0-1.29.15,5.33,5.33,0,0,0-2.19,1.74q1-3.21,1.8-6.42a12.6,12.6,0,0,0-4.6,3.78,33.79,33.79,0,0,0-1.54,3.21c-.52,1.07-1.19,2-1.71,3-2-3.7-8.59-15.69-10.74-18l-1,1.23s4.22,4.11,11.26,17.41c-.22,0-.43-.05-.69-.05a11.91,11.91,0,0,0-6.36,1.6,11,11,0,0,0-3.3,3,3,3,0,0,1-1.38,1c-.13,0-.3.21-.21.36,1,.51,2.1.19,3.14.24a15,15,0,0,0,2,.16,6.82,6.82,0,0,0,2.9-1.43c-.26.41-.47.82-.73,1.27a23.77,23.77,0,0,0-1.37,2.61c-1.58,3.51-1.83,7.57-2.77,11.39a8.88,8.88,0,0,0-.38,3.51,20.8,20.8,0,0,1,2.28-3c.15-.16.29-.34.42-.51a7.48,7.48,0,0,0,.39-.81,14.61,14.61,0,0,1,1.84-3.27,15.9,15.9,0,0,0,1.67-2.24,26.34,26.34,0,0,1,1.45-3.31c-.08.76-.33,1.42-.46,2.19a9.93,9.93,0,0,0,.7,4.88,13.1,13.1,0,0,1,.38,1.32c.18.91.1,1.83.19,2.74a12,12,0,0,0,.6,2.5c.35,1.06.74,2.13,1.13,3.2a7.76,7.76,0,0,1,.43,1.42c.09.61,0,1.28.09,1.89a2.42,2.42,0,0,0,.65,1.67C627.9,217.18,628.71,214.23,629.52,211.28Z"/><rect class="cls-2" x="389" y="287" width="119.33" height="21"/><rect class="cls-2" x="164.26" y="285" width="114.74" height="23"/><path class="cls-2" d="M76.68,1h63l.49,11H301.51L302,0H0V13H76.19Z"/><path class="cls-2" d="M530.74,14l.57-14H365l.63,14Z"/><rect class="cls-2" y="286" width="54.26" height="22"/><rect class="cls-2" x="618.33" y="288" width="128.35" height="20"/><path class="cls-2" d="M769.12,15l.56-13.56h63q.33,7.28.65,14.56H998.39L999,1h63q.38,8.49.76,17H1142V0H594.35L595,15Z"/><rect class="cls-2" x="856.68" y="289" width="119.33" height="19"/><rect class="cls-2" x="1086.01" y="291" width="55.99" height="17"/><rect class="cls-3" y="272" width="54.26" height="14"/><path class="cls-3" d="M76.19,13H0V30H75.49Q75.84,21.49,76.19,13Z"/><path class="cls-4" d="M75.49,30H0v4H75.33C75.38,32.67,75.44,31.33,75.49,30Z"/><rect class="cls-4" y="267" width="54.26" height="5"/><path class="cls-5" d="M54.26,265.52H65.82L75.33,34H0V267H54.26Z"/><rect class="cls-3" x="1086.01" y="277" width="55.99" height="14"/><path class="cls-3" d="M1063.53,35H1142V18h-79.23Q1063.15,26.51,1063.53,35Z"/><path class="cls-4" d="M1063.71,39H1142V35h-78.47Z"/><rect class="cls-4" x="1086.01" y="272" width="55.99" height="5"/><path class="cls-5" d="M1073.87,266H1086v6h56V39h-78.29Q1068.79,152.51,1073.87,266Z"/><rect class="cls-3" x="856.68" y="275" width="119.33" height="14"/><path class="cls-3" d="M997.69,33l.7-17H833.33q.39,8.51.76,17Z"/><path class="cls-4" d="M917,37h80.53c.06-1.33.11-2.67.16-4H834.09l.18,4H908V270H856.68v5H976v-5H917Z"/><path class="cls-5" d="M917,37V270h59v-4h12.12q4.7-114.51,9.4-229Z"/><path class="cls-5" d="M908,37H834.27q5.15,114.72,10.28,229.44h12.13V270H908Z"/><path class="cls-3" d="M769.12,15H595l.76,17H768.43Z"/><rect class="cls-3" x="618.33" y="274" width="128.35" height="14"/><path class="cls-4" d="M670,269H618.33v5H746.68v-5H679V36h89.26c.06-1.33.11-2.67.17-4H595.78l.18,4h74Z"/><path class="cls-5" d="M679,36V269h67.68v-2.56H758.8Q763.54,151.23,768.26,36Z"/><path class="cls-5" d="M618.33,269H670V36H596l10.23,228.58h12.14Z"/><rect class="cls-3" x="389" y="273" width="119.33" height="14"/><path class="cls-3" d="M530.74,14H365.63q.38,8.51.76,17H530Q530.39,22.49,530.74,14Z"/><path class="cls-4" d="M434,268H389v5H508.33v-5H443V35h86.87c.06-1.33.11-2.67.17-4H366.39l.18,4H434Z"/><path class="cls-5" d="M443,268h65.33v-3.42h12.12L529.87,35H443Z"/><path class="cls-5" d="M389,268h45V35H366.57q5.15,115,10.3,230H389Z"/><rect class="cls-3" x="164.26" y="271" width="114.74" height="14"/><path class="cls-3" d="M300.81,29q.35-8.51.7-17H140.17q.39,8.51.76,17Z"/><path class="cls-4" d="M141.11,33H217V266H164.26v5H279v-5H226V33h74.65c.05-1.33.11-2.67.16-4H140.93Z"/><path class="cls-5" d="M226,266h53v-1h12.12q4.77-116,9.53-232H226Z"/><path class="cls-5" d="M217,33H141.11l10.41,232.52h12.74V266H217Z"/><polygon class="cls-6" points="0 375 1140 375 1140 395 1142 395 1142 355 1142 348 0 348 0 375"/><rect class="cls-7" y="375" width="1140" height="20"/><path class="cls-6" d="M389,273v-8H376.87c0,1,.09,2,.13,3H291l.12-3H279v58H389V273Z"/><path class="cls-6" d="M300.81,29c-.05,1.33-.11,2.67-.16,4q-4.77,116-9.53,232l-.12,3h86c0-1-.09-2-.13-3q-5.16-115-10.3-230l-.18-4q-.39-8.51-.76-17L365,0H302l-.49,12Q301.15,20.51,300.81,29Z"/><path class="cls-6" d="M164.26,271v-5.48H151.52c.06,1.16.11,2.32.16,3.48h-86c0-1.16.1-2.32.14-3.48H54.26v58h110V271Z"/><path class="cls-6" d="M618.33,274v-9.42H606.19c0,1,.09,2,.14,3h-86l.12-3H508.33v58h110V274Z"/><path class="cls-6" d="M530,31c-.06,1.33-.11,2.67-.17,4l-9.42,229.58-.12,3h86c-.05-1-.09-2-.14-3L596,36l-.18-4L595,15l-.67-15h-63l-.57,14Q530.38,22.51,530,31Z"/><path class="cls-6" d="M856.68,275v-8.56H844.55c0,1,.09,2,.13,3h-86l.12-3H746.68v58h110V275Z"/><path class="cls-6" d="M768.26,36q-4.72,115.22-9.46,230.44l-.12,3h86c0-1-.09-2-.13-3Q839.41,151.72,834.27,37l-.18-4q-.37-8.51-.76-17-.33-7.27-.65-14.56h-63L769.12,15l-.69,17C768.37,33.33,768.32,34.67,768.26,36Z"/><path class="cls-6" d="M1086,272v-6h-12.14c.05,1,.09,2,.14,3H988l.12-3H976v58h110V272Z"/><path class="cls-6" d="M997.53,37q-4.69,114.51-9.4,229l-.12,3h86c0-1-.09-2-.14-3q-5.08-113.5-10.16-227l-.18-4q-.39-8.51-.76-17T1062,1H999l-.62,15-.7,17C997.64,34.33,997.59,35.67,997.53,37Z"/><path class="cls-6" d="M65.68,269h86c-.05-1.16-.1-2.32-.16-3.48L141.11,33l-.18-4q-.37-8.51-.76-17l-.49-11h-63l-.49,12q-.34,8.51-.7,17c0,1.33-.11,2.67-.16,4L65.82,265.52C65.78,266.68,65.73,267.84,65.68,269Z"/><polygon class="cls-8" points="1086.01 324.02 976.01 324.02 976.01 308 856.68 308 856.68 324.44 746.68 324.44 746.68 308 618.33 308 618.33 322.58 508.33 322.58 508.33 308 389 308 389 323 279 323 279 308 164.26 308 164.26 323.52 54.26 323.52 54.26 308 0 308 0 348 1142 348 1142 308 1086.01 308 1086.01 324.02"/><path class="cls-9" d="M54.45,64.7a13.25,13.25,0,0,0-2.21-1.84c-.71-.37-1.07-1.22-1.7-1.7s-1.32-.56-1.87-1c-.21-.18-.37-.41-.56-.6a4.53,4.53,0,0,0-1.77-.95A10,10,0,0,0,45,58a15.26,15.26,0,0,0-4.67-.39,23.21,23.21,0,0,0,2.34-.51L44,56.78a7.81,7.81,0,0,0,.82-.26,2.85,2.85,0,0,0,1-.68,3.2,3.2,0,0,1,.83-.81c.37-.19.82-.13,1.18-.32a3.66,3.66,0,0,0,.81-.81,17.37,17.37,0,0,1,2.3-1.43c.59-.43,1.13-1.11,1.87-1.11a27.9,27.9,0,0,0-3.88.12,35.06,35.06,0,0,1-6.45.5,5,5,0,0,0-1.16,0,4.35,4.35,0,0,0-2.09,1.13c.76-1.63,1.49-3.29,2.19-5A10.73,10.73,0,0,0,37,50.64,23.94,23.94,0,0,0,35.35,53c-.54.77-1.22,1.45-1.79,2.26-.83-1.8-2.62-5.73-4.36-9.29h-.87c1.31,2.34,2.91,5.53,4.74,9.69a5.59,5.59,0,0,0-.59-.11,11.58,11.58,0,0,0-5.81.54,9.62,9.62,0,0,0-3.19,2,3,3,0,0,1-1.29.64c-.13,0-.3.13-.23.24a7.13,7.13,0,0,0,2.78.58,11.94,11.94,0,0,0,1.78.36,5.83,5.83,0,0,0,2.73-.77l-.75.92A21,21,0,0,0,27.05,62c-1.72,2.64-2.33,5.9-3.51,8.87a7.44,7.44,0,0,0-.66,2.77,19.52,19.52,0,0,1,2.27-2.18,4.89,4.89,0,0,0,.41-.37,5.93,5.93,0,0,0,.4-.62,10.52,10.52,0,0,1,1.95-2.42,14.6,14.6,0,0,0,1.71-1.62A20.19,20.19,0,0,1,31.24,64c-.12.6-.43,1.11-.61,1.71a7.61,7.61,0,0,0,.19,4A6.8,6.8,0,0,1,31,70.8c.07.74-.1,1.47-.1,2.21a9.42,9.42,0,0,0,.29,2.12c.22.92.46,1.82.73,2.72a4.75,4.75,0,0,1,.26,1.22,13.24,13.24,0,0,1-.08,1.54A1.91,1.91,0,0,0,32.57,82c1-2.29,2-4.58,2.94-6.85a3.68,3.68,0,0,0,.4-1.67c0-.66-.21-1.11,0-1.71,0-.07.05-.15.08-.22s-.07-.1-.05-.15c.05-.3.25-.57.31-.87a3,3,0,0,0,0-.52V68c0-.3.15-.52.09-.82.77,1.1,1.56,2.15,2.33,3.23a8.6,8.6,0,0,1,.49.74c.12.23.21.45.33.68a5.63,5.63,0,0,0,1,1.25c1.15,1.14,2.31,2.26,3.52,3.35a7.92,7.92,0,0,0,.77.64c.52.33,1.12.5,1.63.86a7.83,7.83,0,0,1,1.4,1.59,2.57,2.57,0,0,0,1.7,1.14c-.76-2.12-2.49-3.9-2.53-6.17a3,3,0,0,0-.09-1,8.3,8.3,0,0,0-.67-1A4.36,4.36,0,0,1,46,70.73a11.66,11.66,0,0,0-1.58-4.24,5,5,0,0,0-.72-1.1c-.7-.74-1.88-1-2.26-2,1.15.52,2.32,1,3.51,1.42a6.44,6.44,0,0,0,1.58.41c.45,0,.9,0,1.34,0a5.66,5.66,0,0,0,1.81.34,2.57,2.57,0,0,1,.55-.12c.34,0,.62.26,1,.37.56.19,1.15-.14,1.75-.16a3.91,3.91,0,0,1,1.22.26L58,67.32a13.32,13.32,0,0,0-2.68-2.21A3.63,3.63,0,0,1,54.45,64.7Z"/><path class="cls-9" d="M133.37,106.75c.45,2.39.12,5.13,1.08,7.3.74,1.88,0,4.22.33,6.22s1.58,3.23,1.78,5.1c.09.72,0,1.45.06,2.13a10.93,10.93,0,0,0,1.74,4.75,32.27,32.27,0,0,0,1.58,3.17,34.1,34.1,0,0,0,8.26,8,56.83,56.83,0,0,0-5.34-2.55l-3.08-1.31a13.18,13.18,0,0,0-2-.7,7.06,7.06,0,0,0-3-.07,8.15,8.15,0,0,1-3,.41c-1-.17-1.77-1-2.78-1.14a9.15,9.15,0,0,0-2.93.45c-2.35.38-4.5-.57-6.83-.56-1.88,0-4.06.58-5.47-.56a58.27,58.27,0,0,0,7.61,5.76c4.47,2.89,9.38,5.23,13.17,8.94a10.62,10.62,0,0,0,2.15,1.86c1.66,1,3.86,1,5.93.87q-6.37,3.38-12.65,7c4,1.23,8.3,2.46,12.75,1.53,2.52-.53,4.81-1.73,7.17-2.51s4.79-1.17,7.27-2c-1.48,5.05-4.78,16.12-7.54,26.3l1.67,1.35c1.49-7,3.87-16.15,7.49-27.74a12.76,12.76,0,0,0,.94,1.15,26,26,0,0,0,12,7.86c3.21,1,6.09.93,9.57.67a6.84,6.84,0,0,1,3.56.65c.23.19.79.18.85-.16-.66-2.37-2.8-3.71-4.33-5.53a29.34,29.34,0,0,0-2.78-3.53c-1.71-1.57-4.21-2.11-6.53-2.59,1-.24,2-.52,3-.77a57.4,57.4,0,0,0,6-1.8c7.82-2.9,14.53-8.83,21.86-13.26a21.52,21.52,0,0,0,6-4.79,51.91,51.91,0,0,1-8.05,1.08,8.44,8.44,0,0,0-1.41.15,15.45,15.45,0,0,0-1.83.67,28.1,28.1,0,0,1-7.86,2.08,37.1,37.1,0,0,0-6,.76c-2.48.74-4.81,2.39-7.36,2.75,1.26-1.08,2.73-1.66,4.09-2.65,3-2.11,4.86-5.49,6.5-8.74a17.7,17.7,0,0,1,1.48-2.66c1.12-1.66,2.71-2.95,4-4.51a28.13,28.13,0,0,0,3.07-4.92c1.16-2.27,2.22-4.54,3.25-6.85a14.67,14.67,0,0,1,1.58-3c.79-1.12,1.89-2.06,2.78-3.11a5.65,5.65,0,0,0,1.6-3.67c-5.77,3.31-11.58,6.6-17.31,9.88a13.34,13.34,0,0,0-2.08,1.33,16.3,16.3,0,0,0-1.54,1.57c-1.19,1.33-1.49,2.65-3,3.54-.2.11-.36.23-.55.34.1.08,0,.31-.15.4-.62.56-1.44.81-2.08,1.33a8.66,8.66,0,0,0-1,1l-3.42,4.24c-.51.63-1.19.87-1.56,1.61.41-3.52.69-6.95,1.07-10.43a19.74,19.74,0,0,1,.32-2.31c.15-.67.36-1.28.51-1.94a15.52,15.52,0,0,0,.18-4.25c-.27-4.19-.56-8.35-1-12.5a17.9,17.9,0,0,0-.39-2.54c-.42-1.52-1.28-2.8-1.64-4.34a22.17,22.17,0,0,1,0-5.52c.13-1.87,0-3.9-1.29-5-2.17,5.63-1.9,12.06-5.7,16.9a9.17,9.17,0,0,0-1.46,2.15,23.76,23.76,0,0,0-.42,3.13c-.32,1.63-1.54,3-2.51,4.4-2.32,3.43-3.31,7.46-4.21,11.37a12.56,12.56,0,0,0-.51,3.44c.08,2.64,1.88,5,1,7.64-1.32-2.89-2.73-5.72-4.3-8.43a14.8,14.8,0,0,0-2.3-3.3c-.81-.78-1.8-1.32-2.52-2.16-1-1.14-1.56-2.83-2.87-3.5a6.7,6.7,0,0,1-1.26-.62c-.63-.51-.73-1.5-1.17-2.23-.76-1.26-2.44-1.5-3.61-2.38a8.76,8.76,0,0,1-1.88-2.44l-5-8.77a33.21,33.21,0,0,0,1.35,8.8A9,9,0,0,1,133.37,106.75Z"/><path class="cls-1" d="M333.6,223.9a9.81,9.81,0,0,1,1.36-.53,6.51,6.51,0,0,1,1.24-.18c1-.07,1.73.29,2.65-.13.13,0,.31-.06.43-.06h.13c.49-.12.86-.42,1.29-.54.62-.17,1.3,0,1.86-.3a11.24,11.24,0,0,0,1.42-.06c.86.35,1.23-.18,1.85-.06-1.67-1.19-3.41-2.38-5.07-3.56a7,7,0,0,0-1.18-.77,8.72,8.72,0,0,1-1-.54c-1.36-.77-2.29-2.13-3.53-3a10.69,10.69,0,0,1-2.79-2.9c-.55-.84-1.42-1.55-2-2.38s-.8-1.79-1.43-2.56a12,12,0,0,0-2.53-2.13,4.2,4.2,0,0,1-1.86-2.62c3.28,1.13,6.12,3.8,9.64,3.73a4.15,4.15,0,0,1,1.49.12c.61.18,1,.71,1.54,1a6.47,6.47,0,0,0,2.85.47,18,18,0,0,1,6.5,2.34,8.76,8.76,0,0,1,1.73,1.07c1.18,1.07,1.62,2.92,3.1,3.5-.87-1.84-1.68-3.67-2.36-5.52a9,9,0,0,1-.69-2.49c-.06-.72,0-1.43-.12-2.15-.19-1-.75-1.9-.57-2.85a2.07,2.07,0,0,0,.13-.89c0-.54-.44-1-.62-1.49-.32-.89.11-1.84.11-2.79a5.29,5.29,0,0,0-.49-1.91q-1.12-3-2.25-6.05a18.54,18.54,0,0,1,3.72,4.51c.12.18.19.36.31.53.94,1.43,2.54,2.37,3.35,3.92.55,1.13,1.92,1.66,2.72,2.61s.93,2.08,1.73,2.91c.32.3.63.53.94.83a8,8,0,0,1,1.54,2.74,12.14,12.14,0,0,1,.88,2.07,24.86,24.86,0,0,1,.81,7.43c.13-1.25.43-2.5.68-3.75.12-.71.3-1.36.42-2.08a12.16,12.16,0,0,1,.37-1.31,5.21,5.21,0,0,1,1-1.54,4.73,4.73,0,0,0,1.18-1.38c.24-.59.18-1.31.43-1.84a6,6,0,0,1,1.16-1.31c1-1.07,1.3-2.56,2.1-3.75.67-1,1.66-1.85,1.66-3a51.31,51.31,0,0,1,0,6.2c-.24,3.45-.84,6.84-.46,10.29a9.49,9.49,0,0,1,.12,1.84,7.29,7.29,0,0,1-1.62,3.35c2.46-1.25,5-2.5,7.53-3.7-.86,2.55-1.72,5.23-3.69,7.14-1.11,1.07-2.41,1.79-3.58,2.75s-2.15,2-3.39,2.91c4.63,2,19,8.29,23.74,11.25a1,1,0,0,1,.29,1.39l0,0h0a1,1,0,0,1-1.41.19v0c-2.17-1.59-8.85-6.1-23.26-12.07.06.3.13.6.19,1a18.6,18.6,0,0,1-.54,9.22,15.1,15.1,0,0,1-3,5.18,4.26,4.26,0,0,0-.92,2.08c-.06.19-.19.48-.37.36-.87-1.24-.75-2.91-1-4.4a23.4,23.4,0,0,1-.63-2.85,10.44,10.44,0,0,1,1-4.4c-.43.42-.91.83-1.35,1.25a27.68,27.68,0,0,1-2.9,2.39c-4,2.86-9,4-13.51,6a10.75,10.75,0,0,1-4.26,1.2,32.59,32.59,0,0,0,3.26-3.69,2.73,2.73,0,0,1,.56-.66,5,5,0,0,1,.93-.71,17,17,0,0,0,3.69-3.23,28,28,0,0,1,2.4-2.81c1.17-1,2.72-1.54,3.77-2.68-.93.24-1.73.72-2.6,1a11,11,0,0,1-6.17-.11c-.56-.12-1.18-.23-1.73-.29-1.18-.06-2.29.24-3.46.25a14.49,14.49,0,0,1-3.21-.42c-1.42-.28-2.84-.64-4.2-1a7,7,0,0,0-1.87-.35,15.14,15.14,0,0,0-2.33.18,2.75,2.75,0,0,1-2.24-.64C326.63,227.19,330.15,225.54,333.6,223.9Z"/><path class="cls-10" d="M885.46,106.21a4,4,0,0,0,.09,1.38,5.4,5.4,0,0,0,.43,1.16c.39.93,1.16,1.42,1.15,2.37,0,.13.13.31.17.45s0,.08,0,.08a12.83,12.83,0,0,1,0,1.39c.11.61.63,1.12.65,1.72.21.45.43.86.66,1.31.81.62.37,1.19.87,1.7l-6.34-3.07c-.49-.23-1-.48-1.42-.75s-.68-.49-1.07-.73A12.67,12.67,0,0,0,878,112.1c-2.78-.89-5.63-1.72-8.48-2.5a13.73,13.73,0,0,0-1.8-.39,30.63,30.63,0,0,1-3.45-.26,19.67,19.67,0,0,1-3.57-1.34,5.79,5.79,0,0,0-3.79-.55c2.82,2.5,7.11,3.9,8.8,7a3.79,3.79,0,0,0,.83,1.26,9.84,9.84,0,0,0,1.84,1,6.81,6.81,0,0,1,1.91,2.35c1.32,2,3.56,3.5,5.75,5a11,11,0,0,0,2,1.15c1.74.61,4,.31,5.35,1.41-2.39,0-4.74,0-7.15.14a14.18,14.18,0,0,0-3,.42c-.78.24-1.57.57-2.4.76-1.14.21-2.41.12-3.36.66a8.82,8.82,0,0,1-.91.48,9.21,9.21,0,0,1-1.89.08c-1.13.08-1.91.85-3,1.27a7.67,7.67,0,0,1-2.38.26c-2.56.15-5.12.31-7.62.43a26.64,26.64,0,0,0,6.71,1.51l.76.06c2,.23,3.83,1.29,5.92,1.35,1.47.11,2.72,1,4.19,1.32,1.3.27,2.69,0,4,.31a13.53,13.53,0,0,1,1.39.5,10.3,10.3,0,0,0,3.75.28A25.78,25.78,0,0,0,881,136a35.28,35.28,0,0,0,8.44-2.29c-1.27.64-2.5,1.4-3.73,2.13-.7.42-1.34.9-2,1.27a9.77,9.77,0,0,0-1.24.86,5.7,5.7,0,0,0-1.24,1.44,4.24,4.24,0,0,1-.88,1.61c-.5.48-1.33.68-1.82,1.15a4.91,4.91,0,0,0-.84,1.62c-.66,1.32-2.1,2.17-3,3.39-.74,1-1.18,2.24-2.45,2.7a58.64,58.64,0,0,0,6.66-2.5c3.6-1.62,7-3.56,10.91-4.6a15,15,0,0,0,2.06-.66,7.64,7.64,0,0,0,2.85-2.82c-.21,2.74-.26,5.45-.32,8.2,2.33-1.83,4.77-3.65,5.93-6.18a37.48,37.48,0,0,0,1.15-4.31c.41-1.44,1.12-2.77,1.49-4.24,4.49,3.35,18.34,13.59,23.81,16.59a1.29,1.29,0,0,0,1.66-.34h0a.93.93,0,0,0-.34-1.26l-.17-.07c-2.77-1.22-11-5.41-24.56-15.75.36-.07.73-.12,1.13-.18a24.4,24.4,0,0,0,9.72-4.27,15.92,15.92,0,0,0,4.13-4.78,5.09,5.09,0,0,1,1.81-1.67c.21-.11.44-.36.24-.45-1.82-.23-3.5.54-5.27.89a25.74,25.74,0,0,0-3.36.61,11.86,11.86,0,0,0-4.22,2.68c.21-.58.45-1.18.64-1.71a23.33,23.33,0,0,0,1.15-3.55c1.12-4.73-.14-9.65-.17-14.49a9.52,9.52,0,0,0-.8-4.28,26.36,26.36,0,0,1-2.43,4.42,6.45,6.45,0,0,0-.46.74,3.8,3.8,0,0,0-.29,1.1,15.57,15.57,0,0,1-1.68,4.58,19.08,19.08,0,0,0-1.83,3.31c-.47,1.48-.29,3.09-1,4.45a24.93,24.93,0,0,1-.15-2.72c-.21-2-1.71-3.84-3.15-5.51a9.85,9.85,0,0,1-1.16-1.42,33.41,33.41,0,0,1-1.4-3.12,12.81,12.81,0,0,0-2-2.7c-1-1.15-2.08-2.26-3.17-3.34A8.68,8.68,0,0,1,888.35,99c-.41-.68-.6-1.47-1-2.19a3.31,3.31,0,0,0-1.76-1.73C885.62,98.67,885.55,102.42,885.46,106.21Z"/><path class="cls-10" d="M654.42,95.61a5.24,5.24,0,0,0-1.24.31,4.59,4.59,0,0,0-1,.52c-.81.47-1.21,1.11-2.07,1.24l-.32.09c.05.07-.07.16-.2.16-.4.15-.84.16-1.24.32a3.78,3.78,0,0,0-.63.33c-.78.5-1.62,1-2.39,1.5-.36.28-.75.19-1,.48.81-1.68,1.6-3.39,2.39-5a10.9,10.9,0,0,1,.6-1.12c.21-.33.39-.59.57-.9a7.23,7.23,0,0,0,.86-2.14c.65-2.15,1.23-4.3,1.78-6.48a8.73,8.73,0,0,0,.23-1.34c.07-.81-.13-1.64,0-2.46a10.55,10.55,0,0,1,1-2.72,3.53,3.53,0,0,0,.28-2.77C650,78,649,81.32,646.24,83.09a4.9,4.9,0,0,0-1.08.84,10.72,10.72,0,0,0-.75,1.52,7.57,7.57,0,0,1-2,1.77,18.59,18.59,0,0,0-4.12,5,13.2,13.2,0,0,0-.87,1.61c-.44,1.34,0,2.87-.9,4-.08-1.73-.31-3.36-.53-5a8.17,8.17,0,0,0-.52-2.07c-.22-.53-.59-1-.82-1.54-.27-.76-.22-1.68-.76-2.3a2.79,2.79,0,0,1-.49-.54c-.23-.37-.08-.91-.16-1.35-.14-.75-.89-1.21-1.32-1.85a4.12,4.12,0,0,1-.45-1.56c-.31-1.79-.58-3.54-.85-5.35a18,18,0,0,0-.92,4.66,12.26,12.26,0,0,1-.1,1.35,18.14,18.14,0,0,0-.84,3.87c.05,1.06-.78,2.15-1,3.23s.17,1.94-.06,2.88c-.11.37-.28.72-.41,1.1a6.37,6.37,0,0,0,0,2.68,16.7,16.7,0,0,0,.2,1.87,17.24,17.24,0,0,0,2.53,5.55,20.49,20.49,0,0,0-2.09-2.18c-.34-.44-.83-.82-1.22-1.23a9.28,9.28,0,0,0-.82-.71,3.68,3.68,0,0,0-1.42-.58,4.08,4.08,0,0,1-1.5-.29c-.46-.26-.62-.79-1.12-1.1a6.86,6.86,0,0,0-1.5-.29c-1.19-.21-2.11-1.08-3.2-1.54-.91-.33-2.1-.43-2.53-1.24a33.11,33.11,0,0,0,2.65,4.28c1.64,2.25,3.56,4.3,4.75,6.87a7.12,7.12,0,0,0,.69,1.31,5.48,5.48,0,0,0,2.81,1.4c-2.42.36-4.89.77-7.34,1.27,1.7,1.34,3.56,2.72,5.87,3,1.34.22,2.65,0,3.87.08s2.55.29,3.86.3c-3,4.07-12.38,17.25-13.91,20.75l1.66.5s2.42-6.65,13-21c.07.26.12.5.2.77a14,14,0,0,0,4.34,6.1,12.54,12.54,0,0,0,4.46,2.07,3.26,3.26,0,0,1,1.62,1c.1.13.32.24.45.09.1-1.36-.69-2.36-1.12-3.56a15.1,15.1,0,0,0-.69-2.29,6.9,6.9,0,0,0-2.67-2.5c.53,0,1,.11,1.58.12,1.05.11,2.14.18,3.25.19,4.28-.08,8.59-1.82,12.91-2.75a10.38,10.38,0,0,0,3.82-1.34,27.91,27.91,0,0,1-4-.91c-.26-.07-.45-.15-.67-.19a3.16,3.16,0,0,0-1,0,12.61,12.61,0,0,1-4.15-.36,16.05,16.05,0,0,0-3.06-.66c-1.32-.06-2.75.37-4,.09.79-.3,1.65-.37,2.42-.63A12,12,0,0,0,651,105c.44-.35.77-.76,1.21-1.11a25.83,25.83,0,0,1,2.76-1.57,14.25,14.25,0,0,0,2.31-1.93c1-.92,1.9-1.87,2.83-2.87a11.66,11.66,0,0,1,1.3-1.23,17.27,17.27,0,0,1,1.89-1,3.17,3.17,0,0,0,1.43-1.55C661.21,94.37,657.8,95,654.42,95.61Z"/><path class="cls-1" d="M749,117.84a5.15,5.15,0,0,0-.93.7,6.16,6.16,0,0,0-.67.77c-.48.64-.53,1.32-1.21,1.76a1.35,1.35,0,0,1-.26.15c.07,0,0,.16,0,.23-.28.28-.67.41-1,.69a2.92,2.92,0,0,0-.42.51c-.45.69-.94,1.37-1.39,2-.23.32-.55.44-.68.77l-.44-5.09a7.2,7.2,0,0,1-.06-1.14c0-.31.06-.62.07-.93a8.27,8.27,0,0,0-.31-2.06c-.53-2-1.08-4.06-1.71-6.1a6.45,6.45,0,0,0-.45-1.23c-.37-.72-.94-1.34-1.28-2.09a11.19,11.19,0,0,1-.51-2.71,3.5,3.5,0,0,0-1.16-2.43c-.61,2.78.16,5.9-1.39,8.29a2.82,2.82,0,0,0-.55,1.06,11.12,11.12,0,0,0,.07,1.53,4.83,4.83,0,0,1-.91,2.18,13.89,13.89,0,0,0-1.16,5.57,6.5,6.5,0,0,0,.06,1.65c.27,1.3,1.46,2.42,1.24,3.73-1-1.41-2-2.77-3.06-4.1a8.6,8.6,0,0,0-1.55-1.58c-.51-.39-1.06-.64-1.54-1-.65-.54-1.09-1.34-1.86-1.67a4.87,4.87,0,0,1-.72-.28c-.39-.27-.53-.75-.82-1.1-.55-.62-1.42-.7-2.12-1.13a5.31,5.31,0,0,1-1.21-1.16c-1.17-1.41-2.3-2.82-3.47-4.23a17.69,17.69,0,0,0,1.55,4.27,7.92,7.92,0,0,1,.63,1.19c.47,1.16.55,2.49,1.24,3.56.59.86.39,2.07.75,3s1.14,1.58,1.42,2.49a9.81,9.81,0,0,1,.22,1,7,7,0,0,0,1.39,2.26,14.6,14.6,0,0,0,1.14,1.54,21.75,21.75,0,0,0,5.09,3.82,26.45,26.45,0,0,0-3.06-1.18c-.57-.2-1.17-.4-1.73-.63a8.91,8.91,0,0,0-1.12-.32,4.41,4.41,0,0,0-1.58,0,4.65,4.65,0,0,1-1.52.24c-.55-.1-1-.48-1.55-.54a6.26,6.26,0,0,0-1.48.24c-1.21.22-2.41-.25-3.65-.23-1,0-2.08.33-2.92-.21a42.53,42.53,0,0,0,4.56,2.76c2.62,1.36,5.42,2.45,7.76,4.25a8.64,8.64,0,0,0,1.29.88,6.78,6.78,0,0,0,3.19.38c-2,1.14-4,2.37-5.94,3.56,2.22.55,4.56,1.13,6.82.67a28.72,28.72,0,0,0,3.52-1.31c1.22-.41,2.46-.59,3.63-1-.56,4.43-2.35,18.79-1.9,22.28l1.73-.16s-1.24-6.45,1-22.24a6.42,6.42,0,0,0,.61.56,17.22,17.22,0,0,0,7.07,3.71,13.83,13.83,0,0,0,5.09.28,4.07,4.07,0,0,1,1.92.33c.17,0,.43.08.42-.08-.57-1.16-1.83-1.8-2.8-2.65a18.93,18.93,0,0,0-1.79-1.68A8.3,8.3,0,0,0,745,139.3c.49-.15,1-.29,1.51-.4,1-.28,2-.57,3-.92,3.81-1.48,6.8-4.45,10.2-6.65a8.72,8.72,0,0,0,2.7-2.48,21.39,21.39,0,0,1-4.12.57,5.85,5.85,0,0,0-.72.07,4.3,4.3,0,0,0-.9.35,14.54,14.54,0,0,1-3.94,1.09,17.94,17.94,0,0,0-3.09.42c-1.24.38-2.29,1.21-3.55,1.43a22.73,22.73,0,0,1,1.87-1.32,8.79,8.79,0,0,0,2.59-4.32,7.24,7.24,0,0,1,.53-1.36c.44-.81,1.16-1.47,1.67-2.27a9.77,9.77,0,0,0,1.07-2.4c.4-1.12.75-2.24,1.09-3.37a8.63,8.63,0,0,1,.51-1.48,12.8,12.8,0,0,1,1.18-1.54,2.36,2.36,0,0,0,.48-1.82C754.46,114.51,751.73,116.21,749,117.84Z"/><path class="cls-11" d="M543.86,137.53l1,.61a2.93,2.93,0,0,1,.64.72c.48.66.55,1.26,1.23,1.7a.78.78,0,0,1,.24.16c-.06,0,0,.13.06.17a4.75,4.75,0,0,0,1,.6,2.18,2.18,0,0,1,.42.49c.49.65,1,1.3,1.45,2,.24.29.52.38.71.76.09-1.66.18-3.32.33-5a7.62,7.62,0,0,0,0-1.17l-.12-.9a7.45,7.45,0,0,1,.29-2c.48-2.05,1-4,1.54-6.05a7.25,7.25,0,0,1,.43-1.21c.34-.73.91-1.36,1.25-2.11a9.15,9.15,0,0,0,.4-2.65,3.35,3.35,0,0,1,1-2.47c.64,2.67,0,5.78,1.57,8.07a3.85,3.85,0,0,1,.6,1,7.14,7.14,0,0,1-.07,1.53,5.45,5.45,0,0,0,.9,2.08,13,13,0,0,1,1.25,5.42,4.52,4.52,0,0,1,0,1.64c-.27,1.28-1.39,2.42-1.14,3.72.91-1.36,1.93-2.77,2.9-4.15a12.58,12.58,0,0,1,1.46-1.63,16.55,16.55,0,0,0,1.47-1.06,8.44,8.44,0,0,1,1.76-1.72,4.13,4.13,0,0,0,.75-.32c.37-.25.53-.75.8-1.09.51-.61,1.38-.72,2.07-1.21a4.42,4.42,0,0,0,1.16-1.2c1.13-1.44,2.2-2.86,3.36-4.31a17.24,17.24,0,0,1-1.43,4.26,10.58,10.58,0,0,0-.62,1.26c-.46,1.16-.46,2.48-1.14,3.56-.55.88-.35,2.07-.68,3s-1.1,1.56-1.38,2.47c-.08.34-.1.67-.18,1a6.35,6.35,0,0,1-1.32,2.33c-.44.59-.62,1-1.09,1.56a21,21,0,0,1-5,4,26.56,26.56,0,0,1,3-1.26c.59-.2,1.15-.45,1.74-.65a7.27,7.27,0,0,1,1.11-.38,4.21,4.21,0,0,1,1.54-.08,5.41,5.41,0,0,0,1.5.18c.54-.12,1-.47,1.49-.57a3.9,3.9,0,0,1,1.52.18c1.12.18,2.38-.31,3.6-.35,1,0,2,.25,2.9-.29a46,46,0,0,1-4.43,2.88c-2.58,1.45-5.31,2.63-7.56,4.46-.41.32-.83.65-1.25.92a6.41,6.41,0,0,1-3.15.51l6,3.25c-2.2.62-4.52,1.28-6.76.84a24.65,24.65,0,0,1-3.54-1.12c-1.18-.35-2.45-.48-3.63-.88.68,4.29,2.71,18.36,2.36,21.75l-1.73-.1s1.09-6.4-1.43-21.69l-.58.56a18.49,18.49,0,0,1-6.89,3.92,13.89,13.89,0,0,1-5,.44,4.17,4.17,0,0,0-1.91.33c-.17.06-.43.08-.41-.05.54-1.12,1.81-1.81,2.69-2.67a14.22,14.22,0,0,1,1.75-1.72,8.27,8.27,0,0,1,3.61-1.29c-.5-.15-1-.24-1.49-.37-1-.23-2-.46-3-.8-3.84-1.33-6.8-4.1-10.25-6.19a7.9,7.9,0,0,1-2.72-2.25,25.94,25.94,0,0,0,4.13.43,4.49,4.49,0,0,1,.73.06,3.75,3.75,0,0,1,.9.33,16.25,16.25,0,0,0,3.89.94,17.12,17.12,0,0,1,3,.15,22.69,22.69,0,0,0,3.59,1.23,21.65,21.65,0,0,0-1.92-1.24,8.36,8.36,0,0,1-2.64-4.12,5.69,5.69,0,0,0-.58-1.31c-.45-.79-1.19-1.41-1.72-2.19a8.61,8.61,0,0,1-1.1-2.31,27.36,27.36,0,0,1-1.11-3.27,10.64,10.64,0,0,0-.57-1.45c-.3-.52-.78-1-1.14-1.49a2.32,2.32,0,0,1-.54-1.77C538.4,134.49,541.13,136,543.86,137.53Z"/><path class="cls-1" d="M483.88,94.83a5.22,5.22,0,0,0,1-.81,7.1,7.1,0,0,0,.73-.91c.56-.77.59-1.63,1.37-2.14a1,1,0,0,0,.25-.2c-.08,0,0-.21,0-.26.3-.31.73-.47,1-.77a5.5,5.5,0,0,0,.47-.61c.52-.87,1.08-1.68,1.58-2.54.26-.41.6-.51.73-1,0,2.14.1,4.27.15,6.41v1.47a8.68,8.68,0,0,1-.13,1.17,10.71,10.71,0,0,0,.22,2.65c.43,2.59.92,5.17,1.43,7.77.14.51.23,1.06.4,1.57.34,1,.9,1.73,1.2,2.7a13.06,13.06,0,0,1,.36,3.41,5,5,0,0,0,1,3.15c.8-3.47.19-7.43,1.91-10.39a3.8,3.8,0,0,0,.64-1.27,15.54,15.54,0,0,0,0-1.93,7.31,7.31,0,0,1,1.16-2.61,20.1,20.1,0,0,0,1.5-7,9.74,9.74,0,0,0,0-2.09c-.22-1.61-1.38-3.09-1.09-4.72.92,1.83,1.91,3.6,2.94,5.33a10,10,0,0,0,1.51,2.09c.47.51,1.08.85,1.51,1.36.64.71,1,1.78,1.81,2.24a3.1,3.1,0,0,1,.73.41,5.46,5.46,0,0,1,.78,1.42c.51.81,1.41,1,2.14,1.57a6,6,0,0,1,1.17,1.52c1.12,1.83,2.25,3.7,3.37,5.54a26.77,26.77,0,0,0-1.34-5.5,9.56,9.56,0,0,1-.62-1.56,25.1,25.1,0,0,0-1.08-4.53c-.56-1.17-.26-2.59-.6-3.86s-1.09-2-1.35-3.21c-.08-.46-.08-.86-.17-1.32a8.23,8.23,0,0,0-1.3-3c-.43-.71-.6-1.32-1.08-2a23.54,23.54,0,0,0-5.08-5.13,28,28,0,0,0,3.1,1.67c.6.3,1.16.61,1.76.86a11,11,0,0,0,1.16.51,3.5,3.5,0,0,0,1.64.09,4.49,4.49,0,0,1,1.59-.2c.56.15,1,.66,1.59.76a4.07,4.07,0,0,0,1.55-.21c1.24-.2,2.49.46,3.78.5,1,0,2.19-.31,3.05.4a40.6,40.6,0,0,0-4.57-3.7c-2.66-1.88-5.5-3.39-7.83-5.78a16.48,16.48,0,0,0-1.29-1.22,5.79,5.79,0,0,0-3.31-.66c2.14-1.27,4.33-2.61,6.44-4.08-2.33-.8-4.7-1.66-7.11-1.2a26.8,26.8,0,0,0-3.77,1.43c-1.29.47-2.58.62-3.82,1.08.85-5.55,3.51-23.5,3.25-27.92l-1.81.11s.92,8.19-2.3,27.93c-.18-.26-.39-.51-.61-.77a17.52,17.52,0,0,0-7.14-5.08,11.84,11.84,0,0,0-5.28-.6,3.57,3.57,0,0,1-2-.5c-.19-.1-.44-.15-.43.1.51,1.48,1.8,2.34,2.75,3.5.6.71,1.12,1.58,1.77,2.24A8.27,8.27,0,0,0,489,68.23c-.52.15-1.08.3-1.59.4a23.37,23.37,0,0,0-3.17,1c-4,1.64-7.34,5.21-11,7.81a10,10,0,0,0-3,2.85,25.34,25.34,0,0,1,4.34-.52,3.3,3.3,0,0,0,.77,0,3,3,0,0,0,1-.36,12.24,12.24,0,0,1,4.11-1.15,16.66,16.66,0,0,0,3.23-.37c1.29-.41,2.45-1.37,3.82-1.59a22.46,22.46,0,0,1-2,1.59c-1.45,1.22-2.27,3.31-3,5.3a12,12,0,0,1-.65,1.63c-.52,1-1.29,1.78-1.88,2.74a13.93,13.93,0,0,0-1.29,3c-.46,1.38-.89,2.76-1.32,4.18a9.24,9.24,0,0,1-.64,1.83c-.34.71-.9,1.22-1.29,1.88a3.27,3.27,0,0,0-.6,2.24C478,98.74,481,96.78,483.88,94.83Z"/><path class="cls-10" d="M983.47,88.45a2.44,2.44,0,0,0,.54,0l.45-.1c.35-.11.52-.36.9-.32l.15,0s0,0,0,0c.18,0,.36,0,.54,0s.44-.19.68-.17l.49-.17c.22-.27.45-.13.65-.23-.36.66-.71,1.32-1.06,2a2.82,2.82,0,0,1-.26.44,2.69,2.69,0,0,0-.27.32A3.22,3.22,0,0,0,986,91c-.28.9-.55,1.79-.78,2.69a2.62,2.62,0,0,0-.12.57c0,.35.05.74,0,1.11a3.32,3.32,0,0,1-.46,1.12,1.65,1.65,0,0,0-.13,1.19c.92-.84,1.36-2.2,2.54-2.69a1.35,1.35,0,0,0,.48-.24c.18-.16.22-.4.34-.58a2.18,2.18,0,0,1,.87-.56,5.35,5.35,0,0,0,1.8-1.74,3.18,3.18,0,0,0,.38-.64c.18-.54,0-1.27.4-1.69.05.77.12,1.55.22,2.32a3.38,3.38,0,0,0,.22,1c.11.27.26.52.35.79a3.4,3.4,0,0,0,.31,1.1,1.66,1.66,0,0,1,.22.3,2.18,2.18,0,0,1,.06.61c.06.37.4.65.59,1a2,2,0,0,1,.18.76c.12.82.25,1.65.34,2.48a7.19,7.19,0,0,0,.42-2.14v-.24a16.9,16.9,0,0,0,.39-1.85c0-.49.35-.85.42-1.32s-.07-.87,0-1.29c0-.17.12-.29.16-.45a2.79,2.79,0,0,0,0-1.22,4.12,4.12,0,0,0-.09-.86,10.43,10.43,0,0,0-1.08-2.78c.28.43.59.83.91,1.25.18.23.35.46.54.68s.23.29.36.43a2.19,2.19,0,0,0,.62.42,2.07,2.07,0,0,1,.66.34c.19.16.28.42.48.61a2.56,2.56,0,0,0,.65.3,12.37,12.37,0,0,1,1.38,1.06c.4.26.9.43,1.1.84a18.32,18.32,0,0,0-1.12-2.21,24.59,24.59,0,0,1-2-3.63,4,4,0,0,0-.3-.67,3.39,3.39,0,0,0-1.18-1c1.07.11,2.13.2,3.21.28a7.86,7.86,0,0,0-2.55-2.05c-.57-.23-1.15-.3-1.72-.47s-1.11-.43-1.68-.58A88.17,88.17,0,0,0,999.31,76a.4.4,0,0,0-.17-.54h0a.34.34,0,0,0-.47.07.21.21,0,0,0,0,.06,37,37,0,0,1-5.6,7.59,2.42,2.42,0,0,0-.1-.36,8.48,8.48,0,0,0-1.87-3.24,7.2,7.2,0,0,0-1.94-1.44,2,2,0,0,1-.69-.62c-.06,0-.16-.13-.19-.09a4.59,4.59,0,0,0,.46,1.7,10,10,0,0,0,.29,1.11,4.55,4.55,0,0,0,1.15,1.42l-.69-.25a12.7,12.7,0,0,0-1.4-.45c-1.86-.47-3.75-.17-5.64-.26a4.1,4.1,0,0,0-1.63.14,13.14,13.14,0,0,1,1.76.88,1.35,1.35,0,0,0,.29.16c.1,0,.29.08.44.13a7.2,7.2,0,0,1,1.81.63,7.65,7.65,0,0,0,1.31.66,13.28,13.28,0,0,1,1.76.43,9.33,9.33,0,0,1-1.06,0,3.72,3.72,0,0,0-2.05.91,6.18,6.18,0,0,1-.53.36c-.37.19-.81.23-1.21.39a4.15,4.15,0,0,0-1,.6l-1.25,1a2.22,2.22,0,0,1-.57.39,7.81,7.81,0,0,1-.82.26.93.93,0,0,0-.63.53C980.53,88.23,982,88.33,983.47,88.45Z"/><path class="cls-1" d="M272.38,110.67a2.28,2.28,0,0,0-.58.58,1.7,1.7,0,0,0-.31.65c-.25.51-.17,1-.57,1.42l-.17.14a.18.18,0,0,1,0,.16c-.14.24-.44.35-.58.59a2.39,2.39,0,0,0-.2.43l-.65,1.68c-.1.29-.3.38-.35.67-.38-1.32-.8-2.61-1.16-3.95a7.28,7.28,0,0,1-.23-.92,4.88,4.88,0,0,0-.12-.75,7,7,0,0,0-.6-1.6q-1.11-2.34-2.24-4.61c-.16-.32-.34-.64-.53-.94a16.24,16.24,0,0,1-1.25-1.57,9.5,9.5,0,0,1-.82-2.07,3.32,3.32,0,0,0-1.22-1.82c0,2.19,1.09,4.59.42,6.55a2.93,2.93,0,0,0-.22.82,4.62,4.62,0,0,0,.33,1.17,3.39,3.39,0,0,1-.28,1.72,12.11,12.11,0,0,0,.13,4.45,5.88,5.88,0,0,0,.32,1.3c.42.94,1.42,1.8,1.52,2.82-.92-1-1.9-2.06-2.89-3a10.44,10.44,0,0,0-1.35-1.14c-.42-.24-.84-.43-1.29-.73a7.5,7.5,0,0,0-1.61-1.18,3.93,3.93,0,0,1-.58-.19,8.63,8.63,0,0,1-.8-.8c-.48-.46-1.14-.45-1.72-.78a4,4,0,0,1-1.05-.84c-1.06-1-2.18-2.11-3.19-3.11a17.75,17.75,0,0,0,1.81,3.24,7.32,7.32,0,0,1,.69.87,18.25,18.25,0,0,0,1.47,2.67c.54.67.61,1.6,1.08,2.32a23.41,23.41,0,0,1,1.46,1.83,6.27,6.27,0,0,1,.34.77,6.41,6.41,0,0,0,1.36,1.71c.41.39.62.78,1.09,1.16a19.43,19.43,0,0,0,4.31,2.74c-.79-.3-1.6-.56-2.37-.79l-1.34-.36a3.42,3.42,0,0,0-.88-.21,2,2,0,0,0-1.12.11,3.57,3.57,0,0,1-1.07.26c-.39,0-.78-.29-1.19-.33a2.24,2.24,0,0,0-1,.3,12.79,12.79,0,0,1-2.63,0c-.9.06-1.54.4-2.21,0A35.12,35.12,0,0,0,252,124a40.86,40.86,0,0,1,6.26,2.9,5.14,5.14,0,0,0,1.1.61,5,5,0,0,0,2.36.14q-1.87,1.49-3.64,3.09a10.12,10.12,0,0,0,5,.13,25.88,25.88,0,0,0,2.34-1.21c.8-.38,1.66-.61,2.43-1,.36,3.48,1.53,14.77,2.39,17.46l1.22-.2s-2-5-3.06-17.38a2.09,2.09,0,0,0,.55.42,14.26,14.26,0,0,0,5.67,2.5,9.36,9.36,0,0,0,3.69-.07,2.58,2.58,0,0,1,1.4.16c.13,0,.33.08.3-.1a9,9,0,0,0-2.44-1.9c-.54-.41-1-.87-1.57-1.22a6.4,6.4,0,0,0-2.84-.73l1-.38c.66-.26,1.36-.56,2-.86,2.47-1.4,4.08-3.84,6.18-5.78a5,5,0,0,0,1.53-2,13.27,13.27,0,0,1-2.84.71,3.1,3.1,0,0,0-.53.1,1.4,1.4,0,0,0-.57.32,7.17,7.17,0,0,1-2.62,1,10.38,10.38,0,0,0-2.13.53,13.86,13.86,0,0,1-2.31,1.31c.31-.43.77-.74,1.12-1.14a6.22,6.22,0,0,0,1.1-3.44l.13-1.07a18.78,18.78,0,0,1,.8-1.91,7.57,7.57,0,0,0,.37-1.93c.06-.89.16-1.82.18-2.7a3.93,3.93,0,0,1,.13-1.13c.14-.45.38-.84.56-1.3a1.56,1.56,0,0,0,0-1.44C275.71,107.88,274.06,109.26,272.38,110.67Z"/><path class="cls-12" d="M251.82,64.27a5.05,5.05,0,0,1,1,.07,3.1,3.1,0,0,1,.84.29c.65.26,1,.78,1.69.72.06,0,.19,0,.25,0s.08.11.15.17c.31.06.66,0,1,.06s.72.33,1.08.38l1.4.71c.34.25.68.12,1,.38-.72-1.38-1.39-2.81-2.12-4.15l-.51-.93c-.16-.23-.32-.45-.49-.74a6.15,6.15,0,0,1-.74-1.75c-.62-1.92-1.12-3.75-1.7-5.66a6.51,6.51,0,0,1-.23-1c-.07-.74,0-1.51-.08-2.24a8.55,8.55,0,0,0-1-2.34,3.34,3.34,0,0,1-.3-2.46c1.78,1.89,2.69,4.67,5,5.77a3.07,3.07,0,0,1,.93.53,8,8,0,0,1,.7,1.2,4.7,4.7,0,0,0,1.66,1.27,12.54,12.54,0,0,1,3.5,3.79,5.93,5.93,0,0,1,.77,1.31c.37,1.12.08,2.55.84,3.49.05-1.51.13-3.07.29-4.63a7.5,7.5,0,0,1,.38-1.94,10.64,10.64,0,0,0,.64-1.56,7.78,7.78,0,0,1,.54-2.12,4.24,4.24,0,0,0,.38-.56,4.17,4.17,0,0,0,.09-1.22,7.08,7.08,0,0,1,1-1.87,5.44,5.44,0,0,0,.33-1.5c.2-1.66.35-3.25.54-4.91a15.94,15.94,0,0,1,.89,4,8.48,8.48,0,0,0,.09,1.23c.2,1.16.81,2.18.77,3.38,0,.94.67,1.76.9,2.72s-.06,1.77.15,2.62l.33.87a6.63,6.63,0,0,1,.12,2.43,16.59,16.59,0,0,1-.13,1.72A22.49,22.49,0,0,1,272,67.3,26.42,26.42,0,0,1,273.63,65c.34-.45.63-.87,1-1.31a4.5,4.5,0,0,1,.64-.8,3.24,3.24,0,0,1,1.15-.7,3.29,3.29,0,0,0,1.23-.53c.38-.32.52-.84.89-1.17s.78-.32,1.18-.52c.95-.34,1.64-1.3,2.56-1.88.77-.45,1.69-.73,2-1.54a28.44,28.44,0,0,1-2.06,4.18,42,42,0,0,0-3.63,6.9,5.86,5.86,0,0,1-.5,1.28,5.22,5.22,0,0,1-2.19,1.78c2,0,4-.07,6,0a12.78,12.78,0,0,1-4.73,3.7A31.36,31.36,0,0,1,274,75c-1.1.25-2.06.67-3.16.92,2.34,3,9.54,12.14,11.6,15.73a.71.71,0,0,1-.18,1,.41.41,0,0,1-.11.07h0a.71.71,0,0,1-1-.31v0c-.85-1.8-3.71-7.19-11-16.15L270,77a15.23,15.23,0,0,1-3.4,6.17A12.13,12.13,0,0,1,263,85.73a3.18,3.18,0,0,0-1.25,1.16c-.1.14-.27.23-.35.12-.14-1.16.47-2.21.8-3.4a12.92,12.92,0,0,1,.54-2.12,7.85,7.85,0,0,1,2.13-2.69,10,10,0,0,1-1.33.36,20.2,20.2,0,0,1-2.66.64c-3.51.62-7.15-.26-10.63-.4a8.46,8.46,0,0,1-3.15-.58,23.26,23.26,0,0,0,3.31-1.46l.55-.28a3.28,3.28,0,0,1,.82-.14,11.16,11.16,0,0,0,3.39-1,13.34,13.34,0,0,1,2.47-1.11,22.73,22.73,0,0,0,3.28-.57,17.68,17.68,0,0,0-2.06-.15A7.82,7.82,0,0,1,254.94,72a6.45,6.45,0,0,0-1-.76c-.74-.44-1.55-.61-2.29-1a7.6,7.6,0,0,1-1.92-1.36c-.84-.67-1.63-1.41-2.39-2.09a5.19,5.19,0,0,0-1.16-.82,12,12,0,0,0-1.56-.67,2.27,2.27,0,0,1-1.21-1.17C246.26,64.23,249.05,64.25,251.82,64.27Z"/><path class="cls-13" d="M403.54,75.62a2.12,2.12,0,0,1-.11-.61,2.8,2.8,0,0,1,.08-.57c.11-.45.42-.76.29-1.18l0-.18a.2.2,0,0,0,.1-.08c0-.2-.13-.42-.1-.61a.86.86,0,0,1,.06-.39c.1-.45.26-.91.36-1.38.09-.2-.06-.36.09-.57-.91.65-1.81,1.32-2.7,2-.22.17-.43.32-.59.47a4.28,4.28,0,0,0-.4.45,4.32,4.32,0,0,1-1.2.77c-1.27.71-2.54,1.37-3.82,2-.28.11-.56.28-.83.4-.52.2-1.11.24-1.68.46a5.43,5.43,0,0,0-1.61,1,3.17,3.17,0,0,1-1.76.68c1.08-1.43,3-2.54,3.47-4.1a3.09,3.09,0,0,1,.25-.66,4.5,4.5,0,0,1,.8-.64,3.68,3.68,0,0,0,.63-1.23,8.48,8.48,0,0,1,2.22-2.82,4.45,4.45,0,0,1,.9-.72c.77-.44,1.93-.57,2.45-1.17-1.17.26-2.33.53-3.44.72a5.69,5.69,0,0,1-1.48.11c-.43,0-.81-.1-1.23-.1a7.18,7.18,0,0,1-1.67.1c-.19,0-.32-.14-.5-.11a4.87,4.87,0,0,1-1,.17,6.26,6.26,0,0,1-1.55-.24,3.57,3.57,0,0,0-1.13.07l-3.73.63a13.58,13.58,0,0,1,2.82-1.3c.28-.11.64-.17,1-.28a15.54,15.54,0,0,1,2.34-1.09,13,13,0,0,0,1.85-1.06c.61-.3,1.33-.29,1.93-.58.23-.1.38-.25.6-.36a6.56,6.56,0,0,1,1.8-.48c.46-.08.8-.2,1.27-.28a18.2,18.2,0,0,1,4.3.09c-.68-.15-1.36-.32-2-.53a6.57,6.57,0,0,0-1.13-.32c-.25-.08-.45-.18-.71-.25a3.22,3.22,0,0,1-.76-.57,2.28,2.28,0,0,0-.59-.65c-.27-.14-.68-.13-1.06-.31s-.38-.45-.59-.59c-.44-.5-1.27-.73-1.83-1.21s-.81-.87-1.48-.93a33.21,33.21,0,0,1,3.51.42,39.65,39.65,0,0,0,5.75.84,5,5,0,0,1,1,.08,3.7,3.7,0,0,1,1.68,1c-.38-1.19-.71-2.39-1-3.58a7.85,7.85,0,0,1,3.49,2.1,12,12,0,0,1,1,1.77c.35.63.85,1.1,1.2,1.73,1.93-2.14,8.25-9,10.2-10.3l.71.69s-3.81,2.4-10.61,10c.18,0,.37,0,.54,0a13,13,0,0,1,5.14.81,7.94,7.94,0,0,1,2.5,1.61,2.39,2.39,0,0,0,1.11.56c.13,0,.25.09.15.17a7.45,7.45,0,0,1-2.62.19,15.77,15.77,0,0,1-1.68.1,5.78,5.78,0,0,1-2.29-.75c.16.23.32.46.49.74a12.3,12.3,0,0,1,.9,1.47c1.06,2,1,4.29,1.46,6.46a3.71,3.71,0,0,1,.1,2,10.11,10.11,0,0,0-1.61-1.66,1.44,1.44,0,0,1-.28-.27,1.75,1.75,0,0,1-.26-.46,6.59,6.59,0,0,0-1.32-1.81,8.34,8.34,0,0,1-1.18-1.27c-.41-.62-.46-1.3-1-1.86,0,.43.2.78.21,1.21a5,5,0,0,1-.88,2.82,4.28,4.28,0,0,0-.41.76,13.87,13.87,0,0,0-.35,1.55,7.42,7.42,0,0,1-.66,1.43A18.5,18.5,0,0,1,406.21,78a3.56,3.56,0,0,0-.47.83c-.12.33-.12.71-.24,1.05a1.38,1.38,0,0,1-.69.94C404.39,78.93,404,77.24,403.54,75.62Z"/><path class="cls-10" d="M808.15,255.4a3.94,3.94,0,0,0,0-.84,2,2,0,0,0-.14-.71c-.13-.55-.46-.89-.41-1.48a.74.74,0,0,0,0-.21l-.06-.15c0-.27.07-.52,0-.84a1.52,1.52,0,0,0-.1-.46c-.14-.6-.31-1.13-.45-1.73a6,6,0,0,0-.11-.72c.87.8,1.79,1.59,2.65,2.33a3.72,3.72,0,0,1,.6.59,6.81,6.81,0,0,1,.45.53,4.13,4.13,0,0,0,1.13.86c1.19.78,2.4,1.5,3.62,2.22a5.57,5.57,0,0,0,.76.41,12.66,12.66,0,0,1,1.54.46,8.53,8.53,0,0,1,1.51,1.09,2.37,2.37,0,0,0,1.61.67c-1.1-1.71-2.93-2.92-3.54-4.88a2.63,2.63,0,0,0-.32-.8c-.21-.3-.51-.45-.77-.77a3.68,3.68,0,0,1-.71-1.54A11.52,11.52,0,0,0,813.2,246a4.3,4.3,0,0,0-.83-.82c-.77-.51-1.74-.51-2.27-1.25,1.07.23,2.11.41,3.14.55a5.23,5.23,0,0,0,1.37.06c.35,0,.71-.18,1.07-.21s1.09.17,1.5-.06l.44-.18c.16-.06.56.11.86.15.48.09.87-.34,1.34-.43a2.32,2.32,0,0,1,1.08,0l3.41.44a11.66,11.66,0,0,0-2.7-1.38c-.27-.1-.57-.16-.85-.26a10.86,10.86,0,0,0-2.23-1.18c-.82-.17-1.17-.85-1.76-1.16s-1.18-.24-1.76-.56l-.59-.42a4,4,0,0,0-1.63-.5c-.43,0-.73-.2-1.17-.24a12.32,12.32,0,0,0-3.86.56,13.43,13.43,0,0,0,1.72-.91l.87-.55a3.4,3.4,0,0,0,.59-.4,2.1,2.1,0,0,0,.57-.78,3.32,3.32,0,0,1,.45-.84c.2-.19.59-.23.87-.52s.28-.54.45-.83a14.82,14.82,0,0,1,1.48-1.68c.36-.47.6-1.18,1.21-1.37a23,23,0,0,0-3.08.86,23.11,23.11,0,0,1-5,1.64,5.19,5.19,0,0,0-.93.21,3.61,3.61,0,0,0-1.39,1.38c.21-1.56.38-3.11.52-4.71a8.56,8.56,0,0,0-2.91,3,23.81,23.81,0,0,0-.72,2.36c-.26.82-.64,1.52-.87,2.32-1.91-2.46-8.31-10.67-10.13-12.09l-.59.94s3.62,2.67,10.48,11.69a1.74,1.74,0,0,1-.51,0,9.09,9.09,0,0,0-4.52,1.59,8,8,0,0,0-2,2.36,1.92,1.92,0,0,1-.9.79c-.07,0-.19.2-.11.28a5.58,5.58,0,0,0,2.37-.09c.49,0,1.09,0,1.52,0a4.58,4.58,0,0,0,2-1.17c-.11.31-.26.64-.36,1a16.76,16.76,0,0,0-.71,1.92c-.7,2.64-.42,5.55-.63,8.36a7,7,0,0,0,.13,2.53,17.66,17.66,0,0,1,1.29-2.33c.08-.14.18-.23.27-.38a2.51,2.51,0,0,0,.17-.61,8.16,8.16,0,0,1,1-2.47,13.7,13.7,0,0,0,1-1.7,13.26,13.26,0,0,1,.69-2.44c0,.54-.07,1.11,0,1.62a7.26,7.26,0,0,0,1.15,3.43,9.37,9.37,0,0,1,.44.9,14.71,14.71,0,0,1,.47,2,9.14,9.14,0,0,0,.75,1.73c.39.77.82,1.48,1.26,2.23a5.28,5.28,0,0,1,.5,1c.17.42.17.92.3,1.35a2,2,0,0,0,.7,1.15C807.72,259.74,808,257.55,808.15,255.4Z"/><path class="cls-14" d="M419.43,368.88q.12.31.27.63a1.28,1.28,0,0,0,.37.4c.33.35.75.35.93.8v.18c0,.06.09,0,.14,0,.13.17.13.45.27.62s.19.18.28.29c.37.28.74.62,1.11.9.19.12.2.35.43.46-1.07.12-2.13.18-3.2.3-.23,0-.5.06-.74.06s-.37-.06-.55-.06a5.45,5.45,0,0,0-1.34.23c-1.35.35-2.69.69-4,1.09a4.83,4.83,0,0,0-.83.3c-.51.23-1,.63-1.48.8a8.69,8.69,0,0,1-1.76.34,3.22,3.22,0,0,0-1.67.75c1.62.39,3.66-.12,5,.91a1.79,1.79,0,0,0,.55.33,5.57,5.57,0,0,0,1,0,2.31,2.31,0,0,1,1.21.57,7,7,0,0,0,3.29.73,2.82,2.82,0,0,0,1-.06c.84-.17,1.72-.91,2.46-.81-1,.64-2,1.27-3,2a12.72,12.72,0,0,0-1.2,1c-.27.34-.54.68-.82,1a6.72,6.72,0,0,0-1.3,1.2,2.6,2.6,0,0,1-.28.45,4.08,4.08,0,0,1-.78.52,5.42,5.42,0,0,0-1,1.37,3.89,3.89,0,0,1-.87.8c-1,.75-2.08,1.5-3.1,2.24a13.2,13.2,0,0,0,2.87-1,5.43,5.43,0,0,1,.84-.41,11.72,11.72,0,0,0,2.36-.8c.65-.4,1.34-.23,2-.53a15.07,15.07,0,0,1,1.7-.91,2.83,2.83,0,0,1,.7-.11,5.18,5.18,0,0,0,1.62-.87,8.31,8.31,0,0,0,1.11-.75,18.43,18.43,0,0,0,3-3.31c-.41.63-.77,1.31-1.14,2-.19.4-.42.74-.61,1.14a4.35,4.35,0,0,0-.37.75,4.27,4.27,0,0,0-.23,1,3.72,3.72,0,0,1,0,1c-.14.34-.42.63-.56,1a3.35,3.35,0,0,0,0,1,15.53,15.53,0,0,1-.63,2.34,4.44,4.44,0,0,1-.51,1.89,35.06,35.06,0,0,0,2.3-3,54.31,54.31,0,0,1,3.65-5,10,10,0,0,0,.74-.85,4.69,4.69,0,0,0,.64-2.06c.42,1.31.89,2.57,1.4,3.89a11.33,11.33,0,0,0,1.28-4.47,19.71,19.71,0,0,0-.32-2.29c-.09-.8,0-1.6-.15-2.34,2.69.34,11.35,1.52,13.53,1.23l.13-1.15s-4.16.81-13.61-.6a2.21,2.21,0,0,0,.41-.4,14.32,14.32,0,0,0,3.23-4.58,9.28,9.28,0,0,0,.83-3.32,2.67,2.67,0,0,1,.46-1.25c0-.12.09-.29,0-.29-.79.34-1.34,1.21-2,1.84-.41.4-.91.74-1.28,1.14a7.54,7.54,0,0,0-1.25,2.4c0-.34-.05-.62-.05-1a14.14,14.14,0,0,0-.18-1.94c-.43-2.46-1.82-4.39-2.76-6.62a4,4,0,0,0-1.11-1.77,17.16,17.16,0,0,1-.18,2.68,1.77,1.77,0,0,0,0,.46,2.71,2.71,0,0,0,.09.57,7.4,7.4,0,0,1,.15,2.57,16.65,16.65,0,0,0-.13,2,18.65,18.65,0,0,1,.42,2.35,13,13,0,0,1-.55-1.2,4.08,4.08,0,0,0-2.33-1.65,3.31,3.31,0,0,1-.74-.34,14.34,14.34,0,0,1-1.25-1.09,4,4,0,0,0-1.34-.68l-1.95-.68a4.66,4.66,0,0,1-.83-.34c-.32-.23-.51-.52-.79-.75a1.39,1.39,0,0,0-1.07-.34C418.05,365.34,418.77,367.11,419.43,368.88Z"/></svg>