<svg id="图层_1" data-name="图层 1" xmlns="http://www.w3.org/2000/svg" viewBox="0 0 1128.81 390.5"><defs><style>.cls-1{fill:#3fa8f4;}.cls-2{fill:#7ac843;}.cls-3{fill:#009145;}.cls-4{fill:#39b44a;}.cls-5{fill:#006837;}.cls-6{fill:#ffcb1e;}.cls-7{fill:#0071bb;}.cls-8{fill:#f05a24;}.cls-9{fill:#c0272d;}.cls-10{fill:#c59b6d;}.cls-11{fill:#ff921e;}.cls-12{fill:#f6921e;}.cls-13{fill:#ec1c24;}.cls-14{fill:#754c24;}.cls-15{fill:#00a89c;}.cls-16{fill:#c6b198;}.cls-17{fill:#ff7bab;}</style></defs><path class="cls-1" d="M565.39,334a125.32,125.32,0,0,0,12.17,3.14,156.51,156.51,0,0,0,16.79,2.49c-1.51-1.79-3.35-3.89-5.08-5.63Z" transform="translate(-0.19 0.26)"/><path class="cls-1" d="M611.83,334c-1.35,1.53-2.79,2.78-3.33,5.5l-2.37.86c4.62.15,9.18.13,13.67,0l4.09-6.37Z" transform="translate(-0.19 0.26)"/><path class="cls-1" d="M675.68,335.63a14.36,14.36,0,0,1-1.61,1.35c9.66-.13,18.44.61,26.08,3.26,6,2.06,11.32,5.32,14.32,10.6q5.55-8.5,11.36-16.84H677.36Z" transform="translate(-0.19 0.26)"/><path class="cls-1" d="M826.6,339.82c7.15,3.48,14.46,7.08,19.93,12.86s7.2,12,6.55,18.15a161.31,161.31,0,0,0,34.5,3.67,39.27,39.27,0,0,1-3.27-3.16A69.91,69.91,0,0,1,877,361.06a12.79,12.79,0,0,1-2.15-4.76,11.78,11.78,0,0,1,.86-5.44,71.82,71.82,0,0,1,4.6-10.71q.27-.52.57-1a35.35,35.35,0,0,1-5-5.1H814.64Z" transform="translate(-0.19 0.26)"/><path class="cls-1" d="M1104.47,334c.19.07.39.13.58.21a9.93,9.93,0,0,1,4.59,3.62,12.13,12.13,0,0,1,1.69,4.69c.87,5-.82,13.76-5.47,17.82a13.77,13.77,0,0,1,1.33,2.59c2.17,5.61.62,12.11-2.6,17.19a46.93,46.93,0,0,1-9.29,10.12H1129V334Z" transform="translate(-0.19 0.26)"/><path class="cls-1" d="M1082.21,359.27a14.82,14.82,0,0,1,10.11-5.52,28.88,28.88,0,0,1-.48-9.42c.54-4.11,2.23-8.57,6-10.25l.22-.08h-41.57c-.55,4.34-2,10.26-4.39,14.36a20.31,20.31,0,0,1,4.91,9.17c3,10.75,1.18,22-1,32.71h14.34c.77-8.47,5.85-18.94,8.73-25.3A28,28,0,0,1,1082.21,359.27Z" transform="translate(-0.19 0.26)"/><path class="cls-1" d="M297.42,320.68a46.44,46.44,0,0,1-12.49-1,58.89,58.89,0,0,1-7.1-2.06l-68.41-.16c5.42,1.71,9.83,3.86,12.76,6.43,11.33,9.94-4.53,21.33,7.58,27.57,11.58,6,29.54-2.64,65-.24a33.2,33.2,0,0,1,2.67-30.55Z" transform="translate(-0.19 0.26)"/><path class="cls-1" d="M60.6,339.5c14.61,5.62,28.53,2.56,40.58.8,5.15-7.75,13.37-14.93,26.95-19.84,3.31-1.2,6.79-2.24,10.37-3.15l-101.94-.23C41.19,325.37,47.63,334.5,60.6,339.5Z" transform="translate(-0.19 0.26)"/><path class="cls-1" d="M1036.56,374.89c-2-3.84-4.06-7.74-5-12s-.65-8.93,1.73-12.56a11.58,11.58,0,0,1,5.27-4.26,36.64,36.64,0,0,1-2.3-12.09h-9.14a25.59,25.59,0,0,1-.61,7c-.86,3.52-2.94,11.73-6.5,17-.1.68-.22,1.36-.37,2-1.25,5.68-7.14,22.41-13.34,30.22h38.59c-1.51-2.39-2.86-4.93-3.81-6.75Q1038.82,379.19,1036.56,374.89Z" transform="translate(-0.19 0.26)"/><path class="cls-1" d="M426.92,318a36.55,36.55,0,0,1,16.58,13.64q2.61-2.78,5.13-5.3a34.91,34.91,0,0,1,5.13-8.28Z" transform="translate(-0.19 0.26)"/><path class="cls-1" d="M974.87,358.82a32.12,32.12,0,0,1-2.48,9.41q-3.82,9.93-8.21,19.63a2.3,2.3,0,0,1-2.5,1.7,183.2,183.2,0,0,1-21.09.38,4.26,4.26,0,0,1-2.54-.65c-1-.77-1.09-2.18-1.11-3.43-.2-8.63-3.48-25.5,1.55-33.05a13.49,13.49,0,0,1,3-3.18,13.54,13.54,0,0,1-1.56-2.54c-1.9-4-2.08-8.61-2.1-13.09H924.56a2,2,0,0,1-.24.45,8.56,8.56,0,0,1-1,5.38c-1.58,2.75-4.37,4.59-7.26,5.87-.06-.83.81-2.72,1.94-4.66a3.78,3.78,0,0,0-.93,1.38c-1.44,2.65-5.43,3-7.83,1.17a21.3,21.3,0,0,1,0,3.66c-.54,8.3-2,18.37-5.28,26.41,8.11-.69,19.39-1.19,23.6,6.47,6.88,12.48-10.67,9.24-16.86,8.93A345.44,345.44,0,0,0,865,390.24H990.13c-6.3-7.22-10-21.14-12.61-26.36C976.68,362.18,975.73,360.51,974.87,358.82Z" transform="translate(-0.19 0.26)"/><path class="cls-1" d="M69.5,76.5c7.92,1.42,14.36,5.34,20.31,10.19a300.24,300.24,0,0,1,40.44-21C159,53.56,175,47.89,194,52.42c13.85,3.31,26.25,12.43,40.49,13,9.74.36,19.08-3.39,28.29-6.52,39.49-13.43,84.65-16,121.83,2.83,6.84,3.46,13.53,7.67,21.11,8.89,17.06,2.74,32.36-10.07,49.07-14.46,19.38-5.09,41.5,2.39,53.71,18.17a50.34,50.34,0,0,1,48.6-13.22c7.6,2.11,14.61,6,22.26,7.87,15.14,3.7,27.87.75,36-1,57-12.2,53.67-18.32,72.47-18.14,23.79.22,33.24,10.07,76.54,16,2,.27,7,.09,13.09,2,1.24.39,2.41.83,3.53,1.3V63h1V52h3V63h1v8.59c7.24,4.28,11.81,10,16.65,14.21,13.26,11.54,30,12.9,43.3,14,19.21,1.57,22.79-4.37,58-5.88a185,185,0,0,1,19.2-.24c35.39,2,48.23,19.83,72.85,26.76a74.48,74.48,0,0,0,12-9.28c2.19-2.13,10.53-7.15,21.26-11.47,10-4,18.37,1,33.47,11.75.66.47,1.31,1,2,1.43,26.29.17,48.39,10.58,64.37,21V-.26H.19V116.12C32,79.85,54.24,73.75,69.5,76.5Z" transform="translate(-0.19 0.26)"/><path class="cls-1" d="M899.73,335.32c2.53.64,5.23,1.52,7.09,3.25a9.09,9.09,0,0,1,1.1-4.57H894C895.89,334.4,897.82,334.83,899.73,335.32Z" transform="translate(-0.19 0.26)"/><path class="cls-1" d="M.19,317v.82c.17-.28.35-.55.52-.82Z" transform="translate(-0.19 0.26)"/><path class="cls-1" d="M953.27,345a26.64,26.64,0,0,1,12.24.67,15.08,15.08,0,0,1,6.85,4.81c-.11-5.46,3.26-10.69,7.87-13.69a23.1,23.1,0,0,1,6.24-2.77H957.64C956.75,336.94,954.81,341.12,953.27,345Z" transform="translate(-0.19 0.26)"/><path class="cls-2" d="M801,91.18v22.56h7.31v31.68c28.79,8,61,13.77,93.31,7.69,5.17-1,62-12,94.38-32.67-24.62-6.93-37.46-24.79-72.85-26.76a185,185,0,0,0-19.2.24c-35.18,1.51-38.76,7.45-58,5.88-13.35-1.1-30-2.46-43.3-14-4.84-4.22-9.41-9.93-16.65-14.21v3.2C793.84,76.31,800.38,82.81,801,91.18Z" transform="translate(-0.19 0.26)"/><path class="cls-2" d="M656.56,136.46c17.45,1.27,29.43,7.94,40.14,4.13,7.29-2.59,10.38-8.3,13-11.33,8.49-9.71,25.73-6.49,48.46.47v-16h6.26V91.18A18.14,18.14,0,0,1,781,74.52V69.1c-1.12-.47-2.29-.91-3.53-1.3-6.1-1.91-11.05-1.73-13.09-2-43.3-5.93-52.75-15.78-76.54-16-18.8-.18-15.45,5.94-72.47,18.14-8.13,1.74-20.86,4.69-36,1-7.65-1.87-14.66-5.76-22.26-7.87a50.34,50.34,0,0,0-48.6,13.22C496.3,58.5,474.18,51,454.8,56.11c-16.71,4.39-32,17.2-49.07,14.46-7.58-1.22-14.27-5.43-21.11-8.89-37.18-18.84-82.34-16.26-121.83-2.83-9.21,3.13-18.55,6.88-28.29,6.52-14.24-.52-26.64-9.64-40.49-13-19-4.53-35,1.14-63.76,13.26a300.24,300.24,0,0,0-40.44,21c14.65,12,26.33,29.63,49.69,30.05,17.7.31,21.35-9.47,39-8.42,27.81,1.64,29.95,26.62,58,40.23C287.88,173.5,367.79,132,387,155c1.83,2.21,4.56,6.71,10.41,8.7,8.57,2.93,18.15-2.2,32.11-3.17a46.84,46.84,0,0,1,8.06-.16c16.9,1.52,21.55,17,35.15,19.7a35.23,35.23,0,0,0,5.38.1c26.18-1.36,42.4-53.69,64.41-60.67,12-3.81,31.27,4.17,63.58,41.34,14.38-5.3,20.82-22.79,40.4-24.63A57.75,57.75,0,0,1,656.56,136.46Z" transform="translate(-0.19 0.26)"/><path class="cls-2" d="M1128.3,159.74l.7-.2V133.85c-16-10.4-38.08-20.81-64.37-21C1094.64,135.14,1106.69,165.36,1128.3,159.74Z" transform="translate(-0.19 0.26)"/><path class="cls-3" d="M586.5,331.5c-3.34-2.5-3.89-10.58-4-13.18l-8.08,0,.06,2.2h-31v-2.27l-7.54,0c6.78,5.74,15.73,11.49,29.43,15.79h23.88A26.42,26.42,0,0,0,586.5,331.5Z" transform="translate(-0.19 0.26)"/><path class="cls-3" d="M614.5,328.5a10.1,10.1,0,0,1-2.67,5.5h12.06l.77-1.19q.39-7.2.79-14.39l-12.72,0A61.42,61.42,0,0,0,614.5,328.5Z" transform="translate(-0.19 0.26)"/><path class="cls-3" d="M647,210.94v3.21c1.46,2.08,2.93,4.19,4.42,6.35H748V210h-6v-7h12V153h4.18V129.73c-22.73-7-40-10.18-48.46-.47-2.64,3-5.73,8.74-13,11.33-10.71,3.81-22.69-2.86-40.14-4.13a57.75,57.75,0,0,0-10.08-.21c-19.58,1.84-26,19.33-40.4,24.63,9.83,11.3,20.86,25.3,33.26,42.49C642.93,205.39,645.66,208,647,210.94Z" transform="translate(-0.19 0.26)"/><path class="cls-3" d="M667.83,232.5H748v-1H666.5Z" transform="translate(-0.19 0.26)"/><path class="cls-3" d="M819,318H781.6q2.48,1.11,4.84,2.27L814.64,334h61.22a37.82,37.82,0,0,1-3.93-5.77,15.21,15.21,0,0,1-.77-11.73H819Z" transform="translate(-0.19 0.26)"/><path class="cls-3" d="M1064.63,112.87c-.64-.48-1.29-1-2-1.43-15.1-10.74-23.51-15.77-33.47-11.75-10.73,4.32-19.07,9.34-21.26,11.47a74.48,74.48,0,0,1-12,9.28c-32.33,20.64-89.21,31.69-94.38,32.67-32.29,6.08-64.52.33-93.31-7.69V153h5.22v50H825v7h-6v10.5H940.5v11H819v1H925.5v81.43a12,12,0,0,1,7.57,1.35,2.84,2.84,0,0,1,1.22,1,2.9,2.9,0,0,1-.12,2.42,40.56,40.56,0,0,1-3.14,6.67c-1.58,2.71-3.6,5.35-6.45,6.69a7.13,7.13,0,0,1-.91.35,6.62,6.62,0,0,1,.53,1.45,1.9,1.9,0,0,1,.41,0,.48.48,0,0,1-.05.14h13.32v-1.09c0-5.77,0-11.78,2.7-16.9a29.62,29.62,0,0,1,6.81-8.14,37.4,37.4,0,0,1,.68-12.3c1.21-5.34,3.92-10.72,8.74-13.34S968.75,281,970.93,286c1.33,3.08.57,6.73-1.09,9.64s-4.13,5.27-6.45,7.68c-1.61,1.68-4,6-6.45,9.34a49.46,49.46,0,0,1,1.13,19.49,11.86,11.86,0,0,1-.43,1.84h28.83A34.2,34.2,0,0,1,997,332.84l1.18.06c-6.17-6.22-4.8-22.29-3.37-28.08a26.64,26.64,0,0,1,4.26-10,13.37,13.37,0,0,1,1.48-1.63c-4.27-3-9.19-7.57-10.5-12.92-.35-1.43-1-4.64.58-6.76,2.61-3.49,8.22-2,11.76.51,2.43,1.74,4.31,4.09,7.71,9.33,3.81,5.89,3.63,7.4,3.45,8.11,0,0,0,0,0,.05A12.63,12.63,0,0,1,1018,297a16.54,16.54,0,0,1,1.24,6.18c.12-.46.23-.91.31-1.4a66.94,66.94,0,0,1,1.77-8.3c-3.56-2.08-6.44-6.44-6.71-9.83-.5-5.75,3.21-10.93,6.84-15.41,2-2.49,4.14-5,7-6.51s6.55-1.78,9.09.18c2.29,1.76,3.11,4.93,2.79,7.81a23.07,23.07,0,0,1-2.47,7.28c4.61-.26,9.44,2,11.41,6.12,1.82,3.82,1,8.49-1.12,12.17s-5.31,6.57-8.46,9.4c-5.6,5-11.89,8.64-13,15.84-.65,4.34.25,8.81.41,13.43h9.14a44.69,44.69,0,0,1,.77-10.71,16.57,16.57,0,0,1,2.64-6.38,7.72,7.72,0,0,1,5.87-3.28,6.54,6.54,0,0,1,3.17.82,18.45,18.45,0,0,1,4.55-5.72,5.8,5.8,0,0,1,2.51-1.3c1.84-5.87,10.08-11.85,14.19-12.78a5.44,5.44,0,0,1,3,0,2.34,2.34,0,0,1,1.65,2.3,3.52,3.52,0,0,1-.74,1.53,86.68,86.68,0,0,1-9,10.33c1.74,1,2.86,2.25,2.63,3.56-.68,3.81-3.62,6.8-6.71,9.12a15.22,15.22,0,0,1-5.52,2.78,20.14,20.14,0,0,1,1.46,5.68,20.84,20.84,0,0,1-.22,4.08h41.57a9.18,9.18,0,0,1,6.39,0H1129V159.54l-.7.2C1106.69,165.36,1094.64,135.14,1064.63,112.87Z" transform="translate(-0.19 0.26)"/><path class="cls-3" d="M892.47,333.69c.5.09,1,.21,1.49.31h14c.05-.08.08-.16.12-.24a10.51,10.51,0,0,1,9.2-5,22.83,22.83,0,0,1,.67-6.8,12.92,12.92,0,0,1,3-5.44H893.47A50.85,50.85,0,0,1,892.47,333.69Z" transform="translate(-0.19 0.26)"/><path class="cls-3" d="M695,320.5h-5.18A160.7,160.7,0,0,1,677.36,334h48.47c1.64-2.36,3.28-4.73,4.95-7.07,2.68-3.77,5.48-7.57,9.08-10.43H695.05C695,317.83,695,319.17,695,320.5Z" transform="translate(-0.19 0.26)"/><path class="cls-4" d="M267.7,311c.47-3.06,13.27-5.36,24.16-1.53A30.2,30.2,0,0,1,295.5,311V278.5c-3.68-14.31-16.92-23.93-31-23-12.72.84-23.75,10.14-27,23v38h-17v-38c-3.68-14.31-16.92-23.93-31-23-12.72.84-23.75,10.14-27,23v35c17.44-1.35,34.75.16,46.92,4l68.41.16C272.29,315.65,267.39,313,267.7,311Z" transform="translate(-0.19 0.26)"/><path class="cls-4" d="M1,316.5H.19v.5H.71Z" transform="translate(-0.19 0.26)"/><path class="cls-4" d="M88.37,232.5a33,33,0,0,1-8.08-1H.19v1Z" transform="translate(-0.19 0.26)"/><path class="cls-4" d="M69.53,220.5c-2.6-11.24,2.62-28.36,11-31.2,10.79-3.65,34.05,19.21,34.57,19a21,21,0,0,0,11.19-9.21c2.22,4.39,4.57,8.93,8.47,11.91s9.86,3.91,13.63.75c2.46-2.06,3.7-5.55,6.61-6.92,7.14-3.36,15.65,8.94,22,4.27,2.35-1.72,3.08-5.23,5.72-6.46,4.14-1.93,7.85,3.11,10.31,7a37.37,37.37,0,0,0,10.68,10.87H590c1.1-.32,2.2-.62,3.27-.88v-8.68c3-6.79,13.23-11.69,25-12.14,7.91-.3,15.52,1.46,21.05,4.57-12.4-17.19-23.43-31.19-33.26-42.49-32.31-37.17-51.56-45.15-63.58-41.34-22,7-38.23,59.31-64.41,60.67a35.23,35.23,0,0,1-5.38-.1c-13.6-2.66-18.25-18.18-35.15-19.7a46.84,46.84,0,0,0-8.06.16c-14,1-23.54,6.1-32.11,3.17-5.85-2-8.58-6.49-10.41-8.7-19.19-23.06-99.1,18.46-150.48-6.49-28.05-13.61-30.19-38.59-58-40.23-17.65-1-21.3,8.73-39,8.42-23.36-.42-35-18.1-49.69-30-6-4.85-12.39-8.77-20.31-10.19C54.24,73.75,32,79.85.19,116.12V220.5Z" transform="translate(-0.19 0.26)"/><path class="cls-4" d="M494.5,255.5c-12.72.84-23.75,10.14-27,23v28.94a46.48,46.48,0,0,1,7.39-2.76c11.18-6.92,20.43-9.3,28.16-8.93,10.22.5,15.82,5.71,22.45,12.43V278.5C521.82,264.19,508.58,254.57,494.5,255.5Z" transform="translate(-0.19 0.26)"/><path class="cls-4" d="M169,231.5H100.56a79.56,79.56,0,0,1-10.81,1h84.34l-2.84-.55Z" transform="translate(-0.19 0.26)"/><path class="cls-4" d="M141.5,278.5c-3.68-14.31-16.92-23.93-31-23-12.72.84-23.75,10.14-27,23v38h-17v-38c-3.68-14.31-16.92-23.93-31-23-12.72.84-23.75,10.14-27,23v28.28c5.27-5.65,9.68-7.62,13.41-7.28,6.75.61,9.63,8.59,14.65,17.58l101.94.23c1.14-.28,2.29-.55,3.44-.81h-.44Z" transform="translate(-0.19 0.26)"/><path class="cls-4" d="M358.5,304.5c-4.48-6.23-9.24-16.17-7-18,2.4-2,13.45,4.88,19,15,.37.67.69,1.34,1,2v-25c-3.68-14.31-16.92-23.93-31-23-12.72.84-23.75,10.14-27,23V283a47.43,47.43,0,0,1,.35,18.53c-.1.56-.22,1.15-.35,1.74v3.61a38.65,38.65,0,0,1,15.72-3.31,38,38,0,0,1,26.61,10.68A66.49,66.49,0,0,1,366,313.5l1.06,0A46.32,46.32,0,0,1,358.5,304.5Z" transform="translate(-0.19 0.26)"/><path class="cls-4" d="M399.1,303.65c.91-.27,1.83-.53,2.77-.75a55.1,55.1,0,0,1,24.45.05,61.36,61.36,0,0,1-16.67,12.13c.78-.05,1.56-.08,2.35-.08a38.56,38.56,0,0,1,14.92,3l26.84.06c.43-.52.87-1,1.34-1.53h-4.6v-38c-3.68-14.31-16.92-23.93-31-23-12.72.84-23.75,10.14-27,23v18a35.39,35.39,0,0,1,13.08-2.68A50.14,50.14,0,0,1,399.1,303.65Z" transform="translate(-0.19 0.26)"/><path class="cls-4" d="M543.5,316.5H534c.63.57,1.29,1.14,2,1.71l7.54,0Z" transform="translate(-0.19 0.26)"/><path class="cls-4" d="M574.44,318.3l8.08,0c0-.52,0-.82,0-.82l.81-1h-8.92Z" transform="translate(-0.19 0.26)"/><path class="cls-4" d="M223.42,231.5c-.92.36-1.86.69-2.8,1H566.93l1.26-1Z" transform="translate(-0.19 0.26)"/><path class="cls-4" d="M612.73,318.39l12.72,0,0-.92c0-.34.08-.67.12-1h-13C612.63,317.14,612.68,317.77,612.73,318.39Z" transform="translate(-0.19 0.26)"/><path class="cls-4" d="M647,214.15v6.35h4.42C649.93,218.34,648.46,216.23,647,214.15Z" transform="translate(-0.19 0.26)"/><path class="cls-5" d="M169,231.5l2.27.45,2.84.55h46.53c.94-.31,1.88-.64,2.8-1Z" transform="translate(-0.19 0.26)"/><path class="cls-5" d="M80.29,231.5a33,33,0,0,0,8.08,1h1.38a79.56,79.56,0,0,0,10.81-1Z" transform="translate(-0.19 0.26)"/><path class="cls-5" d="M193.06,209.63c-2.46-3.85-6.17-8.89-10.31-7-2.64,1.23-3.37,4.74-5.72,6.46-6.36,4.67-14.87-7.63-22-4.27-2.91,1.37-4.15,4.86-6.61,6.92-3.77,3.16-9.72,2.24-13.63-.75s-6.25-7.52-8.47-11.91a21,21,0,0,1-11.19,9.21c-.52.18-23.78-22.68-34.57-19-8.4,2.84-13.62,20-11,31.2H203.74A37.37,37.37,0,0,1,193.06,209.63Z" transform="translate(-0.19 0.26)"/><path class="cls-6" d="M819,232.5v84h52.16a14.35,14.35,0,0,1,1-2.29,17.51,17.51,0,0,1,9.32-8.07,53.46,53.46,0,0,1-4.71-18.62c0-6.47,3.59-13.44,9.84-15.15,2.64-.72,5.43-.44,8.15-.17a4.58,4.58,0,0,1,1.92.49,4,4,0,0,1,1.3,1.57c3.48,6.39,2.39,14.35-.19,21.16-1.07,2.86-3.23,9.91-6.51,13.53a20.41,20.41,0,0,1,2.24,7.55H921a8.79,8.79,0,0,1,4.14-2.49c.13,0,.27-.05.41-.08V232.5Z" transform="translate(-0.19 0.26)"/><path class="cls-6" d="M695.41,284.44l0,4.4a39.13,39.13,0,0,0,4-.8A50.17,50.17,0,0,0,695.41,284.44Z" transform="translate(-0.19 0.26)"/><path class="cls-6" d="M667.83,232.5c1.23.94,2.46,1.94,3.67,3a74.45,74.45,0,0,1,18,23.79c5-8.18,14.84-13.73,24.29-9a8,8,0,0,1,3.94,3.65,10.37,10.37,0,0,1,.66,4.15c.13,9.89-2,21.17-10.38,26.34a31.21,31.21,0,0,1-8.68,3.65c3.22,3.46,4.14,6.84,1.6,14a53.74,53.74,0,0,1-5.84,11.33l0,3.15h44.81c.47-.37.95-.73,1.45-1.07a24,24,0,0,1,6.69-3.15V232.5Z" transform="translate(-0.19 0.26)"/><path class="cls-6" d="M658.16,265.54l0,0a15,15,0,0,1-9.16,5.48l1.83.89a11.54,11.54,0,0,0-2.18.44,11.57,11.57,0,0,1,7.41,4.34c4.23,5.85-1.24,17.37-6,23.33a23.16,23.16,0,0,1,10.51,11.55c.91-2,1.92-3.93,3-5.83V277.5A46.8,46.8,0,0,0,658.16,265.54Z" transform="translate(-0.19 0.26)"/><path class="cls-6" d="M8.5,306.78V278.5c3.25-12.86,14.28-22.16,27-23,14.08-.93,27.32,8.69,31,23v38h17v-38c3.25-12.86,14.28-22.16,27-23,14.08-.93,27.32,8.69,31,23v38h.44a148.46,148.46,0,0,1,20.56-3v-35c3.25-12.86,14.28-22.16,27-23,14.08-.93,27.32,8.69,31,23v38h17v-38c3.25-12.86,14.28-22.16,27-23,14.08-.93,27.32,8.69,31,23V311a33,33,0,0,1,6.27,4.09c.31-.32.63-.63,1-.94a37.36,37.36,0,0,1,.65-19.18,34,34,0,0,1,9.48-14.67c.22.82.44,1.73.65,2.71V278.5c3.25-12.86,14.28-22.16,27-23,14.08-.93,27.32,8.69,31,23v25a33.5,33.5,0,0,1,2.82,10.5l.31,0c1.73-4.48,7-11.41,14.09-15.61a31.94,31.94,0,0,1,3.78-1.91v-18c3.25-12.86,14.28-22.16,27-23,14.08-.93,27.32,8.69,31,23v38h4.6a38.91,38.91,0,0,1,3.39-3.26,42.36,42.36,0,0,1,9-5.8V278.5c3.25-12.86,14.28-22.16,27-23,14.08-.93,27.32,8.69,31,23v29.68c2.57,2.61,5.29,5.44,8.5,8.32h9.5v-44c1.35-6.88,5.58-23.41,20-37q1.69-1.59,3.43-3H.19v84H1A74.48,74.48,0,0,1,8.5,306.78Z" transform="translate(-0.19 0.26)"/><path class="cls-6" d="M313.5,306.91V303.3c-.3,1.34-.65,2.73-1.06,4.1Z" transform="translate(-0.19 0.26)"/><path class="cls-6" d="M616.51,245.08c-5.41.18-17.33.58-28,9.42-13.22,10.94-14.75,26.69-15,30q.45,16,.89,32h8.92l3.24-4a11.9,11.9,0,0,1-3.41-8.17,13.1,13.1,0,0,1,1.4-4.69c2.47-5.54,5.2-11.4,10.34-14.62a12.61,12.61,0,0,1,8.52-1.64c-.15-.41-.29-.81-.4-1.23-1.36-5.11.23-10.64,3.08-15.09s6.85-8,10.81-11.53a5.83,5.83,0,0,1,2.31-1.48c2.33-.59,4.38,1.83,4.93,4.17,1.16,4.88-1.23,9.82-3.55,14.26l-7.76,14.83,1-.9c-.19-.56.88-.77,1.13-.24a1.45,1.45,0,0,1-.53,1.55,5.48,5.48,0,0,1-3.84,1.42c1.47,4.62,1.58,12.85-.37,19.45a7,7,0,0,1,2.3,4.89q0,1.53.09,3h13a23.66,23.66,0,0,1,6.46-13.94c-6.21-6.3-8.18-19.53.79-26.7A20.41,20.41,0,0,1,644.7,272c-.13-.41-.26-.82-.38-1.23a10,10,0,0,1-6.45-5.13l5.8,2.81a25,25,0,0,1-.39-12.59,14.24,14.24,0,0,1,1.65-3.78C633.34,244.69,621.21,244.92,616.51,245.08Z" transform="translate(-0.19 0.26)"/><path class="cls-7" d="M370.5,301.5c-5.55-10.12-16.6-17-19-15-2.24,1.83,2.52,11.77,7,18a46.32,46.32,0,0,0,8.56,9,69.31,69.31,0,0,1,7.26.49,33.5,33.5,0,0,0-2.82-10.5C371.19,302.84,370.87,302.17,370.5,301.5Z" transform="translate(-0.19 0.26)"/><path class="cls-7" d="M399.1,303.65a50.14,50.14,0,0,0,6.48-9.8,35.39,35.39,0,0,0-13.08,2.68,31.94,31.94,0,0,0-3.78,1.91c-7.07,4.2-12.36,11.13-14.09,15.61,1.67.21,3.31.49,4.93.82C383.49,310.89,390.67,306.23,399.1,303.65Z" transform="translate(-0.19 0.26)"/><path class="cls-7" d="M267.7,311c-.31,2,4.59,4.67,10.13,6.65a58.89,58.89,0,0,0,7.1,2.06,46.44,46.44,0,0,0,12.49,1,34.8,34.8,0,0,1,4.35-5.57A33,33,0,0,0,295.5,311a30.2,30.2,0,0,0-3.64-1.57C281,305.62,268.17,307.92,267.7,311Z" transform="translate(-0.19 0.26)"/><path class="cls-7" d="M313.5,303.3c.13-.59.25-1.18.35-1.74A47.43,47.43,0,0,0,313.5,283c-.21-1-.43-1.89-.65-2.71A34,34,0,0,0,303.37,295a37.36,37.36,0,0,0-.65,19.18,37,37,0,0,1,9.72-6.77C312.85,306,313.2,304.64,313.5,303.3Z" transform="translate(-0.19 0.26)"/><path class="cls-8" d="M313.5,306.91l-1.06.49a37,37,0,0,0-9.72,6.77c-.32.31-.64.62-1,.94a34.8,34.8,0,0,0-4.35,5.57,33.2,33.2,0,0,0-2.67,30.55l3.28.24c4,.34,8.45.72,13,1.29,2-11.87,9.56-22.28,20.49-29.4a3.05,3.05,0,1,1,4-2.87,2.73,2.73,0,0,1-.05.5,62.5,62.5,0,0,1,20.33-6.71,38,38,0,0,0-26.61-10.68A38.65,38.65,0,0,0,313.5,306.91Zm-2.28,16.65a2.3,2.3,0,1,1,2.33-2.3A2.31,2.31,0,0,1,311.22,323.56Zm9.67,5.37a2.69,2.69,0,1,1,2.66-2.68A2.67,2.67,0,0,1,320.89,328.93Zm1-7.8a4.49,4.49,0,0,1-5.53-3.64,5.22,5.22,0,0,1,3.56-6.08,4.48,4.48,0,0,1,5.53,3.64A5.22,5.22,0,0,1,321.87,321.13Zm18.35-11.39a2.33,2.33,0,1,1-2.67,2.31A2.52,2.52,0,0,1,340.22,309.74Zm-9-.76c.92,0,1.67,1,1.67,2.3s-.75,2.3-1.67,2.3-1.67-1-1.67-2.3S330.3,309,331.22,309Z" transform="translate(-0.19 0.26)"/><path class="cls-9" d="M325.43,315.05a4.48,4.48,0,0,0-5.53-3.64,5.22,5.22,0,0,0-3.56,6.08,4.49,4.49,0,0,0,5.53,3.64A5.22,5.22,0,0,0,325.43,315.05Z" transform="translate(-0.19 0.26)"/><path class="cls-9" d="M331.22,313.58c.92,0,1.67-1,1.67-2.3s-.75-2.3-1.67-2.3-1.67,1-1.67,2.3S330.3,313.58,331.22,313.58Z" transform="translate(-0.19 0.26)"/><path class="cls-9" d="M340.22,314.35a2.33,2.33,0,1,0-2.67-2.3A2.51,2.51,0,0,0,340.22,314.35Z" transform="translate(-0.19 0.26)"/><path class="cls-9" d="M332.55,317.42a3.07,3.07,0,0,0-1,5.94c1.28-.83,2.61-1.63,4-2.37a2.73,2.73,0,0,0,.05-.5A3,3,0,0,0,332.55,317.42Z" transform="translate(-0.19 0.26)"/><path class="cls-9" d="M311.22,319a2.3,2.3,0,1,0,2.33,2.3A2.31,2.31,0,0,0,311.22,319Z" transform="translate(-0.19 0.26)"/><path class="cls-9" d="M320.89,323.56a2.69,2.69,0,1,0,2.66,2.69A2.67,2.67,0,0,0,320.89,323.56Z" transform="translate(-0.19 0.26)"/><rect class="cls-10" x="818.81" y="220.76" width="121.5" height="11"/><path class="cls-10" d="M80.29,231.5h487.9a65.3,65.3,0,0,1,21.82-11H.19v11Z" transform="translate(-0.19 0.26)"/><path class="cls-10" d="M647,220.5v.91a72.42,72.42,0,0,1,19.5,10.09H748v-11H647Z" transform="translate(-0.19 0.26)"/><path class="cls-11" d="M801,113.74V91.18c-.59-8.37-7.13-14.87-15-16.39V78h-5V74.52a18.14,18.14,0,0,0-16.56,16.66v22.56h-6.26V153H754v50h59.5V153h-5.22V113.74Z" transform="translate(-0.19 0.26)"/><path class="cls-12" d="M689.82,320.5H695c0-1.33,0-2.67,0-4l0-3.15A88.59,88.59,0,0,1,689.82,320.5Z" transform="translate(-0.19 0.26)"/><path class="cls-12" d="M543.5,318.23v2.27h31l-.06-2.2-.05-1.8q-.45-16-.89-32c.25-3.31,1.78-19.06,15-30,10.68-8.84,22.6-9.24,28-9.42,4.7-.16,16.83-.39,28.42,7,2.53-4.13,7.05-7.08,11.73-6.23a6.64,6.64,0,0,1,4.59,2.89,7.88,7.88,0,0,1,.93,3.24,18.55,18.55,0,0,1-4,13.52,46.8,46.8,0,0,1,5.34,12v28.28c1-1.83,2.17-3.62,3.37-5.35,8.33-12,17.87-10,28.49-11.59l0-4.4-1.22-1c-6.84-5.8-10.27-8.36-7.28-18.41a24,24,0,0,1,2.58-5.71,74.45,74.45,0,0,0-18-23.79c-1.21-1.06-2.44-2.06-3.67-3l-1.33-1A72.42,72.42,0,0,0,647,221.41V210.94c-1.34-3-4.07-5.55-7.66-7.57-5.53-3.11-13.14-4.87-21.05-4.57-11.78.45-22,5.35-25,12.14v8.68c-1.07.26-2.17.56-3.27.88a65.3,65.3,0,0,0-21.82,11l-1.26,1q-1.74,1.41-3.43,3c-14.42,13.59-18.65,30.12-20,37v45.73Z" transform="translate(-0.19 0.26)"/><path class="cls-5" d="M409.65,315.08A61.36,61.36,0,0,0,426.32,303a55.1,55.1,0,0,0-24.45-.05c-.94.22-1.86.48-2.77.75-8.43,2.58-15.61,7.24-19.54,11.22a63,63,0,0,1,14.14,4.71A38.22,38.22,0,0,1,409.65,315.08Z" transform="translate(-0.19 0.26)"/><path class="cls-11" d="M819,316.5V210H748V312.28c10.5-3.09,22.72.82,33.6,5.72H819Z" transform="translate(-0.19 0.26)"/><path class="cls-12" d="M375,349.92a33.69,33.69,0,0,1,8.8-22.6,5,5,0,0,1-1.3.18c-2.21,0-4-1.34-4-3s1.79-3,4-3,4,1.34,4,3c0,.05,0,.1,0,.15a36.87,36.87,0,0,1,7.22-5.07,63,63,0,0,0-14.14-4.71c-1.62-.33-3.26-.61-4.93-.82l-.31,0a69.31,69.31,0,0,0-7.26-.49l-1.06,0a66.49,66.49,0,0,0-10.17.78A62.5,62.5,0,0,0,335.5,321c-1.37.74-2.7,1.54-4,2.37-10.93,7.12-18.5,17.53-20.49,29.4,10.42,1.32,21.47,3.68,29.47,9.05,13.26,8.9,11.19,21.36,8.52,28.43h48.74c1.53-2.25,3.05-4.46,4.55-6.61C386.58,379.61,375,366.05,375,349.92Zm-3.5-26.42a2.54,2.54,0,1,1-2.5-3A2.78,2.78,0,0,1,371.5,323.5Zm-32.5,16a3,3,0,1,1,3.5-3A3.28,3.28,0,0,1,339,339.5Zm13-15.83a6.52,6.52,0,1,1-5.34,7.92A6.77,6.77,0,0,1,352,323.67ZM357.5,343a4,4,0,1,1-4-3.5A3.78,3.78,0,0,1,357.5,343Zm6,7.5a2.54,2.54,0,1,1,3-2.5A2.78,2.78,0,0,1,363.5,350.5Zm7.5-11a4,4,0,1,1,4.5-4A4.27,4.27,0,0,1,371,339.5Z" transform="translate(-0.19 0.26)"/><ellipse class="cls-13" cx="353.5" cy="330" rx="7" ry="6.5" transform="translate(-66.05 89.44) rotate(-13.16)"/><ellipse class="cls-13" cx="368.81" cy="323.76" rx="2.5" ry="3"/><path class="cls-13" d="M386.48,324.65s0-.1,0-.15c0-1.66-1.79-3-4-3s-4,1.34-4,3,1.79,3,4,3a5,5,0,0,0,1.3-.18C384.65,326.39,385.54,325.5,386.48,324.65Z" transform="translate(-0.19 0.26)"/><ellipse class="cls-13" cx="370.81" cy="335.76" rx="4.5" ry="4"/><ellipse class="cls-13" cx="338.81" cy="336.76" rx="3.5" ry="3"/><ellipse class="cls-13" cx="363.31" cy="348.26" rx="3" ry="2.5"/><ellipse class="cls-13" cx="353.31" cy="343.26" rx="4" ry="3.5"/><path class="cls-12" d="M458.49,313.24a38.91,38.91,0,0,0-3.39,3.26c-.47.5-.91,1-1.34,1.53a34.91,34.91,0,0,0-5.13,8.28c9.78-9.81,18.49-16.82,26.26-21.63a46.48,46.48,0,0,0-7.39,2.76A42.36,42.36,0,0,0,458.49,313.24Z" transform="translate(-0.19 0.26)"/><path class="cls-8" d="M426.92,318A38.56,38.56,0,0,0,412,315c-.79,0-1.57,0-2.35.08a38.22,38.22,0,0,0-15.95,4.5,36.87,36.87,0,0,0-7.22,5.07c-.94.85-1.83,1.74-2.68,2.67a33.69,33.69,0,0,0-8.8,22.6c0,16.13,11.58,29.69,27.31,33.71,15.43-22.16,29.09-39.15,41.19-52A36.55,36.55,0,0,0,426.92,318Zm-1.25,5.47a2.7,2.7,0,1,1-2.67-2.3A2.51,2.51,0,0,1,425.67,323.44Zm-10.34,5.38a3.07,3.07,0,1,1-3,3.07A3,3,0,0,1,415.33,328.82Zm-3-6.14c0-1.28.75-2.31,1.67-2.31s1.67,1,1.67,2.31-.75,2.3-1.67,2.3S412.33,324,412.33,322.68ZM394,335a2.31,2.31,0,1,1,2.33-2.31A2.32,2.32,0,0,1,394,335Zm9.67,5.37a2.69,2.69,0,1,1,2.66-2.69A2.67,2.67,0,0,1,403.67,340.33Zm1-7.81a4.48,4.48,0,0,1-5.53-3.63,5.22,5.22,0,0,1,3.56-6.08,4.48,4.48,0,0,1,5.53,3.63A5.21,5.21,0,0,1,404.65,332.52Zm5.68,10.88a1.92,1.92,0,1,1,2-1.92A2,2,0,0,1,410.33,343.4Zm14.34-7.68c-1.66,0-3-1-3-2.3s1.34-2.3,3-2.3,3,1,3,2.3S426.32,335.72,424.67,335.72Z" transform="translate(-0.19 0.26)"/><path class="cls-9" d="M408.21,326.44a4.48,4.48,0,0,0-5.53-3.63,5.22,5.22,0,0,0-3.56,6.08,4.48,4.48,0,0,0,5.53,3.63A5.21,5.21,0,0,0,408.21,326.44Z" transform="translate(-0.19 0.26)"/><ellipse class="cls-9" cx="424.48" cy="333.68" rx="3" ry="2.3"/><path class="cls-9" d="M415.67,322.68c0-1.28-.75-2.31-1.67-2.31s-1.67,1-1.67,2.31.75,2.3,1.67,2.3S415.67,324,415.67,322.68Z" transform="translate(-0.19 0.26)"/><path class="cls-9" d="M420.33,323.44a2.7,2.7,0,1,0,2.67-2.3A2.51,2.51,0,0,0,420.33,323.44Z" transform="translate(-0.19 0.26)"/><ellipse class="cls-9" cx="415.15" cy="332.15" rx="3" ry="3.07"/><ellipse class="cls-9" cx="393.81" cy="332.92" rx="2.33" ry="2.3"/><ellipse class="cls-9" cx="410.15" cy="341.74" rx="2" ry="1.92"/><path class="cls-9" d="M403.67,335a2.69,2.69,0,1,0,2.66,2.68A2.67,2.67,0,0,0,403.67,335Z" transform="translate(-0.19 0.26)"/><path class="cls-14" d="M831.86,370.79a13.27,13.27,0,0,1,5.44-3c2.22-.44,4.49.22,6.67.82,3,.84,6,1.58,9.11,2.24.65-6.12-1.2-12.49-6.55-18.15s-12.78-9.38-19.93-12.86l-12-5.82-28.2-13.73q-2.37-1.15-4.84-2.27c-10.88-4.9-23.1-8.81-33.6-5.72a24,24,0,0,0-6.69,3.15c-.5.34-1,.7-1.45,1.07-3.6,2.86-6.4,6.66-9.08,10.43-1.67,2.34-3.31,4.71-4.95,7.07q-5.79,8.34-11.36,16.84c4.43,7.8,3.71,20-7.83,39.4H812A137.73,137.73,0,0,1,831.86,370.79Z" transform="translate(-0.19 0.26)"/><path class="cls-15" d="M611.83,334a10.1,10.1,0,0,0,2.67-5.5,61.42,61.42,0,0,1-1.77-10.11c-.05-.62-.1-1.25-.14-1.89q-.09-1.47-.09-3a7,7,0,0,0-2.3-4.89c1.95-6.6,1.84-14.83.37-19.45a5.48,5.48,0,0,0,3.84-1.42,1.45,1.45,0,0,0,.53-1.55c-.25-.53-1.32-.32-1.13.24l-1,.9,7.76-14.83c2.32-4.44,4.71-9.38,3.55-14.26-.55-2.34-2.6-4.76-4.93-4.17a5.83,5.83,0,0,0-2.31,1.48c-4,3.5-8,7.07-10.81,11.53s-4.44,10-3.08,15.09c.11.42.25.82.4,1.23a12.61,12.61,0,0,0-8.52,1.64c-5.14,3.22-7.87,9.08-10.34,14.62a13.1,13.1,0,0,0-1.4,4.69,11.9,11.9,0,0,0,3.41,8.17l-3.24,4-.81,1s0,.3,0,.82c.09,2.6.64,10.68,4,13.18a26.42,26.42,0,0,1,2.77,2.5c1.73,1.74,3.57,3.84,5.08,5.63q6,.56,11.78.73l2.37-.86C609,336.78,610.48,335.53,611.83,334Z" transform="translate(-0.19 0.26)"/><path class="cls-15" d="M694.19,283.41l1.22,1a50.17,50.17,0,0,1,3.91,3.6,31.21,31.21,0,0,0,8.68-3.65c8.43-5.17,10.51-16.45,10.38-26.34a10.37,10.37,0,0,0-.66-4.15,8,8,0,0,0-3.94-3.65c-9.45-4.69-19.26.86-24.29,9a24,24,0,0,0-2.58,5.71C683.92,275.05,687.35,277.61,694.19,283.41Z" transform="translate(-0.19 0.26)"/><path class="cls-15" d="M677.36,334a160.7,160.7,0,0,0,12.46-13.5,88.59,88.59,0,0,0,5.26-7.15A53.74,53.74,0,0,0,700.92,302c2.54-7.14,1.62-10.52-1.6-14a39.13,39.13,0,0,1-4,.8c-10.62,1.63-20.16-.39-28.49,11.59-1.2,1.73-2.32,3.52-3.37,5.35s-2.09,3.84-3,5.83A23.16,23.16,0,0,0,650,300.06c4.81-6,10.28-17.48,6-23.33a11.57,11.57,0,0,0-7.41-4.34,11.54,11.54,0,0,1,2.18-.44l-1.83-.89a15,15,0,0,0,9.16-5.48l0,0a18.55,18.55,0,0,0,4-13.52,7.88,7.88,0,0,0-.93-3.24,6.64,6.64,0,0,0-4.59-2.89c-4.68-.85-9.2,2.1-11.73,6.23a14.24,14.24,0,0,0-1.65,3.78,25,25,0,0,0,.39,12.59l-5.8-2.81a10,10,0,0,0,6.45,5.13c.12.41.25.82.38,1.23a20.41,20.41,0,0,0-11.83,3.82c-9,7.17-7,20.4-.79,26.7a23.66,23.66,0,0,0-6.46,13.94c0,.33-.09.66-.12,1l0,.92q-.39,7.18-.79,14.39l-.77,1.19-4.09,6.37c19.87-.54,38.29-3.17,54.27-3.39a14.36,14.36,0,0,0,1.61-1.35Z" transform="translate(-0.19 0.26)"/><path class="cls-2" d="M1057,357.53a20.31,20.31,0,0,0-4.91-9.17c2.34-4.1,3.84-10,4.39-14.36a20.84,20.84,0,0,0,.22-4.08,20.14,20.14,0,0,0-1.46-5.68,15.22,15.22,0,0,0,5.52-2.78c3.09-2.32,6-5.31,6.71-9.12.23-1.31-.89-2.59-2.63-3.56a86.68,86.68,0,0,0,9-10.33,3.52,3.52,0,0,0,.74-1.53,2.34,2.34,0,0,0-1.65-2.3,5.44,5.44,0,0,0-3,0c-4.11.93-12.35,6.91-14.19,12.78a5.8,5.8,0,0,0-2.51,1.3,18.45,18.45,0,0,0-4.55,5.72,6.54,6.54,0,0,0-3.17-.82,7.72,7.72,0,0,0-5.87,3.28,16.57,16.57,0,0,0-2.64,6.38,44.69,44.69,0,0,0-.77,10.71,36.64,36.64,0,0,0,2.3,12.09,11.58,11.58,0,0,0-5.27,4.26c-2.38,3.63-2.67,8.32-1.73,12.56s3,8.14,5,12q2.25,4.31,4.52,8.6c1,1.82,2.3,4.36,3.81,6.75H1056C1058.21,379.51,1060,368.28,1057,357.53Z" transform="translate(-0.19 0.26)"/><path class="cls-2" d="M1020,358c3.56-5.24,5.64-13.45,6.5-17a25.59,25.59,0,0,0,.61-7c-.16-4.62-1.06-9.09-.41-13.43,1.08-7.2,7.37-10.82,13-15.84,3.15-2.83,6.36-5.73,8.46-9.4s2.94-8.35,1.12-12.17c-2-4.15-6.8-6.38-11.41-6.12a23.07,23.07,0,0,0,2.47-7.28c.32-2.88-.5-6.05-2.79-7.81-2.54-2-6.26-1.69-9.09-.18s-5,4-7,6.51c-3.63,4.48-7.34,9.66-6.84,15.41.27,3.39,3.15,7.75,6.71,9.83a66.94,66.94,0,0,0-1.77,8.3c-.08.49-.19.94-.31,1.4A16.54,16.54,0,0,0,1018,297a12.63,12.63,0,0,0-4.55-5.49s0,0,0-.05c.18-.71.36-2.22-3.45-8.11-3.4-5.24-5.28-7.59-7.71-9.33-3.54-2.54-9.15-4-11.76-.51-1.59,2.12-.93,5.33-.58,6.76,1.31,5.35,6.23,9.88,10.5,12.92a13.37,13.37,0,0,0-1.48,1.63,26.64,26.64,0,0,0-4.26,10c-1.43,5.79-2.8,21.86,3.37,28.08l-1.18-.06A34.2,34.2,0,0,0,986.47,334a23.1,23.1,0,0,0-6.24,2.77c-4.61,3-8,8.23-7.87,13.69a15.08,15.08,0,0,0-6.85-4.81,26.64,26.64,0,0,0-12.24-.67c1.54-3.86,3.48-8,4.37-11a11.86,11.86,0,0,0,.43-1.84,49.46,49.46,0,0,0-1.13-19.49c2.46-3.37,4.84-7.66,6.45-9.34,2.32-2.41,4.79-4.76,6.45-7.68s2.42-6.56,1.09-9.64c-2.18-5-9.3-6.4-14.12-3.78s-7.53,8-8.74,13.34a37.4,37.4,0,0,0-.68,12.3,29.62,29.62,0,0,0-6.81,8.14c-2.65,5.12-2.71,11.13-2.7,16.9V334c0,4.48.2,9.06,2.1,13.09a13.54,13.54,0,0,0,1.56,2.54,13.49,13.49,0,0,0-3,3.18c-5,7.55-1.75,24.42-1.55,33.05,0,1.25.14,2.66,1.11,3.43a4.26,4.26,0,0,0,2.54.65,183.2,183.2,0,0,0,21.09-.38,2.3,2.3,0,0,0,2.5-1.7q4.38-9.69,8.21-19.63a32.12,32.12,0,0,0,2.48-9.41c.86,1.69,1.81,3.36,2.65,5.06,2.58,5.22,6.31,19.14,12.61,26.36h16.17c6.2-7.81,12.09-24.54,13.34-30.22C1019.79,359.36,1019.91,358.68,1020,358Z" transform="translate(-0.19 0.26)"/><path class="cls-2" d="M1104.59,380.12c3.22-5.08,4.77-11.58,2.6-17.19a13.77,13.77,0,0,0-1.33-2.59c4.65-4.06,6.34-12.84,5.47-17.82a12.13,12.13,0,0,0-1.69-4.69,9.93,9.93,0,0,0-4.59-3.62c-.19-.08-.39-.14-.58-.21a9.18,9.18,0,0,0-6.39,0l-.22.08c-3.79,1.68-5.48,6.14-6,10.25a28.88,28.88,0,0,0,.48,9.42,14.82,14.82,0,0,0-10.11,5.52,28,28,0,0,0-3.15,5.67c-2.88,6.36-8,16.83-8.73,25.3h25A46.93,46.93,0,0,0,1104.59,380.12Z" transform="translate(-0.19 0.26)"/><path class="cls-2" d="M910.67,389.06c6.19.31,23.74,3.55,16.86-8.93-4.21-7.66-15.49-7.16-23.6-6.47,3.28-8,4.74-18.11,5.28-26.41a21.3,21.3,0,0,0,0-3.66c2.4,1.8,6.39,1.48,7.83-1.17A3.78,3.78,0,0,1,918,341c-1.13,1.94-2,3.83-1.94,4.66,2.89-1.28,5.68-3.12,7.26-5.87a8.56,8.56,0,0,0,1-5.38,2,2,0,0,0,.24-.45.48.48,0,0,0,.05-.14,1.9,1.9,0,0,0-.41,0,6.62,6.62,0,0,0-.53-1.45,7.13,7.13,0,0,0,.91-.35c2.85-1.34,4.87-4,6.45-6.69a40.56,40.56,0,0,0,3.14-6.67,2.9,2.9,0,0,0,.12-2.42,2.84,2.84,0,0,0-1.22-1,12,12,0,0,0-7.57-1.35c-.14,0-.28,0-.41.08A8.79,8.79,0,0,0,921,316.5a12.92,12.92,0,0,0-3,5.44,22.83,22.83,0,0,0-.67,6.8,10.51,10.51,0,0,0-9.2,5c0,.08-.07.16-.12.24a9.09,9.09,0,0,0-1.1,4.57c-1.86-1.73-4.56-2.61-7.09-3.25-1.91-.49-3.84-.92-5.77-1.32-.5-.1-1-.22-1.49-.31a50.85,50.85,0,0,0,1-17.19,20.41,20.41,0,0,0-2.24-7.55c3.28-3.62,5.44-10.67,6.51-13.53,2.58-6.81,3.67-14.77.19-21.16a4,4,0,0,0-1.3-1.57,4.58,4.58,0,0,0-1.92-.49c-2.72-.27-5.51-.55-8.15.17-6.25,1.71-9.86,8.68-9.84,15.15a53.46,53.46,0,0,0,4.71,18.62,17.51,17.51,0,0,0-9.32,8.07,14.35,14.35,0,0,0-1,2.29,15.21,15.21,0,0,0,.77,11.73,37.82,37.82,0,0,0,3.93,5.77,35.35,35.35,0,0,0,5,5.1q-.3.52-.57,1a71.82,71.82,0,0,0-4.6,10.71,11.78,11.78,0,0,0-.86,5.44,12.79,12.79,0,0,0,2.15,4.76,69.91,69.91,0,0,0,7.36,10.28,39.27,39.27,0,0,0,3.27,3.16,161.31,161.31,0,0,1-34.5-3.67c-3.06-.66-6.1-1.4-9.11-2.24-2.18-.6-4.45-1.26-6.67-.82a13.27,13.27,0,0,0-5.44,3A137.73,137.73,0,0,0,812,390.24H865A345.44,345.44,0,0,1,910.67,389.06Z" transform="translate(-0.19 0.26)"/><path class="cls-12" d="M91.72,369.57c1.26-8.22,2.76-19.22,9.46-29.27-12.05,1.76-26,4.82-40.58-.8-13-5-19.41-14.13-24-22.42-5-9-7.9-17-14.65-17.58-3.73-.34-8.14,1.63-13.41,7.28A74.48,74.48,0,0,0,1,316.5l-.33.5c-.17.27-.35.54-.52.82v72.42H92.46A55.43,55.43,0,0,1,91.72,369.57Z" transform="translate(-0.19 0.26)"/><path class="cls-15" d="M340.5,361.81c-8-5.37-19.05-7.73-29.47-9.05-4.55-.57-9-.95-13-1.29l-3.28-.24c-35.45-2.4-53.41,6.2-65,.24-12.11-6.24,3.75-17.63-7.58-27.57-2.93-2.57-7.34-4.72-12.76-6.43-12.17-3.82-29.48-5.33-46.92-4a148.46,148.46,0,0,0-20.56,3c-1.15.26-2.3.53-3.44.81-3.58.91-7.06,1.95-10.37,3.15-13.58,4.91-21.8,12.09-26.95,19.84-6.7,10.05-8.2,21.05-9.46,29.27a55.43,55.43,0,0,0,.74,20.67H349C351.69,383.17,353.76,370.71,340.5,361.81Z" transform="translate(-0.19 0.26)"/><path class="cls-16" d="M714.47,350.84c-3-5.28-8.36-8.54-14.32-10.6-7.64-2.65-16.42-3.39-26.08-3.26-16,.22-34.4,2.85-54.27,3.39-4.49.12-9,.14-13.67,0q-5.82-.18-11.78-.73a156.51,156.51,0,0,1-16.79-2.49A125.32,125.32,0,0,1,565.39,334c-13.7-4.3-22.65-10.05-29.43-15.79-.67-.57-1.33-1.14-2-1.71-3.21-2.88-5.93-5.71-8.5-8.32-6.63-6.72-12.23-11.93-22.45-12.43-7.73-.37-17,2-28.16,8.93-7.77,4.81-16.48,11.82-26.26,21.63q-2.52,2.52-5.13,5.3c-12.1,12.87-25.76,29.86-41.19,52-1.5,2.15-3,4.36-4.55,6.61H706.64C718.18,370.86,718.9,358.64,714.47,350.84Z" transform="translate(-0.19 0.26)"/><polygon class="cls-17" points="741.81 203.26 741.81 210.26 747.81 210.26 818.81 210.26 824.81 210.26 824.81 203.26 813.31 203.26 753.81 203.26 741.81 203.26"/><polygon class="cls-11" points="780.81 78.26 785.81 78.26 785.81 75.06 785.81 71.85 785.81 63.26 784.81 63.26 784.81 67.26 781.81 67.26 781.81 63.26 780.81 63.26 780.81 69.36 780.81 74.78 780.81 78.26"/><polygon class="cls-11" points="784.81 67.26 784.81 63.26 784.81 52.26 781.81 52.26 781.81 63.26 781.81 67.26 784.81 67.26"/></svg>