<?xml version="1.0" encoding="utf-8"?>
<?xml-stylesheet type="text/css" href="svg.css" ?>
<!-- Generator: Adobe Illustrator 23.0.4, SVG Export Plug-In . SVG Version: 6.00 Build 0)  -->
<svg version="1.1" id="图层_1" xmlns="http://www.w3.org/2000/svg" xmlns:xlink="http://www.w3.org/1999/xlink" x="0px" y="0px"
	 viewBox="0 0 701 258.5" style="enable-background:new 0 0 701 258.5;" xml:space="preserve">
<style type="text/css">
	.st0{fill:#FAAF3B;}
	.st1{fill:#F05A24;}
	.st2{fill:#BCCBD3;}
	.st3{fill:none;}
	.st4{fill:#006837;}
	.st5{fill:#22B473;}
	.st6{fill:#B2B2B2;}
	.st7{fill:#1B1464;}
	.st8{fill:#0071BB;}
	.st9{fill:#534741;}
	.st10{fill:#666666;}
	.st11{fill:#C59B6D;}
	.st12{fill:none;stroke:#000000;stroke-miterlimit:10;}
	.st13{fill:#FBED21;}
	.st14{fill:#8BC53F;}
	.st15{fill:#C6B198;}
	.st16{fill:#EC1C24;}
	.st17{fill:#29AAE1;}
	.st18{fill:#009145;}
	.st19{fill:#3FA8F4;}
	.st20{fill:#00FFFF;}
	.st21{fill:#00A89C;}
	.st22{fill:#2E3191;}
	.st23{fill:#FFFFFF;}
</style>
<g id="sun_1_">
	<g id="sun">
		<path id="sun" class="st0" d="M359,93c0,11.41-4.16,21.85-11.04,29.9c-8.43,9.85-20.97,16.1-34.96,16.1c-9.22,0-17.8-2.71-25-7.39
			c-1.03-0.66-2.03-1.37-3-2.12c-0.63-0.47-1.25-0.97-1.85-1.49c-0.75-0.64-1.49-1.31-2.2-2c-1.3-1.26-2.52-2.59-3.66-4
			c-0.53-0.65-1.04-1.32-1.53-2c-0.11-0.13-0.2-0.27-0.3-0.41c-0.82-1.16-1.59-2.36-2.31-3.59c-0.38-0.66-0.74-1.32-1.09-2
			c-0.66-1.3-1.27-2.63-1.82-4c-0.26-0.66-0.51-1.32-0.73-2c-0.46-1.3-0.85-2.64-1.18-4c-0.25-0.99-0.46-1.99-0.63-3
			c-0.24-1.31-0.41-2.65-0.53-4c-0.11-1.32-0.17-2.65-0.17-4c0-25.41,20.59-46,46-46S359,67.59,359,93z"/>
		<circle id="sun" class="st1" cx="313" cy="93" r="28"/>
	</g>
</g>
<g id="background">
	<path id="skycolor" class="st2" d="M0,0v204.72l7.5-1.16V123c6.67-2,13.33-4,20-6v74.2l4.5-12.6V105h20V92h8V73
		c-0.19-8.28,0.89-15.12,2-20c1.08-4.76,2.89-12.46,8-21c3.2-5.35,6.54-9.11,10-13c3.79-4.27,7.3-7.6,10-10c1.33,1.99,2.71,4.32,4,7
		c1.95,4.05,3.19,7.82,4,11c1.48,4.86,2.86,10.2,4,16c1.89,9.56,2.73,18.34,3,26v21.97c2.96-2.66,5.91-5.32,8.87-7.97
		c3.71,0.33,7.42,0.67,11.13,1v50.29c2-1.08,4-2.16,6-3.25V79h9v47.17c1.33-0.73,2.67-1.45,4-2.17v9.6l2-0.49V85h8v46.18l9-2.18
		l7.95,1.4c0.24-4.79,0.59-9.62,1.05-14.4c0.2-2,1.02-10.25,3-21c4.14-22.5,9.13-33.21,11-37c1.9-3.85,3.71-6.92,5-9
		c1.29,2.08,3.1,5.15,5,9c1.85,3.76,6.78,14.32,10.89,36.44c0.04,0.19,0.08,0.37,0.11,0.56c1.98,10.75,2.8,19,3,21
		c0.7,7.16,1.12,14.42,1.34,21.53L214,138l9-5.28V116h21V93h11v4h12.17c-0.11-1.32-0.17-2.65-0.17-4c0-25.41,20.59-46,46-46
		s46,20.59,46,46c0,11.41-4.16,21.85-11.04,29.9L370,129l18,30.75V123l24-6v56.6l7,1.4v-71h13V92h30v77
		c1.14,0.22,2.26,0.39,3.36,0.52l5.13-0.61c0.17-18.64,0.34-37.28,0.51-55.91c3-3.33,6-6.67,9-10c3,0.33,6,0.67,9,1v30.27
		c2,0.55,4,1.09,6,1.64V99h9v39.36c2,0.55,4,1.09,6,1.64v-35h8v37.18c1,0.27,2,0.55,3,0.82v3.97c3.7-1.71,8.76-3.52,15-3.97
		c2.5-0.18,4.59-0.1,6,0c1.41-0.1,3.5-0.18,6,0c5.18,0.38,9.55,1.69,13,3.1V143l33-9v20.31l16-1.89V152h-10v-23h10.04l0.08-46.08
		l6,0.01l0.01-5l18,0.04l-0.01,4.99l4,0.01L638.04,129H648v-18h4.07l0.01-7c4.68-2.33,9.35-4.65,14.02-6.98
		c-0.01,4.66-0.02,9.33-0.03,13.98h3l0.01-5.97h2l0.02-8l21,0.04l-0.02,8l4,0.01l-0.12,68.88l4.54,1.41v18.1h0.5V0H0z M244.5,92.5
		l5-3.5l6,3.5H244.5z"/>
	<polygon class="st3" points="255.5,92.5 244.5,92.5 249.5,89 	"/>
	<path class="st3" d="M695.96,173.96l0.12-68.88l-4-0.01l0.02-8l-21-0.04l-0.02,8h-2l-0.01,5.97h-3c0.01-4.65,0.02-9.32,0.03-13.98
		c-4.67,2.33-9.34,4.65-14.02,6.98l-0.01,7H648v18h-9.96l0.08-46.03l-4-0.01l0.01-4.99l-18-0.04l-0.01,5l-6-0.01L610.04,129H600v23
		h10v0.42l-16,1.89V134l-33,9v3.1c-3.45-1.41-7.82-2.72-13-3.1c-2.5-0.18-4.59-0.1-6,0c-1.41-0.1-3.5-0.18-6,0
		c-6.24,0.45-11.3,2.26-15,3.97V143c-1-0.27-2-0.55-3-0.82V105h-8v35c-2-0.55-4-1.09-6-1.64V99h-9v36.91c-2-0.55-4-1.09-6-1.64V104
		c-3-0.33-6-0.67-9-1c-3,3.33-6,6.67-9,10c-0.17,18.63-0.34,37.27-0.51,55.91l-5.13,0.61c-1.1-0.13-2.22-0.3-3.36-0.52V92h-30v12
		h-13v71l-7-1.4V117l-24,6v36.75L370,129l-22.04-6.1C354.84,114.85,359,104.41,359,93c0-25.41-20.59-46-46-46s-46,20.59-46,46
		c0,1.35,0.06,2.68,0.17,4H255v-4h-11v23h-21v16.72l-9,5.28l-2.66-0.47c-0.22-7.11-0.64-14.37-1.34-21.53c-0.2-2-1.02-10.25-3-21
		c-0.03-0.19-0.07-0.37-0.11-0.56C202.78,72.32,197.85,61.76,196,58c-1.9-3.85-3.71-6.92-5-9c-1.29,2.08-3.1,5.15-5,9
		c-1.87,3.79-6.86,14.5-11,37c-1.98,10.75-2.8,19-3,21c-0.46,4.78-0.81,9.61-1.05,14.4L163,129l-9,2.18V85h-8v48.11l-2,0.49V124
		c-1.33,0.72-2.67,1.44-4,2.17V79h-9v52.04c-2,1.09-4,2.17-6,3.25V84c-3.71-0.33-7.42-0.67-11.13-1c-2.96,2.65-5.91,5.31-8.87,7.97
		V69c-0.27-7.66-1.11-16.44-3-26c-1.14-5.8-2.52-11.14-4-16c-0.81-3.18-2.05-6.95-4-11c-1.29-2.68-2.67-5.01-4-7
		c-2.7,2.4-6.21,5.73-10,10c-3.46,3.89-6.8,7.65-10,13c-5.11,8.54-6.92,16.24-8,21c-1.11,4.88-2.19,11.72-2,20v19h-8v13H32v73.6
		l-4.5,12.6V117c-6.67,2-13.33,4-20,6v80.56L24,201l3.5-0.54l4.5-0.7l20-3.1l8-1.24V222h45v-17.28l15-1.85V222h24v-32h7v32h12v-32
		h47l13,7h8v25h57v-17h100v17h24v-17h7v17h43v-17h11l16-6.62l6-2.48l7-2.9h2l6,0.02l8,0.02l91.92,0.21l28,0.07l10.08,0.02
		l20.92,0.05l5.08,0.02l21.92,0.05l4.58,0.01v-18.1L695.96,173.96z"/>
	<rect x="246" y="104" class="st3" width="39" height="4"/>
	<polyline class="st3" points="462,205 444,205 432,205 419,205 	"/>
	<line class="st3" x1="412" y1="205" x2="388" y2="205"/>
	<polyline class="st3" points="288,205 267,205 267,197 258,197 244,197 231,197 	"/>
	<line class="st3" x1="163" y1="190" x2="151" y2="190"/>
	<polyline class="st3" points="120,202.87 127,202 132,190 144,190 	"/>
	<polyline class="st3" points="105,204.72 95,190 74.28,193.21 60,195.42 	"/>
	<polygon class="st4" points="400,205 388,204.87 288,203.81 267,203.59 259.74,203.51 250,203.4 244,203.34 231,203.2 223,203.12 
		163,202.48 151,202.35 144,202.28 126.29,202.09 126.28,202.09 120,202.02 118,202 105,201.86 103.04,201.84 101.5,201.82 
		82,201.62 74.27,201.53 60,201.38 56,201.34 52,201.3 32,201.09 27.5,201.04 24,201 27.5,191.2 32,178.6 34.98,170.25 39,159 
		50.23,156.28 52,155.85 55.24,155.07 56,154.89 60,153.92 74.09,150.51 75.81,150.09 82,148.6 102.16,143.72 105,143.03 120,139.4 
		125,138.19 131,136.74 140,134.56 144,133.6 146,133.11 151,131.9 153.31,131.35 154,131.18 163,129 170.95,130.4 211.34,137.53 
		214,138 223,132.72 244,120.39 246,119.22 250,116.87 251.48,116 254.89,114 260,111 265.4,114 269,116 275.46,119.59 276.2,120 
		278,121 280.7,120 285,118.41 288,117.3 295.21,114.63 305,111 327.17,117.14 347.96,122.9 370,129 394,170 	"/>
	<polygon class="st5" points="700.5,175.37 700.5,222 259.5,222 259.74,203.51 259.81,198 259.82,197 259.86,194 259.88,192 
		259.94,188 259.96,186 260,183 264.11,182 272.33,180 285,176.92 288,176.19 297,174 305,183 316,183 338,163 365,158 388,167.52 
		394,170 412,173.6 419,175 424.99,174.29 428.77,173.85 432,173.46 437.88,172.77 438.83,172.66 441.45,172.35 443,172.16 
		453.45,170.93 462,169.92 465.36,169.52 470.49,168.91 488,166.84 488.62,166.77 489,166.72 495,166.01 504,164.95 510,164.24 
		518,163.3 520.32,163.02 521,162.94 539.12,160.8 544.5,160.16 555.64,158.84 555.65,158.84 561,158.21 578.71,156.12 594,154.31 
		610,152.42 613.54,152 622,151 625.22,152 637.99,155.96 642.4,157.33 648,159.07 651.94,160.3 654.21,161 661.38,163.23 
		665,164.35 668.97,165.58 674,167.14 695.96,173.96 	"/>
</g>
<g id="buildings">
	<path class="st3" d="M90.5,9.5c-0.03,0.04-0.05,0.08-0.08,0.13 M73.82,127.53c-0.01-0.37-0.02-0.74-0.03-1.11
		c-0.2-8.85-0.44-15.83-0.7-21.44c0-0.07-0.04-0.99-0.08-2.59v-0.01c-0.01-0.23-0.02-0.47-0.02-0.72c-0.07-2.13-0.12-5.2-0.13-8.96
		c0-0.23,0-0.46,0-0.7 M60,195.42V222h14.21c0.03-7.2,0.05-14.02,0.06-20.47c0.01-2.84,0.01-5.62,0.01-8.32L60,195.42z"/>
	<path class="st6" d="M101.5,201.82V202h3.5v20H82V92h-9.14c0.01-3.87,0.06-8.43,0.23-13.43c1.02-29.58,4.82-41.6,6.22-45.71
		c3.36-9.87,7.66-17.74,11.11-23.23c1.2,1.85,2.42,3.97,3.58,6.37c1.95,4.05,3.19,7.82,4,11c1.48,4.86,2.86,10.2,4,16
		c1.89,9.56,2.73,18.34,3,26v21.97c-0.75,0.68-1.51,1.35-2.26,2.03c-0.2,16.91-0.39,33.81-0.58,50.72
		c-0.21,18.63-0.42,37.26-0.63,55.89C101.52,200.35,101.51,201.08,101.5,201.82z"/>
	<path class="st7" d="M90.42,9.63c-3.45,5.49-7.75,13.36-11.11,23.23c-1.4,4.11-5.2,16.13-6.22,45.71c-0.17,5-0.22,9.56-0.23,13.43
		H60V73c-0.19-8.28,0.89-15.12,2-20c1.08-4.76,2.89-12.46,8-21c3.2-5.35,6.54-9.11,10-13c3.79-4.27,7.3-7.6,10-10
		C90.14,9.21,90.28,9.42,90.42,9.63z"/>
	<path class="st3" d="M82,92v130h-7.79c0.03-7.2,0.05-14.02,0.06-20.47c0.01-2.84,0.01-5.62,0.01-8.32c0-8.46-0.01-16.25-0.05-23.43
		c-0.03-6.99-0.08-13.39-0.14-19.27c-0.01-1.07-0.02-2.13-0.04-3.17v-0.01c-0.08-7.89-0.2-14.76-0.33-20.8l-6.75,9.97L60,126.2V92
		H82z"/>
	<path class="st3" d="M105,90.97V202h-3.5v-0.18c0.01-0.74,0.02-1.47,0.03-2.21c0.21-18.63,0.42-37.26,0.63-55.89
		c0.19-16.91,0.38-33.81,0.58-50.72C103.49,92.32,104.25,91.65,105,90.97z"/>
	<path class="st8" d="M244,101v121h44V101H244z M285,198h-35v-4h35V198z M285,192h-35v-4h35V192z M285,186h-35v-4h35V186z M285,180
		h-35v-4h35V180z M285,174h-35v-4h35V174z M285,168h-35v-4h35V168z M285,162h-35v-4h35V162z M285,156h-35v-4h35V156z M285,150h-35
		v-4h35V150z M285,144h-35v-4h35V144z M285,138h-35v-4h35V138z M285,132h-35v-4h35V132z M285,126h-35v-4h35V126z M285,120h-35v-4h35
		V120z M285,114h-39v-4h39V114z M285,108h-39v-4h39V108z"/>
	<polygon class="st9" points="412,117 412,222 388,222 388,123 	"/>
	<g>
		<rect x="432" y="92" class="st9" width="30" height="130"/>
		<polygon class="st9" points="447.48,93 432.5,115.12 446.97,136.5 461.5,115.04 		"/>
		<polygon class="st9" points="447.48,137 432.5,159.12 446.97,180.5 461.5,159.04 		"/>
	</g>
	<rect x="648" y="111" class="st10" width="26" height="111"/>
	<g>
		<path class="st7" d="M211.54,151.65c-2.7-2.01-9.67-6.54-19.54-6.65c-11.18-0.13-18.91,5.48-21.53,7.61
			c-0.04-7.15,0.1-14.64,0.48-22.21c0.24-4.79,0.59-9.62,1.05-14.4c0.2-2,1.02-10.25,3-21c2.76-1.47,8.86-4.24,17-4
			c7.02,0.21,12.3,2.56,15,4c1.98,10.75,2.8,19,3,21c0.7,7.16,1.12,14.42,1.34,21.53C211.49,142.33,211.55,147.06,211.54,151.65z"/>
		<path class="st7" d="M207,95c-2.7-1.44-7.98-3.79-15-4c-8.14-0.24-14.24,2.53-17,4c4.14-22.5,9.13-33.21,11-37
			c1.9-3.85,3.71-6.92,5-9c1.29,2.08,3.1,5.15,5,9c1.85,3.76,6.78,14.32,10.89,36.44C206.93,94.63,206.97,94.81,207,95z"/>
		<path class="st7" d="M211.54,151.65c-0.04,15.04-0.82,28.64-1.54,38.35h-38c-0.71-9.51-1.47-22.74-1.53-37.39
			c2.62-2.13,10.35-7.74,21.53-7.61C201.87,145.11,208.84,149.64,211.54,151.65z"/>
		<path class="st3" d="M212,152c-0.14-0.1-0.29-0.22-0.46-0.35"/>
		<path class="st3" d="M170.47,152.61c-0.18,0.15-0.34,0.28-0.47,0.39"/>
	</g>
	<path class="st10" d="M666.1,97.02c-0.01,4.66-0.02,9.33-0.03,13.98c0,0.01,0,0.01,0,0.02l-14-0.02l0.01-7
		C656.76,101.67,661.43,99.35,666.1,97.02z"/>
	<rect x="244" y="97" class="st7" width="44" height="4"/>
	<rect x="244" y="93" class="st11" width="11" height="4"/>
	<rect x="277" y="93" class="st11" width="11" height="4"/>
	<polygon class="st7" points="255.5,92.5 244.5,92.5 249.5,89 	"/>
	<polygon class="st7" points="288,93 277,93 282,89 	"/>
	<line class="st12" x1="249" y1="62" x2="249" y2="89"/>
	<line class="st12" x1="282" y1="62" x2="282" y2="89"/>
	<rect x="246" y="104" class="st13" width="39" height="4"/>
	<rect x="246" y="110" class="st13" width="39" height="4"/>
	<rect x="250" y="116" class="st13" width="35" height="4"/>
	<rect x="246" y="116" class="st3" width="4" height="4"/>
	<rect x="250" y="122" class="st13" width="35" height="4"/>
	<rect x="246" y="122" class="st3" width="4" height="4"/>
	<rect x="250" y="128" class="st13" width="35" height="4"/>
	<rect x="246" y="128" class="st3" width="4" height="4"/>
	<rect x="250" y="134" class="st13" width="35" height="4"/>
	<rect x="246" y="134" class="st3" width="4" height="4"/>
	<rect x="250" y="140" class="st13" width="35" height="4"/>
	<rect x="246" y="140" class="st3" width="4" height="4"/>
	<rect x="250" y="146" class="st13" width="35" height="4"/>
	<rect x="246" y="146" class="st3" width="4" height="4"/>
	<rect x="250" y="152" class="st13" width="35" height="4"/>
	<rect x="246" y="152" class="st3" width="4" height="4"/>
	<rect x="250" y="158" class="st14" width="35" height="4"/>
	<rect x="246" y="158" class="st3" width="4" height="4"/>
	<rect x="250" y="164" class="st14" width="35" height="4"/>
	<rect x="246" y="164" class="st3" width="4" height="4"/>
	<rect x="250" y="170" class="st14" width="35" height="4"/>
	<rect x="246" y="170" class="st3" width="4" height="4"/>
	<rect x="250" y="176" class="st14" width="35" height="4"/>
	<rect x="246" y="176" class="st3" width="4" height="4"/>
	<rect x="250" y="182" class="st14" width="35" height="4"/>
	<rect x="246" y="182" class="st3" width="4" height="4"/>
	<rect x="250" y="188" class="st14" width="35" height="4"/>
	<rect x="246" y="188" class="st3" width="4" height="4"/>
	<rect x="250" y="194" class="st14" width="35" height="4"/>
	<rect x="246" y="194" class="st3" width="4" height="4"/>
	<rect x="223" y="116" class="st15" width="27" height="106"/>
	<g>
		<rect x="419" y="104" class="st9" width="24" height="118"/>
		<polygon class="st9" points="431.38,104.91 419.4,124.99 430.98,144.39 442.6,124.92 		"/>
		<polygon class="st9" points="431.38,144.85 419.4,164.93 430.98,184.33 442.6,164.85 		"/>
	</g>
	<path class="st9" d="M489,104v118h-19c0.05-5.67,0.1-11.33,0.16-17c0.03-4,0.07-8,0.11-12c0.02-3.2,0.05-6.41,0.08-9.61
		c0.02-1.32,0.03-2.64,0.04-3.96c0.01-0.81,0.01-1.62,0.02-2.43c0.02-2.39,0.05-4.77,0.07-7.16c0-0.31,0-0.62,0.01-0.93
		c0.17-18.64,0.34-37.28,0.51-55.91c3-3.33,6-6.67,9-10C483,103.33,486,103.67,489,104z"/>
	<rect x="495" y="99" class="st9" width="9" height="123"/>
	<rect x="510" y="105" class="st9" width="8" height="117"/>
	<polygon class="st10" points="638.12,82.97 638.04,129 638,152 637.99,155.96 637.98,162.02 637.95,175.59 637.95,177 
		637.94,180.49 637.92,193 637.92,193.32 637.87,221.97 609.87,221.92 609.92,193.25 609.92,193 609.94,183.05 609.95,179.28 
		609.95,177 609.96,169.76 610,152.42 610,152 610.04,129 610.12,82.92 616.12,82.93 617.76,82.93 634.12,82.96 	"/>
	<rect x="600" y="129" class="st10" width="48" height="23"/>
	<polygon class="st10" points="696.08,105.08 695.96,173.96 695.92,193.46 695.87,222 695.87,222.08 668.87,222.03 668.87,222 
		668.92,193.39 668.97,165.58 669.07,111 669.08,105.03 671.08,105.03 692.08,105.07 	"/>
	
		<rect x="677.59" y="90.55" transform="matrix(2.494796e-03 -1 1 2.494796e-03 578.8425 782.3839)" class="st10" width="8" height="21"/>
	<polygon class="st10" points="634.13,77.97 634.12,82.96 634.12,82.97 617.76,82.93 616.12,82.93 616.13,77.93 	"/>
	<g>
		<path class="st0" d="M521,143v50h-33v-59c0.33,0.09,0.67,0.18,1,0.27c2,0.55,4,1.09,6,1.64c3,0.82,6,1.64,9,2.45
			c2,0.55,4,1.09,6,1.64c2.67,0.73,5.33,1.45,8,2.18C519,142.45,520,142.73,521,143z"/>
		<polygon class="st16" points="594,134 594,193 561,193 561,143 		"/>
		<rect x="426" y="177" class="st8" width="116" height="16"/>
		<path class="st17" d="M542,143v13h-0.3c-8.87,0.04-15.51,3.79-17.7,5c-0.92,0.51-1.92,1.06-3,1.65c-0.22,0.12-0.45,0.25-0.68,0.37
			c-0.74,0.41-1.52,0.82-2.32,1.25c-2.44,1.31-5.14,2.72-8,4.11c-1.93,0.95-3.94,1.89-6,2.8c-2.93,1.31-5.96,2.55-9,3.63
			c-2,0.72-4.01,1.36-6,1.91c-0.34,0.1-0.67,0.19-1,0.28c-6.7,1.77-12.78,2.35-17.61,2.43c-3.56,0.08-6.43-0.13-8.39-0.33
			c-0.37-0.03-0.7-0.07-1-0.1c-3.73-0.44-7.19-1.14-10.37-2c-0.36-0.1-0.73-0.2-1.08-0.31c-2.35-0.67-4.54-1.43-6.55-2.23
			c-0.06-0.02-0.11-0.04-0.16-0.07h-0.01c-1.42-0.56-2.76-1.15-4-1.73c-0.24-0.11-0.47-0.22-0.69-0.33
			c-2.41-1.16-4.47-2.32-6.14-3.33l-10.99-6.76L419,161h12l1-0.67l0.91-0.6l4.96-3.31L440,155c0.7,1.14,1.68,2.55,3,4.05
			c0.85,0.97,1.85,1.97,3,2.95c3.31,2.81,6.74,4.44,9.8,5.46c2.36,0.78,4.5,1.21,6.2,1.54c1.14,0.22,2.26,0.39,3.36,0.52
			c1.77,0.21,3.48,0.31,5.12,0.32c8.85,0.11,15.62-2.16,17.52-2.84c0.21-0.07,0.42-0.15,0.62-0.23c0.13-0.04,0.26-0.09,0.38-0.14
			c2.48-0.94,4.32-1.9,6-2.98c2.75-1.76,5.06-3.83,9-6.63c1.66-1.18,3.6-2.5,6-3.97c1.99-1.23,4.3-2.58,7-4.05
			c0.31-0.17,0.64-0.35,1-0.54c0.87-0.46,1.87-0.97,3-1.49c3.7-1.71,8.76-3.52,15-3.97C538.5,142.82,540.59,142.9,542,143z"/>
		<path class="st7" d="M542,156c-0.96,1.6-1.92,3.2-2.88,4.8c-0.04,0.07-0.08,0.13-0.12,0.2c-7.77,2.3-13.64,4.47-18,6.27
			c-1.09,0.45-2.09,0.88-3,1.28c-0.35,0.16-0.68,0.3-1,0.45c-2.76,1.25-5.04,2.28-7,3.15c-1.95,0.86-3.61,1.57-5.12,2.22
			c-0.3,0.13-0.59,0.25-0.88,0.37c-1.88,0.79-3.6,1.49-5.51,2.26c-0.79,0.32-1.61,0.65-2.49,1c-0.34,0.1-0.67,0.19-1,0.28
			c-2.33,0.67-4.31,1.24-6,1.71c-0.35,0.1-0.68,0.19-1,0.28c-3.17,0.88-5.3,1.43-7,1.73c-2.56,0.46-6.25,1.11-10.65,1.39
			c-2.57,0.16-5.38,0.2-8.35,0.01c-1.3-0.08-2.64-0.22-4-0.4c-5.62-0.76-11.89-2.49-12.77-2.73c-0.8-0.22-1.54-0.44-2.23-0.65
			c-0.72-0.22-1.39-0.43-2-0.62c-2.14-0.69-4-1.36-5.6-2c-0.02,0-0.03-0.01-0.04-0.01c-1.27-0.51-2.38-0.99-3.36-1.46
			c-1.31-0.61-2.37-1.18-3.23-1.68c-1.34-0.78-2.21-1.42-2.77-1.85c-2.25-1.71-4.02-3.47-5.37-5.01l-0.01-0.01
			c-0.63-0.72-1.17-1.39-1.62-1.98v-4l2.01,1.24L432,169c1.67,1.01,3.73,2.17,6.14,3.33c0.22,0.11,0.45,0.22,0.69,0.33
			c1.24,0.58,2.58,1.17,4,1.73h0.01c0.05,0.03,0.1,0.05,0.16,0.07c2.01,0.8,4.2,1.56,6.55,2.23c0.35,0.11,0.72,0.21,1.08,0.31
			c3.18,0.86,6.64,1.56,10.37,2c0.3,0.03,0.63,0.07,1,0.1c1.96,0.2,4.83,0.41,8.39,0.33c4.83-0.08,10.91-0.66,17.61-2.43
			c0.33-0.09,0.66-0.18,1-0.28c1.99-0.55,4-1.19,6-1.91c3.04-1.08,6.07-2.32,9-3.63c2.06-0.91,4.07-1.85,6-2.8
			c2.86-1.39,5.56-2.8,8-4.11c0.8-0.43,1.58-0.84,2.32-1.25c0.23-0.12,0.46-0.25,0.68-0.37c1.08-0.59,2.08-1.14,3-1.65
			c2.19-1.21,8.83-4.96,17.7-5L542,156L542,156z"/>
		<rect x="549" y="177" class="st8" width="98" height="16"/>
		<path class="st17" d="M665,161l-3.62,2.23L652,169c-0.36,0.21-0.73,0.43-1.11,0.66c-0.88,0.51-1.84,1.05-2.89,1.59
			c-1.95,1.03-4.19,2.09-6.71,3.09c-0.23,0.1-0.46,0.19-0.69,0.27c-0.85,0.34-1.74,0.67-2.65,0.98c-0.37,0.13-0.73,0.25-1.11,0.37
			c-0.3,0.1-0.59,0.19-0.9,0.29c-0.83,0.26-1.69,0.51-2.57,0.75c-1.19,0.32-2.43,0.63-3.7,0.89c-0.33,0.08-0.68,0.15-1.03,0.22
			c-0.26,0.05-0.53,0.11-0.79,0.15c-0.39,0.08-0.79,0.15-1.18,0.21c-0.31,0.06-0.61,0.11-0.92,0.15c-0.41,0.07-0.83,0.13-1.24,0.18
			c-0.09,0.02-0.19,0.03-0.29,0.04c-0.4,0.06-0.81,0.11-1.22,0.16c-0.11,0.01-0.22,0.02-0.33,0.04c-0.34,0.04-0.72,0.08-1.14,0.11
			c-0.28,0.03-0.57,0.05-0.88,0.08c-0.3,0.03-0.62,0.05-0.96,0.07s-0.7,0.04-1.07,0.06c-0.36,0.02-0.73,0.03-1.11,0.05
			c-2.15,0.07-4.7,0.07-7.56-0.13c-2.8-0.18-5.91-0.55-9.22-1.2c-0.57-0.11-1.14-0.23-1.72-0.36c-0.58-0.12-1.16-0.26-1.75-0.4
			c-0.42-0.1-0.84-0.21-1.26-0.32c-0.66-0.18-1.33-0.36-2-0.56c-0.4-0.12-0.81-0.24-1.22-0.37c-0.37-0.11-0.73-0.23-1.09-0.35
			c-0.78-0.25-1.55-0.51-2.32-0.78c-1.55-0.55-3.09-1.13-4.62-1.74c-0.06-0.02-0.12-0.05-0.18-0.07c-0.67-0.27-1.33-0.55-1.99-0.82
			c-0.17-0.07-0.34-0.15-0.51-0.22c-0.59-0.26-1.18-0.51-1.76-0.77c-0.65-0.28-1.29-0.57-1.92-0.86c-0.48-0.22-0.95-0.44-1.42-0.66
			c-0.55-0.25-1.09-0.51-1.63-0.77c-4.47-2.14-8.59-4.33-12.01-6.2c-0.6-0.33-1.18-0.65-1.74-0.95c-0.2-0.11-0.4-0.22-0.59-0.33
			c-0.34-0.19-0.68-0.37-1-0.55c-0.14-0.08-0.29-0.16-0.46-0.25c-0.08-0.05-0.17-0.1-0.27-0.15c-0.19-0.1-0.39-0.21-0.62-0.33
			c-0.22-0.11-0.45-0.24-0.7-0.36c-0.25-0.13-0.52-0.26-0.8-0.39c-0.14-0.07-0.29-0.14-0.44-0.2c-0.33-0.16-0.69-0.32-1.06-0.48
			h-0.01c-1.61-0.68-3.55-1.38-5.76-1.91c-0.42-0.1-0.85-0.2-1.3-0.28c-0.17-0.04-0.34-0.07-0.51-0.1c-0.24-0.04-0.47-0.08-0.7-0.13
			c-0.77-0.12-1.57-0.22-2.39-0.29c-0.23-0.02-0.46-0.04-0.69-0.06c-0.32-0.02-0.65-0.04-0.97-0.05c-0.34-0.01-0.68-0.02-1.02-0.02
			H542v-13c1.41-0.1,3.5-0.18,6,0c5.18,0.38,9.55,1.69,13,3.1c2.49,1.01,4.51,2.09,6,2.9c5.15,2.81,8.84,5.13,11.71,7.12
			c7.01,4.82,9.11,7.57,15.29,10.12c0.62,0.25,1.29,0.51,2,0.76c1.64,0.58,6.88,2.35,13.96,2.76c3.61,0.22,7.71,0.08,12.04-0.76
			c3.92-0.76,10.14-2.03,15.98-6.98c0.01-0.01,0.01-0.01,0.02-0.02c1.86-1.58,3.31-3.21,4.4-4.67c0.65-0.85,1.17-1.64,1.6-2.33
			l4,2.67l3.94,2.63L653,161H665z"/>
		<path class="st7" d="M665,161v4c-1.41,1.85-3.69,4.48-7,7c-1.57,1.2-5.42,3.92-15,7c-1.19,0.38-2.6,0.82-4.23,1.27
			c-0.88,0.24-7.15,1.97-12.77,2.73c-9.75,1.32-18.29-0.15-23-1c-1.42-0.26-3.15-0.68-5.53-1.32c-2.38-0.65-5.42-1.52-9.47-2.68
			c-6.68-2.67-10.01-4.01-21-9c-4.54-2.06-11.55-4.9-22-8c-1-1.67-2-3.33-3-5h0.3c8.87,0.04,15.51,3.79,17.7,5
			c8.13,4.49,22.53,12.44,36,16c12.53,3.31,22.9,2.47,27,2c13.35-1.55,23.35-6.58,29-10L665,161z"/>
	</g>
	<path class="st6" d="M125,84v118h-23.5v-0.18c0.01-0.74,0.02-1.47,0.03-2.21c0.21-18.63,0.42-37.26,0.63-55.89
		c0.19-16.91,0.38-33.81,0.58-50.72c0.75-0.68,1.51-1.35,2.26-2.03c2.96-2.66,5.91-5.32,8.87-7.97C117.58,83.33,121.29,83.67,125,84
		z"/>
	<rect x="131" y="79" class="st10" width="9" height="123"/>
	<rect x="146" y="85" class="st10" width="8" height="117"/>
	<path class="st9" d="M27.5,117v105h-20v-99C14.17,121,20.83,119,27.5,117z"/>
	<g>
		<rect x="52" y="92" class="st9" width="30" height="130"/>
		<polygon class="st9" points="67.48,93 52.5,115.12 66.97,136.5 81.5,115.04 		"/>
		<polygon class="st9" points="67.48,137 52.5,159.12 66.97,180.5 81.5,159.04 		"/>
	</g>
	<g>
		<rect x="32" y="105" class="st9" width="24" height="118"/>
		<polygon class="st9" points="44.38,105.91 32.4,125.99 43.98,145.39 55.6,125.92 		"/>
		<polygon class="st9" points="44.38,145.85 32.4,165.93 43.98,185.33 55.6,165.85 		"/>
	</g>
	<path class="st18" d="M144,124v98h-24v-85c1.67-0.9,3.33-1.8,5-2.71c2-1.08,4-2.16,6-3.25c3-1.62,6-3.25,9-4.87
		C141.33,125.44,142.67,124.72,144,124z"/>
	<path class="st18" d="M163,137v85h-12c0-30.67,0-61.33,0-92C155,132.33,159,134.67,163,137z"/>
</g>
<g id="foreground">
	<path class="st19" d="M248.05,219c12.46-9.03,25.36-12.24,32.36-13.5c3.48-0.72,15.9-2.93,25.55,3c1.96,1.21,5.53,3.46,6.81,7.5
		c0.1,0.33,1.74,5.76-1.7,9c-1.02,0.95-2.68,1.91-3.41,1.5c-1-0.57,0.98-3.03,0-6c-0.58-1.75-2.3-4.05-5.11-4.5
		c-2.9-0.47-5.56,1.26-6.81,3c-2.16,2.99-0.49,6.48,0,7.5c1.74,3.63,5.38,5.35,6.81,6c8.23,3.74,18.06,1.24,23.85,0
		c0,0,16.92-3.62,37.47-3c8.2,0.25,28.63,1.1,45.99,13.5c6.73,4.81,11.06,9.96,13.63,13.5c-67,0-134,0-201,0
		C223.93,250.6,229.16,232.69,248.05,219z"/>
	<polygon class="st14" points="0,258.5 0,203.01 60,192.34 105,203.01 163,187 212,187 223,194.47 288,203.01 470,203.01 504,190.2 
		701,190.2 701,258.5 	"/>
	<rect x="351" y="193" class="st0" width="350" height="19"/>
	<path class="st20" d="M295.9,197.25c15.31-13.55,31.17-18.36,39.77-20.25c4.28-1.08,19.53-4.39,31.4,4.5
		c2.41,1.81,6.79,5.18,8.37,11.25c0.13,0.49,2.14,8.64-2.09,13.5c-1.25,1.43-3.29,2.87-4.19,2.25c-1.23-0.85,1.2-4.55,0-9
		c-0.71-2.62-2.83-6.07-6.28-6.75c-3.57-0.7-6.83,1.89-8.37,4.5c-2.65,4.49-0.6,9.72,0,11.25c2.14,5.45,6.61,8.02,8.37,9
		c10.11,5.62,22.2,1.86,29.31,0c0,0,20.79-5.43,46.05-4.5c10.08,0.37,35.18,1.65,56.52,20.25c8.28,7.21,13.59,14.94,16.75,20.25
		c-82.33,0-164.67,0-247,0C266.25,244.65,272.69,217.79,295.9,197.25z"/>
	<path class="st20" d="M64.05,221c12.46-9.03,25.36-12.24,32.36-13.5c3.48-0.72,15.9-2.93,25.55,3c1.96,1.21,5.53,3.46,6.81,7.5
		c0.1,0.33,1.74,5.76-1.7,9c-1.02,0.95-2.68,1.91-3.41,1.5c-1-0.57,0.98-3.03,0-6c-0.58-1.75-2.3-4.05-5.11-4.5
		c-2.9-0.47-5.56,1.26-6.81,3c-2.16,2.99-0.49,6.48,0,7.5c1.74,3.63,5.38,5.35,6.81,6c8.23,3.74,18.06,1.24,23.85,0
		c0,0,16.92-3.62,37.47-3c8.2,0.25,28.63,1.1,45.99,13.5c6.73,4.81,11.06,9.96,13.63,13.5c-67,0-134,0-201,0
		C39.93,252.6,45.16,234.69,64.05,221z"/>
	<path class="st20" d="M144.05,221c12.46-9.03,25.36-12.24,32.36-13.5c3.48-0.72,15.9-2.93,25.55,3c1.96,1.21,5.53,3.46,6.81,7.5
		c0.1,0.33,1.74,5.76-1.7,9c-1.02,0.95-2.68,1.91-3.41,1.5c-1-0.57,0.98-3.03,0-6c-0.58-1.75-2.3-4.05-5.11-4.5
		c-2.9-0.47-5.56,1.26-6.81,3c-2.16,2.99-0.49,6.48,0,7.5c1.74,3.63,5.38,5.35,6.81,6c8.23,3.74,18.06,1.24,23.85,0
		c0,0,16.92-3.62,37.47-3c8.2,0.25,28.63,1.1,45.99,13.5c6.73,4.81,11.06,9.96,13.63,13.5c-67,0-134,0-201,0
		C119.93,252.6,125.16,234.69,144.05,221z"/>
	<path class="st20" d="M525.05,221c12.46-9.03,25.36-12.24,32.36-13.5c3.48-0.72,15.9-2.93,25.55,3c1.96,1.21,5.53,3.46,6.81,7.5
		c0.1,0.33,1.74,5.76-1.7,9c-1.02,0.95-2.68,1.91-3.41,1.5c-1-0.57,0.98-3.03,0-6c-0.58-1.75-2.3-4.05-5.11-4.5
		c-2.9-0.47-5.56,1.26-6.81,3c-2.16,2.99-0.49,6.48,0,7.5c1.74,3.63,5.38,5.35,6.81,6c8.23,3.74,18.06,1.24,23.85,0
		c0,0,16.92-3.62,37.47-3c8.2,0.25,28.63,1.1,45.99,13.5c6.73,4.81,11.06,9.96,13.63,13.5c-67,0-134,0-201,0
		C500.93,252.6,506.16,234.69,525.05,221z"/>
	<path class="st17" d="M376.05,221c12.46-9.03,25.36-12.24,32.36-13.5c3.48-0.72,15.9-2.93,25.55,3c1.96,1.21,5.53,3.46,6.81,7.5
		c0.1,0.33,1.74,5.76-1.7,9c-1.02,0.95-2.68,1.91-3.41,1.5c-1-0.57,0.98-3.03,0-6c-0.58-1.75-2.3-4.05-5.11-4.5
		c-2.9-0.47-5.56,1.26-6.81,3c-2.16,2.99-0.49,6.48,0,7.5c1.74,3.63,5.38,5.35,6.81,6c8.23,3.74,18.06,1.24,23.85,0
		c0,0,16.92-3.62,37.47-3c8.2,0.25,28.63,1.1,45.99,13.5c6.73,4.81,11.06,9.96,13.63,13.5c-67,0-134,0-201,0
		C351.93,252.6,357.16,234.69,376.05,221z"/>
	<path class="st17" d="M218.34,218.84c13.58-9.55,27.63-12.95,35.26-14.28c3.8-0.76,17.32-3.1,27.84,3.17
		c2.14,1.28,6.02,3.65,7.42,7.93c0.11,0.34,1.9,6.09-1.86,9.52c-1.11,1.01-2.92,2.02-3.71,1.59c-1.09-0.6,1.07-3.21,0-6.35
		c-0.63-1.85-2.51-4.28-5.57-4.76c-3.16-0.5-6.06,1.33-7.42,3.17c-2.35,3.17-0.53,6.86,0,7.93c1.89,3.84,5.86,5.66,7.42,6.35
		c8.97,3.96,19.68,1.31,25.98,0c0,0,18.43-3.83,40.83-3.17c8.94,0.26,31.19,1.17,50.11,14.28c7.34,5.08,12.05,10.53,14.85,14.28
		c-73,0-146,0-219,0C192.05,252.26,197.76,233.32,218.34,218.84z"/>
	<path class="st21" d="M242.5,233.5c7.32-6.02,14.89-8.16,19-9c2.05-0.48,9.33-1.95,15,2c1.15,0.8,3.24,2.3,4,5
		c0.06,0.22,1.02,3.84-1,6c-0.6,0.64-1.57,1.28-2,1c-0.59-0.38,0.57-2.02,0-4c-0.34-1.17-1.35-2.7-3-3c-1.7-0.31-3.26,0.84-4,2
		c-1.27,2-0.29,4.32,0,5c1.02,2.42,3.16,3.57,4,4c4.83,2.5,10.6,0.82,14,0c0,0,9.93-2.41,22-2c4.82,0.16,16.8,0.74,27,9
		c3.95,3.2,6.49,6.64,8,9c-39.33,0-78.67,0-118,0C228.34,254.56,231.41,242.63,242.5,233.5z"/>
	<path class="st8" d="M124.5,233.5c7.32-6.02,14.89-8.16,19-9c2.05-0.48,9.33-1.95,15,2c1.15,0.8,3.24,2.3,4,5
		c0.06,0.22,1.02,3.84-1,6c-0.6,0.64-1.57,1.28-2,1c-0.59-0.38,0.57-2.02,0-4c-0.34-1.17-1.35-2.7-3-3c-1.7-0.31-3.26,0.84-4,2
		c-1.27,2-0.29,4.32,0,5c1.02,2.42,3.16,3.57,4,4c4.83,2.5,10.6,0.82,14,0c0,0,9.93-2.41,22-2c4.82,0.16,16.8,0.74,27,9
		c3.95,3.2,6.49,6.64,8,9c-39.33,0-78.67,0-118,0C110.34,254.56,113.41,242.63,124.5,233.5z"/>
	<path class="st8" d="M220.59,239.03c6.39-4.69,13-6.36,16.58-7.01c1.79-0.38,8.15-1.52,13.09,1.56c1.01,0.63,2.83,1.79,3.49,3.89
		c0.05,0.17,0.89,2.99-0.87,4.67c-0.52,0.5-1.37,0.99-1.75,0.78c-0.51-0.29,0.5-1.57,0-3.12c-0.3-0.91-1.18-2.1-2.62-2.34
		c-1.49-0.24-2.85,0.65-3.49,1.56c-1.1,1.55-0.25,3.37,0,3.89c0.89,1.89,2.76,2.78,3.49,3.12c4.22,1.94,9.26,0.64,12.22,0
		c0,0,8.67-1.88,19.2-1.56c4.2,0.13,14.67,0.57,23.57,7.01c3.45,2.5,5.67,5.17,6.98,7.01c-34.33,0-68.67,0-103,0
		C208.23,255.44,210.91,246.14,220.59,239.03z"/>
	<path class="st21" d="M371.5,233.5c7.32-6.02,14.89-8.16,19-9c2.05-0.48,9.33-1.95,15,2c1.15,0.8,3.24,2.3,4,5
		c0.06,0.22,1.02,3.84-1,6c-0.6,0.64-1.57,1.28-2,1c-0.59-0.38,0.57-2.02,0-4c-0.34-1.17-1.35-2.7-3-3c-1.7-0.31-3.26,0.84-4,2
		c-1.27,2-0.29,4.32,0,5c1.02,2.42,3.16,3.57,4,4c4.83,2.5,10.6,0.82,14,0c0,0,9.93-2.41,22-2c4.82,0.16,16.8,0.74,27,9
		c3.95,3.2,6.49,6.64,8,9c-39.33,0-78.67,0-118,0C357.34,254.56,360.41,242.63,371.5,233.5z"/>
	<path class="st8" d="M349.59,239.03c6.39-4.69,13-6.36,16.58-7.01c1.79-0.38,8.15-1.52,13.09,1.56c1.01,0.63,2.83,1.79,3.49,3.89
		c0.05,0.17,0.89,2.99-0.87,4.67c-0.52,0.5-1.37,0.99-1.75,0.78c-0.51-0.29,0.5-1.57,0-3.12c-0.3-0.91-1.18-2.1-2.62-2.34
		c-1.49-0.24-2.85,0.65-3.49,1.56c-1.1,1.55-0.25,3.37,0,3.89c0.89,1.89,2.76,2.78,3.49,3.12c4.22,1.94,9.26,0.64,12.22,0
		c0,0,8.67-1.88,19.2-1.56c4.2,0.13,14.67,0.57,23.57,7.01c3.45,2.5,5.67,5.17,6.98,7.01c-34.33,0-68.67,0-103,0
		C337.23,255.44,339.91,246.14,349.59,239.03z"/>
	<path class="st21" d="M511.5,233.5c7.32-6.02,14.89-8.16,19-9c2.05-0.48,9.33-1.95,15,2c1.15,0.8,3.24,2.3,4,5
		c0.06,0.22,1.02,3.84-1,6c-0.6,0.64-1.57,1.28-2,1c-0.59-0.38,0.57-2.02,0-4c-0.34-1.17-1.35-2.7-3-3c-1.7-0.31-3.26,0.84-4,2
		c-1.27,2-0.29,4.32,0,5c1.02,2.42,3.16,3.57,4,4c4.83,2.5,10.6,0.82,14,0c0,0,9.93-2.41,22-2c4.82,0.16,16.8,0.74,27,9
		c3.95,3.2,6.49,6.64,8,9c-39.33,0-78.67,0-118,0C497.34,254.56,500.41,242.63,511.5,233.5z"/>
	<path class="st22" d="M487.81,246.24c5.52-2.95,11.23-4,14.33-4.41c1.54-0.24,7.04-0.96,11.31,0.98c0.87,0.39,2.45,1.13,3.02,2.45
		c0.05,0.11,0.77,1.88-0.75,2.94c-0.45,0.31-1.19,0.63-1.51,0.49c-0.44-0.19,0.43-0.99,0-1.96c-0.26-0.57-1.02-1.32-2.26-1.47
		c-1.28-0.15-2.46,0.41-3.02,0.98c-0.95,0.98-0.22,2.12,0,2.45c0.77,1.19,2.38,1.75,3.02,1.96c3.64,1.22,8,0.4,10.56,0
		c0,0,7.49-1.18,16.59-0.98c3.63,0.08,12.67,0.36,20.36,4.41c2.98,1.57,4.9,3.26,6.03,4.41c-29.67,0-59.33,0-89,0
		C477.13,256.57,479.45,250.72,487.81,246.24z"/>
	<path class="st21" d="M597.5,233.5c7.32-6.02,14.89-8.16,19-9c2.05-0.48,9.33-1.95,15,2c1.15,0.8,3.24,2.3,4,5
		c0.06,0.22,1.02,3.84-1,6c-0.6,0.64-1.57,1.28-2,1c-0.59-0.38,0.57-2.02,0-4c-0.34-1.17-1.35-2.7-3-3c-1.7-0.31-3.26,0.84-4,2
		c-1.27,2-0.29,4.32,0,5c1.02,2.42,3.16,3.57,4,4c4.83,2.5,10.6,0.82,14,0c0,0,9.93-2.41,22-2c4.82,0.16,16.8,0.74,27,9
		c3.95,3.2,6.49,6.64,8,9c-39.33,0-78.67,0-118,0C583.34,254.56,586.41,242.63,597.5,233.5z"/>
	<path class="st8" d="M578.59,239.03c6.39-4.69,13-6.36,16.58-7.01c1.79-0.38,8.15-1.52,13.09,1.56c1.01,0.63,2.83,1.79,3.49,3.89
		c0.05,0.17,0.89,2.99-0.87,4.67c-0.52,0.5-1.37,0.99-1.75,0.78c-0.51-0.29,0.5-1.57,0-3.12c-0.3-0.91-1.18-2.1-2.62-2.34
		c-1.49-0.24-2.85,0.65-3.49,1.56c-1.1,1.55-0.25,3.37,0,3.89c0.89,1.89,2.76,2.78,3.49,3.12c4.22,1.94,9.26,0.64,12.22,0
		c0,0,8.67-1.88,19.2-1.56c4.2,0.13,14.67,0.57,23.57,7.01c3.45,2.5,5.67,5.17,6.98,7.01c-34.33,0-68.67,0-103,0
		C566.23,255.44,568.91,246.14,578.59,239.03z"/>
	<path class="st22" d="M309.81,246.24c5.52-2.95,11.23-4,14.33-4.41c1.54-0.24,7.04-0.96,11.31,0.98c0.87,0.39,2.45,1.13,3.02,2.45
		c0.05,0.11,0.77,1.88-0.75,2.94c-0.45,0.31-1.19,0.63-1.51,0.49c-0.44-0.19,0.43-0.99,0-1.96c-0.26-0.57-1.02-1.32-2.26-1.47
		c-1.28-0.15-2.46,0.41-3.02,0.98c-0.95,0.98-0.22,2.12,0,2.45c0.77,1.19,2.38,1.75,3.02,1.96c3.64,1.22,8,0.4,10.56,0
		c0,0,7.49-1.18,16.59-0.98c3.63,0.08,12.67,0.36,20.36,4.41c2.98,1.57,4.9,3.26,6.03,4.41c-29.67,0-59.33,0-89,0
		C299.13,256.57,301.45,250.72,309.81,246.24z"/>
	<path class="st21" d="M15.5,233.5c7.32-6.02,14.89-8.16,19-9c2.05-0.48,9.33-1.95,15,2c1.15,0.8,3.24,2.3,4,5
		c0.06,0.22,1.02,3.84-1,6c-0.6,0.64-1.57,1.28-2,1c-0.59-0.38,0.57-2.02,0-4c-0.34-1.17-1.35-2.7-3-3c-1.7-0.31-3.26,0.84-4,2
		c-1.27,2-0.29,4.32,0,5c1.02,2.42,3.16,3.57,4,4c4.83,2.5,10.6,0.82,14,0c0,0,9.93-2.41,22-2c4.82,0.16,16.8,0.74,27,9
		c3.95,3.2,6.49,6.64,8,9c-39.33,0-78.67,0-118,0C1.34,254.56,4.41,242.63,15.5,233.5z"/>
</g>
<g id="clouds">
	<path id="c6" class="st23" d="M459.09,41.09c-2.01,2.66-5.47,3.56-8.96,3.24c-1.49-0.14-3.76-0.48-5-1.32
		c-0.49-0.33-1.16,0.11-1.19,0.57c-0.33,5.71-10.28,6.5-14.57,3.51c2.37-2.63,3.77-5.92,3.17-9.08c-0.79-4.13-5.41-7.2-10.08-7.32
		c-5.34-0.14-9.58,4.59-8.18,9.04c0.79,2.5,3.28,4.56,6.28,4.74c2.61,0.16,5.38-1.76,5.6-4.04c0.16-1.68-1.54-3.41-3.29-3.9
		c-2.23-0.63-3.38,0.93-3.22,2.71c0.08,0.88,1.65,0.85,1.57-0.03c-0.06-0.65-0.1-1.59,0.92-1.44c0.93,0.14,1.68,0.84,2.14,1.52
		c0.58,0.87,0.3,1.81-0.41,2.53c-1.23,1.24-3.22,1.6-4.91,0.93c-3.27-1.28-4.17-4.97-2.57-7.53c1.31-2.08,3.7-3.23,6.39-3.16
		c5.58,0.14,9.4,5.14,8.02,9.67c-0.99,3.26-3.98,6.28-7.23,8c-3.06,1.63-6.95,1.8-10.4,1.22c-2.35-0.39-4.42-1.41-5.46-3.34
		c-0.36-0.67-1.42-0.22-1.45,0.38c-0.33,6.8-13.19,7.61-13.71,0.52c-0.06-0.78-1.31-0.9-1.55-0.14c-0.67,2.1-2.25,3.7-4.72,4.23
		c-2.25,0.48-4.7-0.39-6.12-1.94c-1.38-1.51-2.31-4.43-0.3-5.84c0.67-0.47,1.54-0.66,2.37-0.48c1.26,0.27,1.34,1.68,1.23,2.57
		c-0.11,0.87,1.41,1.2,1.53,0.32c0.33-2.55-1.26-4.91-4.52-4.18c-0.49,0.11-0.91,0.27-1.27,0.47c0.16-0.84,0.07-1.68-0.41-2.45
		c-1.59-2.58-6.67-3.29-8.04-0.14c-0.35,0.82,1.05,1.43,1.41,0.61c1.19-2.75,5.78-0.95,5.5,1.6c-0.23,2.13-2.54,4.21-4.77,4.92
		c-4.39,1.4-8.45-0.93-10.14-4.41c-1.62-3.32-1.52-7.46,0.46-10.64c2.81-4.51,11.34-6.24,15.34-1.98c0.36,0.38,1.09,0.45,1.36-0.07
		c1.74-3.26,5.49-5.11,9.54-5.24c3.73-0.13,7.48,1.62,7.98,5.07c0.33,2.27-0.62,4.69-2.63,6.18c-2.62,1.94-5.59,1.04-7.23-1.38
		c-1.05-1.55-0.25-3.18,1.44-4c1.56-0.75,3.4,0.07,2.26,1.69c-0.53,0.75,0.88,1.35,1.41,0.61c0.93-1.33,0.57-3.39-1.37-3.86
		c-1.75-0.43-3.63,0.41-4.75,1.55c-1.55,1.58-1.16,3.68,0.07,5.29c1.74,2.27,4.65,3.19,7.55,2.04c3.53-1.4,5.35-5.13,4.78-8.43
		c0.06-0.05,0.11-0.1,0.16-0.17c1.62-2.43,4.94-3.96,7.76-5.12c3.84-1.58,8.24-1.89,12.42-1.56c3.99,0.32,7.85,1.51,11.34,3.18
		c3.18,1.52,5.76,3.56,8.39,5.69c2,1.62,4.29,3.37,7.05,3.85c2.73,0.48,5.35-0.45,7.16-2.25c1.31-1.31,1.73-3.21,0.98-4.81
		c-0.68-1.46-2.32-2.06-3.99-2.21c2.91-2.12,8.21,0.14,9.94,2.6C462.55,33.06,461.46,37.95,459.09,41.09z"/>
	<path id="c5" class="st23" d="M537.62,55.17c-0.87,2.01-2.68,3.49-4.84,3.87c-2.7,0.48-5.22-1.1-6.98-2.99
		c-0.37-0.39-1.04-0.16-0.97,0.42c0.38,3.33-1.92,5.51-5.1,5.89c-3.77,0.45-6.51-2.28-7.14-5.83c-0.13-0.71-1.1-0.53-1.08,0.16
		c0.1,2.93-2.96,4.56-5.52,4.75c-2.89,0.22-5.56-1.59-5.73-4.58c-0.03-0.45-0.74-0.66-0.97-0.25c-1.64,2.86-5.32,4.14-7.72,1.36
		c-2.04-2.36-1.57-7.02,0.63-9.12c0.02-0.01,0.03-0.03,0.04-0.05c2.13,0.95,4.79,0.31,6.03-1.98c1.76-3.27-3.95-6.5-5.14-2.72
		c-0.14,0.46-0.14,0.96-0.04,1.43c0.15,0.69,1.19,0.35,1.04-0.33c-0.11-0.5,0.08-1.09,0.38-1.49c0.57-0.74,1.89,0.06,2.42,0.49
		c1.04,0.84,0.52,2.13-0.23,2.95c-1.8,1.93-4.99,0.94-5.98-1.33c-0.9-2.06,0.32-4.3,2.15-5.33c2.94-1.64,7.73-0.2,8.95,2.97
		c0.16,0.4,0.82,0.56,1.01,0.08c1.9-4.83,10.45-3.41,10.76,1.75c0.03,0.44,0.66,0.74,0.95,0.34c4.05-5.64,9.24,2.04,12.59,4.51
		c2.34,1.72,5.67,2.69,7.19-0.56c0.84-1.81-0.14-3.39-1.65-4.11c1.79-0.3,3.55,0.48,4.7,2.13C538.84,49.7,538.6,52.91,537.62,55.17z
		"/>
	<path id="c4" class="st23" d="M660.82,49.02c-7.32,8.83-26.12,9.72-32.57-0.29c-0.89-1.38-3.21-1.02-3.44,0.56
		c-1.03,7.19-7.06,12.11-15.56,12.16c-8.04,0.05-16.74-4.9-16.98-12.31c-0.05-1.36-2.37-2.5-3.3-0.99
		c-5.21,8.49-17.8,6.45-24.83,0.75c-3.97-3.22-5.42-7.3-3.79-11.79c2.29-6.34,10.13-10.56,17.71-9.15c0.13,0.02,0.26,0.03,0.38,0.04
		c0.01,0.02,0.02,0.03,0.04,0.05c1.26,1.67,4.48,0.26,3.21-1.43c-9.97-13.17,18.28-20.42,23.71-6.98c0.56,1.38,2.87,1.74,3.48,0.15
		c3.72-9.68,17.75-12.35,28.08-9.71c10.35,2.65,15.96,18.12,6.27,23.82c-3.7,2.18-8.72,2.76-13.01,1.75
		c-4.16-0.98-7.63-4.96-6.68-8.77c1.13-4.51,12.57-5.31,10.75,0.1c-0.65,1.92,2.79,2.91,3.44,0.98c2.77-8.21-10.02-9.78-15.46-5.27
		c-3.73,3.1-2.61,7.94-0.26,11.42c2.95,4.35,9.31,5.4,14.66,5c5.83-0.44,11.31-3.36,13.8-7.95c0.69-1.28,1.1-2.65,1.29-4.06
		C664.7,27.13,667.22,41.31,660.82,49.02z"/>
	<path id="c3" class="st23" d="M198.83,36.48c-1.66,0.98-3.7,1.19-5.68,0.89c-2.01-0.3-4.42-1.58-4.27-3.15
		c0.58,0.67,1.58,1.17,2.53,1.42c2.3,0.61,4.46-0.62,5.19-2.4c0.75-1.84-0.76-3.83-2.35-5.04c-2.32-1.77-5.25-2.42-8.39-2.47
		c-7.18-0.11-12.51,3.89-18.94,5.76c-2.63,0.77-5.33,0.84-8.05,0.39c-2.55-0.43-5.38-1.55-5.91-3.82c-0.23-0.69-1.57-0.59-1.4,0.16
		c0.62,1.84-0.94,3.26-2.98,3.89c-2.32,0.71-6.83-0.49-5.77-3c1.46-1.2,1.9-3.26,0.75-4.7c-1.87-2.34-7.43-0.87-6.1,2.05
		c0.31,0.69,1.68,0.4,1.37-0.29c-0.92-2.03,3.3-2.43,3.91-0.42c0.31,1-0.16,1.88-0.97,2.54c-0.01,0.01-0.03,0.02-0.04,0.03
		c-0.59,0.47-1.35,0.83-2.12,1.04c-2.33,0.63-4.6-0.21-6.26-1.54c-3.09-2.46-2.64-6,0.52-8.18c2.64-1.82,6.73-2.12,9.14,0.09
		c0.41,0.38,1.2,0.08,1.21-0.4c0.01-1.52,0.12-3.41,1.78-4.39c1.78-1.05,5.22-0.52,6.62,0.78c0.27,0.25,0.62,0.22,0.86,0.07
		c0.27-0.12,0.44-0.35,0.31-0.65c-3.08-6.76,11.5-9,11.9-1.96c0.03,0.55,1.08,0.77,1.34,0.22c1.83-3.93,8.06-3.66,12.07-2.41
		c1.93,0.6,3.84,1.58,4.92,3.05c1.5,2.04,1.4,4.6,0.03,6.66c-1.3,1.95-4.21,3.31-6.97,3.08c-2.66-0.23-4.46-2.73-4.06-4.74
		c0.34-1.72,3.23-3.32,5.07-2.01c0.58,0.41,0.93,1.11,0.83,1.73c-0.12,0.82-1.16,0.94-1.99,0.92c-0.91-0.02-0.82,1.13,0.08,1.14
		c1.82,0.04,3.24-0.75,3.33-2.28c0.08-1.31-1.2-2.65-2.71-3.03c-2.13-0.54-4.31,0.65-5.43,2.06c-1.3,1.63-0.6,3.86,0.69,5.33
		c3.34,3.81,9.95,1.69,12.41-1.69c0.85-1.18,1.24-2.45,1.23-3.7c3.56-1.63,8.1-0.53,11.27,1.24c3.81,2.12,5.73,5.42,5.7,9.12
		C203.48,30.98,202.06,34.57,198.83,36.48z"/>
	<path id="c2" class="st23" d="M286.86,43.18c-1.44,3.22-5.16,5.77-9.46,5.88c-3.01,0.08-6.61-0.11-9.1-1.62
		c-0.61-0.37-1-0.91-1.19-1.49c-0.19-0.6-1.41-0.81-1.63-0.1c-0.8,2.56-2.85,5.23-6.67,4.57c-2.15-0.37-4.09-2-5.42-3.34
		c-0.39-0.4-1.24-0.26-1.43,0.22c-1.53,3.84-7.83,5.1-12.2,4.99c-4-0.1-7.35-3.08-10.09-5.09c-4.92-3.61-11.1-6.32-17.64-5.92
		c3.35-1.42,7.08-1.85,10.99-0.97c2.87,0.64,5.63,1.6,8.5,2.26c2.78,0.63,5.79,1.15,8.63,0.49c2.81-0.65,3.86-2.9,3.97-5.05
		c0.43,0.18,0.9,0.33,1.41,0.44c2.54,0.57,5.41,0.07,7.09-1.63c1.54-1.55,1.38-4.52-0.45-5.9c-2.98-2.24-8.73,1.39-5.56,3.91
		c0.07,0.04,0.13,0.09,0.2,0.13c0.85,0.55,1.93-0.5,1.08-1.05c-1.72-1.12,2.55-4.01,3.83-0.93c1.61,3.86-4.41,5.45-7.61,3.34
		c-4.06-2.69-2.52-8.42,1.85-10.27c3.41-1.44,8.55-1.34,10.18,1.86c-0.8,1.8-0.76,3.81,0.56,5.63c2.63,3.64,10.25,3.96,12.65-0.09
		c1.15-1.94-0.17-4.3-2.42-5.23c-2.33-0.96-5.05,0.15-5.79,2.08c-0.14,0.37-0.18,0.75-0.2,1.14c-0.04,0.87,1.63,1.07,1.67,0.19
		c0.09-1.81,1.91-3.04,4.03-1.98c1.92,0.96,1.72,3.2,0.19,4.3c-3.39,2.44-8.61,0.72-9.37-2.72c-0.23-1.06-0.12-2.04,0.26-2.93
		c0.1-0.1,0.16-0.22,0.17-0.36c1.34-2.58,4.95-4.22,8.61-3.98c4.71,0.31,9.14,3.45,8.87,7.42c-3.65,0.92-5.56,3.89-5.4,7.15
		c0.12,2.47,2.5,4.66,5.27,5.52c2.92,0.9,6.01-0.59,6.94-2.89c0.73-1.8-0.72-3.82-2.8-4.54c-2.06-0.71-3.92,0.12-4.02,1.96
		c-0.05,0.88,1.64,0.99,1.68,0.11c0.06-1.12,0.98-1.17,2.04-0.66c1.28,0.61,1.85,1.8,1.39,2.93c-0.65,1.6-2.81,2.26-4.68,1.8
		s-3.36-1.91-3.95-3.37c-0.8-2,0.14-4.64,2.14-5.96c1.72-1.13,4.22-1.16,6.26-0.73C286.05,33.91,288.85,38.73,286.86,43.18z"/>
	<path id="c1" class="st23" d="M43.72,46.22c-2.48,3.47-8.83,3.83-11-0.1c-0.3-0.54-1.08-0.4-1.16,0.22
		c-0.35,2.82-2.39,4.75-5.26,4.78c-2.72,0.02-5.65-1.91-5.73-4.82c-0.01-0.53-0.8-0.98-1.11-0.39c-1.76,3.33-6.02,2.54-8.39,0.31
		c-1.34-1.26-1.83-2.86-1.28-4.62c0.78-2.49,3.43-4.15,5.99-3.6c0.04,0.01,0.09,0.01,0.13,0.01c0,0.01,0.01,0.01,0.01,0.02
		c0.42,0.65,1.51,0.1,1.08-0.56c-3.36-5.16,6.18-8.02,8.01-2.75c0.19,0.54,0.97,0.68,1.18,0.06c1.26-3.8,6-4.85,9.49-3.82
		c3.49,1.03,5.38,7.1,2.1,9.34c-1.25,0.86-2.95,1.09-4.4,0.69c-1.41-0.38-2.57-1.94-2.25-3.44c0.38-1.77,4.25-2.09,3.63,0.03
		c-0.22,0.76,0.94,1.14,1.16,0.38c0.94-3.22-3.38-3.83-5.22-2.06c-1.26,1.22-0.89,3.12-0.1,4.48c0.99,1.71,3.14,2.11,4.95,1.95
		c1.97-0.18,3.82-1.32,4.66-3.12c0.24-0.5,0.37-1.04,0.44-1.59C45.04,37.62,45.88,43.19,43.72,46.22z"/>
</g>
</svg>
