<svg id="图层_1" data-name="图层 1" xmlns="http://www.w3.org/2000/svg" viewBox="0 0 375.09 356.9"><defs><style>.cls-1{fill:#fbab18;}.cls-2{fill:#ffcb05;}.cls-3{fill:#fff;}</style></defs><title>supernova</title><path class="cls-1" d="M202,152.8a49.86,49.86,0,0,0-6.1,2,51.78,51.78,0,0,0-15,8.7,33.7,33.7,0,0,0-7.5,8.7,33.12,33.12,0,0,0-4.4,12l-.3,1.7-.1.9v.3c.2-1.3.1-.3.1-.5v.5c-.1,1.4-.1,2.8-.2,4.3v1.1l.2.7.3,1.4.2,1.4c.1.5.4,1.1.5,1.6a30.7,30.7,0,0,0,7.2,12.7,41.78,41.78,0,0,0,12.7,9.9,43,43,0,0,0,16,4.4A35.84,35.84,0,0,0,222,222l1-.3c.8-.3-.9.4-.7.3l.2-.1.3-.2.7-.3,2.7-1.3,2.7-1.3,1.6-1.1a67.28,67.28,0,0,0,7.2-5.4,63.27,63.27,0,0,0,19.2-34,68,68,0,0,0,1.2-20.7l-.2-2.6-.5-2.6c-.3-1.8-.5-3.5-.9-5.3-1.1-3.5-1.7-7-3.1-10.5l-.9-2.6-.5-1.3-.2-.7-.1-.3c-.1-.2.7,1.5.3.7l-.1-.2-1.4-3-.7-1.5a13,13,0,0,0-.6-1.2c-.8-1.1-1.2-2.1-2.2-3.5s-1.8-2.8-3-4.1a78.33,78.33,0,0,0-15.3-14.5,112,112,0,0,0-39.9-17.7,124,124,0,0,0-42.3-2.3,133.71,133.71,0,0,0-37.9,10,155.63,155.63,0,0,0-30.1,16.8c-4.5,2.8-8.1,6.2-11.8,8.8-3.5,3-6.7,5.7-9.6,8.3-2.7,2.7-5.2,5.1-7.5,7.1s-3.9,4-5.4,5.5c-3,3-4.5,4.6-4.5,4.6s1-2,2.7-5.9a162.8,162.8,0,0,1,8.8-16.3c2.2-3.4,4.7-7,7.5-11.1A144.29,144.29,0,0,1,68.83,100a144.63,144.63,0,0,1,29.4-25.2,141.56,141.56,0,0,1,96.6-21.5,133.5,133.5,0,0,1,28,7,125.5,125.5,0,0,1,26.9,13.5A109.55,109.55,0,0,1,273.33,95c1.8,2.1,3.3,4.4,5,6.6s3.3,5.2,4.8,7.9c.4.7.7,1.3.9,1.7l.7,1.5,1.5,3,.5,1.2.2.5.3.9.7,1.8,1.3,3.7c1.9,4.8,3,10.1,4.3,15.2.5,2.6.9,5.2,1.3,7.9l.6,3.9.2,4a100.84,100.84,0,0,1-2.9,31.9,104.38,104.38,0,0,1-5.1,15.2,109.85,109.85,0,0,1-7.7,13.9A85.94,85.94,0,0,1,245,246.7l-3.7,1.8-2.9,1.1-2.9,1-2.3.8-1.9.5a63.22,63.22,0,0,1-30.2,1,66.62,66.62,0,0,1-25.4-11.2,63.71,63.71,0,0,1-17.1-18.9c-4.1-7.1-6.8-14.8-7.2-22.4a26.35,26.35,0,0,1-.2-2.8l.2-3.1.2-3,.1-1.5.3-1.1c.4-1.4.7-2.8,1.1-4.1l.1-.5.2-.8.1-.1.1-.3.5-1.1.9-2.2a40.72,40.72,0,0,1,10-14.5,43.38,43.38,0,0,1,11.9-8.1,47.43,47.43,0,0,1,18.5-4.4A27.75,27.75,0,0,1,202,152.8Z"/><path class="cls-2" d="M187.53,210.1a57.09,57.09,0,0,0,21.6-10.5,34.64,34.64,0,0,0,7.8-8.7,31.58,31.58,0,0,0,4.7-12.1l.3-1.7.2-.9v-.3c0-.2-.2,1.2-.1.5v-.5c.1-1.4.1-2.9.2-4.3a4,4,0,0,0,0-1.1l-.2-.7-.3-1.4-.2-1.4-.6-1.7a34.4,34.4,0,0,0-2.8-6.6,52.23,52.23,0,0,0-4.6-6.2,46.64,46.64,0,0,0-13.1-9.9,45.3,45.3,0,0,0-16.6-4.3c-5.7-.2-11.5.3-17,2.7l-1,.3c.3-.1-.9.3.7-.3l-.2.1-.3.2-.7.3-2.8,1.3-2.8,1.3-1.7,1.2a59.48,59.48,0,0,0-7.4,5.4,62.78,62.78,0,0,0-20,34.2,66.08,66.08,0,0,0-1.1,20.9,76.06,76.06,0,0,0,5,21.2l1,2.6.5,1.3.1.2c.1.2-.7-1.5-.3-.7l.2.4.4.8,1.5,3.1c.2.5.5,1.1.7,1.5l.6.8a63.81,63.81,0,0,0,5.5,7.7,82.14,82.14,0,0,0,16,14.4c12.2,8.5,26.6,14.2,41.2,17.4a132.45,132.45,0,0,0,43.3,2.1,141.81,141.81,0,0,0,38.7-9.9,162.24,162.24,0,0,0,30.8-16.7c4.6-2.8,8.3-6.1,12.1-8.8,3.6-2.9,6.9-5.7,9.9-8.3,2.8-2.7,5.4-5.1,7.7-7.2s4-4,5.5-5.6l4.7-4.7s-1,2.1-2.9,5.9a184.28,184.28,0,0,1-9.2,16.4q-3.45,5.1-7.8,11.1c-3.1,3.8-6.4,8.1-10.4,12.3a147.91,147.91,0,0,1-30.2,25.1,147.73,147.73,0,0,1-97.9,21.6,137.69,137.69,0,0,1-28.4-6.7,128,128,0,0,1-27.5-13.1,106.18,106.18,0,0,1-24.4-20.8,82,82,0,0,1-10.2-14.3l-1.2-2.1-.8-1.6-1.5-3-.4-.8-.2-.4-.5-1-.1-.2-.7-1.9-1.4-3.7c-7.5-19.8-9.7-42.8-4-64a109,109,0,0,1,5.3-15.5,102.55,102.55,0,0,1,8-14.1,88.06,88.06,0,0,1,22-22.7,92.32,92.32,0,0,1,13.9-8.1l3.8-1.8,2.9-1,2.9-1,2.3-.8,1.9-.5a65,65,0,0,1,30.3-1A71.11,71.11,0,0,1,214,120.7a66.7,66.7,0,0,1,17.7,18.7,49.21,49.21,0,0,1,7.7,22.7,28.25,28.25,0,0,1,.2,2.9l-.2,3.2-.2,3.1-.1,1.5c-.1.4-.2.7-.3,1.1-.4,1.4-.7,2.8-1.1,4.2l-.1.5c.1-.5-.2.9-.2.8l-.1.1-.1.3-.5,1.2-1,2.3a42.11,42.11,0,0,1-10.3,14.6,44,44,0,0,1-12.2,8,50.43,50.43,0,0,1-18.8,4.3A32.61,32.61,0,0,1,187.53,210.1Z"/><path class="cls-1" d="M336.73,119.8c-9.2,0-7.3,14.2,1.8,14.2C347.83,134,345.83,119.8,336.73,119.8Z"/><path class="cls-1" d="M357.23,183.8c-.5-4.2-4.1-6.2-8-6.2h-.6c-3.9,0-6.6,4.5-6.2,8,.5,4.2,4.1,6.2,8,6.2h.6C355,191.8,357.73,187.3,357.23,183.8Z"/><path class="cls-1" d="M342.13,77.8c-3.3-2.6-7.3-1.6-10,1.2l-.6.6c-2.8,2.8-1.6,7.8,1.2,10,3.3,2.6,7.3,1.6,10-1.2l.6-.6C346,85.1,344.93,80,342.13,77.8Z"/><path class="cls-1" d="M194,6.2c-.5-4.2-4.1-6.2-8-6.2h-.6c-3.9,0-6.6,4.5-6.2,8,.5,4.2,4.1,6.2,8,6.2h.6C191.73,14.2,194.43,9.7,194,6.2Z"/><path class="cls-1" d="M47.93,170.6a7.17,7.17,0,0,0-2.4-4.4,6.78,6.78,0,0,0-4.2-2.3,7.26,7.26,0,0,0-8.1,6.1,7.56,7.56,0,0,0,8.5,8.6A7.18,7.18,0,0,0,47.93,170.6Z"/><path class="cls-1" d="M54.23,226.5c-9.2,0-7.3,14.2,1.8,14.2C65.33,240.7,63.43,226.5,54.23,226.5Z"/><path class="cls-1" d="M56,267c-9.2,0-7.3,14.2,1.8,14.2C67.13,281.2,65.13,267,56,267Z"/><path class="cls-1" d="M200.23,342.7c-9.2,0-7.3,14.2,1.8,14.2C211.33,356.9,209.43,342.7,200.23,342.7Z"/><path class="cls-1" d="M121.63,303.4c-4.2.5-6.2,4.1-6.2,8v.6c0,3.9,4.5,6.6,8,6.2,4.2-.5,6.2-4.1,6.2-8v-.6C129.63,305.6,125.13,302.9,121.63,303.4Z"/><path class="cls-1" d="M6,208.6c-9.2,0-7.3,14.2,1.8,14.2S15.13,208.6,6,208.6Z"/><path class="cls-1" d="M123.43,96c-9.2,0-7.3,14.2,1.8,14.2S132.53,96,123.43,96Z"/><path class="cls-1" d="M150.53,17.3c-2.8.4-4.1,2.7-4.1,5.3v.6c0,2.6,3,4.4,5.3,4.1,2.8-.4,4.1-2.7,4.1-5.3v-.6C155.83,18.8,152.83,17,150.53,17.3Z"/><path class="cls-1" d="M248.23,7.8c-6.1,0-4.8,9.5,1.2,9.5C255.63,17.2,254.33,7.8,248.23,7.8Z"/><path class="cls-1" d="M261.33,39.9c-6.1,0-4.8,9.5,1.2,9.5C268.73,49.4,267.43,39.9,261.33,39.9Z"/><path class="cls-1" d="M310.83,32.8c-6.1,0-4.8,9.5,1.2,9.5C318.23,42.2,316.93,32.8,310.83,32.8Z"/><path class="cls-1" d="M301.33,67.9c-6.1,0-4.8,9.5,1.2,9.5S307.33,67.9,301.33,67.9Z"/><path class="cls-1" d="M319.73,142.4c-6.1,0-4.8,9.5,1.2,9.5C327.13,151.9,325.83,142.4,319.73,142.4Z"/><path class="cls-1" d="M369.83,144.8c-6.1,0-4.8,9.5,1.2,9.5C377.23,154.3,375.93,144.8,369.83,144.8Z"/><path class="cls-1" d="M327.53,185.3c-.4-2.8-2.7-4.1-5.3-4.1h-.6c-2.6,0-4.4,3-4.1,5.3.4,2.8,2.7,4.1,5.3,4.1h.6C326,190.6,327.83,187.6,327.53,185.3Z"/><path class="cls-1" d="M309.63,222.9c-6.1,0-4.8,9.5,1.2,9.5C317,232.3,315.73,222.9,309.63,222.9Z"/><path class="cls-1" d="M266.13,250.3c-2.8.4-4.1,2.7-4.1,5.3v.6c0,2.6,3,4.4,5.3,4.1,2.8-.4,4.1-2.7,4.1-5.3v-.6C271.53,251.8,268.43,250,266.13,250.3Z"/><path class="cls-1" d="M227.43,258.6c-6.1,0-4.8,9.5,1.2,9.5S233.43,258.6,227.43,258.6Z"/><path class="cls-1" d="M138,337.3c-2.8.4-4.1,2.7-4.1,5.3v.6c0,2.6,3,4.4,5.3,4.1,2.8-.4,4.1-2.7,4.1-5.3v-.6C143.33,338.8,140.33,337,138,337.3Z"/><path class="cls-1" d="M238.73,333.1c-6.1,0-4.8,9.5,1.2,9.5C246.13,342.6,244.83,333.1,238.73,333.1Z"/><path class="cls-1" d="M100.43,282.4c-.4-2.8-2.7-4.1-5.3-4.1h-.6c-2.6,0-4.4,3-4.1,5.3.4,2.8,2.7,4.1,5.3,4.1h.6C98.93,287.8,100.73,284.7,100.43,282.4Z"/><path class="cls-1" d="M71.83,322.4c-6.1,0-4.8,9.5,1.2,9.5C79.23,331.9,77.93,322.4,71.83,322.4Z"/><path class="cls-1" d="M81.43,247.9c-6.1,0-4.8,9.5,1.2,9.5S87.43,247.9,81.43,247.9Z"/><path class="cls-1" d="M77.23,195.4c-.4-2.8-2.7-4.1-5.3-4.1h-.6c-2.6,0-4.4,3-4.1,5.3.4,2.8,2.7,4.1,5.3,4.1h.6C75.73,200.8,77.53,197.7,77.23,195.4Z"/><path class="cls-1" d="M42,199.6c-6.1,0-4.8,9.5,1.2,9.5C49.43,209.1,48.13,199.6,42,199.6Z"/><path class="cls-1" d="M71.83,156.1c-6.1,0-4.8,9.5,1.2,9.5C79.23,165.6,77.93,156.1,71.83,156.1Z"/><path class="cls-1" d="M80.83,124c-2.8.4-4.1,2.7-4.1,5.3v.6c0,2.6,3,4.4,5.3,4.1,2.8-.4,4.1-2.7,4.1-5.3v-.6C86.13,125.5,83.13,123.7,80.83,124Z"/><path class="cls-1" d="M167.23,88.8c-6.1,0-4.8,9.5,1.2,9.5S173.33,88.8,167.23,88.8Z"/><path class="cls-3" d="M276.52,147.73c2.57-1.68,4.47-.52,4.21,2.58l-.65,7.91a12.2,12.2,0,0,0,3.84,9.2l6.05,5c2.36,2,1.86,4.16-1.12,4.87l-7.6,1.82a11.93,11.93,0,0,0-7.42,6.55l-2.84,7.4c-1.11,2.89-3.31,3.09-4.89.43l-4.05-6.79a11.88,11.88,0,0,0-8.43-5.15l-7.8-.45c-3-.18-3.91-2.25-1.92-4.6l5.1-6a12.24,12.24,0,0,0,2.22-9.73l-2-7.68c-.78-3,.89-4.48,3.7-3.28l7.21,3.08a11.68,11.68,0,0,0,9.79-.87Z"/></svg>