<svg id="图层_1" data-name="图层 1" xmlns="http://www.w3.org/2000/svg" viewBox="0 0 371.5 324.25"><defs><style>.cls-1{fill:#fec400;}.cls-2{fill:#ffd97b;}.cls-3{fill:#ffcb05;}.cls-4{fill:#fbab18;}</style></defs><title>tabby-star</title><path class="cls-1" d="M4.39,124.13C29.44,77.44,53.45,65.39,70.73,63c31-4.27,50.68,21.18,76,8.87,14.49-7,28-25.09,25.53-44.15C170.21,12.21,158.38,2.65,154.84,0c15.74,2.12,38.61,7.85,54.1,26,21.47,25.12,11.63,54,31.23,65.54,18.48,10.87,36.08-9.65,64.17-5.58,18.32,2.66,42.51,16,67.16,63.83-18.65-20.87-47.34-28.76-72.34-20.09-30.88,10.72-40.57,41.32-41.53,44.52,3.05,6.93,21.27,50.25-.07,96.43-15.25,33-42,48.68-51.45,53.64,3.19-4.85,14.84-23.83,9.86-46.5-5.83-26.56-32.12-47.39-64.94-49.34-3.41-.76-40.18-8.29-67.87,17.52-19.54,18.22-22.29,41.63-22.83,47.84C40.23,263.88,38.7,242.82,42.92,228c7.45-26.08,31.71-29,39.75-57.91,5.5-19.81,3.46-52-18.07-63.27C47.44,97.88,22.06,104.4,4.39,124.13Z"/><path class="cls-1" d="M44.68,35c46.32-25.74,73-22.9,88.85-15.56,28.4,13.18,31.18,45.22,59.15,48.56,16,1.9,37.16-6,45.34-23.35,6.67-14.17,1.87-28.61.33-32.76,12.1,10.3,28.24,27.48,31.48,51.09,4.49,32.74-19.41,51.73-9.15,72,9.68,19.13,35.57,11.39,57,30,14,12.13,27.13,36.41,22,90-4.41-27.64-24.27-49.79-50-56-31.77-7.68-56.47,12.82-59,15-1.18,7.48-9.28,53.77-52.19,81.09-30.68,19.53-61.67,18.24-72.28,17.32,5.31-2.37,25.37-12,33.43-33.8,9.45-25.5-1.41-57.23-28-76.61-2.46-2.49-29.33-28.7-66.57-22C18.82,184.81,3.85,203,0,208c-.76-36,9.35-54.56,20.89-64.73C41.3,125.3,63.28,136,85.68,116c15.34-13.69,31-41.91,19-63C95.09,36.18,70.21,27.94,44.68,35Z"/><circle class="cls-2" cx="177.01" cy="157.11" r="68.17"/><polygon class="cls-3" points="173.68 66.19 159.88 115.58 187.48 115.58 173.68 66.19 159.88 115.58 187.48 115.58 173.68 66.19"/><polygon class="cls-3" points="173.68 242.78 159.88 193.38 187.48 193.38 173.68 242.78 159.88 193.38 187.48 193.38 173.68 242.78"/><polygon class="cls-3" points="261.98 154.49 212.58 140.69 212.58 168.28 261.98 154.49 212.58 140.69 212.58 168.28 261.98 154.49"/><polygon class="cls-3" points="85.38 154.49 134.78 140.69 134.78 168.28 85.38 154.49 134.78 140.69 134.78 168.28 85.38 154.49"/><polygon class="cls-3" points="236.08 92.08 191.38 117.28 210.88 136.78 236.08 92.08 191.38 117.28 210.88 136.78 236.08 92.08"/><polygon class="cls-3" points="111.18 216.88 136.38 172.28 155.88 191.78 111.18 216.88 136.38 172.28 155.88 191.78 111.18 216.88"/><polygon class="cls-3" points="236.08 216.88 210.88 172.28 191.38 191.78 236.08 216.88 210.88 172.28 191.38 191.78 236.08 216.88"/><polygon class="cls-3" points="111.18 92.08 155.88 117.28 136.38 136.78 111.18 92.08 155.88 117.28 136.38 136.78 111.18 92.08"/><polygon class="cls-3" points="201.48 92.58 177.28 125.58 197.88 133.28 201.48 92.58 177.28 125.58 197.88 133.28 201.48 92.58"/><polygon class="cls-3" points="151.78 224.49 155.38 183.69 175.98 191.38 151.78 224.49 155.38 183.69 175.98 191.38 151.78 224.49"/><polygon class="cls-3" points="242.58 183.28 209.58 159.09 201.78 179.69 242.58 183.28 209.58 159.09 201.78 179.69 242.58 183.28"/><polygon class="cls-3" points="110.68 133.69 151.48 137.28 143.68 157.88 110.68 133.69 151.48 137.28 143.68 157.88 110.68 133.69"/><polygon class="cls-3" points="240.88 129.38 200.38 135.69 209.48 155.69 240.88 129.38 200.38 135.69 209.48 155.69 240.88 129.38"/><polygon class="cls-3" points="112.48 187.59 143.88 161.28 152.88 181.28 112.48 187.59 143.88 161.28 152.88 181.28 112.48 187.59"/><polygon class="cls-3" points="205.68 222.69 199.48 182.19 179.38 191.28 205.68 222.69 199.48 182.19 179.38 191.28 205.68 222.69"/><polygon class="cls-3" points="147.58 94.28 173.88 125.69 153.78 134.78 147.58 94.28 173.88 125.69 153.78 134.78 147.58 94.28"/><circle class="cls-4" cx="176.68" cy="155.59" r="53.8"/></svg>