<?xml version="1.0" encoding="utf-8"?>
<!-- Generator: Adobe Illustrator 23.0.4, SVG Export Plug-In . SVG Version: 6.00 Build 0)  -->
<svg version="1.1" id="图层_1" xmlns="http://www.w3.org/2000/svg" xmlns:xlink="http://www.w3.org/1999/xlink" x="0px" y="0px"
	 viewBox="0 0 329.59 263.96" style="enable-background:new 0 0 329.59 263.96;" xml:space="preserve">
<style type="text/css">
	.st0{fill:#FAF0DE;}
	.st1{fill:#8C6239;}
	.st2{fill:#A67C52;}
	.st3{fill:#FBB03B;}
	.st4{fill:#FF7BAC;}
	.st5{fill:#655552;}
	.st6{fill:#BDCCD4;}
	.st7{opacity:0.2;}
</style>
<g>
	<path class="st0" d="M256.43,64.04c1.34-0.07,1.59,0.57,0.54,1.41l-4.01,3.25c-1.05,0.85-1.51,2.57-1.02,3.83l1.85,4.82
		c0.48,1.26-0.05,1.69-1.18,0.95l-4.34-2.81c-1.13-0.73-2.91-0.64-3.96,0.21l-4.01,3.25c-1.05,0.85-1.62,0.48-1.27-0.82l1.34-4.99
		c0.35-1.3-0.29-2.97-1.42-3.7l-4.33-2.81c-1.13-0.73-0.95-1.39,0.39-1.46l5.16-0.27c1.34-0.07,2.73-1.19,3.08-2.49l1.34-4.99
		c0.35-1.3,1.03-1.33,1.51-0.08l1.85,4.82c0.48,1.26,1.98,2.23,3.32,2.16L256.43,64.04z"/>
	<path class="st0" d="M158.9,36.02c0.81,0.07,1.02,0.62,0.47,1.22l-1.41,1.53c-0.55,0.6-0.86,1.74-0.68,2.53l0.46,2.03
		c0.18,0.79-0.28,1.16-1.02,0.82l-1.89-0.87c-0.74-0.34-1.92-0.28-2.61,0.14l-1.79,1.06c-0.7,0.42-1.19,0.1-1.1-0.71l0.24-2.07
		c0.1-0.81-0.33-1.91-0.94-2.44l-1.56-1.37c-0.61-0.54-0.46-1.11,0.34-1.27l2.04-0.41c0.8-0.16,1.71-0.9,2.04-1.65l0.82-1.91
		c0.32-0.75,0.91-0.78,1.31-0.07l1.02,1.82c0.4,0.71,1.39,1.35,2.2,1.43L158.9,36.02z"/>
	<polygon class="st0" points="218.91,90.98 220.43,87.41 217.16,82.87 222.21,84.47 224.68,81.47 225.55,85.26 229.17,86.68 
		225.84,88.68 225.61,92.56 222.67,90.01 	"/>
	<path class="st0" d="M182,69.95c1.02-0.88,1.6-0.53,1.3,0.78l-1.16,5.03c-0.31,1.31,0.39,2.95,1.55,3.65l4.43,2.66
		c1.16,0.69,1,1.36-0.34,1.48L182.62,84c-1.34,0.12-2.69,1.29-2.99,2.6l-1.17,5.03c-0.3,1.31-0.98,1.37-1.51,0.13L174.94,87
		c-0.53-1.24-2.06-2.16-3.4-2.04l-5.15,0.45c-1.34,0.12-1.61-0.51-0.59-1.39l3.9-3.39c1.02-0.88,1.42-2.62,0.89-3.86l-2.02-4.76
		c-0.52-1.24-0.01-1.69,1.15-0.99l4.43,2.66c1.16,0.69,2.93,0.54,3.95-0.34L182,69.95z"/>
	<path class="st0" d="M205.5,108.94c1.47-0.94,2.55-0.29,2.4,1.45l-0.37,4.44c-0.14,1.74,0.84,4.06,2.19,5.16l3.45,2.82
		c1.35,1.1,1.06,2.33-0.63,2.73l-4.33,1.02c-1.69,0.4-3.6,2.05-4.23,3.68l-1.62,4.15c-0.63,1.62-1.89,1.73-2.79,0.24l-2.31-3.81
		c-0.91-1.49-3.07-2.79-4.81-2.89l-4.44-0.26c-1.74-0.1-2.23-1.26-1.1-2.58l2.91-3.37c1.14-1.32,1.71-3.78,1.27-5.46l-1.13-4.31
		c-0.44-1.69,0.51-2.51,2.11-1.84l4.11,1.72c1.6,0.67,4.12,0.46,5.58-0.49L205.5,108.94z"/>
	<path class="st0" d="M259.07,107.25c1.03-0.66,1.78-0.2,1.68,1.01l-0.26,3.11c-0.1,1.22,0.59,2.85,1.53,3.62l2.42,1.98
		c0.94,0.77,0.74,1.64-0.44,1.91l-3.04,0.71c-1.19,0.28-2.52,1.44-2.96,2.57l-1.13,2.91c-0.44,1.14-1.32,1.21-1.96,0.17l-1.62-2.67
		c-0.63-1.04-2.15-1.96-3.36-2.02l-3.11-0.18c-1.22-0.07-1.56-0.88-0.77-1.81l2.04-2.36c0.8-0.92,1.19-2.65,0.89-3.83l-0.79-3.02
		c-0.31-1.18,0.36-1.76,1.48-1.29l2.88,1.21c1.12,0.47,2.89,0.32,3.91-0.34L259.07,107.25z"/>
	<polygon class="st0" points="162.14,116.9 161.13,113.15 155.76,111.57 160.73,109.74 160.83,105.85 163.85,108.3 167.57,107.2 
		166.18,110.82 168.38,114.02 164.5,113.82 	"/>
	<polygon class="st0" points="198.18,47.65 195.8,38.76 183.09,35.03 194.85,30.68 195.1,21.47 202.25,27.26 211.07,24.66 
		207.78,33.25 212.98,40.83 203.79,40.35 	"/>
	<path class="st0" d="M112.77,24.24c1.26-0.46,1.68,0.07,0.94,1.19l-2.87,4.29c-0.75,1.12-0.68,2.9,0.15,3.96l3.19,4.06
		c0.83,1.06,0.45,1.62-0.84,1.26l-4.97-1.41c-1.3-0.37-2.97,0.25-3.72,1.37l-2.87,4.29c-0.75,1.12-1.4,0.93-1.46-0.41l-0.2-5.16
		c-0.05-1.35-1.15-2.75-2.45-3.11l-4.97-1.41c-1.3-0.37-1.32-1.05-0.06-1.51l4.85-1.79c1.26-0.46,2.26-1.95,2.2-3.29l-0.19-5.16
		c-0.05-1.35,0.59-1.58,1.42-0.52l3.19,4.06c0.83,1.06,2.55,1.54,3.81,1.08L112.77,24.24z"/>
	<path class="st0" d="M11.32,26.26c0.8-0.17,1.16,0.29,0.81,1.03l-0.9,1.88c-0.35,0.73-0.31,1.91,0.1,2.62l1.04,1.8
		c0.41,0.71,0.08,1.19-0.73,1.09L9.58,34.4c-0.81-0.11-1.91,0.3-2.46,0.9l-1.4,1.55c-0.54,0.6-1.11,0.44-1.26-0.36l-0.38-2.05
		c-0.15-0.8-0.88-1.73-1.62-2.06l-1.9-0.85c-0.74-0.33-0.77-0.92-0.05-1.31l1.83-0.99c0.72-0.39,1.37-1.37,1.46-2.18L4.03,25
		c0.09-0.81,0.64-1.01,1.23-0.45l1.51,1.43c0.59,0.56,1.72,0.88,2.52,0.71L11.32,26.26z"/>
	<polygon class="st0" points="84.88,61.05 85.28,57.19 80.82,53.81 86.11,53.86 87.59,50.26 89.54,53.62 93.41,53.91 90.82,56.81 
		91.74,60.58 88.19,59.01 	"/>
	<path class="st0" d="M43.41,51.86c0.71-1.15,1.37-0.98,1.47,0.36l0.37,5.15c0.1,1.34,1.25,2.71,2.55,3.03l5.02,1.24
		c1.31,0.32,1.36,1,0.11,1.51l-4.79,1.95c-1.25,0.51-2.19,2.02-2.09,3.37l0.37,5.15c0.1,1.34-0.53,1.6-1.4,0.57l-3.33-3.95
		c-0.87-1.03-2.6-1.46-3.85-0.95l-4.78,1.95c-1.25,0.51-1.69-0.01-0.98-1.15l2.73-4.39c0.71-1.14,0.58-2.92-0.29-3.95l-3.33-3.95
		c-0.87-1.03-0.51-1.61,0.8-1.29l5.02,1.24c1.31,0.32,2.96-0.35,3.67-1.49L43.41,51.86z"/>
	<path class="st0" d="M77.37,82.17c1.12-1.33,2.35-1.03,2.72,0.67l0.95,4.35c0.38,1.7,2,3.63,3.61,4.28l4.13,1.68
		c1.61,0.66,1.7,1.91,0.2,2.79l-3.84,2.26c-1.5,0.88-2.83,3.02-2.96,4.76l-0.32,4.44c-0.12,1.74-1.29,2.21-2.6,1.06l-3.33-2.96
		c-1.3-1.15-3.75-1.76-5.44-1.34l-4.32,1.07c-1.69,0.42-2.5-0.55-1.81-2.14L66.15,99c0.7-1.6,0.52-4.11-0.4-5.59l-2.35-3.78
		c-0.92-1.48-0.25-2.55,1.48-2.38l4.43,0.44c1.73,0.17,4.07-0.78,5.19-2.11L77.37,82.17z"/>
	<path class="st0" d="M128.05,64.74c0.79-0.93,1.65-0.72,1.91,0.47l0.67,3.05c0.27,1.19,1.4,2.54,2.53,3l2.89,1.18
		c1.13,0.46,1.19,1.34,0.14,1.96l-2.69,1.58c-1.05,0.62-1.98,2.12-2.07,3.34l-0.23,3.11c-0.09,1.22-0.9,1.55-1.82,0.74l-2.33-2.07
		c-0.91-0.81-2.63-1.23-3.81-0.94l-3.03,0.75c-1.19,0.29-1.76-0.38-1.27-1.5l1.25-2.86c0.49-1.12,0.36-2.88-0.28-3.92l-1.65-2.65
		c-0.64-1.04-0.18-1.79,1.04-1.67l3.1,0.3c1.21,0.12,2.85-0.55,3.64-1.48L128.05,64.74z"/>
	<polygon class="st0" points="38.29,102.58 36.22,99.29 30.63,99.37 34.83,96.15 33.79,92.41 37.39,93.85 40.62,91.7 40.37,95.58 
		43.41,97.99 39.64,98.94 	"/>
	<polygon class="st0" points="52.28,25.77 47.39,17.98 34.13,18.17 44.09,10.54 41.61,1.67 50.15,5.1 57.81,0 57.19,9.18 
		64.41,14.89 55.49,17.14 	"/>
	<path class="st0" d="M184.05,169.22c1.35-0.07,1.59,0.57,0.54,1.41l-4.01,3.25c-1.05,0.85-1.51,2.57-1.02,3.83l1.85,4.82
		c0.48,1.26-0.05,1.69-1.18,0.95l-4.33-2.81c-1.13-0.73-2.91-0.64-3.96,0.21l-4.02,3.25c-1.05,0.85-1.62,0.48-1.27-0.82l1.34-4.99
		c0.35-1.3-0.29-2.96-1.42-3.7l-4.33-2.81c-1.13-0.73-0.95-1.39,0.39-1.46l5.16-0.27c1.35-0.07,2.73-1.19,3.08-2.49l1.34-4.99
		c0.35-1.3,1.03-1.34,1.51-0.08l1.85,4.82c0.48,1.26,1.98,2.23,3.32,2.15L184.05,169.22z"/>
	<path class="st0" d="M86.53,141.2c0.81,0.07,1.02,0.62,0.47,1.22l-1.41,1.53c-0.55,0.6-0.85,1.74-0.68,2.53l0.46,2.03
		c0.18,0.79-0.28,1.16-1.02,0.82l-1.89-0.87c-0.74-0.34-1.91-0.28-2.61,0.14l-1.79,1.06c-0.7,0.42-1.19,0.1-1.1-0.71l0.24-2.07
		c0.09-0.81-0.33-1.91-0.94-2.45l-1.56-1.37c-0.61-0.54-0.46-1.11,0.34-1.27l2.04-0.41c0.8-0.16,1.71-0.9,2.04-1.65l0.82-1.91
		c0.32-0.75,0.91-0.78,1.31-0.07l1.02,1.81c0.4,0.71,1.39,1.35,2.2,1.43L86.53,141.2z"/>
	<polygon class="st0" points="146.54,196.16 148.06,192.59 144.79,188.04 149.84,189.65 152.31,186.65 153.19,190.43 156.8,191.86 
		153.47,193.86 153.24,197.73 150.3,195.19 	"/>
	<path class="st0" d="M109.63,175.13c1.02-0.88,1.6-0.53,1.3,0.78l-1.17,5.03c-0.3,1.31,0.39,2.95,1.55,3.65l4.43,2.66
		c1.15,0.7,1,1.36-0.34,1.48l-5.15,0.45c-1.34,0.12-2.69,1.29-2.99,2.6l-1.17,5.03c-0.3,1.31-0.98,1.37-1.51,0.13l-2.02-4.76
		c-0.52-1.24-2.05-2.16-3.39-2.04l-5.15,0.45c-1.34,0.12-1.61-0.51-0.59-1.39l3.9-3.39c1.02-0.88,1.42-2.62,0.89-3.86l-2.02-4.76
		c-0.52-1.24-0.01-1.69,1.14-0.99l4.43,2.66c1.15,0.69,2.93,0.54,3.95-0.34L109.63,175.13z"/>
	<path class="st0" d="M135.83,215.47c1.18-0.76,2.05-0.23,1.93,1.16l-0.3,3.56c-0.11,1.39,0.67,3.26,1.76,4.14l2.77,2.26
		c1.08,0.89,0.85,1.87-0.51,2.19l-3.48,0.82c-1.36,0.32-2.89,1.65-3.4,2.95l-1.3,3.33c-0.51,1.3-1.52,1.39-2.24,0.19l-1.85-3.06
		c-0.73-1.19-2.46-2.24-3.86-2.32l-3.57-0.21c-1.4-0.08-1.79-1.01-0.88-2.07l2.33-2.71c0.91-1.06,1.37-3.03,1.02-4.38l-0.91-3.46
		c-0.36-1.35,0.41-2.02,1.7-1.48l3.3,1.38c1.29,0.54,3.31,0.37,4.48-0.39L135.83,215.47z"/>
	<path class="st0" d="M186.7,212.43c1.03-0.66,1.78-0.2,1.68,1.01l-0.26,3.11c-0.1,1.22,0.59,2.85,1.54,3.62l2.41,1.97
		c0.94,0.77,0.74,1.64-0.44,1.91l-3.04,0.71c-1.19,0.28-2.52,1.44-2.96,2.58l-1.13,2.91c-0.44,1.14-1.32,1.21-1.96,0.17l-1.62-2.67
		c-0.63-1.04-2.15-1.95-3.36-2.02l-3.11-0.18c-1.22-0.07-1.56-0.88-0.77-1.81l2.04-2.36c0.8-0.92,1.2-2.65,0.89-3.83l-0.79-3.02
		c-0.31-1.18,0.36-1.76,1.48-1.29l2.88,1.21c1.12,0.47,2.89,0.32,3.91-0.34L186.7,212.43z"/>
	<polygon class="st0" points="106.94,113.19 105.94,109.44 100.57,107.86 105.54,106.02 105.64,102.14 108.66,104.59 112.38,103.49 
		110.99,107.11 113.19,110.31 109.31,110.11 	"/>
	<polygon class="st0" points="125.81,152.82 123.44,143.94 110.72,140.21 122.48,135.85 122.73,126.65 129.88,132.44 138.7,129.84 
		135.41,138.43 140.61,146.01 131.43,145.53 	"/>
	<path class="st0" d="M320.98,197.92c1.34-0.07,1.59,0.56,0.54,1.41l-4.01,3.25c-1.05,0.85-1.51,2.57-1.03,3.83l1.85,4.82
		c0.48,1.26-0.05,1.69-1.18,0.95l-4.34-2.81c-1.13-0.73-2.91-0.64-3.95,0.21l-4.02,3.25c-1.05,0.85-1.62,0.48-1.27-0.82l1.33-4.99
		c0.35-1.3-0.29-2.97-1.42-3.7l-4.33-2.81c-1.13-0.73-0.95-1.39,0.39-1.46l5.16-0.27c1.35-0.07,2.73-1.19,3.08-2.49l1.34-4.99
		c0.35-1.3,1.03-1.34,1.51-0.08l1.85,4.82c0.48,1.26,1.98,2.23,3.32,2.16L320.98,197.92z"/>
	<path class="st0" d="M223.45,169.9c0.81,0.07,1.02,0.62,0.47,1.22l-1.41,1.53c-0.55,0.6-0.86,1.74-0.68,2.53l0.46,2.03
		c0.18,0.79-0.28,1.16-1.02,0.82l-1.89-0.87c-0.74-0.34-1.92-0.28-2.61,0.14l-1.79,1.06c-0.7,0.42-1.19,0.1-1.1-0.71l0.24-2.07
		c0.1-0.81-0.33-1.91-0.94-2.44l-1.56-1.37c-0.61-0.54-0.46-1.1,0.34-1.27l2.04-0.41c0.8-0.16,1.71-0.9,2.04-1.65l0.82-1.91
		c0.32-0.75,0.91-0.78,1.31-0.07l1.02,1.82c0.4,0.71,1.39,1.35,2.2,1.43L223.45,169.9z"/>
	<polygon class="st0" points="283.47,224.86 284.98,221.29 281.72,216.74 286.76,218.35 289.23,215.35 290.11,219.13 293.72,220.56 
		290.39,222.56 290.16,226.43 287.23,223.89 	"/>
	<path class="st0" d="M246.55,203.83c1.02-0.88,1.6-0.53,1.3,0.78l-1.17,5.03c-0.3,1.31,0.39,2.95,1.55,3.65l4.43,2.66
		c1.16,0.69,1,1.36-0.34,1.48l-5.15,0.45c-1.34,0.12-2.69,1.29-2.99,2.6l-1.17,5.03c-0.3,1.31-0.98,1.37-1.51,0.13l-2.01-4.76
		c-0.53-1.24-2.06-2.16-3.4-2.04l-5.15,0.45c-1.34,0.12-1.61-0.51-0.59-1.39l3.9-3.39c1.02-0.88,1.42-2.62,0.89-3.86l-2.02-4.76
		c-0.52-1.24-0.01-1.69,1.14-0.99l4.43,2.67c1.15,0.69,2.93,0.54,3.95-0.34L246.55,203.83z"/>
	<path class="st0" d="M273.91,244.75c1.06-0.67,1.83-0.21,1.73,1.04l-0.27,3.19c-0.1,1.25,0.6,2.92,1.57,3.71l2.48,2.03
		c0.97,0.79,0.76,1.68-0.45,1.96l-3.12,0.73c-1.22,0.29-2.59,1.48-3.04,2.64l-1.16,2.98c-0.45,1.17-1.36,1.24-2.01,0.17l-1.66-2.74
		c-0.65-1.07-2.2-2-3.45-2.08l-3.19-0.18c-1.25-0.07-1.6-0.91-0.79-1.86l2.09-2.42c0.82-0.95,1.23-2.71,0.91-3.92l-0.81-3.09
		c-0.32-1.21,0.36-1.8,1.52-1.32l2.95,1.24c1.15,0.48,2.96,0.33,4.01-0.35L273.91,244.75z"/>
	<path class="st0" d="M323.62,241.13c1.03-0.66,1.78-0.2,1.68,1.01l-0.26,3.11c-0.1,1.22,0.59,2.85,1.53,3.62l2.42,1.98
		c0.94,0.77,0.74,1.63-0.44,1.91l-3.04,0.71c-1.19,0.28-2.52,1.44-2.96,2.57l-1.13,2.91c-0.44,1.14-1.32,1.21-1.96,0.17l-1.62-2.67
		c-0.63-1.04-2.15-1.95-3.37-2.02l-3.11-0.18c-1.22-0.07-1.56-0.88-0.77-1.81l2.04-2.36c0.8-0.92,1.2-2.65,0.89-3.83l-0.79-3.02
		c-0.31-1.18,0.36-1.76,1.48-1.29l2.88,1.21c1.12,0.47,2.89,0.32,3.91-0.34L323.62,241.13z"/>
	<polygon class="st0" points="226.69,250.78 225.68,247.03 220.32,245.45 225.28,243.61 225.39,239.73 228.4,242.17 232.13,241.07 
		230.74,244.7 232.93,247.9 229.06,247.7 	"/>
	<polygon class="st0" points="262.74,181.52 260.36,172.64 247.64,168.91 259.4,164.55 259.65,155.35 266.8,161.14 275.62,158.53 
		272.33,167.12 277.53,174.71 268.35,174.23 	"/>
</g>
<g>
	<g>
		
			<rect x="172.71" y="197.87" transform="matrix(0.2979 -0.9546 0.9546 0.2979 -42.0573 346.255)" class="st1" width="83.29" height="7.7"/>
		
			<rect x="171.02" y="199.09" transform="matrix(0.2981 -0.9545 0.9545 0.2981 -42.7701 344.213)" class="st2" width="83.29" height="4.2"/>
	</g>
	<g>
		
			<rect x="244.8" y="160.08" transform="matrix(0.9546 -0.2978 0.2978 0.9546 -48.793 83.2037)" class="st1" width="7.7" height="83.29"/>
		
			<rect x="244.88" y="160.58" transform="matrix(0.9546 -0.2978 0.2978 0.9546 -49.0176 82.7297)" class="st2" width="4.2" height="83.29"/>
	</g>
	<g>
		<g>
			<polygon class="st3" points="274.03,169.73 157.2,158.78 163.52,122.14 277.11,151.86 			"/>
			<g>
				<polygon class="st4" points="295.25,158.73 276.77,153.84 274.37,167.74 293.4,169.48 				"/>
			</g>
			<path class="st5" d="M294.95,160.45l9.43,1.63c1.8,0.31,2.78,2.31,2.47,4.1l-0.06,0.33c-0.31,1.8-1.85,3.03-3.64,2.72l-9.43-1.63
				"/>
			<path class="st6" d="M161.95,157.87c-0.5,2.91-2.95,3.07-5.86,2.57l-0.2-0.04c-2.91-0.5-5.16-1.47-4.66-4.38l5.74-33.27
				c0.5-2.91,2.95-3.07,5.86-2.57l0.21,0.04c2.9,0.5,5.16,1.47,4.66,4.38L161.95,157.87z"/>
		</g>
		<g class="st7">
			<path d="M304.38,162.08l-9.43-1.63l0.3-1.73l-18.48-4.88l0.34-1.99l-109.4-28.62c-0.33-1.87-2.28-2.61-4.68-3.02l-0.21-0.04
				c-2.9-0.5-5.36-0.34-5.86,2.57l-0.94,5.46l150.85,37.68C307.03,164.17,306.08,162.37,304.38,162.08z"/>
		</g>
	</g>
</g>
</svg>
