<svg  viewBox="0 0 100 100" fill="none" xmlns="http://www.w3.org/2000/svg">
<rect  fill="black"/>
<path d="M7.25 72L5.1 66.13H6.5L7.91 69.97L8.14 70.94H8.24L8.37 70.26L9.7 66.13H11.4L12.79 70.26L12.97 70.94H13.07L13.3 69.97L14.61 66.13H16.01L15.91 66.73L13.85 72H12.15L10.79 68.07L10.59 67.43H10.49L10.3 68.07L8.95 72H7.25ZM17.5329 72C17.1996 72 16.9429 71.9567 16.7629 71.87C16.5829 71.7833 16.4529 71.6733 16.3729 71.54C16.2996 71.4067 16.2529 71.2667 16.2329 71.12C16.2196 70.9733 16.2129 70.84 16.2129 70.72V68.8C16.2129 68.7 16.2196 68.58 16.2329 68.44C16.2529 68.2933 16.2996 68.15 16.3729 68.01C16.4529 67.87 16.5829 67.7533 16.7629 67.66C16.9496 67.5667 17.2062 67.52 17.5329 67.52H19.6829C20.1229 67.52 20.4662 67.5633 20.7129 67.65C20.9662 67.73 21.1429 67.8633 21.2429 68.05C21.3496 68.2367 21.4029 68.4867 21.4029 68.8V70.28H19.6529C19.0529 70.28 18.5629 70.2667 18.1829 70.24C17.8096 70.2133 17.5596 70.1967 17.4329 70.19V70.74C17.4262 71.0067 17.5862 71.14 17.9129 71.14H18.4229C18.7829 71.14 19.1329 71.1367 19.4729 71.13C19.8196 71.1167 20.1362 71.1033 20.4229 71.09C20.7096 71.07 20.9396 71.0533 21.1129 71.04L21.5129 71.69C21.5129 71.8967 20.8562 72 19.5429 72H17.5329ZM17.4329 69.42H20.1829V68.78C20.1829 68.6467 20.1662 68.5533 20.1329 68.5C20.1062 68.4467 20.0196 68.4133 19.8729 68.4C19.7262 68.3867 19.4762 68.38 19.1229 68.38H17.9129C17.5929 68.38 17.4329 68.5133 17.4329 68.78V69.42ZM23.7341 72C23.4007 72 23.1441 71.9567 22.9641 71.87C22.7841 71.7833 22.6541 71.6733 22.5741 71.54C22.5007 71.4067 22.4541 71.2667 22.4341 71.12C22.4207 70.9733 22.4141 70.84 22.4141 70.72V68.8C22.4141 68.7 22.4207 68.58 22.4341 68.44C22.4541 68.2933 22.5007 68.15 22.5741 68.01C22.6541 67.87 22.7841 67.7533 22.9641 67.66C23.1507 67.5667 23.4074 67.52 23.7341 67.52H25.8841C26.3241 67.52 26.6674 67.5633 26.9141 67.65C27.1674 67.73 27.3441 67.8633 27.4441 68.05C27.5507 68.2367 27.6041 68.4867 27.6041 68.8V70.28H25.8541C25.2541 70.28 24.7641 70.2667 24.3841 70.24C24.0107 70.2133 23.7607 70.1967 23.6341 70.19V70.74C23.6274 71.0067 23.7874 71.14 24.1141 71.14H24.6241C24.9841 71.14 25.3341 71.1367 25.6741 71.13C26.0207 71.1167 26.3374 71.1033 26.6241 71.09C26.9107 71.07 27.1407 71.0533 27.3141 71.04L27.7141 71.69C27.7141 71.8967 27.0574 72 25.7441 72H23.7341ZM23.6341 69.42H26.3841V68.78C26.3841 68.6467 26.3674 68.5533 26.3341 68.5C26.3074 68.4467 26.2207 68.4133 26.0741 68.4C25.9274 68.3867 25.6774 68.38 25.3241 68.38H24.1141C23.7941 68.38 23.6341 68.5133 23.6341 68.78V69.42ZM33.5052 72.1C33.2252 72.1 32.9852 72.0667 32.7852 72C32.5919 71.9333 32.3852 71.79 32.1652 71.57C32.1452 71.55 32.0919 71.4967 32.0052 71.41C31.9186 71.3233 31.8219 71.2267 31.7152 71.12C31.6152 71.0133 31.5219 70.9167 31.4352 70.83C31.3486 70.7433 31.2919 70.6867 31.2652 70.66C31.0986 70.4933 30.9386 70.3633 30.7852 70.27C30.6386 70.1767 30.4552 70.13 30.2352 70.13C30.0886 70.13 30.0019 70.1433 29.9752 70.17C29.9486 70.1967 29.9352 70.2867 29.9352 70.44V72H28.7152V65.67H29.9352V69.27H30.2552C30.3752 69.27 30.4819 69.2233 30.5752 69.13C30.6352 69.07 30.7486 68.95 30.9152 68.77C31.0819 68.59 31.2686 68.3867 31.4752 68.16C31.6886 67.9333 31.8819 67.7233 32.0552 67.53H33.5252L33.3652 67.84C33.2119 68 33.0452 68.17 32.8652 68.35C32.6852 68.5233 32.5086 68.6933 32.3352 68.86C32.1686 69.02 32.0152 69.1633 31.8752 69.29C31.7352 69.41 31.6286 69.49 31.5552 69.53C31.7552 69.6367 31.9352 69.76 32.0952 69.9C32.2552 70.0333 32.4286 70.1867 32.6152 70.36C32.8019 70.5267 33.0252 70.7167 33.2852 70.93C33.5186 71.1167 33.7352 71.2267 33.9352 71.26C34.1352 71.2867 34.2552 71.3 34.2952 71.3L34.1152 72C34.0486 72.02 33.9586 72.04 33.8452 72.06C33.7319 72.0867 33.6186 72.1 33.5052 72.1ZM37.9641 72V67.08L36.7641 67.17L36.6941 66.32L39.2841 66.02V72H37.9641ZM42.7179 72C42.2512 72 41.8846 71.9333 41.6179 71.8C41.3512 71.6667 41.1612 71.4667 41.0479 71.2C40.9412 70.9333 40.8879 70.6033 40.8879 70.21V67.9C40.8879 67.5133 40.9412 67.19 41.0479 66.93C41.1546 66.6633 41.3412 66.4633 41.6079 66.33C41.8746 66.19 42.2446 66.12 42.7179 66.12H45.0279C45.4946 66.12 45.8579 66.19 46.1179 66.33C46.3846 66.4633 46.5712 66.6633 46.6779 66.93C46.7912 67.19 46.8479 67.5133 46.8479 67.9V70.21C46.8479 70.7967 46.7179 71.2433 46.4579 71.55C46.1979 71.85 45.7212 72 45.0279 72H42.7179ZM43.0079 71.04H44.7479C44.9946 71.04 45.1846 70.9767 45.3179 70.85C45.4579 70.7233 45.5279 70.55 45.5279 70.33V67.78C45.5279 67.5867 45.4579 67.4233 45.3179 67.29C45.1779 67.15 44.9879 67.08 44.7479 67.08H43.0079C42.7679 67.08 42.5746 67.1433 42.4279 67.27C42.2812 67.3967 42.2079 67.5667 42.2079 67.78V70.33C42.2079 70.5567 42.2779 70.7333 42.4179 70.86C42.5646 70.98 42.7612 71.04 43.0079 71.04ZM48.4465 69.8V68.64H51.6465V69.8H48.4465ZM53.9212 72V67.08L52.7212 67.17L52.6512 66.32L55.2412 66.02V72H53.9212ZM56.4449 72V71.03C56.5583 70.9567 56.7283 70.8467 56.9549 70.7C57.1883 70.5533 57.4449 70.39 57.7249 70.21C58.0116 70.03 58.3016 69.8467 58.5949 69.66C58.8883 69.4667 59.1583 69.2867 59.4049 69.12C59.6583 68.9467 59.8583 68.8033 60.0049 68.69C60.2183 68.5233 60.3649 68.3633 60.4449 68.21C60.5316 68.05 60.5749 67.8933 60.5749 67.74V67.54C60.5749 67.3733 60.5083 67.2367 60.3749 67.13C60.2416 67.0233 60.0216 66.97 59.7149 66.97H59.4149C59.0283 66.97 58.6416 66.9833 58.2549 67.01C57.8683 67.0367 57.5216 67.0667 57.2149 67.1C56.9149 67.1267 56.6916 67.15 56.5449 67.17L56.4449 66.26C56.6316 66.2267 56.8883 66.19 57.2149 66.15C57.5416 66.11 57.9183 66.0767 58.3449 66.05C58.7716 66.0233 59.2183 66.01 59.6849 66.01H59.9649C60.3849 66.01 60.7216 66.06 60.9749 66.16C61.2283 66.2533 61.4216 66.3767 61.5549 66.53C61.6949 66.6833 61.7883 66.8533 61.8349 67.04C61.8816 67.22 61.9049 67.3967 61.9049 67.57V67.78C61.9049 68.1333 61.7883 68.4767 61.5549 68.81C61.3283 69.1367 60.9583 69.4433 60.4449 69.73C59.8849 70.0367 59.4116 70.2967 59.0249 70.51C58.6449 70.7167 58.3716 70.8667 58.2049 70.96V71.04H62.2049V72H56.4449Z" fill="#EF8D7A"/>
<path d="M5.9 84V78.92L5.8 78.12H10.44C10.98 78.12 11.3933 78.1867 11.68 78.32C11.9733 78.4533 12.1767 78.6533 12.29 78.92C12.4033 79.18 12.46 79.5067 12.46 79.9V82.21C12.46 82.61 12.4033 82.9433 12.29 83.21C12.1833 83.47 11.9833 83.6667 11.69 83.8C11.4033 83.9333 10.9867 84 10.44 84H5.9ZM7.22 83.04H10.36C10.8733 83.04 11.1333 82.8033 11.14 82.33V79.78C11.14 79.5867 11.0833 79.4233 10.97 79.29C10.8567 79.15 10.6533 79.08 10.36 79.08H7.22V83.04ZM13.6566 84V79.52H14.4766L14.8566 79.72C15.03 79.6267 15.2166 79.5533 15.4166 79.5C15.6166 79.4467 15.87 79.42 16.1766 79.42C16.6633 79.42 17.0566 79.4733 17.3566 79.58C17.6633 79.6867 17.8666 79.7667 17.9666 79.82L17.6166 80.69C17.5366 80.65 17.4033 80.6 17.2166 80.54C17.0366 80.4733 16.8233 80.4133 16.5766 80.36C16.33 80.3067 16.06 80.28 15.7666 80.28H15.6566C15.3366 80.28 15.1266 80.3433 15.0266 80.47C14.9333 80.5967 14.8833 80.8067 14.8766 81.1V84H13.6566ZM19.556 84C19.0493 84 18.6827 83.8833 18.456 83.65C18.2293 83.41 18.116 83.0833 18.116 82.67C18.116 82.2367 18.2327 81.9033 18.466 81.67C18.706 81.4367 19.0693 81.32 19.556 81.32H20.066C20.566 81.32 21.016 81.3333 21.416 81.36C21.816 81.3867 22.146 81.4133 22.406 81.44V80.78C22.406 80.72 22.3993 80.66 22.386 80.6C22.3727 80.5333 22.3327 80.48 22.266 80.44C22.1993 80.4 22.086 80.38 21.926 80.38H21.426C20.6993 80.38 20.0927 80.3933 19.606 80.42C19.1193 80.44 18.7893 80.46 18.616 80.48L18.506 79.72C18.506 79.6267 18.7593 79.57 19.266 79.55C19.7727 79.53 20.6193 79.52 21.806 79.52H22.306C22.6393 79.52 22.896 79.5667 23.076 79.66C23.256 79.7533 23.3827 79.87 23.456 80.01C23.536 80.15 23.5827 80.2933 23.596 80.44C23.616 80.58 23.626 80.7 23.626 80.8V84H22.806L22.416 83.8C22.136 83.8467 21.7993 83.8933 21.406 83.94C21.0127 83.98 20.5627 84 20.056 84H19.556ZM19.816 83.14H22.106C22.2527 83.14 22.3393 83.1267 22.366 83.1C22.3927 83.0733 22.406 82.99 22.406 82.85V82.08H19.816C19.636 82.08 19.5093 82.1233 19.436 82.21C19.3693 82.2967 19.336 82.4333 19.336 82.62C19.336 82.8067 19.376 82.94 19.456 83.02C19.536 83.1 19.656 83.14 19.816 83.14ZM25.8897 84L24.2797 79.52H25.6797L26.4897 82.06L26.7497 82.95H26.8497L26.9997 82.16L27.6897 79.52H29.2897L30.0197 82.16L30.1597 82.95H30.2597L30.5297 82.04L31.2897 79.52H32.6897L32.5297 80.13L31.0897 84H29.4897L28.6597 81.25L28.5597 80.78H28.4597L28.3397 81.25L27.4897 84H25.8897ZM34.103 78.89C33.8563 78.89 33.6763 78.84 33.563 78.74C33.4496 78.64 33.393 78.4733 33.393 78.24C33.393 78 33.4463 77.8333 33.553 77.74C33.6663 77.64 33.8496 77.59 34.103 77.59C34.3563 77.59 34.5396 77.64 34.653 77.74C34.7663 77.8333 34.823 78 34.823 78.24C34.823 78.4667 34.7663 78.6333 34.653 78.74C34.5396 78.84 34.3563 78.89 34.103 78.89ZM33.493 84V79.52H34.713V84H33.493ZM36.0199 84V79.52H36.8399L37.2399 79.72C37.5199 79.6667 37.8566 79.62 38.2499 79.58C38.6433 79.54 39.0933 79.52 39.5999 79.52H40.0999C40.4333 79.52 40.6899 79.5667 40.8699 79.66C41.0499 79.7533 41.1766 79.87 41.2499 80.01C41.3299 80.15 41.3766 80.2933 41.3899 80.44C41.4099 80.58 41.4199 80.7 41.4199 80.8V84H40.1999V80.78C40.1999 80.5133 40.0399 80.38 39.7199 80.38H37.5399C37.4133 80.38 37.3299 80.3933 37.2899 80.42C37.2566 80.44 37.2399 80.5 37.2399 80.6V84H36.0199ZM45.8627 85.76C45.1293 85.76 44.5327 85.7533 44.0727 85.74C43.6127 85.7267 43.2593 85.7067 43.0127 85.68C42.766 85.6533 42.596 85.62 42.5027 85.58C42.416 85.54 42.3727 85.4967 42.3727 85.45L42.6727 84.7C42.7793 84.7333 42.966 84.7733 43.2327 84.82C43.506 84.8733 43.8527 84.9 44.2727 84.9H45.9827C46.2293 84.9 46.4027 84.8633 46.5027 84.79C46.6093 84.7167 46.6627 84.5867 46.6627 84.4V83.8C46.376 83.8533 46.036 83.9 45.6427 83.94C45.256 83.98 44.8093 84 44.3027 84H43.8027C43.4693 84 43.2127 83.9567 43.0327 83.87C42.8527 83.7833 42.7227 83.6733 42.6427 83.54C42.5693 83.4067 42.5227 83.2667 42.5027 83.12C42.4893 82.9733 42.4827 82.84 42.4827 82.72V80.8C42.4827 80.7 42.4893 80.58 42.5027 80.44C42.5227 80.2933 42.5693 80.15 42.6427 80.01C42.7227 79.87 42.8527 79.7533 43.0327 79.66C43.2193 79.5667 43.476 79.52 43.8027 79.52H44.3127C45.0127 79.52 45.556 79.5333 45.9427 79.56C46.336 79.5867 46.6227 79.6167 46.8027 79.65L47.0627 79.52H47.8827V84.48C47.8827 84.6 47.8627 84.7333 47.8227 84.88C47.7893 85.0267 47.7193 85.1667 47.6127 85.3C47.506 85.4333 47.3527 85.5433 47.1527 85.63C46.9527 85.7167 46.6893 85.76 46.3627 85.76H45.8627ZM44.1827 83.14H46.3527C46.506 83.14 46.596 83.1267 46.6227 83.1C46.6493 83.0733 46.6627 82.9867 46.6627 82.84V80.45C46.436 80.4367 46.1493 80.4233 45.8027 80.41C45.456 80.39 45.086 80.38 44.6927 80.38H44.1827C43.8627 80.38 43.7027 80.5133 43.7027 80.78V82.74C43.696 83.0067 43.856 83.14 44.1827 83.14ZM51.5836 84V78.92L51.4836 78.12H53.0036L55.2636 82.12L57.6036 78.12H58.9536V84H57.6336V80.27H57.5236L57.1336 81.14L55.8736 83.4H54.6636L53.4036 81.14L53.0036 80.27H52.9036V84H51.5836ZM61.6459 84C61.1392 84 60.7725 83.8833 60.5459 83.65C60.3192 83.41 60.2059 83.0833 60.2059 82.67C60.2059 82.2367 60.3225 81.9033 60.5559 81.67C60.7959 81.4367 61.1592 81.32 61.6459 81.32H62.1559C62.6559 81.32 63.1059 81.3333 63.5059 81.36C63.9059 81.3867 64.2359 81.4133 64.4959 81.44V80.78C64.4959 80.72 64.4892 80.66 64.4759 80.6C64.4625 80.5333 64.4225 80.48 64.3559 80.44C64.2892 80.4 64.1759 80.38 64.0159 80.38H63.5159C62.7892 80.38 62.1825 80.3933 61.6959 80.42C61.2092 80.44 60.8792 80.46 60.7059 80.48L60.5959 79.72C60.5959 79.6267 60.8492 79.57 61.3559 79.55C61.8625 79.53 62.7092 79.52 63.8959 79.52H64.3959C64.7292 79.52 64.9859 79.5667 65.1659 79.66C65.3459 79.7533 65.4725 79.87 65.5459 80.01C65.6259 80.15 65.6725 80.2933 65.6859 80.44C65.7059 80.58 65.7159 80.7 65.7159 80.8V84H64.8959L64.5059 83.8C64.2259 83.8467 63.8892 83.8933 63.4959 83.94C63.1025 83.98 62.6525 84 62.1459 84H61.6459ZM61.9059 83.14H64.1959C64.3425 83.14 64.4292 83.1267 64.4559 83.1C64.4825 83.0733 64.4959 82.99 64.4959 82.85V82.08H61.9059C61.7259 82.08 61.5992 82.1233 61.5259 82.21C61.4592 82.2967 61.4259 82.4333 61.4259 82.62C61.4259 82.8067 61.4659 82.94 61.5459 83.02C61.6259 83.1 61.7459 83.14 61.9059 83.14ZM68.0895 84C67.7562 84 67.4995 83.9567 67.3195 83.87C67.1395 83.7833 67.0095 83.6733 66.9295 83.54C66.8562 83.4067 66.8095 83.2667 66.7895 83.12C66.7762 82.9733 66.7695 82.84 66.7695 82.72V80.8C66.7695 80.7 66.7762 80.58 66.7895 80.44C66.8095 80.2933 66.8562 80.15 66.9295 80.01C67.0095 79.87 67.1395 79.7533 67.3195 79.66C67.5062 79.5667 67.7629 79.52 68.0895 79.52H69.4795C70.3129 79.52 70.9029 79.5433 71.2495 79.59C71.6029 79.63 71.7795 79.6733 71.7795 79.72L71.5795 80.48C71.3929 80.4667 71.1562 80.4533 70.8695 80.44C70.5829 80.42 70.2729 80.4067 69.9395 80.4C69.6129 80.3867 69.2929 80.38 68.9795 80.38H68.4695C68.1495 80.38 67.9895 80.5133 67.9895 80.78V82.74C67.9829 83.0067 68.1429 83.14 68.4695 83.14H68.9795C69.3395 83.14 69.6895 83.1367 70.0295 83.13C70.3762 83.1167 70.6929 83.1033 70.9795 83.09C71.2662 83.07 71.4962 83.0533 71.6695 83.04L72.0695 83.69C72.0695 83.8967 71.4129 84 70.0995 84H68.0895ZM72.768 84V77.52H73.988V79.72C74.268 79.6667 74.6046 79.62 74.998 79.58C75.3913 79.54 75.8413 79.52 76.348 79.52H76.848C77.1813 79.52 77.438 79.5667 77.618 79.66C77.798 79.7533 77.9246 79.87 77.998 80.01C78.078 80.15 78.1246 80.2933 78.138 80.44C78.158 80.58 78.168 80.7 78.168 80.8V84H76.948V80.78C76.948 80.5133 76.788 80.38 76.468 80.38H74.288C74.1613 80.38 74.078 80.3933 74.038 80.42C74.0046 80.44 73.988 80.5 73.988 80.6V84H72.768ZM80.0307 78.89C79.784 78.89 79.604 78.84 79.4907 78.74C79.3774 78.64 79.3207 78.4733 79.3207 78.24C79.3207 78 79.374 77.8333 79.4807 77.74C79.594 77.64 79.7774 77.59 80.0307 77.59C80.284 77.59 80.4674 77.64 80.5807 77.74C80.694 77.8333 80.7507 78 80.7507 78.24C80.7507 78.4667 80.694 78.6333 80.5807 78.74C80.4674 78.84 80.284 78.89 80.0307 78.89ZM79.4207 84V79.52H80.6407V84H79.4207ZM81.9477 84V79.52H82.7677L83.1677 79.72C83.4477 79.6667 83.7843 79.62 84.1777 79.58C84.571 79.54 85.021 79.52 85.5277 79.52H86.0277C86.361 79.52 86.6177 79.5667 86.7977 79.66C86.9777 79.7533 87.1043 79.87 87.1777 80.01C87.2577 80.15 87.3043 80.2933 87.3177 80.44C87.3377 80.58 87.3477 80.7 87.3477 80.8V84H86.1277V80.78C86.1277 80.5133 85.9677 80.38 85.6477 80.38H83.4677C83.341 80.38 83.2577 80.3933 83.2177 80.42C83.1843 80.44 83.1677 80.5 83.1677 80.6V84H81.9477ZM89.7204 84C89.3871 84 89.1304 83.9567 88.9504 83.87C88.7704 83.7833 88.6404 83.6733 88.5604 83.54C88.4871 83.4067 88.4404 83.2667 88.4204 83.12C88.4071 82.9733 88.4004 82.84 88.4004 82.72V80.8C88.4004 80.7 88.4071 80.58 88.4204 80.44C88.4404 80.2933 88.4871 80.15 88.5604 80.01C88.6404 79.87 88.7704 79.7533 88.9504 79.66C89.1371 79.5667 89.3937 79.52 89.7204 79.52H91.8704C92.3104 79.52 92.6537 79.5633 92.9004 79.65C93.1537 79.73 93.3304 79.8633 93.4304 80.05C93.5371 80.2367 93.5904 80.4867 93.5904 80.8V82.28H91.8404C91.2404 82.28 90.7504 82.2667 90.3704 82.24C89.9971 82.2133 89.7471 82.1967 89.6204 82.19V82.74C89.6137 83.0067 89.7737 83.14 90.1004 83.14H90.6104C90.9704 83.14 91.3204 83.1367 91.6604 83.13C92.0071 83.1167 92.3237 83.1033 92.6104 83.09C92.8971 83.07 93.1271 83.0533 93.3004 83.04L93.7004 83.69C93.7004 83.8967 93.0437 84 91.7304 84H89.7204ZM89.6204 81.42H92.3704V80.78C92.3704 80.6467 92.3537 80.5533 92.3204 80.5C92.2937 80.4467 92.2071 80.4133 92.0604 80.4C91.9137 80.3867 91.6637 80.38 91.3104 80.38H90.1004C89.7804 80.38 89.6204 80.5133 89.6204 80.78V81.42Z" fill="white"/>
<path d="M70.5 42.5C70.5 43.61 69.61 44.5 68.5 44.5C67.39 44.5 66.5 43.61 66.5 42.5C66.5 41.39 67.4 40.5 68.5 40.5C69.6 40.5 70.5 41.4 70.5 42.5ZM61.5 40.5C60.4 40.5 59.5 41.4 59.5 42.5C59.5 43.6 60.4 44.5 61.5 44.5C62.6 44.5 63.5 43.61 63.5 42.5C63.5 41.39 62.61 40.5 61.5 40.5ZM76 42V45C76 45.55 75.55 46 75 46H74V47C74 48.11 73.11 49 72 49H58C57.4696 49 56.9609 48.7893 56.5858 48.4142C56.2107 48.0391 56 47.5304 56 47V46H55C54.45 46 54 45.55 54 45V42C54 41.45 54.45 41 55 41H56C56 37.13 59.13 34 63 34H64V32.73C63.4 32.39 63 31.74 63 31C63 29.9 63.9 29 65 29C66.1 29 67 29.9 67 31C67 31.74 66.6 32.39 66 32.73V34H67C70.87 34 74 37.13 74 41H75C75.55 41 76 41.45 76 42ZM74 43H72V41C72 38.24 69.76 36 67 36H63C60.24 36 58 38.24 58 41V43H56V44H58V47H72V44H74V43Z" fill="white"/>
<path d="M37.6616 33.2138L33.2919 28.9773L33.0215 28.7351C32.174 28.0317 31.103 27.6451 29.996 27.6428C28.889 27.6405 27.8165 28.0228 26.966 28.7226L26.6809 28.9773L13.6118 41.6578C13.4055 41.8575 13.1441 41.9926 12.8604 42.0463C12.5767 42.0999 12.2832 42.0697 12.0168 41.9594C11.7504 41.849 11.5229 41.6635 11.3628 41.4261C11.2027 41.1886 11.1171 40.9098 11.1167 40.6245V15.7295C11.1167 13.9447 11.8346 12.2331 13.1126 10.971C14.3905 9.709 16.1238 9 17.9311 9H42.0438C43.8511 9 45.5844 9.709 46.8623 10.971C48.1403 12.2331 48.8582 13.9447 48.8582 15.7295V25.5898C47.8566 25.503 46.8478 25.6341 45.903 25.974C44.9582 26.3138 44.1003 26.8542 43.3899 27.5569L37.6616 33.2138ZM33.1326 19.8749C33.1326 21.1116 33.6301 22.2977 34.5156 23.1721C35.4011 24.0466 36.6021 24.5379 37.8545 24.5379C39.1068 24.5379 40.3078 24.0466 41.1934 23.1721C42.0789 22.2977 42.5764 21.1116 42.5764 19.8749C42.5764 18.6379 42.0788 17.4516 41.193 16.5769C40.3073 15.7022 39.106 15.2108 37.8534 15.2108C36.6008 15.2108 35.3995 15.7022 34.5138 16.5769C33.6281 17.4516 33.1305 18.6379 33.1305 19.8749M37.8524 18.3178C38.2706 18.3178 38.6716 18.4818 38.9673 18.7738C39.263 19.0659 39.4291 19.4619 39.4291 19.8749C39.4291 20.2879 39.263 20.6839 38.9673 20.9759C38.6716 21.2679 38.2706 21.432 37.8524 21.432C37.4342 21.432 37.0331 21.2679 36.7374 20.9759C36.4417 20.6839 36.2756 20.2879 36.2756 19.8749C36.2756 19.4619 36.4417 19.0659 36.7374 18.7738C37.0331 18.4818 37.4342 18.3178 37.8524 18.3178ZM28.8825 31.1929L29.0586 31.0459C29.324 30.8551 29.6432 30.7511 29.9715 30.7485C30.2997 30.7459 30.6206 30.8448 30.8891 31.0314L31.0862 31.1929L35.4369 35.4107L31.0128 39.7797C30.0974 40.6854 29.4263 41.803 29.0607 43.0306C28.3373 41.9207 27.2365 41.136 26.1001 40.6846C24.6512 40.109 23.194 40.3533 22.0408 40.7571L21.8059 40.8399C20.7995 41.1878 19.9943 39.9951 20.6946 39.202L21.135 38.703L28.8825 31.1929ZM44.8702 29.0208L32.4952 41.2437C31.7752 41.957 31.2638 42.8491 31.0149 43.8257L30.1175 47.3706C29.3731 47.7226 28.6288 47.7889 27.7418 47.588C27.4776 47.5259 27.3644 47.2257 27.4755 46.9813C28.3771 44.9894 27.0772 43.3039 25.3159 42.6061C23.3135 41.8089 20.6485 43.6725 18.4134 45.2317C17.1721 46.1013 16.065 46.8737 15.2766 47.0455C14.1758 47.2878 12.8402 46.7908 11.8568 46.2587C11.4186 46.0247 10.8357 46.4078 11.0433 46.855C11.5507 47.9504 12.576 49.201 14.6287 49.4537C16.6836 49.7042 18.3316 48.7352 19.9755 47.7661C21.1979 47.0455 22.4182 46.325 23.8041 46.1117C23.9845 46.0848 24.1061 46.2939 24.0243 46.4554C23.5169 47.4576 23.2778 49.2921 24.4814 50.2198C26.2594 51.5905 31.2686 50.8244 32.5078 50.402C32.6098 50.3923 32.7132 50.3737 32.8181 50.3461L36.6551 49.3998C37.6451 49.1538 38.5492 48.6479 39.2719 47.9359L51.649 35.7151C52.5247 34.8227 53.0098 33.6261 52.9998 32.3835C52.9899 31.141 52.4855 29.9521 51.5956 29.0736C50.7057 28.195 49.5017 27.6973 48.2434 27.6878C46.9852 27.6784 45.7736 28.1579 44.8702 29.0229" fill="#EF8D7A"/>
</svg>
