<svg viewBox="0 0 100 100" fill="none" xmlns="http://www.w3.org/2000/svg">
<rect fill="black"/>
<path d="M18.7043 48V37.84L18.5043 36.24H30.9843V38.16H21.3443V41.08H28.8243V43.06H21.3443V48H18.7043ZM32.977 48V36.24H35.617V48H32.977ZM39.0168 48V37.84L38.8168 36.24H41.6968L48.4968 43.36L49.2768 44.44H49.4968V36.24H52.1368V48H49.5968L42.6368 40.76L41.8568 39.82H41.6568V48H39.0168ZM53.7402 48L59.6002 36.24H63.5402L69.3802 48H66.3002L65.1202 45.46H57.9602L56.6602 48H53.7402ZM58.6802 43.5H64.3802L61.6402 38.04H61.4402L58.6802 43.5ZM70.9848 48L71.1848 46.4V36.24H73.8248V46.08H82.1048L82.9048 47.78C82.9048 47.8333 82.7248 47.8867 82.3648 47.94C82.0048 47.98 81.3848 48 80.5048 48H70.9848ZM11.8505 66V58.38L11.7005 57.165H18.3455C18.9855 57.165 19.4855 57.25 19.8455 57.42C20.2155 57.59 20.4855 57.815 20.6555 58.095C20.8355 58.365 20.9505 58.655 21.0005 58.965C21.0505 59.275 21.0755 59.57 21.0755 59.85V60.735C21.0755 60.965 21.0405 61.225 20.9705 61.515C20.9005 61.795 20.7705 62.07 20.5805 62.34C20.3905 62.6 20.1155 62.82 19.7555 63C19.3955 63.17 18.9255 63.255 18.3455 63.255H16.8155C16.1855 63.255 15.5955 63.24 15.0455 63.21C14.5055 63.18 14.1005 63.155 13.8305 63.135V66H11.8505ZM13.8305 61.815H17.9105C18.3605 61.815 18.6705 61.705 18.8405 61.485C19.0105 61.265 19.0955 61 19.0955 60.69V59.745C19.0955 59.425 19.0105 59.155 18.8405 58.935C18.6705 58.715 18.3655 58.605 17.9255 58.605H13.8305V61.815ZM32.7552 66.15C32.3552 66.15 31.9602 66.09 31.5702 65.97C31.1902 65.84 30.7552 65.53 30.2652 65.04L29.1852 63.96C28.7452 63.51 28.2602 63.18 27.7302 62.97C27.2102 62.76 26.5552 62.655 25.7652 62.655H25.3002V66H23.3202V58.38L23.1702 57.165H29.8152C30.4552 57.165 30.9552 57.25 31.3152 57.42C31.6852 57.59 31.9552 57.815 32.1252 58.095C32.3052 58.365 32.4202 58.655 32.4702 58.965C32.5202 59.275 32.5452 59.57 32.5452 59.85V60.135C32.5452 60.355 32.5152 60.6 32.4552 60.87C32.3952 61.14 32.2802 61.405 32.1102 61.665C31.9402 61.925 31.6952 62.145 31.3752 62.325C31.0652 62.505 30.6552 62.61 30.1452 62.64C30.2752 62.71 30.4402 62.82 30.6402 62.97C30.8402 63.11 31.0452 63.265 31.2552 63.435C31.4752 63.605 31.6752 63.76 31.8552 63.9C32.0352 64.04 32.1752 64.14 32.2752 64.2C32.6352 64.41 32.9552 64.555 33.2352 64.635C33.5152 64.715 33.7452 64.76 33.9252 64.77C34.1052 64.78 34.2102 64.785 34.2402 64.785L33.9402 66C33.8502 66.03 33.7002 66.06 33.4902 66.09C33.2802 66.13 33.0352 66.15 32.7552 66.15ZM27.5502 61.29C27.9302 61.29 28.2702 61.285 28.5702 61.275C28.8702 61.255 29.1402 61.235 29.3802 61.215C29.8202 61.165 30.1252 61.045 30.2952 60.855C30.4752 60.655 30.5652 60.4 30.5652 60.09V59.745C30.5652 59.425 30.4802 59.155 30.3102 58.935C30.1402 58.715 29.8352 58.605 29.3952 58.605H25.3002V61.215C25.7402 61.245 26.1452 61.265 26.5152 61.275C26.8852 61.285 27.2302 61.29 27.5502 61.29ZM38.1871 66C37.4871 66 36.9371 65.9 36.5371 65.7C36.1371 65.5 35.8521 65.2 35.6821 64.8C35.5221 64.4 35.4421 63.905 35.4421 63.315V59.85C35.4421 59.27 35.5221 58.785 35.6821 58.395C35.8421 57.995 36.1221 57.695 36.5221 57.495C36.9221 57.285 37.4771 57.18 38.1871 57.18H42.5671C43.2671 57.18 43.8121 57.285 44.2021 57.495C44.6021 57.695 44.8821 57.995 45.0421 58.395C45.2121 58.785 45.2971 59.27 45.2971 59.85V63.315C45.2971 64.195 45.1021 64.865 44.7121 65.325C44.3221 65.775 43.6071 66 42.5671 66H38.1871ZM38.6221 64.56H42.1471C42.5171 64.56 42.8021 64.465 43.0021 64.275C43.2121 64.085 43.3171 63.825 43.3171 63.495V59.67C43.3171 59.38 43.2121 59.135 43.0021 58.935C42.7921 58.725 42.5071 58.62 42.1471 58.62H38.6221C38.2621 58.62 37.9721 58.715 37.7521 58.905C37.5321 59.095 37.4221 59.35 37.4221 59.67V63.495C37.4221 63.835 37.5271 64.1 37.7371 64.29C37.9571 64.47 38.2521 64.56 38.6221 64.56ZM50.4252 66C49.7052 66 49.0452 65.985 48.4452 65.955C47.8552 65.915 47.3802 65.85 47.0202 65.76C46.6702 65.67 46.4952 65.545 46.4952 65.385L47.2452 64.23C47.5352 64.36 47.9352 64.45 48.4452 64.5C48.9652 64.54 49.6502 64.56 50.5002 64.56H51.9402C52.4102 64.56 52.7202 64.45 52.8702 64.23C53.0202 64 53.0952 63.755 53.0952 63.495V58.38L52.9752 57.18H55.0752V63.315C55.0752 63.815 55.0102 64.27 54.8802 64.68C54.7602 65.09 54.5052 65.415 54.1152 65.655C53.7352 65.885 53.1502 66 52.3602 66H50.4252ZM57.4769 66V57.18H66.8069V58.62H59.4569V60.69H65.0669V62.175H59.4569V64.56H66.8669L67.4669 65.835C67.4669 65.875 67.3319 65.915 67.0619 65.955C66.7919 65.985 66.3269 66 65.6669 66H57.4769ZM71.5562 66C70.8462 66 70.2912 65.9 69.8912 65.7C69.4912 65.5 69.2112 65.2 69.0512 64.8C68.8912 64.4 68.8112 63.905 68.8112 63.315V59.97C68.8112 59.01 69.0262 58.305 69.4562 57.855C69.8862 57.395 70.5862 57.165 71.5562 57.165H76.0712C76.7612 57.165 77.2862 57.205 77.6462 57.285C78.0162 57.355 78.2012 57.43 78.2012 57.51L77.9012 58.755C77.7312 58.725 77.2262 58.695 76.3862 58.665C75.5562 58.625 74.3462 58.605 72.7562 58.605H71.9912C71.1912 58.605 70.7912 58.96 70.7912 59.67V63.495C70.7912 63.835 70.8762 64.1 71.0462 64.29C71.2262 64.47 71.5412 64.56 71.9912 64.56H72.6062C74.2662 64.56 75.5512 64.545 76.4612 64.515C77.3812 64.475 77.9512 64.435 78.1712 64.395L78.7862 65.385C78.7862 65.435 78.7012 65.51 78.5312 65.61C78.3712 65.71 78.0712 65.8 77.6312 65.88C77.1912 65.96 76.5562 66 75.7262 66H71.5562ZM83.2995 66L83.2845 58.605H79.3845V57.165H89.1945V58.605H85.2795V66H83.2995Z" fill="#EF8D7A"/>
</svg>
