<svg viewBox="0 0 100 100" fill="none" xmlns="http://www.w3.org/2000/svg">
<rect fill="black"/>
<path d="M28.093 50V42.888L27.953 41.768H36.689V43.112H29.941V45.156H35.177V46.542H29.941V50H28.093ZM38.0839 50V41.768H39.9319V50H38.0839ZM42.3118 50V42.888L42.1718 41.768H44.1878L48.9478 46.752L49.4938 47.508H49.6478V41.768H51.4958V50H49.7178L44.8458 44.932L44.2998 44.274H44.1598V50H42.3118ZM52.6182 50L56.7202 41.768H59.4782L63.5662 50H61.4102L60.5842 48.222H55.5722L54.6622 50H52.6182ZM56.0762 46.85H60.0662L58.1482 43.028H58.0082L56.0762 46.85ZM64.6893 50L64.8293 48.88V41.768H66.6773V48.656H72.4733L73.0333 49.846C73.0333 49.8833 72.9073 49.9207 72.6553 49.958C72.4033 49.986 71.9693 50 71.3533 50H64.6893ZM6.28637 67V59.888L6.14637 58.754H12.3484C12.9457 58.754 13.4124 58.8333 13.7484 58.992C14.0937 59.1507 14.3457 59.3607 14.5044 59.622C14.6724 59.874 14.7797 60.1447 14.8264 60.434C14.873 60.7233 14.8964 60.9987 14.8964 61.26V62.086C14.8964 62.3007 14.8637 62.5433 14.7984 62.814C14.733 63.0753 14.6117 63.332 14.4344 63.584C14.257 63.8267 14.0004 64.032 13.6644 64.2C13.3284 64.3587 12.8897 64.438 12.3484 64.438H10.9204C10.3324 64.438 9.7817 64.424 9.26837 64.396C8.76437 64.368 8.38637 64.3447 8.13437 64.326V67H6.28637ZM8.13437 63.094H11.9424C12.3624 63.094 12.6517 62.9913 12.8104 62.786C12.969 62.5807 13.0484 62.3333 13.0484 62.044V61.162C13.0484 60.8633 12.969 60.6113 12.8104 60.406C12.6517 60.2007 12.367 60.098 11.9564 60.098H8.13437V63.094ZM25.7974 67.14C25.4241 67.14 25.0554 67.084 24.6914 66.972C24.3368 66.8507 23.9308 66.5613 23.4734 66.104L22.4654 65.096C22.0548 64.676 21.6021 64.368 21.1074 64.172C20.6221 63.976 20.0108 63.878 19.2734 63.878H18.8394V67H16.9914V59.888L16.8514 58.754H23.0534C23.6508 58.754 24.1174 58.8333 24.4534 58.992C24.7988 59.1507 25.0508 59.3607 25.2094 59.622C25.3774 59.874 25.4848 60.1447 25.5314 60.434C25.5781 60.7233 25.6014 60.9987 25.6014 61.26V61.526C25.6014 61.7313 25.5734 61.96 25.5174 62.212C25.4614 62.464 25.3541 62.7113 25.1954 62.954C25.0368 63.1967 24.8081 63.402 24.5094 63.57C24.2201 63.738 23.8374 63.836 23.3614 63.864C23.4828 63.9293 23.6368 64.032 23.8234 64.172C24.0101 64.3027 24.2014 64.4473 24.3974 64.606C24.6028 64.7647 24.7894 64.9093 24.9574 65.04C25.1254 65.1707 25.2561 65.264 25.3494 65.32C25.6854 65.516 25.9841 65.6513 26.2454 65.726C26.5068 65.8007 26.7214 65.8427 26.8894 65.852C27.0574 65.8613 27.1554 65.866 27.1834 65.866L26.9034 67C26.8194 67.028 26.6794 67.056 26.4834 67.084C26.2874 67.1213 26.0588 67.14 25.7974 67.14ZM20.9394 62.604C21.2941 62.604 21.6114 62.5993 21.8914 62.59C22.1714 62.5713 22.4234 62.5527 22.6474 62.534C23.0581 62.4873 23.3428 62.3753 23.5014 62.198C23.6694 62.0113 23.7534 61.7733 23.7534 61.484V61.162C23.7534 60.8633 23.6741 60.6113 23.5154 60.406C23.3568 60.2007 23.0721 60.098 22.6614 60.098H18.8394V62.534C19.2501 62.562 19.6281 62.5807 19.9734 62.59C20.3188 62.5993 20.6408 62.604 20.9394 62.604ZM30.8672 67C30.2139 67 29.7005 66.9067 29.3272 66.72C28.9539 66.5333 28.6879 66.2533 28.5292 65.88C28.3799 65.5067 28.3052 65.0447 28.3052 64.494V61.26C28.3052 60.7187 28.3799 60.266 28.5292 59.902C28.6785 59.5287 28.9399 59.2487 29.3132 59.062C29.6865 58.866 30.2045 58.768 30.8672 58.768H34.9552C35.6085 58.768 36.1172 58.866 36.4812 59.062C36.8545 59.2487 37.1159 59.5287 37.2652 59.902C37.4239 60.266 37.5032 60.7187 37.5032 61.26V64.494C37.5032 65.3153 37.3212 65.9407 36.9572 66.37C36.5932 66.79 35.9259 67 34.9552 67H30.8672ZM31.2732 65.656H34.5632C34.9085 65.656 35.1745 65.5673 35.3612 65.39C35.5572 65.2127 35.6552 64.97 35.6552 64.662V61.092C35.6552 60.8213 35.5572 60.5927 35.3612 60.406C35.1652 60.21 34.8992 60.112 34.5632 60.112H31.2732C30.9372 60.112 30.6665 60.2007 30.4612 60.378C30.2559 60.5553 30.1532 60.7933 30.1532 61.092V64.662C30.1532 64.9793 30.2512 65.2267 30.4472 65.404C30.6525 65.572 30.9279 65.656 31.2732 65.656ZM42.2894 67C41.6174 67 41.0014 66.986 40.4414 66.958C39.8908 66.9207 39.4474 66.86 39.1114 66.776C38.7848 66.692 38.6214 66.5753 38.6214 66.426L39.3214 65.348C39.5921 65.4693 39.9654 65.5533 40.4414 65.6C40.9268 65.6373 41.5661 65.656 42.3594 65.656H43.7034C44.1421 65.656 44.4314 65.5533 44.5714 65.348C44.7114 65.1333 44.7814 64.9047 44.7814 64.662V59.888L44.6694 58.768H46.6294V64.494C46.6294 64.9607 46.5688 65.3853 46.4474 65.768C46.3354 66.1507 46.0974 66.454 45.7334 66.678C45.3788 66.8927 44.8328 67 44.0954 67H42.2894ZM48.871 67V58.768H57.579V60.112H50.719V62.044H55.955V63.43H50.719V65.656H57.635L58.195 66.846C58.195 66.8833 58.069 66.9207 57.817 66.958C57.565 66.986 57.131 67 56.515 67H48.871ZM62.0117 67C61.3491 67 60.8311 66.9067 60.4577 66.72C60.0844 66.5333 59.8231 66.2533 59.6737 65.88C59.5244 65.5067 59.4497 65.0447 59.4497 64.494V61.372C59.4497 60.476 59.6504 59.818 60.0517 59.398C60.4531 58.9687 61.1064 58.754 62.0117 58.754H66.2257C66.8697 58.754 67.3597 58.7913 67.6957 58.866C68.0411 58.9313 68.2137 59.0013 68.2137 59.076L67.9337 60.238C67.7751 60.21 67.3037 60.182 66.5197 60.154C65.7451 60.1167 64.6157 60.098 63.1317 60.098H62.4177C61.6711 60.098 61.2977 60.4293 61.2977 61.092V64.662C61.2977 64.9793 61.3771 65.2267 61.5357 65.404C61.7037 65.572 61.9977 65.656 62.4177 65.656H62.9917C64.5411 65.656 65.7404 65.642 66.5897 65.614C67.4484 65.5767 67.9804 65.5393 68.1857 65.502L68.7597 66.426C68.7597 66.4727 68.6804 66.5427 68.5217 66.636C68.3724 66.7293 68.0924 66.8133 67.6817 66.888C67.2711 66.9627 66.6784 67 65.9037 67H62.0117ZM72.9721 67L72.9581 60.098H69.3181V58.754H78.4741V60.098H74.8201V67H72.9721ZM82.395 67V65.642C82.5536 65.5393 82.7916 65.3853 83.109 65.18C83.4356 64.9747 83.795 64.746 84.187 64.494C84.5883 64.242 84.9943 63.9853 85.405 63.724C85.8156 63.4533 86.1936 63.2013 86.539 62.968C86.8936 62.7253 87.1736 62.5247 87.379 62.366C87.6776 62.1327 87.883 61.9087 87.995 61.694C88.1163 61.47 88.177 61.2507 88.177 61.036V60.756C88.177 60.5227 88.0836 60.3313 87.897 60.182C87.7103 60.0327 87.4023 59.958 86.973 59.958H86.553C86.0116 59.958 85.4703 59.9767 84.929 60.014C84.3876 60.0513 83.9023 60.0933 83.473 60.14C83.053 60.1773 82.7403 60.21 82.535 60.238L82.395 58.964C82.6563 58.9173 83.0156 58.866 83.473 58.81C83.9303 58.754 84.4576 58.7073 85.055 58.67C85.6523 58.6327 86.2776 58.614 86.931 58.614H87.323C87.911 58.614 88.3823 58.684 88.737 58.824C89.0916 58.9547 89.3623 59.1273 89.549 59.342C89.745 59.5567 89.8756 59.7947 89.941 60.056C90.0063 60.308 90.039 60.5553 90.039 60.798V61.092C90.039 61.5867 89.8756 62.0673 89.549 62.534C89.2316 62.9913 88.7136 63.4207 87.995 63.822C87.211 64.2513 86.5483 64.6153 86.007 64.914C85.475 65.2033 85.0923 65.4133 84.859 65.544V65.656H90.459V67H82.395ZM92.8494 62.38C92.504 62.38 92.252 62.31 92.0934 62.17C91.9347 62.03 91.8554 61.7967 91.8554 61.47C91.8554 61.134 91.93 60.9007 92.0794 60.77C92.238 60.63 92.4947 60.56 92.8494 60.56C93.204 60.56 93.4607 60.63 93.6194 60.77C93.778 60.9007 93.8574 61.134 93.8574 61.47C93.8574 61.7873 93.778 62.0207 93.6194 62.17C93.4607 62.31 93.204 62.38 92.8494 62.38ZM92.8494 67C92.504 67 92.252 66.93 92.0934 66.79C91.9347 66.65 91.8554 66.4167 91.8554 66.09C91.8554 65.754 91.93 65.5207 92.0794 65.39C92.238 65.25 92.4947 65.18 92.8494 65.18C93.204 65.18 93.4607 65.25 93.6194 65.39C93.778 65.5207 93.8574 65.754 93.8574 66.09C93.8574 66.4073 93.778 66.6407 93.6194 66.79C93.4607 66.93 93.204 67 92.8494 67ZM6.82996 84L6.96996 82.88V75.768H8.81796V82.656H14.614L15.174 83.846C15.174 83.8833 15.048 83.9207 14.796 83.958C14.544 83.986 14.11 84 13.494 84H6.82996ZM16.4276 84V75.768H25.1356V77.112H18.2756V79.044H23.5116V80.43H18.2756V82.656H25.1916L25.7516 83.846C25.7516 83.8833 25.6256 83.9207 25.3736 83.958C25.1216 83.986 24.6876 84 24.0716 84H16.4276ZM27.2864 84V76.888L27.1464 75.768H33.6424C34.3984 75.768 34.977 75.8613 35.3784 76.048C35.789 76.2347 36.0737 76.5147 36.2324 76.888C36.391 77.252 36.4704 77.7093 36.4704 78.26V81.494C36.4704 82.054 36.391 82.5207 36.2324 82.894C36.083 83.258 35.803 83.5333 35.3924 83.72C34.991 83.9067 34.4077 84 33.6424 84H27.2864ZM29.1344 82.656H33.5304C34.249 82.656 34.613 82.3247 34.6224 81.662V78.092C34.6224 77.8213 34.543 77.5927 34.3844 77.406C34.2257 77.21 33.941 77.112 33.5304 77.112H29.1344V82.656ZM41.6418 84V76.888L41.5018 75.768H47.9978C48.7538 75.768 49.3325 75.8613 49.7338 76.048C50.1445 76.2347 50.4292 76.5147 50.5878 76.888C50.7465 77.252 50.8258 77.7093 50.8258 78.26V81.494C50.8258 82.054 50.7465 82.5207 50.5878 82.894C50.4385 83.258 50.1585 83.5333 49.7478 83.72C49.3465 83.9067 48.7632 84 47.9978 84H41.6418ZM43.4898 82.656H47.8858C48.6045 82.656 48.9685 82.3247 48.9778 81.662V78.092C48.9778 77.8213 48.8985 77.5927 48.7398 77.406C48.5812 77.21 48.2965 77.112 47.8858 77.112H43.4898V82.656ZM53.4951 76.846C53.1498 76.846 52.8978 76.776 52.7391 76.636C52.5805 76.496 52.5011 76.2627 52.5011 75.936C52.5011 75.6 52.5758 75.3667 52.7251 75.236C52.8838 75.096 53.1405 75.026 53.4951 75.026C53.8498 75.026 54.1065 75.096 54.2651 75.236C54.4238 75.3667 54.5031 75.6 54.5031 75.936C54.5031 76.2533 54.4238 76.4867 54.2651 76.636C54.1065 76.776 53.8498 76.846 53.4951 76.846ZM52.6411 84V77.728H54.3491V84H52.6411ZM57.7609 84C57.1355 84 56.6922 83.9673 56.4309 83.902C56.1695 83.8367 56.0389 83.7713 56.0389 83.706L56.4589 82.656C56.7295 82.684 57.2242 82.7167 57.9429 82.754C58.6709 82.782 59.5669 82.796 60.6309 82.796H61.3309C61.5642 82.796 61.7089 82.7353 61.7649 82.614C61.8302 82.4833 61.8629 82.3107 61.8629 82.096C61.8629 81.8813 61.8255 81.7087 61.7509 81.578C61.6855 81.4473 61.5455 81.382 61.3309 81.382H57.8869C57.2335 81.382 56.7622 81.2607 56.4729 81.018C56.1835 80.766 56.0389 80.3927 56.0389 79.898V79.338C56.0389 79.2073 56.0529 79.0533 56.0809 78.876C56.1089 78.6987 56.1789 78.5213 56.2909 78.344C56.4029 78.1667 56.5849 78.022 56.8369 77.91C57.0889 77.7887 57.4389 77.728 57.8869 77.728H61.7509C62.3109 77.728 62.7075 77.7607 62.9409 77.826C63.1742 77.8913 63.2909 77.9567 63.2909 78.022L63.1509 79.072C62.8802 79.044 62.3809 79.016 61.6529 78.988C60.9249 78.9507 60.0335 78.932 58.9789 78.932H58.2789C58.0455 78.932 57.8962 78.9973 57.8309 79.128C57.7749 79.2493 57.7469 79.394 57.7469 79.562C57.7469 79.7393 57.7749 79.8887 57.8309 80.01C57.8962 80.122 58.0455 80.178 58.2789 80.178H61.7229C62.3575 80.178 62.8242 80.3087 63.1229 80.57C63.4215 80.8313 63.5709 81.1627 63.5709 81.564V82.39C63.5709 82.558 63.5569 82.7353 63.5289 82.922C63.5102 83.1087 63.4449 83.286 63.3329 83.454C63.2209 83.6127 63.0389 83.7433 62.7869 83.846C62.5349 83.9487 62.1802 84 61.7229 84H57.7609ZM65.1066 86.604V77.728H66.2546L66.6046 77.91C67.0246 77.8633 67.5239 77.8213 68.1026 77.784C68.6906 77.7467 69.3579 77.728 70.1046 77.728H70.8186C71.2853 77.728 71.6446 77.7887 71.8966 77.91C72.1486 78.0313 72.3259 78.1853 72.4286 78.372C72.5406 78.5587 72.6059 78.7547 72.6246 78.96C72.6526 79.1653 72.6666 79.352 72.6666 79.52V82.208C72.6666 82.348 72.6526 82.5207 72.6246 82.726C72.6059 82.922 72.5406 83.118 72.4286 83.314C72.3259 83.51 72.1486 83.6733 71.8966 83.804C71.6446 83.9347 71.2853 84 70.8186 84H70.1046C69.3953 84 68.7653 83.9813 68.2146 83.944C67.6639 83.9067 67.1973 83.8693 66.8146 83.832V86.604H65.1066ZM67.2486 82.796H70.2866C70.4639 82.796 70.6179 82.7493 70.7486 82.656C70.8886 82.5627 70.9586 82.4227 70.9586 82.236V79.492C70.9679 79.2867 70.9166 79.142 70.8046 79.058C70.7019 78.974 70.5293 78.932 70.2866 78.932H69.5866C68.9893 78.932 68.4573 78.946 67.9906 78.974C67.5333 78.9927 67.1413 79.016 66.8146 79.044V82.362C66.8146 82.5673 66.8333 82.6933 66.8706 82.74C66.9173 82.7773 67.0433 82.796 67.2486 82.796ZM74.3521 84V76.244L74.2121 75.124H76.0601V84H74.3521ZM79.5454 84C78.8361 84 78.3227 83.8367 78.0054 83.51C77.6881 83.174 77.5294 82.7167 77.5294 82.138C77.5294 81.5313 77.6927 81.0647 78.0194 80.738C78.3554 80.4113 78.8641 80.248 79.5454 80.248H80.2594C80.9594 80.248 81.5894 80.2667 82.1494 80.304C82.7094 80.3413 83.1714 80.3787 83.5354 80.416V79.492C83.5354 79.408 83.5261 79.324 83.5074 79.24C83.4887 79.1467 83.4327 79.072 83.3394 79.016C83.2461 78.96 83.0874 78.932 82.8634 78.932H82.1634C81.1461 78.932 80.2967 78.9507 79.6154 78.988C78.9341 79.016 78.4721 79.044 78.2294 79.072L78.0754 78.008C78.0754 77.8773 78.4301 77.798 79.1394 77.77C79.8487 77.742 81.0341 77.728 82.6954 77.728H83.3954C83.8621 77.728 84.2214 77.7933 84.4734 77.924C84.7254 78.0547 84.9027 78.218 85.0054 78.414C85.1174 78.61 85.1827 78.8107 85.2014 79.016C85.2294 79.212 85.2434 79.38 85.2434 79.52V84H84.0954L83.5494 83.72C83.1574 83.7853 82.6861 83.8507 82.1354 83.916C81.5847 83.972 80.9547 84 80.2454 84H79.5454ZM79.9094 82.796H83.1154C83.3207 82.796 83.4421 82.7773 83.4794 82.74C83.5167 82.7027 83.5354 82.586 83.5354 82.39V81.312H79.9094C79.6574 81.312 79.4801 81.3727 79.3774 81.494C79.2841 81.6153 79.2374 81.8067 79.2374 82.068C79.2374 82.3293 79.2934 82.516 79.4054 82.628C79.5174 82.74 79.6854 82.796 79.9094 82.796ZM87.4466 86.744C86.9986 86.744 86.5879 86.6927 86.2146 86.59C85.8412 86.4873 85.5892 86.394 85.4586 86.31L85.8786 85.05C86.0372 85.1153 86.2612 85.19 86.5506 85.274C86.8492 85.3673 87.1852 85.414 87.5586 85.414H87.7126C88.1419 85.414 88.5199 85.2833 88.8466 85.022C89.1826 84.77 89.4392 84.4293 89.6166 84H88.9166L86.1726 77.728H88.1326L89.7426 81.592L90.1066 82.6H90.2466L90.6106 81.592L92.2486 77.728H94.1526L93.9286 78.582C93.7512 78.946 93.5459 79.366 93.3126 79.842C93.0886 80.3087 92.8552 80.794 92.6126 81.298C92.3699 81.802 92.1319 82.2873 91.8986 82.754C91.6746 83.2207 91.4739 83.636 91.2966 84C91.0259 84.56 90.7272 85.0453 90.4006 85.456C90.0832 85.8667 89.7146 86.184 89.2946 86.408C88.8839 86.632 88.3939 86.744 87.8246 86.744H87.4466Z" fill="#EF8D7A"/>
<path d="M64 22H52.8V32H64V22ZM42.3 7L48.6 17H36L42.3 7ZM58.4 17C59.8852 17 61.3096 16.4732 62.3598 15.5355C63.41 14.5979 64 13.3261 64 12C64 10.6739 63.41 9.40215 62.3598 8.46447C61.3096 7.52678 59.8852 7 58.4 7C56.9148 7 55.4904 7.52678 54.4402 8.46447C53.39 9.40215 52.8 10.6739 52.8 12C52.8 13.3261 53.39 14.5979 54.4402 15.5355C55.4904 16.4732 56.9148 17 58.4 17Z" stroke="white" stroke-width="4" stroke-linejoin="round"/>
<path d="M36 22L47.2 32M47.2 22L36 32" stroke="white" stroke-width="4" stroke-linecap="round" stroke-linejoin="round"/>
</svg>
