<svg viewBox="0 0 100 100" fill="none" xmlns="http://www.w3.org/2000/svg">
<rect fill="black"/>
<path d="M28.093 50V42.888L27.953 41.768H36.689V43.112H29.941V45.156H35.177V46.542H29.941V50H28.093ZM38.0839 50V41.768H39.9319V50H38.0839ZM42.3118 50V42.888L42.1718 41.768H44.1878L48.9478 46.752L49.4938 47.508H49.6478V41.768H51.4958V50H49.7178L44.8458 44.932L44.2998 44.274H44.1598V50H42.3118ZM52.6182 50L56.7202 41.768H59.4782L63.5662 50H61.4102L60.5842 48.222H55.5722L54.6622 50H52.6182ZM56.0762 46.85H60.0662L58.1482 43.028H58.0082L56.0762 46.85ZM64.6893 50L64.8293 48.88V41.768H66.6773V48.656H72.4733L73.0333 49.846C73.0333 49.8833 72.9073 49.9207 72.6553 49.958C72.4033 49.986 71.9693 50 71.3533 50H64.6893ZM8.22094 67V59.888L8.08094 58.754H14.2829C14.8803 58.754 15.3469 58.8333 15.6829 58.992C16.0283 59.1507 16.2803 59.3607 16.4389 59.622C16.6069 59.874 16.7143 60.1447 16.7609 60.434C16.8076 60.7233 16.8309 60.9987 16.8309 61.26V62.086C16.8309 62.3007 16.7983 62.5433 16.7329 62.814C16.6676 63.0753 16.5463 63.332 16.3689 63.584C16.1916 63.8267 15.9349 64.032 15.5989 64.2C15.2629 64.3587 14.8243 64.438 14.2829 64.438H12.8549C12.2669 64.438 11.7163 64.424 11.2029 64.396C10.6989 64.368 10.3209 64.3447 10.0689 64.326V67H8.22094ZM10.0689 63.094H13.8769C14.2969 63.094 14.5863 62.9913 14.7449 62.786C14.9036 62.5807 14.9829 62.3333 14.9829 62.044V61.162C14.9829 60.8633 14.9036 60.6113 14.7449 60.406C14.5863 60.2007 14.3016 60.098 13.8909 60.098H10.0689V63.094ZM27.732 67.14C27.3587 67.14 26.99 67.084 26.626 66.972C26.2713 66.8507 25.8653 66.5613 25.408 66.104L24.4 65.096C23.9893 64.676 23.5367 64.368 23.042 64.172C22.5567 63.976 21.9453 63.878 21.208 63.878H20.774V67H18.926V59.888L18.786 58.754H24.988C25.5853 58.754 26.052 58.8333 26.388 58.992C26.7333 59.1507 26.9853 59.3607 27.144 59.622C27.312 59.874 27.4193 60.1447 27.466 60.434C27.5127 60.7233 27.536 60.9987 27.536 61.26V61.526C27.536 61.7313 27.508 61.96 27.452 62.212C27.396 62.464 27.2887 62.7113 27.13 62.954C26.9713 63.1967 26.7427 63.402 26.444 63.57C26.1547 63.738 25.772 63.836 25.296 63.864C25.4173 63.9293 25.5713 64.032 25.758 64.172C25.9447 64.3027 26.136 64.4473 26.332 64.606C26.5373 64.7647 26.724 64.9093 26.892 65.04C27.06 65.1707 27.1907 65.264 27.284 65.32C27.62 65.516 27.9187 65.6513 28.18 65.726C28.4413 65.8007 28.656 65.8427 28.824 65.852C28.992 65.8613 29.09 65.866 29.118 65.866L28.838 67C28.754 67.028 28.614 67.056 28.418 67.084C28.222 67.1213 27.9933 67.14 27.732 67.14ZM22.874 62.604C23.2287 62.604 23.546 62.5993 23.826 62.59C24.106 62.5713 24.358 62.5527 24.582 62.534C24.9927 62.4873 25.2773 62.3753 25.436 62.198C25.604 62.0113 25.688 61.7733 25.688 61.484V61.162C25.688 60.8633 25.6087 60.6113 25.45 60.406C25.2913 60.2007 25.0067 60.098 24.596 60.098H20.774V62.534C21.1847 62.562 21.5627 62.5807 21.908 62.59C22.2533 62.5993 22.5753 62.604 22.874 62.604ZM32.8018 67C32.1484 67 31.6351 66.9067 31.2618 66.72C30.8884 66.5333 30.6224 66.2533 30.4638 65.88C30.3144 65.5067 30.2398 65.0447 30.2398 64.494V61.26C30.2398 60.7187 30.3144 60.266 30.4638 59.902C30.6131 59.5287 30.8744 59.2487 31.2478 59.062C31.6211 58.866 32.1391 58.768 32.8018 58.768H36.8898C37.5431 58.768 38.0518 58.866 38.4158 59.062C38.7891 59.2487 39.0504 59.5287 39.1998 59.902C39.3584 60.266 39.4378 60.7187 39.4378 61.26V64.494C39.4378 65.3153 39.2558 65.9407 38.8918 66.37C38.5278 66.79 37.8604 67 36.8898 67H32.8018ZM33.2078 65.656H36.4978C36.8431 65.656 37.1091 65.5673 37.2958 65.39C37.4918 65.2127 37.5898 64.97 37.5898 64.662V61.092C37.5898 60.8213 37.4918 60.5927 37.2958 60.406C37.0998 60.21 36.8338 60.112 36.4978 60.112H33.2078C32.8718 60.112 32.6011 60.2007 32.3958 60.378C32.1904 60.5553 32.0878 60.7933 32.0878 61.092V64.662C32.0878 64.9793 32.1858 65.2267 32.3818 65.404C32.5871 65.572 32.8624 65.656 33.2078 65.656ZM44.224 67C43.552 67 42.936 66.986 42.376 66.958C41.8253 66.9207 41.382 66.86 41.046 66.776C40.7193 66.692 40.556 66.5753 40.556 66.426L41.256 65.348C41.5267 65.4693 41.9 65.5533 42.376 65.6C42.8613 65.6373 43.5007 65.656 44.294 65.656H45.638C46.0767 65.656 46.366 65.5533 46.506 65.348C46.646 65.1333 46.716 64.9047 46.716 64.662V59.888L46.604 58.768H48.564V64.494C48.564 64.9607 48.5033 65.3853 48.382 65.768C48.27 66.1507 48.032 66.454 47.668 66.678C47.3133 66.8927 46.7673 67 46.03 67H44.224ZM50.8055 67V58.768H59.5135V60.112H52.6535V62.044H57.8895V63.43H52.6535V65.656H59.5695L60.1295 66.846C60.1295 66.8833 60.0035 66.9207 59.7515 66.958C59.4995 66.986 59.0655 67 58.4495 67H50.8055ZM63.9463 67C63.2836 67 62.7656 66.9067 62.3923 66.72C62.019 66.5333 61.7576 66.2533 61.6083 65.88C61.459 65.5067 61.3843 65.0447 61.3843 64.494V61.372C61.3843 60.476 61.585 59.818 61.9863 59.398C62.3876 58.9687 63.041 58.754 63.9463 58.754H68.1603C68.8043 58.754 69.2943 58.7913 69.6303 58.866C69.9756 58.9313 70.1483 59.0013 70.1483 59.076L69.8683 60.238C69.7096 60.21 69.2383 60.182 68.4543 60.154C67.6796 60.1167 66.5503 60.098 65.0663 60.098H64.3523C63.6056 60.098 63.2323 60.4293 63.2323 61.092V64.662C63.2323 64.9793 63.3116 65.2267 63.4703 65.404C63.6383 65.572 63.9323 65.656 64.3523 65.656H64.9263C66.4756 65.656 67.675 65.642 68.5243 65.614C69.383 65.5767 69.915 65.5393 70.1203 65.502L70.6943 66.426C70.6943 66.4727 70.615 66.5427 70.4563 66.636C70.307 66.7293 70.027 66.8133 69.6163 66.888C69.2056 66.9627 68.613 67 67.8383 67H63.9463ZM74.9067 67L74.8927 60.098H71.2527V58.754H80.4087V60.098H76.7547V67H74.9067ZM85.8275 67V60.112L84.1475 60.238L84.0495 59.048L87.6755 58.628V67H85.8275ZM90.9148 62.38C90.5694 62.38 90.3174 62.31 90.1588 62.17C90.0001 62.03 89.9208 61.7967 89.9208 61.47C89.9208 61.134 89.9954 60.9007 90.1448 60.77C90.3034 60.63 90.5601 60.56 90.9148 60.56C91.2694 60.56 91.5261 60.63 91.6848 60.77C91.8434 60.9007 91.9228 61.134 91.9228 61.47C91.9228 61.7873 91.8434 62.0207 91.6848 62.17C91.5261 62.31 91.2694 62.38 90.9148 62.38ZM90.9148 67C90.5694 67 90.3174 66.93 90.1588 66.79C90.0001 66.65 89.9208 66.4167 89.9208 66.09C89.9208 65.754 89.9954 65.5207 90.1448 65.39C90.3034 65.25 90.5601 65.18 90.9148 65.18C91.2694 65.18 91.5261 65.25 91.6848 65.39C91.8434 65.5207 91.9228 65.754 91.9228 66.09C91.9228 66.4073 91.8434 66.6407 91.6848 66.79C91.5261 66.93 91.2694 67 90.9148 67ZM28.7082 84V76.888L28.5682 75.768H35.0642C35.8202 75.768 36.3989 75.8613 36.8002 76.048C37.2109 76.2347 37.4956 76.5147 37.6542 76.888C37.8129 77.252 37.8922 77.7093 37.8922 78.26V81.494C37.8922 82.054 37.8129 82.5207 37.6542 82.894C37.5049 83.258 37.2249 83.5333 36.8142 83.72C36.4129 83.9067 35.8296 84 35.0642 84H28.7082ZM30.5562 82.656H34.9522C35.6709 82.656 36.0349 82.3247 36.0442 81.662V78.092C36.0442 77.8213 35.9649 77.5927 35.8062 77.406C35.6476 77.21 35.3629 77.112 34.9522 77.112H30.5562V82.656ZM39.5675 84V77.728H40.7155L41.2475 78.008C41.4902 77.8773 41.7515 77.7747 42.0315 77.7C42.3115 77.6253 42.6662 77.588 43.0955 77.588C43.7769 77.588 44.3275 77.6627 44.7475 77.812C45.1769 77.9613 45.4615 78.0733 45.6015 78.148L45.1115 79.366C44.9995 79.31 44.8129 79.24 44.5515 79.156C44.2995 79.0627 44.0009 78.9787 43.6555 78.904C43.3102 78.8293 42.9322 78.792 42.5215 78.792H42.3675C41.9195 78.792 41.6255 78.8807 41.4855 79.058C41.3549 79.2353 41.2849 79.5293 41.2755 79.94V84H39.5675ZM48.2892 84C47.6639 84 47.1972 83.874 46.8892 83.622C46.5905 83.37 46.4412 82.9593 46.4412 82.39V79.52C46.4412 79.38 46.4505 79.212 46.4692 79.016C46.4972 78.8107 46.5625 78.61 46.6652 78.414C46.7772 78.218 46.9592 78.0547 47.2112 77.924C47.4725 77.7933 47.8319 77.728 48.2892 77.728H52.1532C52.6199 77.728 52.9792 77.7933 53.2312 77.924C53.4832 78.0547 53.6605 78.218 53.7632 78.414C53.8752 78.61 53.9405 78.8107 53.9592 79.016C53.9872 79.212 54.0012 79.38 54.0012 79.52V82.208C54.0012 82.376 53.9872 82.5627 53.9592 82.768C53.9405 82.9733 53.8752 83.1693 53.7632 83.356C53.6512 83.5427 53.4692 83.6967 53.2172 83.818C52.9652 83.9393 52.6105 84 52.1532 84H48.2892ZM48.8212 82.796H51.6212C52.0785 82.796 52.3072 82.6093 52.3072 82.236V79.492C52.3072 79.1187 52.0785 78.932 51.6212 78.932H48.8212C48.3732 78.932 48.1492 79.1187 48.1492 79.492V82.236C48.1492 82.6093 48.3732 82.796 48.8212 82.796ZM55.5363 84V77.728H56.6843L57.2443 78.008C57.6363 77.9333 58.1076 77.868 58.6583 77.812C59.209 77.756 59.839 77.728 60.5483 77.728H61.2483C61.715 77.728 62.0743 77.7933 62.3263 77.924C62.5783 78.0547 62.7556 78.218 62.8583 78.414C62.9703 78.61 63.0356 78.8107 63.0543 79.016C63.0823 79.212 63.0963 79.38 63.0963 79.52V84H61.3883V79.492C61.3883 79.1187 61.1643 78.932 60.7163 78.932H57.6643C57.487 78.932 57.3703 78.9507 57.3143 78.988C57.2676 79.016 57.2443 79.1 57.2443 79.24V84H55.5363ZM66.4181 84C65.9515 84 65.5921 83.9393 65.3401 83.818C65.0881 83.6967 64.9061 83.5427 64.7941 83.356C64.6915 83.1693 64.6261 82.9733 64.5981 82.768C64.5795 82.5627 64.5701 82.376 64.5701 82.208V79.52C64.5701 79.38 64.5795 79.212 64.5981 79.016C64.6261 78.8107 64.6915 78.61 64.7941 78.414C64.9061 78.218 65.0881 78.0547 65.3401 77.924C65.6015 77.7933 65.9608 77.728 66.4181 77.728H69.4281C70.0441 77.728 70.5248 77.7887 70.8701 77.91C71.2248 78.022 71.4721 78.2087 71.6121 78.47C71.7615 78.7313 71.8361 79.0813 71.8361 79.52V81.592H69.3861C68.5461 81.592 67.8601 81.5733 67.3281 81.536C66.8055 81.4987 66.4555 81.4753 66.2781 81.466V82.236C66.2688 82.6093 66.4928 82.796 66.9501 82.796H67.6641C68.1681 82.796 68.6581 82.7913 69.1341 82.782C69.6195 82.7633 70.0628 82.7447 70.4641 82.726C70.8655 82.698 71.1875 82.6747 71.4301 82.656L71.9901 83.566C71.9901 83.8553 71.0708 84 69.2321 84H66.4181ZM66.2781 80.388H70.1281V79.492C70.1281 79.3053 70.1048 79.1747 70.0581 79.1C70.0208 79.0253 69.8995 78.9787 69.6941 78.96C69.4888 78.9413 69.1388 78.932 68.6441 78.932H66.9501C66.5021 78.932 66.2781 79.1187 66.2781 79.492V80.388Z" fill="#EF8D7A"/>
<path d="M76 14.7143V13H60.8333V14.7143H67.3333V16.4286H65.1667V19.8571H58.0167L54.7645 15.4H45.3525L42.1025 19.8571H34.8333V16.4286H32.6667V14.7143H39.1667V13H24V14.7143H30.5V16.4286H28.3333V25H34.8333V23.2857H41.6952L42.1632 23.9269C39.3099 25.0716 36.9125 26.8187 35.2365 28.9747C33.5604 31.1307 32.671 33.6117 32.6667 36.1429C32.6667 36.3702 32.7808 36.5882 32.984 36.7489C33.1871 36.9097 33.4627 37 33.75 37C34.0373 37 34.3129 36.9097 34.516 36.7489C34.7192 36.5882 34.8333 36.3702 34.8333 36.1429C34.8371 33.9125 35.6263 31.7271 37.1124 29.8318C38.5984 27.9366 40.7226 26.4065 43.2465 25.4131L45.3525 28.2983H54.7645L56.8445 25.4474C59.3447 26.4482 61.4457 27.9774 62.9147 29.8652C64.3836 31.7531 65.1631 33.9259 65.1667 36.1429C65.1667 36.3702 65.2808 36.5882 65.484 36.7489C65.6871 36.9097 65.9627 37 66.25 37C66.5373 37 66.8129 36.9097 67.016 36.7489C67.2192 36.5882 67.3333 36.3702 67.3333 36.1429C67.3296 33.6252 66.4502 31.1569 64.7916 29.0082C63.1331 26.8596 60.7592 25.1135 57.93 23.9611L58.4218 23.2857H65.1667V25H71.6667V16.4286H69.5V14.7143H76Z" fill="white"/>
</svg>
