<svg viewBox="0 0 100 100" fill="none" xmlns="http://www.w3.org/2000/svg">
<rect fill="black"/>
<path d="M8.25 63L6.1 57.13H7.5L8.91 60.97L9.14 61.94H9.24L9.37 61.26L10.7 57.13H12.4L13.79 61.26L13.97 61.94H14.07L14.3 60.97L15.61 57.13H17.01L16.91 57.73L14.85 63H13.15L11.79 59.07L11.59 58.43H11.49L11.3 59.07L9.95 63H8.25ZM18.5329 63C18.1996 63 17.9429 62.9567 17.7629 62.87C17.5829 62.7833 17.4529 62.6733 17.3729 62.54C17.2996 62.4067 17.2529 62.2667 17.2329 62.12C17.2196 61.9733 17.2129 61.84 17.2129 61.72V59.8C17.2129 59.7 17.2196 59.58 17.2329 59.44C17.2529 59.2933 17.2996 59.15 17.3729 59.01C17.4529 58.87 17.5829 58.7533 17.7629 58.66C17.9496 58.5667 18.2062 58.52 18.5329 58.52H20.6829C21.1229 58.52 21.4662 58.5633 21.7129 58.65C21.9662 58.73 22.1429 58.8633 22.2429 59.05C22.3496 59.2367 22.4029 59.4867 22.4029 59.8V61.28H20.6529C20.0529 61.28 19.5629 61.2667 19.1829 61.24C18.8096 61.2133 18.5596 61.1967 18.4329 61.19V61.74C18.4262 62.0067 18.5862 62.14 18.9129 62.14H19.4229C19.7829 62.14 20.1329 62.1367 20.4729 62.13C20.8196 62.1167 21.1362 62.1033 21.4229 62.09C21.7096 62.07 21.9396 62.0533 22.1129 62.04L22.5129 62.69C22.5129 62.8967 21.8562 63 20.5429 63H18.5329ZM18.4329 60.42H21.1829V59.78C21.1829 59.6467 21.1662 59.5533 21.1329 59.5C21.1062 59.4467 21.0196 59.4133 20.8729 59.4C20.7262 59.3867 20.4762 59.38 20.1229 59.38H18.9129C18.5929 59.38 18.4329 59.5133 18.4329 59.78V60.42ZM24.7341 63C24.4007 63 24.1441 62.9567 23.9641 62.87C23.7841 62.7833 23.6541 62.6733 23.5741 62.54C23.5007 62.4067 23.4541 62.2667 23.4341 62.12C23.4207 61.9733 23.4141 61.84 23.4141 61.72V59.8C23.4141 59.7 23.4207 59.58 23.4341 59.44C23.4541 59.2933 23.5007 59.15 23.5741 59.01C23.6541 58.87 23.7841 58.7533 23.9641 58.66C24.1507 58.5667 24.4074 58.52 24.7341 58.52H26.8841C27.3241 58.52 27.6674 58.5633 27.9141 58.65C28.1674 58.73 28.3441 58.8633 28.4441 59.05C28.5507 59.2367 28.6041 59.4867 28.6041 59.8V61.28H26.8541C26.2541 61.28 25.7641 61.2667 25.3841 61.24C25.0107 61.2133 24.7607 61.1967 24.6341 61.19V61.74C24.6274 62.0067 24.7874 62.14 25.1141 62.14H25.6241C25.9841 62.14 26.3341 62.1367 26.6741 62.13C27.0207 62.1167 27.3374 62.1033 27.6241 62.09C27.9107 62.07 28.1407 62.0533 28.3141 62.04L28.7141 62.69C28.7141 62.8967 28.0574 63 26.7441 63H24.7341ZM24.6341 60.42H27.3841V59.78C27.3841 59.6467 27.3674 59.5533 27.3341 59.5C27.3074 59.4467 27.2207 59.4133 27.0741 59.4C26.9274 59.3867 26.6774 59.38 26.3241 59.38H25.1141C24.7941 59.38 24.6341 59.5133 24.6341 59.78V60.42ZM34.5052 63.1C34.2252 63.1 33.9852 63.0667 33.7852 63C33.5919 62.9333 33.3852 62.79 33.1652 62.57C33.1452 62.55 33.0919 62.4967 33.0052 62.41C32.9186 62.3233 32.8219 62.2267 32.7152 62.12C32.6152 62.0133 32.5219 61.9167 32.4352 61.83C32.3486 61.7433 32.2919 61.6867 32.2652 61.66C32.0986 61.4933 31.9386 61.3633 31.7852 61.27C31.6386 61.1767 31.4552 61.13 31.2352 61.13C31.0886 61.13 31.0019 61.1433 30.9752 61.17C30.9486 61.1967 30.9352 61.2867 30.9352 61.44V63H29.7152V56.67H30.9352V60.27H31.2552C31.3752 60.27 31.4819 60.2233 31.5752 60.13C31.6352 60.07 31.7486 59.95 31.9152 59.77C32.0819 59.59 32.2686 59.3867 32.4752 59.16C32.6886 58.9333 32.8819 58.7233 33.0552 58.53H34.5252L34.3652 58.84C34.2119 59 34.0452 59.17 33.8652 59.35C33.6852 59.5233 33.5086 59.6933 33.3352 59.86C33.1686 60.02 33.0152 60.1633 32.8752 60.29C32.7352 60.41 32.6286 60.49 32.5552 60.53C32.7552 60.6367 32.9352 60.76 33.0952 60.9C33.2552 61.0333 33.4286 61.1867 33.6152 61.36C33.8019 61.5267 34.0252 61.7167 34.2852 61.93C34.5186 62.1167 34.7352 62.2267 34.9352 62.26C35.1352 62.2867 35.2552 62.3 35.2952 62.3L35.1152 63C35.0486 63.02 34.9586 63.04 34.8452 63.06C34.7319 63.0867 34.6186 63.1 34.5052 63.1ZM39.8141 63C39.3141 63 38.9308 62.98 38.6641 62.94C38.3975 62.9 38.2108 62.8567 38.1041 62.81C37.9975 62.7567 37.9275 62.72 37.8941 62.7L38.2841 61.93C38.3241 61.9367 38.4041 61.9467 38.5241 61.96C38.6441 61.9733 38.8275 61.9867 39.0741 62C39.3275 62.0067 39.6675 62.0167 40.0941 62.03C40.5208 62.0367 41.0575 62.04 41.7041 62.04C41.9508 62.04 42.1375 62.0067 42.2641 61.94C42.3908 61.8733 42.4741 61.7867 42.5141 61.68C42.5608 61.5667 42.5841 61.45 42.5841 61.33V61.09C42.5841 60.9167 42.5375 60.7733 42.4441 60.66C42.3508 60.54 42.1675 60.48 41.8941 60.48H39.0541V59.6H41.3841C41.6975 59.6 41.9241 59.54 42.0641 59.42C42.2041 59.2933 42.2741 59.1367 42.2741 58.95V58.64C42.2741 58.4533 42.2208 58.2967 42.1141 58.17C42.0075 58.0433 41.8008 57.98 41.4941 57.98H41.2141C40.8675 57.98 40.5041 57.9933 40.1241 58.02C39.7441 58.04 39.3875 58.0667 39.0541 58.1C38.7208 58.1267 38.4508 58.1533 38.2441 58.18L38.1441 57.27C38.2708 57.25 38.4975 57.22 38.8241 57.18C39.1508 57.14 39.5441 57.1033 40.0041 57.07C40.4641 57.0367 40.9608 57.02 41.4941 57.02H41.7741C42.1808 57.02 42.5041 57.07 42.7441 57.17C42.9841 57.2633 43.1641 57.39 43.2841 57.55C43.4108 57.7033 43.4941 57.8733 43.5341 58.06C43.5741 58.24 43.5941 58.4167 43.5941 58.59V58.76C43.5941 59.06 43.5241 59.2933 43.3841 59.46C43.2441 59.6267 43.1141 59.75 42.9941 59.83C43.2875 59.9167 43.5108 60.0667 43.6641 60.28C43.8241 60.4933 43.9041 60.7567 43.9041 61.07V61.31C43.9041 61.5033 43.8775 61.7 43.8241 61.9C43.7775 62.1 43.6808 62.2833 43.5341 62.45C43.3875 62.6167 43.1741 62.75 42.8941 62.85C42.6141 62.95 42.2441 63 41.7841 63H39.8141Z" fill="#EF8D7A"/>
<path d="M6.8 75V69.12H8.12V71.56H12.04V69.12H13.36V75H12.04V72.52H8.12V75H6.8ZM16.0541 75C15.5474 75 15.1807 74.8833 14.9541 74.65C14.7274 74.41 14.6141 74.0833 14.6141 73.67C14.6141 73.2367 14.7307 72.9033 14.9641 72.67C15.2041 72.4367 15.5674 72.32 16.0541 72.32H16.5641C17.0641 72.32 17.5141 72.3333 17.9141 72.36C18.3141 72.3867 18.6441 72.4133 18.9041 72.44V71.78C18.9041 71.72 18.8974 71.66 18.8841 71.6C18.8707 71.5333 18.8307 71.48 18.7641 71.44C18.6974 71.4 18.5841 71.38 18.4241 71.38H17.9241C17.1974 71.38 16.5907 71.3933 16.1041 71.42C15.6174 71.44 15.2874 71.46 15.1141 71.48L15.0041 70.72C15.0041 70.6267 15.2574 70.57 15.7641 70.55C16.2707 70.53 17.1174 70.52 18.3041 70.52H18.8041C19.1374 70.52 19.3941 70.5667 19.5741 70.66C19.7541 70.7533 19.8807 70.87 19.9541 71.01C20.0341 71.15 20.0807 71.2933 20.0941 71.44C20.1141 71.58 20.1241 71.7 20.1241 71.8V75H19.3041L18.9141 74.8C18.6341 74.8467 18.2974 74.8933 17.9041 74.94C17.5107 74.98 17.0607 75 16.5541 75H16.0541ZM16.3141 74.14H18.6041C18.7507 74.14 18.8374 74.1267 18.8641 74.1C18.8907 74.0733 18.9041 73.99 18.9041 73.85V73.08H16.3141C16.1341 73.08 16.0074 73.1233 15.9341 73.21C15.8674 73.2967 15.8341 73.4333 15.8341 73.62C15.8341 73.8067 15.8741 73.94 15.9541 74.02C16.0341 74.1 16.1541 74.14 16.3141 74.14ZM21.2777 75V70.52H22.0977L22.4977 70.72C22.7777 70.6667 23.1144 70.62 23.5077 70.58C23.9011 70.54 24.3511 70.52 24.8577 70.52H25.3577C25.6911 70.52 25.9477 70.5667 26.1277 70.66C26.3077 70.7533 26.4344 70.87 26.5077 71.01C26.5877 71.15 26.6344 71.2933 26.6477 71.44C26.6677 71.58 26.6777 71.7 26.6777 71.8V75H25.4577V71.78C25.4577 71.5133 25.2977 71.38 24.9777 71.38H22.7977C22.6711 71.38 22.5877 71.3933 22.5477 71.42C22.5144 71.44 22.4977 71.5 22.4977 71.6V75H21.2777ZM29.0505 75C28.7171 75 28.4605 74.9567 28.2805 74.87C28.1005 74.7833 27.9705 74.6733 27.8905 74.54C27.8171 74.4067 27.7705 74.2667 27.7505 74.12C27.7371 73.9733 27.7305 73.84 27.7305 73.72V71.8C27.7305 71.7 27.7371 71.58 27.7505 71.44C27.7705 71.2933 27.8171 71.15 27.8905 71.01C27.9705 70.87 28.1005 70.7533 28.2805 70.66C28.4671 70.5667 28.7238 70.52 29.0505 70.52H29.5605C30.1738 70.52 30.6671 70.5333 31.0405 70.56C31.4205 70.58 31.7105 70.6033 31.9105 70.63V68.66H33.1305V75H32.3105L31.9205 74.8C31.6405 74.8467 31.3038 74.8933 30.9105 74.94C30.5171 74.98 30.0638 75 29.5505 75H29.0505ZM29.4305 74.14H31.6005C31.7405 74.14 31.8271 74.1233 31.8605 74.09C31.8938 74.0567 31.9105 73.9733 31.9105 73.84V71.45C31.6838 71.4367 31.3971 71.4233 31.0505 71.41C30.7038 71.39 30.3338 71.38 29.9405 71.38H29.4305C29.1105 71.38 28.9505 71.5133 28.9505 71.78V73.74C28.9505 74.0067 29.1105 74.14 29.4305 74.14ZM38.3693 75C37.8626 75 37.516 74.8933 37.3293 74.68C37.1426 74.4667 37.0493 74.1467 37.0493 73.72V71.38H36.2293V70.52H36.6493C36.776 70.52 36.866 70.5 36.9193 70.46C36.9793 70.42 37.0226 70.34 37.0493 70.22L37.2493 69.15H38.2693V70.52H40.3493V71.38H38.2693V73.73C38.2693 73.8967 38.3093 74.0067 38.3893 74.06C38.4693 74.1133 38.5893 74.14 38.7493 74.14H40.1593L40.2593 74.9C40.1193 74.92 39.906 74.9433 39.6193 74.97C39.3326 74.99 39.0193 75 38.6793 75H38.3693ZM42.3708 75C41.9241 75 41.5908 74.91 41.3708 74.73C41.1574 74.55 41.0508 74.2567 41.0508 73.85V71.8C41.0508 71.7 41.0574 71.58 41.0708 71.44C41.0908 71.2933 41.1374 71.15 41.2108 71.01C41.2908 70.87 41.4208 70.7533 41.6008 70.66C41.7874 70.5667 42.0441 70.52 42.3708 70.52H45.1308C45.4641 70.52 45.7208 70.5667 45.9008 70.66C46.0808 70.7533 46.2074 70.87 46.2808 71.01C46.3608 71.15 46.4074 71.2933 46.4208 71.44C46.4408 71.58 46.4508 71.7 46.4508 71.8V73.72C46.4508 73.84 46.4408 73.9733 46.4208 74.12C46.4074 74.2667 46.3608 74.4067 46.2808 74.54C46.2008 74.6733 46.0708 74.7833 45.8908 74.87C45.7108 74.9567 45.4574 75 45.1308 75H42.3708ZM42.7508 74.14H44.7508C45.0774 74.14 45.2408 74.0067 45.2408 73.74V71.78C45.2408 71.5133 45.0774 71.38 44.7508 71.38H42.7508C42.4308 71.38 42.2708 71.5133 42.2708 71.78V73.74C42.2708 74.0067 42.4308 74.14 42.7508 74.14ZM48.7673 75C48.3206 75 47.9873 74.91 47.7673 74.73C47.5539 74.55 47.4473 74.2567 47.4473 73.85V71.8C47.4473 71.7 47.4539 71.58 47.4673 71.44C47.4873 71.2933 47.5339 71.15 47.6073 71.01C47.6873 70.87 47.8173 70.7533 47.9973 70.66C48.1839 70.5667 48.4406 70.52 48.7673 70.52H51.5273C51.8606 70.52 52.1173 70.5667 52.2973 70.66C52.4773 70.7533 52.6039 70.87 52.6773 71.01C52.7573 71.15 52.8039 71.2933 52.8173 71.44C52.8373 71.58 52.8473 71.7 52.8473 71.8V73.72C52.8473 73.84 52.8373 73.9733 52.8173 74.12C52.8039 74.2667 52.7573 74.4067 52.6773 74.54C52.5973 74.6733 52.4673 74.7833 52.2873 74.87C52.1073 74.9567 51.8539 75 51.5273 75H48.7673ZM49.1473 74.14H51.1473C51.4739 74.14 51.6373 74.0067 51.6373 73.74V71.78C51.6373 71.5133 51.4739 71.38 51.1473 71.38H49.1473C48.8273 71.38 48.6673 71.5133 48.6673 71.78V73.74C48.6673 74.0067 48.8273 74.14 49.1473 74.14ZM54.0438 75V69.46L53.9438 68.66H55.2638V75H54.0438ZM57.5933 75C57.1466 75 56.8299 74.9767 56.6433 74.93C56.4566 74.8833 56.3633 74.8367 56.3633 74.79L56.6633 74.04C56.8566 74.06 57.2099 74.0833 57.7233 74.11C58.2433 74.13 58.8833 74.14 59.6433 74.14H60.1433C60.3099 74.14 60.4133 74.0967 60.4533 74.01C60.4999 73.9167 60.5233 73.7933 60.5233 73.64C60.5233 73.4867 60.4966 73.3633 60.4433 73.27C60.3966 73.1767 60.2966 73.13 60.1433 73.13H57.6833C57.2166 73.13 56.8799 73.0433 56.6733 72.87C56.4666 72.69 56.3633 72.4233 56.3633 72.07V71.67C56.3633 71.5767 56.3733 71.4667 56.3933 71.34C56.4133 71.2133 56.4633 71.0867 56.5433 70.96C56.6233 70.8333 56.7533 70.73 56.9333 70.65C57.1133 70.5633 57.3633 70.52 57.6833 70.52H60.4433C60.8433 70.52 61.1266 70.5433 61.2933 70.59C61.4599 70.6367 61.5433 70.6833 61.5433 70.73L61.4433 71.48C61.2499 71.46 60.8933 71.44 60.3733 71.42C59.8533 71.3933 59.2166 71.38 58.4633 71.38H57.9633C57.7966 71.38 57.6899 71.4267 57.6433 71.52C57.6033 71.6067 57.5833 71.71 57.5833 71.83C57.5833 71.9567 57.6033 72.0633 57.6433 72.15C57.6899 72.23 57.7966 72.27 57.9633 72.27H60.4233C60.8766 72.27 61.2099 72.3633 61.4233 72.55C61.6366 72.7367 61.7433 72.9733 61.7433 73.26V73.85C61.7433 73.97 61.7333 74.0967 61.7133 74.23C61.6999 74.3633 61.6533 74.49 61.5733 74.61C61.4933 74.7233 61.3633 74.8167 61.1833 74.89C61.0033 74.9633 60.7499 75 60.4233 75H57.5933ZM66.3275 75C65.8208 75 65.4542 74.8833 65.2275 74.65C65.0008 74.41 64.8875 74.0833 64.8875 73.67C64.8875 73.2367 65.0042 72.9033 65.2375 72.67C65.4775 72.4367 65.8408 72.32 66.3275 72.32H66.8375C67.3375 72.32 67.7875 72.3333 68.1875 72.36C68.5875 72.3867 68.9175 72.4133 69.1775 72.44V71.78C69.1775 71.72 69.1708 71.66 69.1575 71.6C69.1442 71.5333 69.1042 71.48 69.0375 71.44C68.9708 71.4 68.8575 71.38 68.6975 71.38H68.1975C67.4708 71.38 66.8642 71.3933 66.3775 71.42C65.8908 71.44 65.5608 71.46 65.3875 71.48L65.2775 70.72C65.2775 70.6267 65.5308 70.57 66.0375 70.55C66.5442 70.53 67.3908 70.52 68.5775 70.52H69.0775C69.4108 70.52 69.6675 70.5667 69.8475 70.66C70.0275 70.7533 70.1542 70.87 70.2275 71.01C70.3075 71.15 70.3542 71.2933 70.3675 71.44C70.3875 71.58 70.3975 71.7 70.3975 71.8V75H69.5775L69.1875 74.8C68.9075 74.8467 68.5708 74.8933 68.1775 74.94C67.7842 74.98 67.3342 75 66.8275 75H66.3275ZM66.5875 74.14H68.8775C69.0242 74.14 69.1108 74.1267 69.1375 74.1C69.1642 74.0733 69.1775 73.99 69.1775 73.85V73.08H66.5875C66.4075 73.08 66.2808 73.1233 66.2075 73.21C66.1408 73.2967 66.1075 73.4333 66.1075 73.62C66.1075 73.8067 66.1475 73.94 66.2275 74.02C66.3075 74.1 66.4275 74.14 66.5875 74.14ZM71.5512 75V70.52H72.3712L72.7712 70.72C73.0512 70.6667 73.3878 70.62 73.7812 70.58C74.1745 70.54 74.6245 70.52 75.1312 70.52H75.6312C75.9645 70.52 76.2212 70.5667 76.4012 70.66C76.5812 70.7533 76.7078 70.87 76.7812 71.01C76.8612 71.15 76.9078 71.2933 76.9212 71.44C76.9412 71.58 76.9512 71.7 76.9512 71.8V75H75.7312V71.78C75.7312 71.5133 75.5712 71.38 75.2512 71.38H73.0712C72.9445 71.38 72.8612 71.3933 72.8212 71.42C72.7878 71.44 72.7712 71.5 72.7712 71.6V75H71.5512ZM79.3239 75C78.9906 75 78.7339 74.9567 78.5539 74.87C78.3739 74.7833 78.2439 74.6733 78.1639 74.54C78.0906 74.4067 78.0439 74.2667 78.0239 74.12C78.0106 73.9733 78.0039 73.84 78.0039 73.72V71.8C78.0039 71.7 78.0106 71.58 78.0239 71.44C78.0439 71.2933 78.0906 71.15 78.1639 71.01C78.2439 70.87 78.3739 70.7533 78.5539 70.66C78.7406 70.5667 78.9972 70.52 79.3239 70.52H79.8339C80.4472 70.52 80.9406 70.5333 81.3139 70.56C81.6939 70.58 81.9839 70.6033 82.1839 70.63V68.66H83.4039V75H82.5839L82.1939 74.8C81.9139 74.8467 81.5772 74.8933 81.1839 74.94C80.7906 74.98 80.3372 75 79.8239 75H79.3239ZM79.7039 74.14H81.8739C82.0139 74.14 82.1006 74.1233 82.1339 74.09C82.1672 74.0567 82.1839 73.9733 82.1839 73.84V71.45C81.9572 71.4367 81.6706 71.4233 81.3239 71.41C80.9772 71.39 80.6072 71.38 80.2139 71.38H79.7039C79.3839 71.38 79.2239 71.5133 79.2239 71.78V73.74C79.2239 74.0067 79.3839 74.14 79.7039 74.14ZM6.82 87V83.38H6.2V82.53H6.82V81.64C6.82 81.4133 6.86333 81.2033 6.95 81.01C7.04333 80.8167 7.19333 80.66 7.4 80.54C7.61333 80.42 7.89333 80.36 8.24 80.36H8.74C9.54 80.36 10.1133 80.3967 10.46 80.47C10.8133 80.5433 10.99 80.6067 10.99 80.66L10.69 81.42C10.5767 81.3733 10.3733 81.33 10.08 81.29C9.78667 81.2433 9.43333 81.22 9.02 81.22H8.52C8.35333 81.22 8.23 81.25 8.15 81.31C8.07667 81.37 8.04 81.4733 8.04 81.62V82.53H10.12V83.38H8.04V87H6.82ZM11.8744 87C11.3677 87 11.001 86.8833 10.7744 86.65C10.5477 86.41 10.4344 86.0833 10.4344 85.67C10.4344 85.2367 10.551 84.9033 10.7844 84.67C11.0244 84.4367 11.3877 84.32 11.8744 84.32H12.3844C12.8844 84.32 13.3344 84.3333 13.7344 84.36C14.1344 84.3867 14.4644 84.4133 14.7244 84.44V83.78C14.7244 83.72 14.7177 83.66 14.7044 83.6C14.691 83.5333 14.651 83.48 14.5844 83.44C14.5177 83.4 14.4044 83.38 14.2444 83.38H13.7444C13.0177 83.38 12.411 83.3933 11.9244 83.42C11.4377 83.44 11.1077 83.46 10.9344 83.48L10.8244 82.72C10.8244 82.6267 11.0777 82.57 11.5844 82.55C12.091 82.53 12.9377 82.52 14.1244 82.52H14.6244C14.9577 82.52 15.2144 82.5667 15.3944 82.66C15.5744 82.7533 15.701 82.87 15.7744 83.01C15.8544 83.15 15.901 83.2933 15.9144 83.44C15.9344 83.58 15.9444 83.7 15.9444 83.8V87H15.1244L14.7344 86.8C14.4544 86.8467 14.1177 86.8933 13.7244 86.94C13.331 86.98 12.881 87 12.3744 87H11.8744ZM12.1344 86.14H14.4244C14.571 86.14 14.6577 86.1267 14.6844 86.1C14.711 86.0733 14.7244 85.99 14.7244 85.85V85.08H12.1344C11.9544 85.08 11.8277 85.1233 11.7544 85.21C11.6877 85.2967 11.6544 85.4333 11.6544 85.62C11.6544 85.8067 11.6944 85.94 11.7744 86.02C11.8544 86.1 11.9744 86.14 12.1344 86.14ZM17.098 87V80.66H18.318V82.64C18.6047 82.6067 18.9414 82.58 19.328 82.56C19.7214 82.5333 20.168 82.52 20.668 82.52H21.178C21.5114 82.52 21.768 82.5633 21.948 82.65C22.128 82.7367 22.2547 82.8467 22.328 82.98C22.408 83.1133 22.4547 83.2533 22.468 83.4C22.488 83.5467 22.498 83.68 22.498 83.8V85.72C22.498 85.82 22.488 85.9433 22.468 86.09C22.4547 86.23 22.408 86.37 22.328 86.51C22.2547 86.65 22.128 86.7667 21.948 86.86C21.768 86.9533 21.5114 87 21.178 87H20.668C20.1147 87 19.6314 86.9867 19.218 86.96C18.8047 86.9267 18.4614 86.8933 18.188 86.86L17.918 87H17.098ZM18.628 86.14H20.798C21.118 86.14 21.278 86.0067 21.278 85.74V83.78C21.2847 83.6333 21.2547 83.53 21.188 83.47C21.1214 83.41 20.9914 83.38 20.798 83.38H20.298C19.8714 83.38 19.4914 83.39 19.158 83.41C18.8314 83.4233 18.5514 83.44 18.318 83.46V85.83C18.318 85.97 18.3314 86.0567 18.358 86.09C18.3914 86.1233 18.4814 86.14 18.628 86.14ZM23.602 87V82.52H24.422L24.802 82.72C24.9753 82.6267 25.162 82.5533 25.362 82.5C25.562 82.4467 25.8153 82.42 26.122 82.42C26.6086 82.42 27.002 82.4733 27.302 82.58C27.6086 82.6867 27.812 82.7667 27.912 82.82L27.562 83.69C27.482 83.65 27.3486 83.6 27.162 83.54C26.982 83.4733 26.7686 83.4133 26.522 83.36C26.2753 83.3067 26.0053 83.28 25.712 83.28H25.602C25.282 83.28 25.072 83.3433 24.972 83.47C24.8786 83.5967 24.8286 83.8067 24.822 84.1V87H23.602ZM29.3217 81.89C29.0751 81.89 28.8951 81.84 28.7817 81.74C28.6684 81.64 28.6117 81.4733 28.6117 81.24C28.6117 81 28.6651 80.8333 28.7717 80.74C28.8851 80.64 29.0684 80.59 29.3217 80.59C29.5751 80.59 29.7584 80.64 29.8717 80.74C29.9851 80.8333 30.0417 81 30.0417 81.24C30.0417 81.4667 29.9851 81.6333 29.8717 81.74C29.7584 81.84 29.5751 81.89 29.3217 81.89ZM28.7117 87V82.52H29.9317V87H28.7117ZM32.4587 87C32.1253 87 31.8687 86.9567 31.6887 86.87C31.5087 86.7833 31.3787 86.6733 31.2987 86.54C31.2253 86.4067 31.1787 86.2667 31.1587 86.12C31.1453 85.9733 31.1387 85.84 31.1387 85.72V83.8C31.1387 83.7 31.1453 83.58 31.1587 83.44C31.1787 83.2933 31.2253 83.15 31.2987 83.01C31.3787 82.87 31.5087 82.7533 31.6887 82.66C31.8753 82.5667 32.132 82.52 32.4587 82.52H33.8487C34.682 82.52 35.272 82.5433 35.6187 82.59C35.972 82.63 36.1487 82.6733 36.1487 82.72L35.9487 83.48C35.762 83.4667 35.5253 83.4533 35.2387 83.44C34.952 83.42 34.642 83.4067 34.3087 83.4C33.982 83.3867 33.662 83.38 33.3487 83.38H32.8387C32.5187 83.38 32.3587 83.5133 32.3587 83.78V85.74C32.352 86.0067 32.512 86.14 32.8387 86.14H33.3487C33.7087 86.14 34.0587 86.1367 34.3987 86.13C34.7453 86.1167 35.062 86.1033 35.3487 86.09C35.6353 86.07 35.8653 86.0533 36.0387 86.04L36.4387 86.69C36.4387 86.8967 35.782 87 34.4687 87H32.4587ZM38.4271 87C37.9204 87 37.5538 86.8833 37.3271 86.65C37.1004 86.41 36.9871 86.0833 36.9871 85.67C36.9871 85.2367 37.1038 84.9033 37.3371 84.67C37.5771 84.4367 37.9404 84.32 38.4271 84.32H38.9371C39.4371 84.32 39.8871 84.3333 40.2871 84.36C40.6871 84.3867 41.0171 84.4133 41.2771 84.44V83.78C41.2771 83.72 41.2704 83.66 41.2571 83.6C41.2438 83.5333 41.2038 83.48 41.1371 83.44C41.0704 83.4 40.9571 83.38 40.7971 83.38H40.2971C39.5704 83.38 38.9638 83.3933 38.4771 83.42C37.9904 83.44 37.6604 83.46 37.4871 83.48L37.3771 82.72C37.3771 82.6267 37.6304 82.57 38.1371 82.55C38.6438 82.53 39.4904 82.52 40.6771 82.52H41.1771C41.5104 82.52 41.7671 82.5667 41.9471 82.66C42.1271 82.7533 42.2538 82.87 42.3271 83.01C42.4071 83.15 42.4538 83.2933 42.4671 83.44C42.4871 83.58 42.4971 83.7 42.4971 83.8V87H41.6771L41.2871 86.8C41.0071 86.8467 40.6704 86.8933 40.2771 86.94C39.8838 86.98 39.4338 87 38.9271 87H38.4271ZM38.6871 86.14H40.9771C41.1238 86.14 41.2104 86.1267 41.2371 86.1C41.2638 86.0733 41.2771 85.99 41.2771 85.85V85.08H38.6871C38.5071 85.08 38.3804 85.1233 38.3071 85.21C38.2404 85.2967 38.2071 85.4333 38.2071 85.62C38.2071 85.8067 38.2471 85.94 38.3271 86.02C38.4071 86.1 38.5271 86.14 38.6871 86.14ZM45.3908 87C44.8841 87 44.5374 86.8933 44.3508 86.68C44.1641 86.4667 44.0708 86.1467 44.0708 85.72V83.38H43.2508V82.52H43.6708C43.7974 82.52 43.8874 82.5 43.9408 82.46C44.0008 82.42 44.0441 82.34 44.0708 82.22L44.2708 81.15H45.2908V82.52H47.3708V83.38H45.2908V85.73C45.2908 85.8967 45.3308 86.0067 45.4108 86.06C45.4908 86.1133 45.6108 86.14 45.7708 86.14H47.1808L47.2808 86.9C47.1408 86.92 46.9274 86.9433 46.6408 86.97C46.3541 86.99 46.0408 87 45.7008 87H45.3908ZM48.8823 81.89C48.6356 81.89 48.4556 81.84 48.3423 81.74C48.2289 81.64 48.1723 81.4733 48.1723 81.24C48.1723 81 48.2256 80.8333 48.3323 80.74C48.4456 80.64 48.6289 80.59 48.8823 80.59C49.1356 80.59 49.3189 80.64 49.4323 80.74C49.5456 80.8333 49.6023 81 49.6023 81.24C49.6023 81.4667 49.5456 81.6333 49.4323 81.74C49.3189 81.84 49.1356 81.89 48.8823 81.89ZM48.2723 87V82.52H49.4923V87H48.2723ZM52.0192 87C51.5726 87 51.2392 86.91 51.0192 86.73C50.8059 86.55 50.6992 86.2567 50.6992 85.85V83.8C50.6992 83.7 50.7059 83.58 50.7192 83.44C50.7392 83.2933 50.7859 83.15 50.8592 83.01C50.9392 82.87 51.0692 82.7533 51.2492 82.66C51.4359 82.5667 51.6926 82.52 52.0192 82.52H54.7792C55.1126 82.52 55.3692 82.5667 55.5492 82.66C55.7292 82.7533 55.8559 82.87 55.9292 83.01C56.0092 83.15 56.0559 83.2933 56.0692 83.44C56.0892 83.58 56.0992 83.7 56.0992 83.8V85.72C56.0992 85.84 56.0892 85.9733 56.0692 86.12C56.0559 86.2667 56.0092 86.4067 55.9292 86.54C55.8492 86.6733 55.7192 86.7833 55.5392 86.87C55.3592 86.9567 55.1059 87 54.7792 87H52.0192ZM52.3992 86.14H54.3992C54.7259 86.14 54.8892 86.0067 54.8892 85.74V83.78C54.8892 83.5133 54.7259 83.38 54.3992 83.38H52.3992C52.0792 83.38 51.9192 83.5133 51.9192 83.78V85.74C51.9192 86.0067 52.0792 86.14 52.3992 86.14ZM57.1957 87V82.52H58.0157L58.4157 82.72C58.6957 82.6667 59.0324 82.62 59.4257 82.58C59.819 82.54 60.269 82.52 60.7757 82.52H61.2757C61.609 82.52 61.8657 82.5667 62.0457 82.66C62.2257 82.7533 62.3524 82.87 62.4257 83.01C62.5057 83.15 62.5524 83.2933 62.5657 83.44C62.5857 83.58 62.5957 83.7 62.5957 83.8V87H61.3757V83.78C61.3757 83.5133 61.2157 83.38 60.8957 83.38H58.7157C58.589 83.38 58.5057 83.3933 58.4657 83.42C58.4324 83.44 58.4157 83.5 58.4157 83.6V87H57.1957Z" fill="white"/>
<path d="M26.8351 1.15143C29.1252 4.24628 30.5183 8.05682 30.5183 12.2009C30.5183 15.2972 29.7613 18.217 28.4238 20.7866C28.3652 20.8991 28.3058 21.0112 28.245 21.1223C27.5594 22.3852 26.7264 23.5623 25.7635 24.6289C25.7222 24.6751 25.681 24.7215 25.6392 24.7671C25.6327 24.7743 25.6259 24.7811 25.6195 24.7882C22.2135 28.5012 17.3227 30.83 11.8891 30.83C7.98989 30.83 4.36577 29.6234 1.37353 27.574V41.1855C3.28154 42.5503 5.36816 43.7748 7.67202 44.7619C6.43263 42.8797 5.46663 37.9691 6.11773 35.8987C10.461 40.6707 18.6127 42.265 25.287 41.5058C21.0297 40.5241 18.5695 37.2548 18.7214 33.7124C24.9442 34.4473 31.1076 34.2434 37.3505 31.7908C33.4114 32.7524 29.8911 31.1552 28.3293 28.1612C34.351 25.5721 39.8073 22.0983 44.076 16.4179C40.2404 19.1141 35.907 18.6684 33.4002 15.9375C37.5492 12.6649 41.1589 8.91384 43.8091 4.1408C40.6865 5.83543 36.3817 7.62719 33.4691 6.15644C35.1369 4.3982 36.2 2.56952 36.5088 1.15152L26.8351 1.15143ZM28.543 9.46871C27.7779 16.7171 21.6457 22.3664 14.1944 22.3664C8.57244 22.3664 3.72096 19.136 1.33939 14.4434V24.8994C6.52966 29.41 14.2124 30.378 20.5075 26.7435C26.7267 23.1527 29.7385 16.1494 28.5429 9.46862L28.543 9.46871Z" fill="#EF8D7A"/>
</svg>
