<svg viewBox="0 0 100 100" fill="none" xmlns="http://www.w3.org/2000/svg">
<rect fill="black"/>
<path d="M8.25 63L6.1 57.13H7.5L8.91 60.97L9.14 61.94H9.24L9.37 61.26L10.7 57.13H12.4L13.79 61.26L13.97 61.94H14.07L14.3 60.97L15.61 57.13H17.01L16.91 57.73L14.85 63H13.15L11.79 59.07L11.59 58.43H11.49L11.3 59.07L9.95 63H8.25ZM18.5329 63C18.1996 63 17.9429 62.9567 17.7629 62.87C17.5829 62.7833 17.4529 62.6733 17.3729 62.54C17.2996 62.4067 17.2529 62.2667 17.2329 62.12C17.2196 61.9733 17.2129 61.84 17.2129 61.72V59.8C17.2129 59.7 17.2196 59.58 17.2329 59.44C17.2529 59.2933 17.2996 59.15 17.3729 59.01C17.4529 58.87 17.5829 58.7533 17.7629 58.66C17.9496 58.5667 18.2062 58.52 18.5329 58.52H20.6829C21.1229 58.52 21.4662 58.5633 21.7129 58.65C21.9662 58.73 22.1429 58.8633 22.2429 59.05C22.3496 59.2367 22.4029 59.4867 22.4029 59.8V61.28H20.6529C20.0529 61.28 19.5629 61.2667 19.1829 61.24C18.8096 61.2133 18.5596 61.1967 18.4329 61.19V61.74C18.4262 62.0067 18.5862 62.14 18.9129 62.14H19.4229C19.7829 62.14 20.1329 62.1367 20.4729 62.13C20.8196 62.1167 21.1362 62.1033 21.4229 62.09C21.7096 62.07 21.9396 62.0533 22.1129 62.04L22.5129 62.69C22.5129 62.8967 21.8562 63 20.5429 63H18.5329ZM18.4329 60.42H21.1829V59.78C21.1829 59.6467 21.1662 59.5533 21.1329 59.5C21.1062 59.4467 21.0196 59.4133 20.8729 59.4C20.7262 59.3867 20.4762 59.38 20.1229 59.38H18.9129C18.5929 59.38 18.4329 59.5133 18.4329 59.78V60.42ZM24.7341 63C24.4007 63 24.1441 62.9567 23.9641 62.87C23.7841 62.7833 23.6541 62.6733 23.5741 62.54C23.5007 62.4067 23.4541 62.2667 23.4341 62.12C23.4207 61.9733 23.4141 61.84 23.4141 61.72V59.8C23.4141 59.7 23.4207 59.58 23.4341 59.44C23.4541 59.2933 23.5007 59.15 23.5741 59.01C23.6541 58.87 23.7841 58.7533 23.9641 58.66C24.1507 58.5667 24.4074 58.52 24.7341 58.52H26.8841C27.3241 58.52 27.6674 58.5633 27.9141 58.65C28.1674 58.73 28.3441 58.8633 28.4441 59.05C28.5507 59.2367 28.6041 59.4867 28.6041 59.8V61.28H26.8541C26.2541 61.28 25.7641 61.2667 25.3841 61.24C25.0107 61.2133 24.7607 61.1967 24.6341 61.19V61.74C24.6274 62.0067 24.7874 62.14 25.1141 62.14H25.6241C25.9841 62.14 26.3341 62.1367 26.6741 62.13C27.0207 62.1167 27.3374 62.1033 27.6241 62.09C27.9107 62.07 28.1407 62.0533 28.3141 62.04L28.7141 62.69C28.7141 62.8967 28.0574 63 26.7441 63H24.7341ZM24.6341 60.42H27.3841V59.78C27.3841 59.6467 27.3674 59.5533 27.3341 59.5C27.3074 59.4467 27.2207 59.4133 27.0741 59.4C26.9274 59.3867 26.6774 59.38 26.3241 59.38H25.1141C24.7941 59.38 24.6341 59.5133 24.6341 59.78V60.42ZM34.5052 63.1C34.2252 63.1 33.9852 63.0667 33.7852 63C33.5919 62.9333 33.3852 62.79 33.1652 62.57C33.1452 62.55 33.0919 62.4967 33.0052 62.41C32.9186 62.3233 32.8219 62.2267 32.7152 62.12C32.6152 62.0133 32.5219 61.9167 32.4352 61.83C32.3486 61.7433 32.2919 61.6867 32.2652 61.66C32.0986 61.4933 31.9386 61.3633 31.7852 61.27C31.6386 61.1767 31.4552 61.13 31.2352 61.13C31.0886 61.13 31.0019 61.1433 30.9752 61.17C30.9486 61.1967 30.9352 61.2867 30.9352 61.44V63H29.7152V56.67H30.9352V60.27H31.2552C31.3752 60.27 31.4819 60.2233 31.5752 60.13C31.6352 60.07 31.7486 59.95 31.9152 59.77C32.0819 59.59 32.2686 59.3867 32.4752 59.16C32.6886 58.9333 32.8819 58.7233 33.0552 58.53H34.5252L34.3652 58.84C34.2119 59 34.0452 59.17 33.8652 59.35C33.6852 59.5233 33.5086 59.6933 33.3352 59.86C33.1686 60.02 33.0152 60.1633 32.8752 60.29C32.7352 60.41 32.6286 60.49 32.5552 60.53C32.7552 60.6367 32.9352 60.76 33.0952 60.9C33.2552 61.0333 33.4286 61.1867 33.6152 61.36C33.8019 61.5267 34.0252 61.7167 34.2852 61.93C34.5186 62.1167 34.7352 62.2267 34.9352 62.26C35.1352 62.2867 35.2552 62.3 35.2952 62.3L35.1152 63C35.0486 63.02 34.9586 63.04 34.8452 63.06C34.7319 63.0867 34.6186 63.1 34.5052 63.1ZM38.8641 63L39.1441 62.4L42.0241 58.18V58.08H37.6941V57.12H43.4641V58.09L40.3541 63H38.8641Z" fill="#EF8D7A"/>
<path d="M6.8 75V69.12H13.02V70.08H8.12V71.46H11.86V72.45H8.12V74.04H13.06L13.46 74.89C13.46 74.9167 13.37 74.9433 13.19 74.97C13.01 74.99 12.7 75 12.26 75H6.8ZM14.3563 75V69.46L14.2563 68.66H15.5763V75H14.3563ZM17.9958 75C17.6624 75 17.4058 74.9567 17.2258 74.87C17.0458 74.7833 16.9158 74.6733 16.8358 74.54C16.7624 74.4067 16.7158 74.2667 16.6958 74.12C16.6824 73.9733 16.6758 73.84 16.6758 73.72V71.8C16.6758 71.7 16.6824 71.58 16.6958 71.44C16.7158 71.2933 16.7624 71.15 16.8358 71.01C16.9158 70.87 17.0458 70.7533 17.2258 70.66C17.4124 70.5667 17.6691 70.52 17.9958 70.52H20.1458C20.5858 70.52 20.9291 70.5633 21.1758 70.65C21.4291 70.73 21.6058 70.8633 21.7058 71.05C21.8124 71.2367 21.8658 71.4867 21.8658 71.8V73.28H20.1158C19.5158 73.28 19.0258 73.2667 18.6458 73.24C18.2724 73.2133 18.0224 73.1967 17.8958 73.19V73.74C17.8891 74.0067 18.0491 74.14 18.3758 74.14H18.8858C19.2458 74.14 19.5958 74.1367 19.9358 74.13C20.2824 74.1167 20.5991 74.1033 20.8858 74.09C21.1724 74.07 21.4024 74.0533 21.5758 74.04L21.9758 74.69C21.9758 74.8967 21.3191 75 20.0058 75H17.9958ZM17.8958 72.42H20.6458V71.78C20.6458 71.6467 20.6291 71.5533 20.5958 71.5C20.5691 71.4467 20.4824 71.4133 20.3358 71.4C20.1891 71.3867 19.9391 71.38 19.5858 71.38H18.3758C18.0558 71.38 17.8958 71.5133 17.8958 71.78V72.42ZM24.197 75C23.8636 75 23.607 74.9567 23.427 74.87C23.247 74.7833 23.117 74.6733 23.037 74.54C22.9636 74.4067 22.917 74.2667 22.897 74.12C22.8836 73.9733 22.877 73.84 22.877 73.72V71.8C22.877 71.7 22.8836 71.58 22.897 71.44C22.917 71.2933 22.9636 71.15 23.037 71.01C23.117 70.87 23.247 70.7533 23.427 70.66C23.6136 70.5667 23.8703 70.52 24.197 70.52H25.587C26.4203 70.52 27.0103 70.5433 27.357 70.59C27.7103 70.63 27.887 70.6733 27.887 70.72L27.687 71.48C27.5003 71.4667 27.2636 71.4533 26.977 71.44C26.6903 71.42 26.3803 71.4067 26.047 71.4C25.7203 71.3867 25.4003 71.38 25.087 71.38H24.577C24.257 71.38 24.097 71.5133 24.097 71.78V73.74C24.0903 74.0067 24.2503 74.14 24.577 74.14H25.087C25.447 74.14 25.797 74.1367 26.137 74.13C26.4836 74.1167 26.8003 74.1033 27.087 74.09C27.3736 74.07 27.6036 74.0533 27.777 74.04L28.177 74.69C28.177 74.8967 27.5203 75 26.207 75H24.197ZM30.6154 75C30.1087 75 29.7621 74.8933 29.5754 74.68C29.3887 74.4667 29.2954 74.1467 29.2954 73.72V71.38H28.4754V70.52H28.8954C29.0221 70.52 29.1121 70.5 29.1654 70.46C29.2254 70.42 29.2687 70.34 29.2954 70.22L29.4954 69.15H30.5154V70.52H32.5954V71.38H30.5154V73.73C30.5154 73.8967 30.5554 74.0067 30.6354 74.06C30.7154 74.1133 30.8354 74.14 30.9954 74.14H32.4054L32.5054 74.9C32.3654 74.92 32.1521 74.9433 31.8654 74.97C31.5787 74.99 31.2654 75 30.9254 75H30.6154ZM33.3969 75V70.52H34.2169L34.5969 70.72C34.7702 70.6267 34.9569 70.5533 35.1569 70.5C35.3569 70.4467 35.6102 70.42 35.9169 70.42C36.4035 70.42 36.7969 70.4733 37.0969 70.58C37.4035 70.6867 37.6069 70.7667 37.7069 70.82L37.3569 71.69C37.2769 71.65 37.1435 71.6 36.9569 71.54C36.7769 71.4733 36.5635 71.4133 36.3169 71.36C36.0702 71.3067 35.8002 71.28 35.5069 71.28H35.3969C35.0769 71.28 34.8669 71.3433 34.7669 71.47C34.6735 71.5967 34.6235 71.8067 34.6169 72.1V75H33.3969ZM39.6266 75C39.18 75 38.8466 74.91 38.6266 74.73C38.4133 74.55 38.3066 74.2567 38.3066 73.85V71.8C38.3066 71.7 38.3133 71.58 38.3266 71.44C38.3466 71.2933 38.3933 71.15 38.4666 71.01C38.5466 70.87 38.6766 70.7533 38.8566 70.66C39.0433 70.5667 39.3 70.52 39.6266 70.52H42.3866C42.72 70.52 42.9766 70.5667 43.1566 70.66C43.3366 70.7533 43.4633 70.87 43.5366 71.01C43.6166 71.15 43.6633 71.2933 43.6766 71.44C43.6966 71.58 43.7066 71.7 43.7066 71.8V73.72C43.7066 73.84 43.6966 73.9733 43.6766 74.12C43.6633 74.2667 43.6166 74.4067 43.5366 74.54C43.4566 74.6733 43.3266 74.7833 43.1466 74.87C42.9666 74.9567 42.7133 75 42.3866 75H39.6266ZM40.0066 74.14H42.0066C42.3333 74.14 42.4966 74.0067 42.4966 73.74V71.78C42.4966 71.5133 42.3333 71.38 42.0066 71.38H40.0066C39.6866 71.38 39.5266 71.5133 39.5266 71.78V73.74C39.5266 74.0067 39.6866 74.14 40.0066 74.14ZM44.8031 75V70.52H45.6231L46.0231 70.72C46.3031 70.6667 46.6398 70.62 47.0331 70.58C47.4265 70.54 47.8765 70.52 48.3831 70.52H48.8831C49.2165 70.52 49.4731 70.5667 49.6531 70.66C49.8331 70.7533 49.9598 70.87 50.0331 71.01C50.1131 71.15 50.1598 71.2933 50.1731 71.44C50.1931 71.58 50.2031 71.7 50.2031 71.8V75H48.9831V71.78C48.9831 71.5133 48.8231 71.38 48.5031 71.38H46.3231C46.1965 71.38 46.1131 71.3933 46.0731 71.42C46.0398 71.44 46.0231 71.5 46.0231 71.6V75H44.8031ZM52.0659 69.89C51.8192 69.89 51.6392 69.84 51.5259 69.74C51.4125 69.64 51.3559 69.4733 51.3559 69.24C51.3559 69 51.4092 68.8333 51.5159 68.74C51.6292 68.64 51.8125 68.59 52.0659 68.59C52.3192 68.59 52.5025 68.64 52.6159 68.74C52.7292 68.8333 52.7859 69 52.7859 69.24C52.7859 69.4667 52.7292 69.6333 52.6159 69.74C52.5025 69.84 52.3192 69.89 52.0659 69.89ZM51.4559 75V70.52H52.6759V75H51.4559ZM55.2028 75C54.8695 75 54.6128 74.9567 54.4328 74.87C54.2528 74.7833 54.1228 74.6733 54.0428 74.54C53.9695 74.4067 53.9228 74.2667 53.9028 74.12C53.8895 73.9733 53.8828 73.84 53.8828 73.72V71.8C53.8828 71.7 53.8895 71.58 53.9028 71.44C53.9228 71.2933 53.9695 71.15 54.0428 71.01C54.1228 70.87 54.2528 70.7533 54.4328 70.66C54.6195 70.5667 54.8761 70.52 55.2028 70.52H56.5928C57.4261 70.52 58.0161 70.5433 58.3628 70.59C58.7161 70.63 58.8928 70.6733 58.8928 70.72L58.6928 71.48C58.5061 71.4667 58.2695 71.4533 57.9828 71.44C57.6961 71.42 57.3861 71.4067 57.0528 71.4C56.7261 71.3867 56.4061 71.38 56.0928 71.38H55.5828C55.2628 71.38 55.1028 71.5133 55.1028 71.78V73.74C55.0961 74.0067 55.2561 74.14 55.5828 74.14H56.0928C56.4528 74.14 56.8028 74.1367 57.1428 74.13C57.4895 74.1167 57.8061 74.1033 58.0928 74.09C58.3795 74.07 58.6095 74.0533 58.7828 74.04L59.1828 74.69C59.1828 74.8967 58.5261 75 57.2128 75H55.2028ZM64.0085 75C63.5418 75 63.1752 74.9333 62.9085 74.8C62.6418 74.6667 62.4518 74.4667 62.3385 74.2C62.2318 73.9333 62.1785 73.6033 62.1785 73.21V70.9C62.1785 70.5133 62.2318 70.19 62.3385 69.93C62.4452 69.6633 62.6318 69.4633 62.8985 69.33C63.1652 69.19 63.5352 69.12 64.0085 69.12H66.9285C67.3952 69.12 67.7585 69.19 68.0185 69.33C68.2852 69.4633 68.4718 69.6633 68.5785 69.93C68.6918 70.19 68.7485 70.5133 68.7485 70.9V73.21C68.7485 73.7967 68.6185 74.2433 68.3585 74.55C68.0985 74.85 67.6218 75 66.9285 75H64.0085ZM64.2985 74.04H66.6485C66.8952 74.04 67.0852 73.9767 67.2185 73.85C67.3585 73.7233 67.4285 73.55 67.4285 73.33V70.78C67.4285 70.5867 67.3585 70.4233 67.2185 70.29C67.0785 70.15 66.8885 70.08 66.6485 70.08H64.2985C64.0585 70.08 63.8652 70.1433 63.7185 70.27C63.5718 70.3967 63.4985 70.5667 63.4985 70.78V73.33C63.4985 73.5567 63.5685 73.7333 63.7085 73.86C63.8552 73.98 64.0518 74.04 64.2985 74.04ZM71.3673 75C71.0406 75 70.7839 74.9567 70.5973 74.87C70.4173 74.7833 70.2873 74.6733 70.2073 74.54C70.1339 74.4067 70.0873 74.2667 70.0673 74.12C70.0539 73.9733 70.0473 73.84 70.0473 73.72V70.52H71.2673V73.74C71.2606 73.8867 71.3073 73.99 71.4073 74.05C71.5139 74.11 71.6273 74.14 71.7473 74.14H73.7273C73.8739 74.14 73.9606 74.1267 73.9873 74.1C74.0139 74.0733 74.0273 73.9867 74.0273 73.84V70.52H75.2473V75H74.4273L74.0473 74.8C73.7806 74.8533 73.4639 74.9 73.0973 74.94C72.7373 74.98 72.3306 75 71.8773 75H71.3673ZM78.1838 75C77.6771 75 77.3304 74.8933 77.1438 74.68C76.9571 74.4667 76.8638 74.1467 76.8638 73.72V71.38H76.0438V70.52H76.4638C76.5904 70.52 76.6804 70.5 76.7338 70.46C76.7938 70.42 76.8371 70.34 76.8638 70.22L77.0638 69.15H78.0838V70.52H80.1638V71.38H78.0838V73.73C78.0838 73.8967 78.1238 74.0067 78.2038 74.06C78.2838 74.1133 78.4038 74.14 78.5638 74.14H79.9738L80.0738 74.9C79.9338 74.92 79.7204 74.9433 79.4338 74.97C79.1471 74.99 78.8338 75 78.4938 75H78.1838ZM80.9652 76.86V70.52H81.7852L82.0352 70.65C82.3352 70.6167 82.6919 70.5867 83.1052 70.56C83.5252 70.5333 84.0019 70.52 84.5352 70.52H85.0452C85.3786 70.52 85.6352 70.5633 85.8152 70.65C85.9952 70.7367 86.1219 70.8467 86.1952 70.98C86.2752 71.1133 86.3219 71.2533 86.3352 71.4C86.3552 71.5467 86.3652 71.68 86.3652 71.8V73.72C86.3652 73.82 86.3552 73.9433 86.3352 74.09C86.3219 74.23 86.2752 74.37 86.1952 74.51C86.1219 74.65 85.9952 74.7667 85.8152 74.86C85.6352 74.9533 85.3786 75 85.0452 75H84.5352C84.0286 75 83.5786 74.9867 83.1852 74.96C82.7919 74.9333 82.4586 74.9067 82.1852 74.88V76.86H80.9652ZM82.4952 74.14H84.6652C84.7919 74.14 84.9019 74.1067 84.9952 74.04C85.0952 73.9733 85.1452 73.8733 85.1452 73.74V71.78C85.1519 71.6333 85.1152 71.53 85.0352 71.47C84.9619 71.41 84.8386 71.38 84.6652 71.38H84.1652C83.7386 71.38 83.3586 71.39 83.0252 71.41C82.6986 71.4233 82.4186 71.44 82.1852 71.46V73.83C82.1852 73.9767 82.1986 74.0667 82.2252 74.1C82.2586 74.1267 82.3486 74.14 82.4952 74.14ZM88.7891 75C88.4625 75 88.2058 74.9567 88.0191 74.87C87.8391 74.7833 87.7091 74.6733 87.6291 74.54C87.5558 74.4067 87.5091 74.2667 87.4891 74.12C87.4758 73.9733 87.4691 73.84 87.4691 73.72V70.52H88.6891V73.74C88.6825 73.8867 88.7291 73.99 88.8291 74.05C88.9358 74.11 89.0491 74.14 89.1691 74.14H91.1491C91.2958 74.14 91.3825 74.1267 91.4091 74.1C91.4358 74.0733 91.4491 73.9867 91.4491 73.84V70.52H92.6691V75H91.8491L91.4691 74.8C91.2025 74.8533 90.8858 74.9 90.5191 74.94C90.1591 74.98 89.7525 75 89.2991 75H88.7891ZM95.6056 75C95.099 75 94.7523 74.8933 94.5656 74.68C94.379 74.4667 94.2856 74.1467 94.2856 73.72V71.38H93.4656V70.52H93.8856C94.0123 70.52 94.1023 70.5 94.1556 70.46C94.2156 70.42 94.259 70.34 94.2856 70.22L94.4856 69.15H95.5056V70.52H97.5856V71.38H95.5056V73.73C95.5056 73.8967 95.5456 74.0067 95.6256 74.06C95.7056 74.1133 95.8256 74.14 95.9856 74.14H97.3956L97.4956 74.9C97.3556 74.92 97.1423 74.9433 96.8556 74.97C96.569 74.99 96.2556 75 95.9156 75H95.6056ZM6.9 87V81.92L6.8 81.12H11.44C11.98 81.12 12.3933 81.1867 12.68 81.32C12.9733 81.4533 13.1767 81.6533 13.29 81.92C13.4033 82.18 13.46 82.5067 13.46 82.9V85.21C13.46 85.61 13.4033 85.9433 13.29 86.21C13.1833 86.47 12.9833 86.6667 12.69 86.8C12.4033 86.9333 11.9867 87 11.44 87H6.9ZM8.22 86.04H11.36C11.8733 86.04 12.1333 85.8033 12.14 85.33V82.78C12.14 82.5867 12.0833 82.4233 11.97 82.29C11.8567 82.15 11.6533 82.08 11.36 82.08H8.22V86.04ZM15.8766 87C15.5433 87 15.2866 86.9567 15.1066 86.87C14.9266 86.7833 14.7966 86.6733 14.7166 86.54C14.6433 86.4067 14.5966 86.2667 14.5766 86.12C14.5633 85.9733 14.5566 85.84 14.5566 85.72V83.8C14.5566 83.7 14.5633 83.58 14.5766 83.44C14.5966 83.2933 14.6433 83.15 14.7166 83.01C14.7966 82.87 14.9266 82.7533 15.1066 82.66C15.2933 82.5667 15.55 82.52 15.8766 82.52H18.0266C18.4666 82.52 18.81 82.5633 19.0566 82.65C19.31 82.73 19.4866 82.8633 19.5866 83.05C19.6933 83.2367 19.7466 83.4867 19.7466 83.8V85.28H17.9966C17.3966 85.28 16.9066 85.2667 16.5266 85.24C16.1533 85.2133 15.9033 85.1967 15.7766 85.19V85.74C15.77 86.0067 15.93 86.14 16.2566 86.14H16.7666C17.1266 86.14 17.4766 86.1367 17.8166 86.13C18.1633 86.1167 18.48 86.1033 18.7666 86.09C19.0533 86.07 19.2833 86.0533 19.4566 86.04L19.8566 86.69C19.8566 86.8967 19.2 87 17.8866 87H15.8766ZM15.7766 84.42H18.5266V83.78C18.5266 83.6467 18.51 83.5533 18.4766 83.5C18.45 83.4467 18.3633 83.4133 18.2166 83.4C18.07 83.3867 17.82 83.38 17.4666 83.38H16.2566C15.9366 83.38 15.7766 83.5133 15.7766 83.78V84.42ZM22.4178 87L20.3578 82.52H21.7578L22.9078 85.28L23.1678 86H23.2678L23.5278 85.28L24.6978 82.52H26.0578L25.8978 83.13L24.0178 87H22.4178ZM27.4663 81.89C27.2196 81.89 27.0396 81.84 26.9263 81.74C26.8129 81.64 26.7563 81.4733 26.7563 81.24C26.7563 81 26.8096 80.8333 26.9163 80.74C27.0296 80.64 27.2129 80.59 27.4663 80.59C27.7196 80.59 27.9029 80.64 28.0163 80.74C28.1296 80.8333 28.1863 81 28.1863 81.24C28.1863 81.4667 28.1296 81.6333 28.0163 81.74C27.9029 81.84 27.7196 81.89 27.4663 81.89ZM26.8563 87V82.52H28.0763V87H26.8563ZM30.6032 87C30.2699 87 30.0132 86.9567 29.8332 86.87C29.6532 86.7833 29.5232 86.6733 29.4432 86.54C29.3699 86.4067 29.3232 86.2667 29.3032 86.12C29.2899 85.9733 29.2832 85.84 29.2832 85.72V83.8C29.2832 83.7 29.2899 83.58 29.3032 83.44C29.3232 83.2933 29.3699 83.15 29.4432 83.01C29.5232 82.87 29.6532 82.7533 29.8332 82.66C30.0199 82.5667 30.2765 82.52 30.6032 82.52H31.9932C32.8265 82.52 33.4165 82.5433 33.7632 82.59C34.1165 82.63 34.2932 82.6733 34.2932 82.72L34.0932 83.48C33.9065 83.4667 33.6699 83.4533 33.3832 83.44C33.0965 83.42 32.7865 83.4067 32.4532 83.4C32.1265 83.3867 31.8065 83.38 31.4932 83.38H30.9832C30.6632 83.38 30.5032 83.5133 30.5032 83.78V85.74C30.4965 86.0067 30.6565 86.14 30.9832 86.14H31.4932C31.8532 86.14 32.2032 86.1367 32.5432 86.13C32.8899 86.1167 33.2065 86.1033 33.4932 86.09C33.7799 86.07 34.0099 86.0533 34.1832 86.04L34.5832 86.69C34.5832 86.8967 33.9265 87 32.6132 87H30.6032ZM36.5016 87C36.1683 87 35.9116 86.9567 35.7316 86.87C35.5516 86.7833 35.4216 86.6733 35.3416 86.54C35.2683 86.4067 35.2216 86.2667 35.2016 86.12C35.1883 85.9733 35.1816 85.84 35.1816 85.72V83.8C35.1816 83.7 35.1883 83.58 35.2016 83.44C35.2216 83.2933 35.2683 83.15 35.3416 83.01C35.4216 82.87 35.5516 82.7533 35.7316 82.66C35.9183 82.5667 36.175 82.52 36.5016 82.52H38.6516C39.0916 82.52 39.435 82.5633 39.6816 82.65C39.935 82.73 40.1116 82.8633 40.2116 83.05C40.3183 83.2367 40.3716 83.4867 40.3716 83.8V85.28H38.6216C38.0216 85.28 37.5316 85.2667 37.1516 85.24C36.7783 85.2133 36.5283 85.1967 36.4016 85.19V85.74C36.395 86.0067 36.555 86.14 36.8816 86.14H37.3916C37.7516 86.14 38.1016 86.1367 38.4416 86.13C38.7883 86.1167 39.105 86.1033 39.3916 86.09C39.6783 86.07 39.9083 86.0533 40.0816 86.04L40.4816 86.69C40.4816 86.8967 39.825 87 38.5116 87H36.5016ZM36.4016 84.42H39.1516V83.78C39.1516 83.6467 39.135 83.5533 39.1016 83.5C39.075 83.4467 38.9883 83.4133 38.8416 83.4C38.695 83.3867 38.445 83.38 38.0916 83.38H36.8816C36.5616 83.38 36.4016 83.5133 36.4016 83.78V84.42ZM42.6128 87C42.1661 87 41.8495 86.9767 41.6628 86.93C41.4761 86.8833 41.3828 86.8367 41.3828 86.79L41.6828 86.04C41.8761 86.06 42.2295 86.0833 42.7428 86.11C43.2628 86.13 43.9028 86.14 44.6628 86.14H45.1628C45.3295 86.14 45.4328 86.0967 45.4728 86.01C45.5195 85.9167 45.5428 85.7933 45.5428 85.64C45.5428 85.4867 45.5161 85.3633 45.4628 85.27C45.4161 85.1767 45.3161 85.13 45.1628 85.13H42.7028C42.2361 85.13 41.8995 85.0433 41.6928 84.87C41.4861 84.69 41.3828 84.4233 41.3828 84.07V83.67C41.3828 83.5767 41.3928 83.4667 41.4128 83.34C41.4328 83.2133 41.4828 83.0867 41.5628 82.96C41.6428 82.8333 41.7728 82.73 41.9528 82.65C42.1328 82.5633 42.3828 82.52 42.7028 82.52H45.4628C45.8628 82.52 46.1461 82.5433 46.3128 82.59C46.4795 82.6367 46.5628 82.6833 46.5628 82.73L46.4628 83.48C46.2695 83.46 45.9128 83.44 45.3928 83.42C44.8728 83.3933 44.2361 83.38 43.4828 83.38H42.9828C42.8161 83.38 42.7095 83.4267 42.6628 83.52C42.6228 83.6067 42.6028 83.71 42.6028 83.83C42.6028 83.9567 42.6228 84.0633 42.6628 84.15C42.7095 84.23 42.8161 84.27 42.9828 84.27H45.4428C45.8961 84.27 46.2295 84.3633 46.4428 84.55C46.6561 84.7367 46.7628 84.9733 46.7628 85.26V85.85C46.7628 85.97 46.7528 86.0967 46.7328 86.23C46.7195 86.3633 46.6728 86.49 46.5928 86.61C46.5128 86.7233 46.3828 86.8167 46.2028 86.89C46.0228 86.9633 45.7695 87 45.4428 87H42.6128Z" fill="white"/>
<path d="M87.46 26.2546C86.9683 24.6213 85.6408 23.1104 83.7479 22.2733L82.7154 18.8025C83.8954 18.4758 85.0262 18.1288 86.0833 17.7613V13.2083C81.1667 15.3929 72.6362 17.3529 61.5 17.3529C50.3637 17.3529 41.8333 15.3929 36.9167 13.2083V17.7613C37.9737 18.1288 39.1046 18.4758 40.2846 18.8025L39.2521 22.2733C38.3355 22.6877 37.5324 23.2555 36.8935 23.9408C36.2546 24.626 35.7937 25.4139 35.54 26.2546C34.2248 30.7054 32.9464 38.3413 39.1783 39.6071C41.8333 40.1583 46.75 39.5254 49.8721 29.1742C50.3392 27.5 50.0196 25.7033 48.815 24.2129L49.8475 20.7013C52.0108 20.9871 54.2479 21.1708 56.5833 21.2933V24.9275C54.9854 26.1321 54.125 27.8471 54.125 29.5417C54.125 34.115 55.0837 41.7917 61.5 41.7917C64.2533 41.7917 68.875 40.1992 68.875 29.5417C68.875 27.8471 68.0146 26.1321 66.4167 24.9275V21.2933C68.7521 21.1708 70.9892 20.9871 73.1525 20.7013L74.185 24.2129C73.6078 24.9352 73.2161 25.7485 73.0342 26.6021C72.8523 27.4557 72.8842 28.3313 73.1279 29.1742C76.25 39.5254 81.1667 40.1583 83.8217 39.6071C90.0412 38.3413 88.7629 30.7054 87.46 26.2546ZM46.2829 28.4596C46.2829 28.4596 43.6525 37.3817 40.0633 36.6875C36.4742 35.9117 39.1292 26.9896 39.1292 26.9896C39.1292 26.9896 40.0142 24.0088 43.5787 24.7438C47.1433 25.4788 46.2829 28.4596 46.2829 28.4596ZM61.5 38.7292C57.8125 38.7292 57.8125 29.5417 57.8125 29.5417C57.8125 29.5417 57.8125 26.4792 61.5 26.4792C65.1875 26.4792 65.1875 29.5417 65.1875 29.5417C65.1875 29.5417 65.1875 38.7292 61.5 38.7292ZM82.9367 36.6875C79.3721 37.3817 76.7171 28.4596 76.7171 28.4596C76.7171 28.4596 75.8321 25.4583 79.4212 24.7438C83.0104 24.0292 83.8708 26.9896 83.8708 26.9896C83.8708 26.9896 86.5258 35.9117 82.9367 36.6875Z" fill="#EF8D7A"/>
<path d="M24 43C24 41.9391 23.5786 40.9217 22.8284 40.1716C22.0783 39.4214 21.0609 39 20 39L14 39L14 37L12 37L12 40L7 40L7 42L12 42L12 44L7 44L7 46L12 46L12 49L14 49L14 47L20 47C21.0609 47 22.0783 46.5786 22.8284 45.8284C23.5786 45.0783 24 44.0609 24 43ZM22 43C22 43.5304 21.7893 44.0391 21.4142 44.4142C21.0391 44.7893 20.5304 45 20 45L15 45L15 41L20 41C20.5304 41 21.0391 41.2107 21.4142 41.5858C21.7893 41.9609 22 42.4696 22 43Z" fill="white"/>
</svg>
