<svg viewBox="0 0 100 100" fill="none" xmlns="http://www.w3.org/2000/svg">
<rect fill="black"/>
<path d="M8.25 63L6.1 57.13H7.5L8.91 60.97L9.14 61.94H9.24L9.37 61.26L10.7 57.13H12.4L13.79 61.26L13.97 61.94H14.07L14.3 60.97L15.61 57.13H17.01L16.91 57.73L14.85 63H13.15L11.79 59.07L11.59 58.43H11.49L11.3 59.07L9.95 63H8.25ZM18.5329 63C18.1996 63 17.9429 62.9567 17.7629 62.87C17.5829 62.7833 17.4529 62.6733 17.3729 62.54C17.2996 62.4067 17.2529 62.2667 17.2329 62.12C17.2196 61.9733 17.2129 61.84 17.2129 61.72V59.8C17.2129 59.7 17.2196 59.58 17.2329 59.44C17.2529 59.2933 17.2996 59.15 17.3729 59.01C17.4529 58.87 17.5829 58.7533 17.7629 58.66C17.9496 58.5667 18.2062 58.52 18.5329 58.52H20.6829C21.1229 58.52 21.4662 58.5633 21.7129 58.65C21.9662 58.73 22.1429 58.8633 22.2429 59.05C22.3496 59.2367 22.4029 59.4867 22.4029 59.8V61.28H20.6529C20.0529 61.28 19.5629 61.2667 19.1829 61.24C18.8096 61.2133 18.5596 61.1967 18.4329 61.19V61.74C18.4262 62.0067 18.5862 62.14 18.9129 62.14H19.4229C19.7829 62.14 20.1329 62.1367 20.4729 62.13C20.8196 62.1167 21.1362 62.1033 21.4229 62.09C21.7096 62.07 21.9396 62.0533 22.1129 62.04L22.5129 62.69C22.5129 62.8967 21.8562 63 20.5429 63H18.5329ZM18.4329 60.42H21.1829V59.78C21.1829 59.6467 21.1662 59.5533 21.1329 59.5C21.1062 59.4467 21.0196 59.4133 20.8729 59.4C20.7262 59.3867 20.4762 59.38 20.1229 59.38H18.9129C18.5929 59.38 18.4329 59.5133 18.4329 59.78V60.42ZM24.7341 63C24.4007 63 24.1441 62.9567 23.9641 62.87C23.7841 62.7833 23.6541 62.6733 23.5741 62.54C23.5007 62.4067 23.4541 62.2667 23.4341 62.12C23.4207 61.9733 23.4141 61.84 23.4141 61.72V59.8C23.4141 59.7 23.4207 59.58 23.4341 59.44C23.4541 59.2933 23.5007 59.15 23.5741 59.01C23.6541 58.87 23.7841 58.7533 23.9641 58.66C24.1507 58.5667 24.4074 58.52 24.7341 58.52H26.8841C27.3241 58.52 27.6674 58.5633 27.9141 58.65C28.1674 58.73 28.3441 58.8633 28.4441 59.05C28.5507 59.2367 28.6041 59.4867 28.6041 59.8V61.28H26.8541C26.2541 61.28 25.7641 61.2667 25.3841 61.24C25.0107 61.2133 24.7607 61.1967 24.6341 61.19V61.74C24.6274 62.0067 24.7874 62.14 25.1141 62.14H25.6241C25.9841 62.14 26.3341 62.1367 26.6741 62.13C27.0207 62.1167 27.3374 62.1033 27.6241 62.09C27.9107 62.07 28.1407 62.0533 28.3141 62.04L28.7141 62.69C28.7141 62.8967 28.0574 63 26.7441 63H24.7341ZM24.6341 60.42H27.3841V59.78C27.3841 59.6467 27.3674 59.5533 27.3341 59.5C27.3074 59.4467 27.2207 59.4133 27.0741 59.4C26.9274 59.3867 26.6774 59.38 26.3241 59.38H25.1141C24.7941 59.38 24.6341 59.5133 24.6341 59.78V60.42ZM34.5052 63.1C34.2252 63.1 33.9852 63.0667 33.7852 63C33.5919 62.9333 33.3852 62.79 33.1652 62.57C33.1452 62.55 33.0919 62.4967 33.0052 62.41C32.9186 62.3233 32.8219 62.2267 32.7152 62.12C32.6152 62.0133 32.5219 61.9167 32.4352 61.83C32.3486 61.7433 32.2919 61.6867 32.2652 61.66C32.0986 61.4933 31.9386 61.3633 31.7852 61.27C31.6386 61.1767 31.4552 61.13 31.2352 61.13C31.0886 61.13 31.0019 61.1433 30.9752 61.17C30.9486 61.1967 30.9352 61.2867 30.9352 61.44V63H29.7152V56.67H30.9352V60.27H31.2552C31.3752 60.27 31.4819 60.2233 31.5752 60.13C31.6352 60.07 31.7486 59.95 31.9152 59.77C32.0819 59.59 32.2686 59.3867 32.4752 59.16C32.6886 58.9333 32.8819 58.7233 33.0552 58.53H34.5252L34.3652 58.84C34.2119 59 34.0452 59.17 33.8652 59.35C33.6852 59.5233 33.5086 59.6933 33.3352 59.86C33.1686 60.02 33.0152 60.1633 32.8752 60.29C32.7352 60.41 32.6286 60.49 32.5552 60.53C32.7552 60.6367 32.9352 60.76 33.0952 60.9C33.2552 61.0333 33.4286 61.1867 33.6152 61.36C33.8019 61.5267 34.0252 61.7167 34.2852 61.93C34.5186 62.1167 34.7352 62.2267 34.9352 62.26C35.1352 62.2867 35.2552 62.3 35.2952 62.3L35.1152 63C35.0486 63.02 34.9586 63.04 34.8452 63.06C34.7319 63.0867 34.6186 63.1 34.5052 63.1ZM41.8141 63V61.92H37.8941V60.94L41.2841 57.12H43.1341V60.96H44.4741V61.92H43.1341V63H41.8141ZM39.5241 60.96H41.8141V58.34H41.7141L39.5341 60.86L39.5241 60.96Z" fill="#EF8D7A"/>
<path d="M6.9 75V69.92L6.8 69.12H8.32L10.58 73.12L12.92 69.12H14.27V75H12.95V71.27H12.84L12.45 72.14L11.19 74.4H9.98L8.72 72.14L8.32 71.27H8.22V75H6.9ZM16.3823 69.89C16.1356 69.89 15.9556 69.84 15.8423 69.74C15.7289 69.64 15.6723 69.4733 15.6723 69.24C15.6723 69 15.7256 68.8333 15.8323 68.74C15.9456 68.64 16.1289 68.59 16.3823 68.59C16.6356 68.59 16.8189 68.64 16.9323 68.74C17.0456 68.8333 17.1023 69 17.1023 69.24C17.1023 69.4667 17.0456 69.6333 16.9323 69.74C16.8189 69.84 16.6356 69.89 16.3823 69.89ZM15.7723 75V70.52H16.9923V75H15.7723ZM19.5192 75C19.1859 75 18.9292 74.9567 18.7492 74.87C18.5692 74.7833 18.4392 74.6733 18.3592 74.54C18.2859 74.4067 18.2392 74.2667 18.2192 74.12C18.2059 73.9733 18.1992 73.84 18.1992 73.72V71.8C18.1992 71.7 18.2059 71.58 18.2192 71.44C18.2392 71.2933 18.2859 71.15 18.3592 71.01C18.4392 70.87 18.5692 70.7533 18.7492 70.66C18.9359 70.5667 19.1926 70.52 19.5192 70.52H20.9092C21.7426 70.52 22.3326 70.5433 22.6792 70.59C23.0326 70.63 23.2092 70.6733 23.2092 70.72L23.0092 71.48C22.8226 71.4667 22.5859 71.4533 22.2992 71.44C22.0126 71.42 21.7026 71.4067 21.3692 71.4C21.0426 71.3867 20.7226 71.38 20.4092 71.38H19.8992C19.5792 71.38 19.4192 71.5133 19.4192 71.78V73.74C19.4126 74.0067 19.5726 74.14 19.8992 74.14H20.4092C20.7692 74.14 21.1192 74.1367 21.4592 74.13C21.8059 74.1167 22.1226 74.1033 22.4092 74.09C22.6959 74.07 22.9259 74.0533 23.0992 74.04L23.4992 74.69C23.4992 74.8967 22.8426 75 21.5292 75H19.5192ZM24.1977 75V70.52H25.0177L25.3977 70.72C25.571 70.6267 25.7577 70.5533 25.9577 70.5C26.1577 70.4467 26.411 70.42 26.7177 70.42C27.2043 70.42 27.5977 70.4733 27.8977 70.58C28.2043 70.6867 28.4077 70.7667 28.5077 70.82L28.1577 71.69C28.0777 71.65 27.9443 71.6 27.7577 71.54C27.5777 71.4733 27.3643 71.4133 27.1177 71.36C26.871 71.3067 26.601 71.28 26.3077 71.28H26.1977C25.8777 71.28 25.6677 71.3433 25.5677 71.47C25.4743 71.5967 25.4243 71.8067 25.4177 72.1V75H24.1977ZM30.4274 75C29.9808 75 29.6474 74.91 29.4274 74.73C29.2141 74.55 29.1074 74.2567 29.1074 73.85V71.8C29.1074 71.7 29.1141 71.58 29.1274 71.44C29.1474 71.2933 29.1941 71.15 29.2674 71.01C29.3474 70.87 29.4774 70.7533 29.6574 70.66C29.8441 70.5667 30.1008 70.52 30.4274 70.52H33.1874C33.5208 70.52 33.7774 70.5667 33.9574 70.66C34.1374 70.7533 34.2641 70.87 34.3374 71.01C34.4174 71.15 34.4641 71.2933 34.4774 71.44C34.4974 71.58 34.5074 71.7 34.5074 71.8V73.72C34.5074 73.84 34.4974 73.9733 34.4774 74.12C34.4641 74.2667 34.4174 74.4067 34.3374 74.54C34.2574 74.6733 34.1274 74.7833 33.9474 74.87C33.7674 74.9567 33.5141 75 33.1874 75H30.4274ZM30.8074 74.14H32.8074C33.1341 74.14 33.2974 74.0067 33.2974 73.74V71.78C33.2974 71.5133 33.1341 71.38 32.8074 71.38H30.8074C30.4874 71.38 30.3274 71.5133 30.3274 71.78V73.74C30.3274 74.0067 30.4874 74.14 30.8074 74.14ZM36.8239 75C36.4906 75 36.2339 74.9567 36.0539 74.87C35.8739 74.7833 35.7439 74.6733 35.6639 74.54C35.5906 74.4067 35.5439 74.2667 35.5239 74.12C35.5106 73.9733 35.5039 73.84 35.5039 73.72V71.8C35.5039 71.7 35.5106 71.58 35.5239 71.44C35.5439 71.2933 35.5906 71.15 35.6639 71.01C35.7439 70.87 35.8739 70.7533 36.0539 70.66C36.2406 70.5667 36.4972 70.52 36.8239 70.52H38.2139C39.0472 70.52 39.6372 70.5433 39.9839 70.59C40.3372 70.63 40.5139 70.6733 40.5139 70.72L40.3139 71.48C40.1272 71.4667 39.8906 71.4533 39.6039 71.44C39.3172 71.42 39.0072 71.4067 38.6739 71.4C38.3472 71.3867 38.0272 71.38 37.7139 71.38H37.2039C36.8839 71.38 36.7239 71.5133 36.7239 71.78V73.74C36.7172 74.0067 36.8772 74.14 37.2039 74.14H37.7139C38.0739 74.14 38.4239 74.1367 38.7639 74.13C39.1106 74.1167 39.4272 74.1033 39.7139 74.09C40.0006 74.07 40.2306 74.0533 40.4039 74.04L40.8039 74.69C40.8039 74.8967 40.1472 75 38.8339 75H36.8239ZM42.7223 75C42.2757 75 41.9423 74.91 41.7223 74.73C41.509 74.55 41.4023 74.2567 41.4023 73.85V71.8C41.4023 71.7 41.409 71.58 41.4223 71.44C41.4423 71.2933 41.489 71.15 41.5623 71.01C41.6423 70.87 41.7723 70.7533 41.9523 70.66C42.139 70.5667 42.3957 70.52 42.7223 70.52H45.4823C45.8157 70.52 46.0723 70.5667 46.2523 70.66C46.4323 70.7533 46.559 70.87 46.6323 71.01C46.7123 71.15 46.759 71.2933 46.7723 71.44C46.7923 71.58 46.8023 71.7 46.8023 71.8V73.72C46.8023 73.84 46.7923 73.9733 46.7723 74.12C46.759 74.2667 46.7123 74.4067 46.6323 74.54C46.5523 74.6733 46.4223 74.7833 46.2423 74.87C46.0623 74.9567 45.809 75 45.4823 75H42.7223ZM43.1023 74.14H45.1023C45.429 74.14 45.5923 74.0067 45.5923 73.74V71.78C45.5923 71.5133 45.429 71.38 45.1023 71.38H43.1023C42.7823 71.38 42.6223 71.5133 42.6223 71.78V73.74C42.6223 74.0067 42.7823 74.14 43.1023 74.14ZM47.8988 75V70.52H48.7188L49.1188 70.72C49.3988 70.6667 49.7355 70.62 50.1288 70.58C50.5222 70.54 50.9722 70.52 51.4788 70.52H51.9788C52.3122 70.52 52.5688 70.5667 52.7488 70.66C52.9288 70.7533 53.0555 70.87 53.1288 71.01C53.2088 71.15 53.2555 71.2933 53.2688 71.44C53.2888 71.58 53.2988 71.7 53.2988 71.8V75H52.0788V71.78C52.0788 71.5133 51.9188 71.38 51.5988 71.38H49.4188C49.2922 71.38 49.2088 71.3933 49.1688 71.42C49.1355 71.44 49.1188 71.5 49.1188 71.6V75H47.8988ZM56.1916 75C55.6849 75 55.3382 74.8933 55.1516 74.68C54.9649 74.4667 54.8716 74.1467 54.8716 73.72V71.38H54.0516V70.52H54.4716C54.5982 70.52 54.6882 70.5 54.7416 70.46C54.8016 70.42 54.8449 70.34 54.8716 70.22L55.0716 69.15H56.0916V70.52H58.1716V71.38H56.0916V73.73C56.0916 73.8967 56.1316 74.0067 56.2116 74.06C56.2916 74.1133 56.4116 74.14 56.5716 74.14H57.9816L58.0816 74.9C57.9416 74.92 57.7282 74.9433 57.4416 74.97C57.1549 74.99 56.8416 75 56.5016 75H56.1916ZM58.973 75V70.52H59.793L60.173 70.72C60.3464 70.6267 60.533 70.5533 60.733 70.5C60.933 70.4467 61.1864 70.42 61.493 70.42C61.9797 70.42 62.373 70.4733 62.673 70.58C62.9797 70.6867 63.183 70.7667 63.283 70.82L62.933 71.69C62.853 71.65 62.7197 71.6 62.533 71.54C62.353 71.4733 62.1397 71.4133 61.893 71.36C61.6464 71.3067 61.3764 71.28 61.083 71.28H60.973C60.653 71.28 60.443 71.3433 60.343 71.47C60.2497 71.5967 60.1997 71.8067 60.193 72.1V75H58.973ZM65.2028 75C64.7561 75 64.4228 74.91 64.2028 74.73C63.9895 74.55 63.8828 74.2567 63.8828 73.85V71.8C63.8828 71.7 63.8895 71.58 63.9028 71.44C63.9228 71.2933 63.9695 71.15 64.0428 71.01C64.1228 70.87 64.2528 70.7533 64.4328 70.66C64.6195 70.5667 64.8761 70.52 65.2028 70.52H67.9628C68.2961 70.52 68.5528 70.5667 68.7328 70.66C68.9128 70.7533 69.0395 70.87 69.1128 71.01C69.1928 71.15 69.2395 71.2933 69.2528 71.44C69.2728 71.58 69.2828 71.7 69.2828 71.8V73.72C69.2828 73.84 69.2728 73.9733 69.2528 74.12C69.2395 74.2667 69.1928 74.4067 69.1128 74.54C69.0328 74.6733 68.9028 74.7833 68.7228 74.87C68.5428 74.9567 68.2895 75 67.9628 75H65.2028ZM65.5828 74.14H67.5828C67.9095 74.14 68.0728 74.0067 68.0728 73.74V71.78C68.0728 71.5133 67.9095 71.38 67.5828 71.38H65.5828C65.2628 71.38 65.1028 71.5133 65.1028 71.78V73.74C65.1028 74.0067 65.2628 74.14 65.5828 74.14ZM70.4793 75V69.46L70.3793 68.66H71.6993V75H70.4793ZM72.9988 75V69.46L72.8988 68.66H74.2188V75H72.9988ZM76.6384 75C76.305 75 76.0484 74.9567 75.8684 74.87C75.6884 74.7833 75.5584 74.6733 75.4784 74.54C75.405 74.4067 75.3584 74.2667 75.3384 74.12C75.325 73.9733 75.3184 73.84 75.3184 73.72V71.8C75.3184 71.7 75.325 71.58 75.3384 71.44C75.3584 71.2933 75.405 71.15 75.4784 71.01C75.5584 70.87 75.6884 70.7533 75.8684 70.66C76.055 70.5667 76.3117 70.52 76.6384 70.52H78.7884C79.2284 70.52 79.5717 70.5633 79.8184 70.65C80.0717 70.73 80.2484 70.8633 80.3484 71.05C80.455 71.2367 80.5084 71.4867 80.5084 71.8V73.28H78.7584C78.1584 73.28 77.6684 73.2667 77.2884 73.24C76.915 73.2133 76.665 73.1967 76.5384 73.19V73.74C76.5317 74.0067 76.6917 74.14 77.0184 74.14H77.5284C77.8884 74.14 78.2384 74.1367 78.5784 74.13C78.925 74.1167 79.2417 74.1033 79.5284 74.09C79.815 74.07 80.045 74.0533 80.2184 74.04L80.6184 74.69C80.6184 74.8967 79.9617 75 78.6484 75H76.6384ZM76.5384 72.42H79.2884V71.78C79.2884 71.6467 79.2717 71.5533 79.2384 71.5C79.2117 71.4467 79.125 71.4133 78.9784 71.4C78.8317 71.3867 78.5817 71.38 78.2284 71.38H77.0184C76.6984 71.38 76.5384 71.5133 76.5384 71.78V72.42ZM81.6195 75V70.52H82.4395L82.8195 70.72C82.9929 70.6267 83.1795 70.5533 83.3795 70.5C83.5795 70.4467 83.8329 70.42 84.1395 70.42C84.6262 70.42 85.0195 70.4733 85.3195 70.58C85.6262 70.6867 85.8295 70.7667 85.9295 70.82L85.5795 71.69C85.4995 71.65 85.3662 71.6 85.1795 71.54C84.9995 71.4733 84.7862 71.4133 84.5395 71.36C84.2929 71.3067 84.0229 71.28 83.7295 71.28H83.6195C83.2995 71.28 83.0895 71.3433 82.9895 71.47C82.8962 71.5967 82.8462 71.8067 82.8395 72.1V75H81.6195ZM6.9 87V81.92L6.8 81.11H11.23C11.6567 81.11 11.99 81.1667 12.23 81.28C12.4767 81.3933 12.6567 81.5433 12.77 81.73C12.89 81.91 12.9667 82.1033 13 82.31C13.0333 82.5167 13.05 82.7133 13.05 82.9V83.49C13.05 83.6433 13.0267 83.8167 12.98 84.01C12.9333 84.1967 12.8467 84.38 12.72 84.56C12.5933 84.7333 12.41 84.88 12.17 85C11.93 85.1133 11.6167 85.17 11.23 85.17H10.21C9.79 85.17 9.39667 85.16 9.03 85.14C8.67 85.12 8.4 85.1033 8.22 85.09V87H6.9ZM8.22 84.21H10.94C11.24 84.21 11.4467 84.1367 11.56 83.99C11.6733 83.8433 11.73 83.6667 11.73 83.46V82.83C11.73 82.6167 11.6733 82.4367 11.56 82.29C11.4467 82.1433 11.2433 82.07 10.95 82.07H8.22V84.21ZM14.2465 87V82.52H15.0665L15.4465 82.72C15.6198 82.6267 15.8065 82.5533 16.0065 82.5C16.2065 82.4467 16.4598 82.42 16.7665 82.42C17.2532 82.42 17.6465 82.4733 17.9465 82.58C18.2532 82.6867 18.4565 82.7667 18.5565 82.82L18.2065 83.69C18.1265 83.65 17.9932 83.6 17.8065 83.54C17.6265 83.4733 17.4132 83.4133 17.1665 83.36C16.9198 83.3067 16.6498 83.28 16.3565 83.28H16.2465C15.9265 83.28 15.7165 83.3433 15.6165 83.47C15.5232 83.5967 15.4732 83.8067 15.4665 84.1V87H14.2465ZM20.4763 87C20.0296 87 19.6963 86.91 19.4763 86.73C19.2629 86.55 19.1563 86.2567 19.1563 85.85V83.8C19.1563 83.7 19.1629 83.58 19.1763 83.44C19.1963 83.2933 19.2429 83.15 19.3162 83.01C19.3963 82.87 19.5263 82.7533 19.7063 82.66C19.8929 82.5667 20.1496 82.52 20.4763 82.52H23.2363C23.5696 82.52 23.8263 82.5667 24.0063 82.66C24.1863 82.7533 24.3129 82.87 24.3863 83.01C24.4663 83.15 24.5129 83.2933 24.5263 83.44C24.5463 83.58 24.5563 83.7 24.5563 83.8V85.72C24.5563 85.84 24.5463 85.9733 24.5263 86.12C24.5129 86.2667 24.4663 86.4067 24.3863 86.54C24.3063 86.6733 24.1763 86.7833 23.9963 86.87C23.8163 86.9567 23.5629 87 23.2363 87H20.4763ZM20.8563 86.14H22.8563C23.1829 86.14 23.3463 86.0067 23.3463 85.74V83.78C23.3463 83.5133 23.1829 83.38 22.8563 83.38H20.8563C20.5363 83.38 20.3763 83.5133 20.3763 83.78V85.74C20.3763 86.0067 20.5363 86.14 20.8563 86.14ZM28.9427 88.76C28.2094 88.76 27.6127 88.7533 27.1527 88.74C26.6927 88.7267 26.3394 88.7067 26.0927 88.68C25.8461 88.6533 25.6761 88.62 25.5827 88.58C25.4961 88.54 25.4527 88.4967 25.4527 88.45L25.7527 87.7C25.8594 87.7333 26.0461 87.7733 26.3127 87.82C26.5861 87.8733 26.9327 87.9 27.3527 87.9H29.0627C29.3094 87.9 29.4827 87.8633 29.5827 87.79C29.6894 87.7167 29.7427 87.5867 29.7427 87.4V86.8C29.4561 86.8533 29.1161 86.9 28.7227 86.94C28.3361 86.98 27.8894 87 27.3827 87H26.8827C26.5494 87 26.2927 86.9567 26.1127 86.87C25.9327 86.7833 25.8027 86.6733 25.7227 86.54C25.6494 86.4067 25.6027 86.2667 25.5827 86.12C25.5694 85.9733 25.5627 85.84 25.5627 85.72V83.8C25.5627 83.7 25.5694 83.58 25.5827 83.44C25.6027 83.2933 25.6494 83.15 25.7227 83.01C25.8027 82.87 25.9327 82.7533 26.1127 82.66C26.2994 82.5667 26.5561 82.52 26.8827 82.52H27.3927C28.0927 82.52 28.6361 82.5333 29.0227 82.56C29.4161 82.5867 29.7027 82.6167 29.8827 82.65L30.1427 82.52H30.9627V87.48C30.9627 87.6 30.9427 87.7333 30.9027 87.88C30.8694 88.0267 30.7994 88.1667 30.6927 88.3C30.5861 88.4333 30.4327 88.5433 30.2327 88.63C30.0327 88.7167 29.7694 88.76 29.4427 88.76H28.9427ZM27.2627 86.14H29.4327C29.5861 86.14 29.6761 86.1267 29.7027 86.1C29.7294 86.0733 29.7427 85.9867 29.7427 85.84V83.45C29.5161 83.4367 29.2294 83.4233 28.8827 83.41C28.5361 83.39 28.1661 83.38 27.7727 83.38H27.2627C26.9427 83.38 26.7827 83.5133 26.7827 83.78V85.74C26.7761 86.0067 26.9361 86.14 27.2627 86.14ZM32.1664 87V82.52H32.9864L33.3664 82.72C33.5397 82.6267 33.7264 82.5533 33.9264 82.5C34.1264 82.4467 34.3797 82.42 34.6864 82.42C35.1731 82.42 35.5664 82.4733 35.8664 82.58C36.1731 82.6867 36.3764 82.7667 36.4764 82.82L36.1264 83.69C36.0464 83.65 35.9131 83.6 35.7264 83.54C35.5464 83.4733 35.3331 83.4133 35.0864 83.36C34.8397 83.3067 34.5697 83.28 34.2764 83.28H34.1664C33.8464 83.28 33.6364 83.3433 33.5364 83.47C33.4431 83.5967 33.3931 83.8067 33.3864 84.1V87H32.1664ZM38.0658 87C37.5591 87 37.1924 86.8833 36.9658 86.65C36.7391 86.41 36.6258 86.0833 36.6258 85.67C36.6258 85.2367 36.7424 84.9033 36.9758 84.67C37.2158 84.4367 37.5791 84.32 38.0658 84.32H38.5758C39.0758 84.32 39.5258 84.3333 39.9258 84.36C40.3258 84.3867 40.6558 84.4133 40.9158 84.44V83.78C40.9158 83.72 40.9091 83.66 40.8958 83.6C40.8824 83.5333 40.8424 83.48 40.7758 83.44C40.7091 83.4 40.5958 83.38 40.4358 83.38H39.9358C39.2091 83.38 38.6024 83.3933 38.1158 83.42C37.6291 83.44 37.2991 83.46 37.1258 83.48L37.0158 82.72C37.0158 82.6267 37.2691 82.57 37.7758 82.55C38.2824 82.53 39.1291 82.52 40.3158 82.52H40.8158C41.1491 82.52 41.4058 82.5667 41.5858 82.66C41.7658 82.7533 41.8924 82.87 41.9658 83.01C42.0458 83.15 42.0924 83.2933 42.1058 83.44C42.1258 83.58 42.1358 83.7 42.1358 83.8V87H41.3158L40.9258 86.8C40.6458 86.8467 40.3091 86.8933 39.9158 86.94C39.5224 86.98 39.0724 87 38.5658 87H38.0658ZM38.3258 86.14H40.6158C40.7624 86.14 40.8491 86.1267 40.8758 86.1C40.9024 86.0733 40.9158 85.99 40.9158 85.85V85.08H38.3258C38.1458 85.08 38.0191 85.1233 37.9458 85.21C37.8791 85.2967 37.8458 85.4333 37.8458 85.62C37.8458 85.8067 37.8858 85.94 37.9658 86.02C38.0458 86.1 38.1658 86.14 38.3258 86.14ZM43.2895 87V82.52H44.1095L44.3595 82.64C44.5528 82.6067 44.7895 82.58 45.0695 82.56C45.3495 82.5333 45.6828 82.52 46.0695 82.52H46.5695C46.7628 82.52 46.9495 82.5467 47.1295 82.6C47.3095 82.6467 47.4428 82.7167 47.5295 82.81C47.7028 82.7233 47.9428 82.6533 48.2495 82.6C48.5561 82.5467 48.9561 82.52 49.4495 82.52H49.9495C50.2828 82.52 50.5395 82.5667 50.7195 82.66C50.8995 82.7533 51.0261 82.87 51.0995 83.01C51.1795 83.15 51.2261 83.2933 51.2395 83.44C51.2595 83.58 51.2695 83.7 51.2695 83.8V87H50.0495V83.78C50.0495 83.5133 49.8895 83.38 49.5695 83.38H48.1695C48.0628 83.38 47.9895 83.3933 47.9495 83.42C47.9095 83.4467 47.8895 83.5067 47.8895 83.6V87H46.6695V83.78C46.6695 83.5133 46.5095 83.38 46.1895 83.38H44.8095C44.6828 83.38 44.5995 83.3933 44.5595 83.42C44.5261 83.44 44.5095 83.5 44.5095 83.6V87H43.2895ZM52.4203 87V82.52H53.2403L53.4903 82.64C53.6836 82.6067 53.9203 82.58 54.2003 82.56C54.4803 82.5333 54.8136 82.52 55.2003 82.52H55.7003C55.8936 82.52 56.0803 82.5467 56.2603 82.6C56.4403 82.6467 56.5736 82.7167 56.6603 82.81C56.8336 82.7233 57.0736 82.6533 57.3803 82.6C57.687 82.5467 58.087 82.52 58.5803 82.52H59.0803C59.4136 82.52 59.6703 82.5667 59.8503 82.66C60.0303 82.7533 60.157 82.87 60.2303 83.01C60.3103 83.15 60.357 83.2933 60.3703 83.44C60.3903 83.58 60.4003 83.7 60.4003 83.8V87H59.1803V83.78C59.1803 83.5133 59.0203 83.38 58.7003 83.38H57.3003C57.1936 83.38 57.1203 83.3933 57.0803 83.42C57.0403 83.4467 57.0203 83.5067 57.0203 83.6V87H55.8003V83.78C55.8003 83.5133 55.6403 83.38 55.3203 83.38H53.9403C53.8136 83.38 53.7303 83.3933 53.6903 83.42C53.657 83.44 53.6403 83.5 53.6403 83.6V87H52.4203ZM62.2612 81.89C62.0145 81.89 61.8345 81.84 61.7212 81.74C61.6078 81.64 61.5512 81.4733 61.5512 81.24C61.5512 81 61.6045 80.8333 61.7112 80.74C61.8245 80.64 62.0078 80.59 62.2612 80.59C62.5145 80.59 62.6978 80.64 62.8112 80.74C62.9245 80.8333 62.9812 81 62.9812 81.24C62.9812 81.4667 62.9245 81.6333 62.8112 81.74C62.6978 81.84 62.5145 81.89 62.2612 81.89ZM61.6512 87V82.52H62.8712V87H61.6512ZM64.1781 87V82.52H64.9981L65.3981 82.72C65.6781 82.6667 66.0148 82.62 66.4081 82.58C66.8015 82.54 67.2515 82.52 67.7581 82.52H68.2581C68.5915 82.52 68.8481 82.5667 69.0281 82.66C69.2081 82.7533 69.3348 82.87 69.4081 83.01C69.4881 83.15 69.5348 83.2933 69.5481 83.44C69.5681 83.58 69.5781 83.7 69.5781 83.8V87H68.3581V83.78C68.3581 83.5133 68.1981 83.38 67.8781 83.38H65.6981C65.5715 83.38 65.4881 83.3933 65.4481 83.42C65.4148 83.44 65.3981 83.5 65.3981 83.6V87H64.1781ZM74.0209 88.76C73.2875 88.76 72.6909 88.7533 72.2309 88.74C71.7709 88.7267 71.4175 88.7067 71.1709 88.68C70.9242 88.6533 70.7542 88.62 70.6609 88.58C70.5742 88.54 70.5309 88.4967 70.5309 88.45L70.8309 87.7C70.9375 87.7333 71.1242 87.7733 71.3909 87.82C71.6642 87.8733 72.0109 87.9 72.4309 87.9H74.1409C74.3875 87.9 74.5609 87.8633 74.6609 87.79C74.7675 87.7167 74.8209 87.5867 74.8209 87.4V86.8C74.5342 86.8533 74.1942 86.9 73.8009 86.94C73.4142 86.98 72.9675 87 72.4609 87H71.9609C71.6275 87 71.3709 86.9567 71.1909 86.87C71.0109 86.7833 70.8809 86.6733 70.8009 86.54C70.7275 86.4067 70.6809 86.2667 70.6609 86.12C70.6475 85.9733 70.6409 85.84 70.6409 85.72V83.8C70.6409 83.7 70.6475 83.58 70.6609 83.44C70.6809 83.2933 70.7275 83.15 70.8009 83.01C70.8809 82.87 71.0109 82.7533 71.1909 82.66C71.3775 82.5667 71.6342 82.52 71.9609 82.52H72.4709C73.1709 82.52 73.7142 82.5333 74.1009 82.56C74.4942 82.5867 74.7809 82.6167 74.9609 82.65L75.2209 82.52H76.0409V87.48C76.0409 87.6 76.0209 87.7333 75.9809 87.88C75.9475 88.0267 75.8775 88.1667 75.7709 88.3C75.6642 88.4333 75.5109 88.5433 75.3109 88.63C75.1109 88.7167 74.8475 88.76 74.5209 88.76H74.0209ZM72.3409 86.14H74.5109C74.6642 86.14 74.7542 86.1267 74.7809 86.1C74.8075 86.0733 74.8209 85.9867 74.8209 85.84V83.45C74.5942 83.4367 74.3075 83.4233 73.9609 83.41C73.6142 83.39 73.2442 83.38 72.8509 83.38H72.3409C72.0209 83.38 71.8609 83.5133 71.8609 83.78V85.74C71.8542 86.0067 72.0142 86.14 72.3409 86.14Z" fill="white"/>
<path d="M26.3333 12H55.6667V13.625H63V16.875H55.6667V20.125H63V23.375H55.6667V26.625H63V29.875H55.6667V33.125H63V36.375H55.6667V38H26.3333V36.375H19V33.125H26.3333V29.875H19V26.625H26.3333V23.375H19V20.125H26.3333V16.875H19V13.625H26.3333V12ZM38.5556 29.875V34.75H41V29.875H38.5556ZM43.4444 29.875V34.75H45.8889V29.875H43.4444ZM48.3333 29.875V34.75H50.7778V29.875H48.3333Z" fill="#EF8D7A"/>
<path d="M53.998 49.808C53.5007 49.808 53.0753 49.6307 52.722 49.276C52.3687 48.922 52.192 48.496 52.192 47.998C52.192 47.5 52.3693 47.0747 52.724 46.722C53.078 46.3687 53.504 46.192 54.002 46.192C54.5 46.192 54.9253 46.3693 55.278 46.724C55.6313 47.078 55.808 47.504 55.808 48.002C55.808 48.5 55.6307 48.9253 55.276 49.278C54.922 49.6313 54.496 49.808 53.998 49.808ZM54 48.958C54.26 48.958 54.4847 48.8633 54.674 48.674C54.8633 48.4847 54.958 48.26 54.958 48C54.958 47.74 54.8633 47.5153 54.674 47.326C54.4847 47.1367 54.26 47.042 54 47.042C53.74 47.042 53.5153 47.1367 53.326 47.326C53.1367 47.5153 53.042 47.74 53.042 48C53.042 48.26 53.1367 48.4847 53.326 48.674C53.5153 48.8633 53.74 48.958 54 48.958ZM59.31 49.808C58.812 49.808 58.3867 49.6307 58.034 49.276C57.6807 48.922 57.504 48.496 57.504 47.998C57.504 47.5 57.681 47.0747 58.035 46.722C58.3897 46.3687 58.8157 46.192 59.313 46.192C59.8103 46.192 60.2357 46.3693 60.589 46.724C60.9423 47.078 61.119 47.504 61.119 48.002C61.119 48.5 60.942 48.9253 60.588 49.278C60.2333 49.6313 59.8073 49.808 59.31 49.808ZM59.312 48.958C59.572 48.958 59.7967 48.8633 59.986 48.674C60.1747 48.4847 60.269 48.26 60.269 48C60.269 47.74 60.1747 47.5153 59.986 47.326C59.7967 47.1367 59.572 47.042 59.312 47.042C59.052 47.042 58.8273 47.1367 58.638 47.326C58.4487 47.5153 58.354 47.74 58.354 48C58.354 48.26 58.4487 48.4847 58.638 48.674C58.8267 48.8633 59.0513 48.958 59.312 48.958ZM64.648 49.808C64.1507 49.808 63.7253 49.6307 63.372 49.276C63.0187 48.922 62.842 48.496 62.842 47.998C62.842 47.5 63.0193 47.0747 63.374 46.722C63.728 46.3687 64.154 46.192 64.652 46.192C65.15 46.192 65.5753 46.3693 65.928 46.724C66.2813 47.078 66.458 47.504 66.458 48.002C66.458 48.5 66.2807 48.9253 65.926 49.278C65.572 49.6313 65.146 49.808 64.648 49.808ZM64.65 48.958C64.91 48.958 65.1347 48.8633 65.324 48.674C65.5133 48.4847 65.608 48.26 65.608 48C65.608 47.74 65.5133 47.5153 65.324 47.326C65.1347 47.1367 64.91 47.042 64.65 47.042C64.39 47.042 64.1653 47.1367 63.976 47.326C63.7867 47.5153 63.692 47.74 63.692 48C63.692 48.26 63.7867 48.4847 63.976 48.674C64.1653 48.8633 64.39 48.958 64.65 48.958ZM69.998 49.808C69.5007 49.808 69.0753 49.6307 68.722 49.276C68.3687 48.922 68.192 48.496 68.192 47.998C68.192 47.5 68.3693 47.0747 68.724 46.722C69.078 46.3687 69.504 46.192 70.002 46.192C70.5 46.192 70.9253 46.3693 71.278 46.724C71.6313 47.078 71.808 47.504 71.808 48.002C71.808 48.5 71.6307 48.9253 71.276 49.278C70.922 49.6313 70.496 49.808 69.998 49.808Z" fill="white"/>
</svg>
