<svg viewBox="0 0 100 100" fill="none" xmlns="http://www.w3.org/2000/svg">
<g clip-path="url(#clip0_135_2)">
<rect fill="black"/>
<path d="M8.25 63L6.1 57.13H7.5L8.91 60.97L9.14 61.94H9.24L9.37 61.26L10.7 57.13H12.4L13.79 61.26L13.97 61.94H14.07L14.3 60.97L15.61 57.13H17.01L16.91 57.73L14.85 63H13.15L11.79 59.07L11.59 58.43H11.49L11.3 59.07L9.95 63H8.25ZM18.5329 63C18.1996 63 17.9429 62.9567 17.7629 62.87C17.5829 62.7833 17.4529 62.6733 17.3729 62.54C17.2996 62.4067 17.2529 62.2667 17.2329 62.12C17.2196 61.9733 17.2129 61.84 17.2129 61.72V59.8C17.2129 59.7 17.2196 59.58 17.2329 59.44C17.2529 59.2933 17.2996 59.15 17.3729 59.01C17.4529 58.87 17.5829 58.7533 17.7629 58.66C17.9496 58.5667 18.2062 58.52 18.5329 58.52H20.6829C21.1229 58.52 21.4662 58.5633 21.7129 58.65C21.9662 58.73 22.1429 58.8633 22.2429 59.05C22.3496 59.2367 22.4029 59.4867 22.4029 59.8V61.28H20.6529C20.0529 61.28 19.5629 61.2667 19.1829 61.24C18.8096 61.2133 18.5596 61.1967 18.4329 61.19V61.74C18.4262 62.0067 18.5862 62.14 18.9129 62.14H19.4229C19.7829 62.14 20.1329 62.1367 20.4729 62.13C20.8196 62.1167 21.1362 62.1033 21.4229 62.09C21.7096 62.07 21.9396 62.0533 22.1129 62.04L22.5129 62.69C22.5129 62.8967 21.8562 63 20.5429 63H18.5329ZM18.4329 60.42H21.1829V59.78C21.1829 59.6467 21.1662 59.5533 21.1329 59.5C21.1062 59.4467 21.0196 59.4133 20.8729 59.4C20.7262 59.3867 20.4762 59.38 20.1229 59.38H18.9129C18.5929 59.38 18.4329 59.5133 18.4329 59.78V60.42ZM24.7341 63C24.4007 63 24.1441 62.9567 23.9641 62.87C23.7841 62.7833 23.6541 62.6733 23.5741 62.54C23.5007 62.4067 23.4541 62.2667 23.4341 62.12C23.4207 61.9733 23.4141 61.84 23.4141 61.72V59.8C23.4141 59.7 23.4207 59.58 23.4341 59.44C23.4541 59.2933 23.5007 59.15 23.5741 59.01C23.6541 58.87 23.7841 58.7533 23.9641 58.66C24.1507 58.5667 24.4074 58.52 24.7341 58.52H26.8841C27.3241 58.52 27.6674 58.5633 27.9141 58.65C28.1674 58.73 28.3441 58.8633 28.4441 59.05C28.5507 59.2367 28.6041 59.4867 28.6041 59.8V61.28H26.8541C26.2541 61.28 25.7641 61.2667 25.3841 61.24C25.0107 61.2133 24.7607 61.1967 24.6341 61.19V61.74C24.6274 62.0067 24.7874 62.14 25.1141 62.14H25.6241C25.9841 62.14 26.3341 62.1367 26.6741 62.13C27.0207 62.1167 27.3374 62.1033 27.6241 62.09C27.9107 62.07 28.1407 62.0533 28.3141 62.04L28.7141 62.69C28.7141 62.8967 28.0574 63 26.7441 63H24.7341ZM24.6341 60.42H27.3841V59.78C27.3841 59.6467 27.3674 59.5533 27.3341 59.5C27.3074 59.4467 27.2207 59.4133 27.0741 59.4C26.9274 59.3867 26.6774 59.38 26.3241 59.38H25.1141C24.7941 59.38 24.6341 59.5133 24.6341 59.78V60.42ZM34.5052 63.1C34.2252 63.1 33.9852 63.0667 33.7852 63C33.5919 62.9333 33.3852 62.79 33.1652 62.57C33.1452 62.55 33.0919 62.4967 33.0052 62.41C32.9186 62.3233 32.8219 62.2267 32.7152 62.12C32.6152 62.0133 32.5219 61.9167 32.4352 61.83C32.3486 61.7433 32.2919 61.6867 32.2652 61.66C32.0986 61.4933 31.9386 61.3633 31.7852 61.27C31.6386 61.1767 31.4552 61.13 31.2352 61.13C31.0886 61.13 31.0019 61.1433 30.9752 61.17C30.9486 61.1967 30.9352 61.2867 30.9352 61.44V63H29.7152V56.67H30.9352V60.27H31.2552C31.3752 60.27 31.4819 60.2233 31.5752 60.13C31.6352 60.07 31.7486 59.95 31.9152 59.77C32.0819 59.59 32.2686 59.3867 32.4752 59.16C32.6886 58.9333 32.8819 58.7233 33.0552 58.53H34.5252L34.3652 58.84C34.2119 59 34.0452 59.17 33.8652 59.35C33.6852 59.5233 33.5086 59.6933 33.3352 59.86C33.1686 60.02 33.0152 60.1633 32.8752 60.29C32.7352 60.41 32.6286 60.49 32.5552 60.53C32.7552 60.6367 32.9352 60.76 33.0952 60.9C33.2552 61.0333 33.4286 61.1867 33.6152 61.36C33.8019 61.5267 34.0252 61.7167 34.2852 61.93C34.5186 62.1167 34.7352 62.2267 34.9352 62.26C35.1352 62.2867 35.2552 62.3 35.2952 62.3L35.1152 63C35.0486 63.02 34.9586 63.04 34.8452 63.06C34.7319 63.0867 34.6186 63.1 34.5052 63.1ZM39.8241 63C39.1841 63 38.7175 62.8667 38.4241 62.6C38.1375 62.3267 37.9941 61.8967 37.9941 61.31V61.2C37.9941 60.8867 38.0541 60.6067 38.1741 60.36C38.3008 60.1133 38.5241 59.93 38.8441 59.81C38.6575 59.7167 38.5175 59.5733 38.4241 59.38C38.3375 59.1867 38.2941 58.9633 38.2941 58.71V58.6C38.2941 58.34 38.3475 58.0967 38.4541 57.87C38.5608 57.6433 38.7475 57.4633 39.0141 57.33C39.2808 57.19 39.6508 57.12 40.1241 57.12H41.8341C42.3008 57.12 42.6641 57.19 42.9241 57.33C43.1908 57.4633 43.3775 57.6433 43.4841 57.87C43.5975 58.0967 43.6541 58.34 43.6541 58.6V58.71C43.6541 58.9567 43.6108 59.1767 43.5241 59.37C43.4375 59.5567 43.2941 59.7033 43.0941 59.81C43.4141 59.93 43.6375 60.1133 43.7641 60.36C43.8908 60.6067 43.9541 60.8867 43.9541 61.2V61.31C43.9541 61.8967 43.8075 62.3267 43.5141 62.6C43.2275 62.8667 42.7675 63 42.1341 63H39.8241ZM40.4141 59.52H41.5541C41.8141 59.52 42.0075 59.4667 42.1341 59.36C42.2675 59.2533 42.3341 59.0767 42.3341 58.83V58.78C42.3341 58.5333 42.2841 58.3567 42.1841 58.25C42.0841 58.1367 41.8741 58.08 41.5541 58.08H40.4141C40.1075 58.08 39.8975 58.13 39.7841 58.23C39.6708 58.33 39.6141 58.5133 39.6141 58.78V58.83C39.6141 59.0767 39.6741 59.2533 39.7941 59.36C39.9208 59.4667 40.1275 59.52 40.4141 59.52ZM40.1141 62.04H41.8541C42.1008 62.04 42.2908 61.9833 42.4241 61.87C42.5641 61.7567 42.6341 61.5767 42.6341 61.33V61.1C42.6341 60.8867 42.5641 60.7167 42.4241 60.59C42.2841 60.4633 42.0941 60.4 41.8541 60.4H40.1141C39.8741 60.4 39.6808 60.46 39.5341 60.58C39.3875 60.6933 39.3141 60.8667 39.3141 61.1V61.33C39.3141 61.5767 39.3841 61.7567 39.5241 61.87C39.6708 61.9833 39.8675 62.04 40.1141 62.04Z" fill="#EF8D7A"/>
<path d="M8.53 75C8.05667 75 7.68667 74.9333 7.42 74.8C7.15333 74.6667 6.96667 74.4667 6.86 74.2C6.75333 73.9333 6.7 73.6033 6.7 73.21V70.98C6.7 70.34 6.84333 69.87 7.13 69.57C7.41667 69.2633 7.88333 69.11 8.53 69.11H11.54C12 69.11 12.35 69.1367 12.59 69.19C12.8367 69.2367 12.96 69.2867 12.96 69.34L12.76 70.17C12.6467 70.15 12.31 70.13 11.75 70.11C11.1967 70.0833 10.39 70.07 9.33 70.07H8.82C8.28667 70.07 8.02 70.3067 8.02 70.78V73.33C8.02 73.5567 8.07667 73.7333 8.19 73.86C8.31 73.98 8.52 74.04 8.82 74.04H9.23C10.3367 74.04 11.1933 74.03 11.8 74.01C12.4133 73.9833 12.7933 73.9567 12.94 73.93L13.35 74.59C13.35 74.6233 13.2933 74.6733 13.18 74.74C13.0733 74.8067 12.8733 74.8667 12.58 74.92C12.2867 74.9733 11.8633 75 11.31 75H8.53ZM14.4488 75V69.92L14.3488 69.12H15.7888L19.1888 72.68L19.5788 73.22H19.6888V69.12H21.0088V75H19.7388L16.2588 71.38L15.8688 70.91H15.7688V75H14.4488ZM24.3405 75C23.8672 75 23.4972 74.9333 23.2305 74.8C22.9639 74.6667 22.7772 74.4667 22.6705 74.2C22.5639 73.9333 22.5105 73.6033 22.5105 73.21V70.98C22.5105 70.34 22.6539 69.87 22.9405 69.57C23.2272 69.2633 23.6939 69.11 24.3405 69.11H27.3505C27.8105 69.11 28.1605 69.1367 28.4005 69.19C28.6472 69.2367 28.7705 69.2867 28.7705 69.34L28.5705 70.17C28.4572 70.15 28.1205 70.13 27.5605 70.11C27.0072 70.0833 26.2005 70.07 25.1405 70.07H24.6305C24.0972 70.07 23.8305 70.3067 23.8305 70.78V73.33C23.8305 73.5567 23.8872 73.7333 24.0005 73.86C24.1205 73.98 24.3305 74.04 24.6305 74.04H25.0405C26.1472 74.04 27.0039 74.03 27.6105 74.01C28.2239 73.9833 28.6039 73.9567 28.7505 73.93L29.1605 74.59C29.1605 74.6233 29.1039 74.6733 28.9905 74.74C28.8839 74.8067 28.6839 74.8667 28.3905 74.92C28.0972 74.9733 27.6739 75 27.1205 75H24.3405ZM32.4566 75V69.92L32.3566 69.12H33.8766L36.1366 73.12L38.4766 69.12H39.8266V75H38.5066V71.27H38.3966L38.0066 72.14L36.7466 74.4H35.5366L34.2766 72.14L33.8766 71.27H33.7766V75H32.4566ZM41.9389 69.89C41.6922 69.89 41.5122 69.84 41.3989 69.74C41.2856 69.64 41.2289 69.4733 41.2289 69.24C41.2289 69 41.2822 68.8333 41.3889 68.74C41.5022 68.64 41.6856 68.59 41.9389 68.59C42.1922 68.59 42.3756 68.64 42.4889 68.74C42.6022 68.8333 42.6589 69 42.6589 69.24C42.6589 69.4667 42.6022 69.6333 42.4889 69.74C42.3756 69.84 42.1922 69.89 41.9389 69.89ZM41.3289 75V70.52H42.5489V75H41.3289ZM43.9559 75V69.46L43.8559 68.66H45.1759V75H43.9559ZM46.4754 75V69.46L46.3754 68.66H47.6954V75H46.4754ZM49.6049 69.89C49.3583 69.89 49.1783 69.84 49.0649 69.74C48.9516 69.64 48.8949 69.4733 48.8949 69.24C48.8949 69 48.9483 68.8333 49.0549 68.74C49.1683 68.64 49.3516 68.59 49.6049 68.59C49.8583 68.59 50.0416 68.64 50.1549 68.74C50.2683 68.8333 50.3249 69 50.3249 69.24C50.3249 69.4667 50.2683 69.6333 50.1549 69.74C50.0416 69.84 49.8583 69.89 49.6049 69.89ZM48.9949 75V70.52H50.2149V75H48.9949ZM51.5219 75V70.52H52.3419L52.7419 70.72C53.0219 70.6667 53.3585 70.62 53.7519 70.58C54.1452 70.54 54.5952 70.52 55.1019 70.52H55.6019C55.9352 70.52 56.1919 70.5667 56.3719 70.66C56.5519 70.7533 56.6785 70.87 56.7519 71.01C56.8319 71.15 56.8785 71.2933 56.8919 71.44C56.9119 71.58 56.9219 71.7 56.9219 71.8V75H55.7019V71.78C55.7019 71.5133 55.5419 71.38 55.2219 71.38H53.0419C52.9152 71.38 52.8319 71.3933 52.7919 71.42C52.7585 71.44 52.7419 71.5 52.7419 71.6V75H51.5219ZM61.3646 76.76C60.6313 76.76 60.0346 76.7533 59.5746 76.74C59.1146 76.7267 58.7613 76.7067 58.5146 76.68C58.2679 76.6533 58.0979 76.62 58.0046 76.58C57.9179 76.54 57.8746 76.4967 57.8746 76.45L58.1746 75.7C58.2813 75.7333 58.4679 75.7733 58.7346 75.82C59.0079 75.8733 59.3546 75.9 59.7746 75.9H61.4846C61.7313 75.9 61.9046 75.8633 62.0046 75.79C62.1113 75.7167 62.1646 75.5867 62.1646 75.4V74.8C61.8779 74.8533 61.5379 74.9 61.1446 74.94C60.7579 74.98 60.3113 75 59.8046 75H59.3046C58.9713 75 58.7146 74.9567 58.5346 74.87C58.3546 74.7833 58.2246 74.6733 58.1446 74.54C58.0713 74.4067 58.0246 74.2667 58.0046 74.12C57.9913 73.9733 57.9846 73.84 57.9846 73.72V71.8C57.9846 71.7 57.9913 71.58 58.0046 71.44C58.0246 71.2933 58.0713 71.15 58.1446 71.01C58.2246 70.87 58.3546 70.7533 58.5346 70.66C58.7213 70.5667 58.9779 70.52 59.3046 70.52H59.8146C60.5146 70.52 61.0579 70.5333 61.4446 70.56C61.8379 70.5867 62.1246 70.6167 62.3046 70.65L62.5646 70.52H63.3846V75.48C63.3846 75.6 63.3646 75.7333 63.3246 75.88C63.2913 76.0267 63.2213 76.1667 63.1146 76.3C63.0079 76.4333 62.8546 76.5433 62.6546 76.63C62.4546 76.7167 62.1913 76.76 61.8646 76.76H61.3646ZM59.6846 74.14H61.8546C62.0079 74.14 62.0979 74.1267 62.1246 74.1C62.1513 74.0733 62.1646 73.9867 62.1646 73.84V71.45C61.9379 71.4367 61.6513 71.4233 61.3046 71.41C60.9579 71.39 60.5879 71.38 60.1946 71.38H59.6846C59.3646 71.38 59.2046 71.5133 59.2046 71.78V73.74C59.1979 74.0067 59.3579 74.14 59.6846 74.14Z" fill="white"/>
<path d="M65.5 52.75C65.5 52.5511 65.421 52.3603 65.2803 52.2197C65.1397 52.079 64.9489 52 64.75 52C64.5511 52 64.3603 52.079 64.2197 52.2197C64.079 52.3603 64 52.5511 64 52.75V56.25C64 57.216 64.784 58 65.75 58H66.015L70.051 66.968C70.1503 67.1889 70.2944 67.3867 70.4741 67.549C70.6538 67.7113 70.8652 67.8346 71.095 67.911C71.0303 68.2704 70.9985 68.6349 71 69C71 69.671 71.09 70.366 71.363 70.921C71.655 71.516 72.193 72 73 72C73.807 72 74.345 71.516 74.637 70.921C74.909 70.366 75 69.671 75 69C75 68.633 74.973 68.262 74.905 67.91C75.1347 67.8337 75.3461 67.7106 75.5258 67.5485C75.7055 67.3863 75.8496 67.1887 75.949 66.968L79.985 58H80.25C80.7141 58 81.1592 57.8156 81.4874 57.4874C81.8156 57.1592 82 56.7141 82 56.25V52.75C82 52.5511 81.921 52.3603 81.7803 52.2197C81.6397 52.079 81.4489 52 81.25 52C81.0511 52 80.8603 52.079 80.7197 52.2197C80.579 52.3603 80.5 52.5511 80.5 52.75V56.25C80.5 56.3163 80.4737 56.3799 80.4268 56.4268C80.3799 56.4737 80.3163 56.5 80.25 56.5H65.75C65.6837 56.5 65.6201 56.4737 65.5732 56.4268C65.5263 56.3799 65.5 56.3163 65.5 56.25V52.75ZM67.66 58H78.34L74.581 66.353C74.5612 66.3968 74.5291 66.434 74.4887 66.4601C74.4482 66.4862 74.4011 66.5 74.353 66.5H71.647C71.5989 66.5 71.5518 66.4862 71.5113 66.4601C71.4709 66.434 71.4388 66.3968 71.419 66.353L67.66 58ZM72.613 68H73.387C73.458 68.256 73.5 68.594 73.5 69C73.5 69.572 73.417 70.002 73.29 70.26C73.182 70.48 73.095 70.5 73 70.5C72.905 70.5 72.818 70.48 72.71 70.26C72.583 70.002 72.5 69.571 72.5 69C72.5 68.594 72.542 68.256 72.613 68Z" fill="#EF8D7A"/>
<path d="M68.4 28.9869C68.4 27.141 67.775 25.565 66.525 24.2589C65.275 22.9529 63.7667 22.2998 62 22.2998C60.2333 22.2998 58.725 22.9529 57.475 24.2589C56.225 25.565 55.6 27.141 55.6 28.9869C55.6 30.8329 56.225 32.4089 57.475 33.7149C58.725 35.021 60.2333 35.674 62 35.674C63.7667 35.674 65.275 35.021 66.525 33.7149C67.775 32.4089 68.4 30.8329 68.4 28.9869ZM87.6 42.3612C87.6 41.4556 87.2833 40.672 86.65 40.0102C86.0167 39.3485 85.2667 39.0176 84.4 39.0176C83.5333 39.0176 82.7833 39.3485 82.15 40.0102C81.5167 40.672 81.2 41.4556 81.2 42.3612C81.2 43.2841 81.5125 44.0721 82.1375 44.7252C82.7625 45.3782 83.5167 45.7047 84.4 45.7047C85.2833 45.7047 86.0375 45.3782 86.6625 44.7252C87.2875 44.0721 87.6 43.2841 87.6 42.3612ZM87.6 15.6127C87.6 14.7072 87.2833 13.9235 86.65 13.2618C86.0167 12.6 85.2667 12.2692 84.4 12.2692C83.5333 12.2692 82.7833 12.6 82.15 13.2618C81.5167 13.9235 81.2 14.7072 81.2 15.6127C81.2 16.5357 81.5125 17.3237 82.1375 17.9767C82.7625 18.6298 83.5167 18.9563 84.4 18.9563C85.2833 18.9563 86.0375 18.6298 86.6625 17.9767C87.2875 17.3237 87.6 16.5357 87.6 15.6127ZM78 26.6099V31.4424C78 31.6165 77.9417 31.7863 77.825 31.9517C77.7083 32.1172 77.575 32.2086 77.425 32.226L73.55 32.8529C73.3667 33.4624 73.1 34.1242 72.75 34.8382C73.3167 35.674 74.0667 36.6754 75 37.8421C75.1167 38.0337 75.175 38.2078 75.175 38.3646C75.175 38.5735 75.1167 38.739 75 38.8609C74.6167 39.3833 73.9292 40.1626 72.9375 41.1987C71.9458 42.2349 71.2917 42.753 70.975 42.753C70.7917 42.753 70.6167 42.692 70.45 42.5701L67.575 40.2192C66.9583 40.5501 66.3167 40.82 65.65 41.029C65.4667 42.9097 65.275 44.2593 65.075 45.0778C64.9583 45.4957 64.7083 45.7047 64.325 45.7047H59.675C59.4917 45.7047 59.325 45.6394 59.175 45.5088C59.025 45.3782 58.9417 45.2258 58.925 45.0517L58.35 41.0551C57.7833 40.8809 57.1583 40.611 56.475 40.2453L53.525 42.5701C53.4083 42.692 53.2417 42.753 53.025 42.753C52.8417 42.753 52.6667 42.6833 52.5 42.544C50.1 40.2279 48.9 38.8348 48.9 38.3646C48.9 38.2078 48.9583 38.0424 49.075 37.8683C49.2417 37.6245 49.5833 37.163 50.1 36.4838C50.6167 35.8047 51.0083 35.2735 51.275 34.8904C50.8917 34.1242 50.6 33.4102 50.4 32.7484L46.6 32.1215C46.4333 32.1041 46.2917 32.0214 46.175 31.8734C46.0583 31.7253 46 31.5556 46 31.364V26.5315C46 26.3574 46.0583 26.1876 46.175 26.0221C46.2917 25.8567 46.425 25.7653 46.575 25.7479L50.45 25.121C50.6333 24.5115 50.9 23.8497 51.25 23.1357C50.6833 22.2998 49.9333 21.2985 49 20.1317C48.8833 19.9402 48.825 19.766 48.825 19.6093C48.825 19.4003 48.8833 19.2262 49 19.0869C49.3667 18.5645 50.05 17.7895 51.05 16.7621C52.05 15.7346 52.7083 15.2209 53.025 15.2209C53.2083 15.2209 53.3833 15.2818 53.55 15.4037L56.425 17.7547C56.9917 17.4412 57.6333 17.1626 58.35 16.9188C58.5333 15.038 58.725 13.6971 58.925 12.8961C59.0417 12.4781 59.2917 12.2692 59.675 12.2692H64.325C64.5083 12.2692 64.675 12.3345 64.825 12.4651C64.975 12.5957 65.0583 12.7481 65.075 12.9222L65.65 16.9188C66.2167 17.0929 66.8417 17.3629 67.525 17.7286L70.475 15.4037C70.6083 15.2818 70.775 15.2209 70.975 15.2209C71.1583 15.2209 71.3333 15.2906 71.5 15.4299C73.9 17.746 75.1 19.1391 75.1 19.6093C75.1 19.7486 75.0417 19.9141 74.925 20.1056C74.725 20.3843 74.375 20.8544 73.875 21.5162C73.375 22.1779 73 22.7004 72.75 23.0835C73.1333 23.9194 73.4167 24.6334 73.6 25.2254L77.4 25.8262C77.5667 25.8611 77.7083 25.9525 77.825 26.1005C77.9417 26.2485 78 26.4183 78 26.6099ZM94 40.5326V44.1897C94 44.4683 92.7583 44.7382 90.275 44.9994C90.075 45.4696 89.825 45.9224 89.525 46.3577C90.375 48.3256 90.8 49.5272 90.8 49.9625C90.8 50.0322 90.7667 50.0931 90.7 50.1454C88.6667 51.3818 87.6333 52 87.6 52C87.4667 52 87.0833 51.5908 86.45 50.7723C85.8167 49.9538 85.3833 49.3617 85.15 48.996C84.8167 49.0309 84.5667 49.0483 84.4 49.0483C84.2333 49.0483 83.9833 49.0309 83.65 48.996C83.4167 49.3617 82.9833 49.9538 82.35 50.7723C81.7167 51.5908 81.3333 52 81.2 52C81.1667 52 80.1333 51.3818 78.1 50.1454C78.0333 50.0931 78 50.0322 78 49.9625C78 49.5272 78.425 48.3256 79.275 46.3577C78.975 45.9224 78.725 45.4696 78.525 44.9994C76.0417 44.7382 74.8 44.4683 74.8 44.1897V40.5326C74.8 40.254 76.0417 39.9841 78.525 39.7229C78.7417 39.2179 78.9917 38.7651 79.275 38.3646C78.425 36.3967 78 35.1952 78 34.7598C78 34.6901 78.0333 34.6292 78.1 34.5769C78.1667 34.5421 78.4583 34.368 78.975 34.0545C79.4917 33.7411 79.9833 33.445 80.45 33.1664C80.9167 32.8878 81.1667 32.7484 81.2 32.7484C81.3333 32.7484 81.7167 33.1533 82.35 33.9631C82.9833 34.7729 83.4167 35.3606 83.65 35.7263C83.9833 35.6915 84.2333 35.674 84.4 35.674C84.5667 35.674 84.8167 35.6915 85.15 35.7263C86 34.4899 86.7667 33.5147 87.45 32.8007L87.6 32.7484C87.6667 32.7484 88.7 33.3579 90.7 34.5769C90.7667 34.6292 90.8 34.6901 90.8 34.7598C90.8 35.1952 90.375 36.3967 89.525 38.3646C89.8083 38.7651 90.0583 39.2179 90.275 39.7229C92.7583 39.9841 94 40.254 94 40.5326ZM94 13.7842V17.4412C94 17.7199 92.7583 17.9898 90.275 18.251C90.075 18.7212 89.825 19.174 89.525 19.6093C90.375 21.5771 90.8 22.7787 90.8 23.2141C90.8 23.2837 90.7667 23.3447 90.7 23.3969C88.6667 24.6334 87.6333 25.2516 87.6 25.2516C87.4667 25.2516 87.0833 24.8423 86.45 24.0238C85.8167 23.2054 85.3833 22.6133 85.15 22.2476C84.8167 22.2824 84.5667 22.2998 84.4 22.2998C84.2333 22.2998 83.9833 22.2824 83.65 22.2476C83.4167 22.6133 82.9833 23.2054 82.35 24.0238C81.7167 24.8423 81.3333 25.2516 81.2 25.2516C81.1667 25.2516 80.1333 24.6334 78.1 23.3969C78.0333 23.3447 78 23.2837 78 23.2141C78 22.7787 78.425 21.5771 79.275 19.6093C78.975 19.174 78.725 18.7212 78.525 18.251C76.0417 17.9898 74.8 17.7199 74.8 17.4412V13.7842C74.8 13.5056 76.0417 13.2357 78.525 12.9744C78.7417 12.4694 78.9917 12.0167 79.275 11.6161C78.425 9.64831 78 8.44672 78 8.01136C78 7.9417 78.0333 7.88075 78.1 7.82851C78.1667 7.79368 78.4583 7.61953 78.975 7.30608C79.4917 6.99262 79.9833 6.69657 80.45 6.41794C80.9167 6.13931 81.1667 6 81.2 6C81.3333 6 81.7167 6.40488 82.35 7.21465C82.9833 8.02442 83.4167 8.61215 83.65 8.97785C83.9833 8.94302 84.2333 8.92561 84.4 8.92561C84.5667 8.92561 84.8167 8.94302 85.15 8.97785C86 7.74143 86.7667 6.76623 87.45 6.05224L87.6 6C87.6667 6 88.7 6.6095 90.7 7.82851C90.7667 7.88075 90.8 7.9417 90.8 8.01136C90.8 8.44672 90.375 9.64831 89.525 11.6161C89.8083 12.0167 90.0583 12.4694 90.275 12.9744C92.7583 13.2357 94 13.5056 94 13.7842Z" fill="white"/>
<path d="M24.8227 38.8071C19.7402 42.3565 13.5506 43.7758 7.46319 42.7878C1.37574 41.7998 -4.17228 38.4755 -8.09705 33.4642C-12.0218 28.453 -14.0414 22.1148 -13.7612 15.6879C-13.481 9.261 -10.9212 3.20708 -6.58189 -1.2912C-2.24256 -5.78948 3.56459 -8.40897 9.70509 -8.63794C15.8456 -8.86691 21.8783 -6.68891 26.6247 -2.52942C31.3712 1.63007 34.4903 7.47223 35.3729 13.8558C36.2554 20.2393 34.838 26.7057 31.3974 31.9916L38.5197 37.5829C38.6241 37.6649 38.7123 37.7674 38.7794 37.8846C38.8464 38.0017 38.891 38.1312 38.9105 38.2657C38.93 38.4002 38.924 38.5371 38.893 38.6684C38.8619 38.7998 38.8064 38.9231 38.7295 39.0313C38.6526 39.1396 38.556 39.2306 38.445 39.2992C38.334 39.3679 38.211 39.4127 38.0828 39.4313C37.9546 39.4499 37.8238 39.4418 37.698 39.4075C37.5721 39.3732 37.4536 39.3133 37.3491 39.2313L10.3772 18.0568C10.1664 17.8913 10.0258 17.6457 9.98644 17.3741C9.94708 17.1024 10.0122 16.827 10.1674 16.6084C10.3226 16.3899 10.5553 16.246 10.8141 16.2085C11.073 16.171 11.3369 16.2429 11.5478 16.4085L20.2574 23.246C21.5474 21.0278 22.0619 18.4014 21.7144 15.809C21.367 13.2166 20.1787 10.8166 18.3497 9.01298C16.5207 7.20938 14.1627 6.11239 11.6727 5.90668C9.18264 5.70098 6.71268 6.39914 4.67866 7.88361C2.64464 9.36808 1.17078 11.5482 0.505227 14.0569C-0.160325 16.5656 0.0230843 19.2497 1.02457 21.6572C2.02606 24.0647 3.78446 26.0487 6.00372 27.275C8.22297 28.5013 10.7675 28.8951 13.209 28.3901C13.336 28.3638 13.467 28.3641 13.5946 28.3908C13.7222 28.4176 13.8439 28.4703 13.9526 28.546C14.0614 28.6217 14.1552 28.7189 14.2286 28.8321C14.302 28.9452 14.3536 29.0721 14.3804 29.2054C14.4072 29.3388 14.4088 29.476 14.385 29.6093C14.3612 29.7425 14.3125 29.8692 14.2417 29.9821C14.1709 30.095 14.0793 30.1919 13.9723 30.2672C13.8652 30.3425 13.7448 30.3948 13.6178 30.4211C10.725 31.0206 7.70965 30.5522 5.08189 29.0952C2.45412 27.6382 0.375326 25.2821 -0.802749 22.4255C-1.98082 19.5689 -2.18584 16.3873 -1.3831 13.4189C-0.580365 10.4506 1.18083 7.87784 3.60248 6.136C6.02412 4.39415 8.95751 3.59018 11.9063 3.86012C14.8551 4.13005 17.6382 5.45732 19.7847 7.61734C21.9312 9.77735 23.3093 12.6375 23.6858 15.7138C24.0623 18.79 23.4141 21.8936 21.8508 24.4992L29.8107 30.7505C33.0914 25.6377 34.3169 19.3575 33.2258 13.2494C32.1346 7.14131 28.8133 1.68889 23.9702 -1.94487C19.1271 -5.57863 13.1456 -7.10609 7.30152 -6.20145C1.45747 -5.2968 -3.78652 -2.03166 -7.31191 2.89753C-10.4739 7.36803 -12.0115 12.8859 -11.6536 18.478C-11.2956 24.0701 -9.06501 29.3771 -5.35524 33.4631C-1.64547 37.5491 3.30519 40.1517 8.6236 40.8117C13.942 41.4717 19.2865 40.1469 23.7146 37.0708C23.8217 36.9923 23.943 36.9372 24.0714 36.9088C24.1998 36.8804 24.3327 36.8793 24.4622 36.9055C24.5918 36.9317 24.7153 36.9848 24.8257 37.0614C24.936 37.1381 25.0309 37.237 25.1047 37.3521C25.1785 37.4672 25.2298 37.5964 25.2555 37.7319C25.2812 37.8674 25.2809 38.0066 25.2544 38.1412C25.228 38.2758 25.1761 38.4032 25.1017 38.5158C25.0273 38.6284 24.9319 38.7239 24.8212 38.7969L24.8227 38.8071Z" fill="#EF8D7A"/>
</g>
<defs>
<clipPath id="clip0_135_2">
<rect width="100" height="100" fill="white"/>
</clipPath>
</defs>
</svg>
