<svg viewBox="0 0 100 100" fill="none" xmlns="http://www.w3.org/2000/svg">
<rect fill="black"/>
<path d="M8.25 63L6.1 57.13H7.5L8.91 60.97L9.14 61.94H9.24L9.37 61.26L10.7 57.13H12.4L13.79 61.26L13.97 61.94H14.07L14.3 60.97L15.61 57.13H17.01L16.91 57.73L14.85 63H13.15L11.79 59.07L11.59 58.43H11.49L11.3 59.07L9.95 63H8.25ZM18.5329 63C18.1996 63 17.9429 62.9567 17.7629 62.87C17.5829 62.7833 17.4529 62.6733 17.3729 62.54C17.2996 62.4067 17.2529 62.2667 17.2329 62.12C17.2196 61.9733 17.2129 61.84 17.2129 61.72V59.8C17.2129 59.7 17.2196 59.58 17.2329 59.44C17.2529 59.2933 17.2996 59.15 17.3729 59.01C17.4529 58.87 17.5829 58.7533 17.7629 58.66C17.9496 58.5667 18.2062 58.52 18.5329 58.52H20.6829C21.1229 58.52 21.4662 58.5633 21.7129 58.65C21.9662 58.73 22.1429 58.8633 22.2429 59.05C22.3496 59.2367 22.4029 59.4867 22.4029 59.8V61.28H20.6529C20.0529 61.28 19.5629 61.2667 19.1829 61.24C18.8096 61.2133 18.5596 61.1967 18.4329 61.19V61.74C18.4262 62.0067 18.5862 62.14 18.9129 62.14H19.4229C19.7829 62.14 20.1329 62.1367 20.4729 62.13C20.8196 62.1167 21.1362 62.1033 21.4229 62.09C21.7096 62.07 21.9396 62.0533 22.1129 62.04L22.5129 62.69C22.5129 62.8967 21.8562 63 20.5429 63H18.5329ZM18.4329 60.42H21.1829V59.78C21.1829 59.6467 21.1662 59.5533 21.1329 59.5C21.1062 59.4467 21.0196 59.4133 20.8729 59.4C20.7262 59.3867 20.4762 59.38 20.1229 59.38H18.9129C18.5929 59.38 18.4329 59.5133 18.4329 59.78V60.42ZM24.7341 63C24.4007 63 24.1441 62.9567 23.9641 62.87C23.7841 62.7833 23.6541 62.6733 23.5741 62.54C23.5007 62.4067 23.4541 62.2667 23.4341 62.12C23.4207 61.9733 23.4141 61.84 23.4141 61.72V59.8C23.4141 59.7 23.4207 59.58 23.4341 59.44C23.4541 59.2933 23.5007 59.15 23.5741 59.01C23.6541 58.87 23.7841 58.7533 23.9641 58.66C24.1507 58.5667 24.4074 58.52 24.7341 58.52H26.8841C27.3241 58.52 27.6674 58.5633 27.9141 58.65C28.1674 58.73 28.3441 58.8633 28.4441 59.05C28.5507 59.2367 28.6041 59.4867 28.6041 59.8V61.28H26.8541C26.2541 61.28 25.7641 61.2667 25.3841 61.24C25.0107 61.2133 24.7607 61.1967 24.6341 61.19V61.74C24.6274 62.0067 24.7874 62.14 25.1141 62.14H25.6241C25.9841 62.14 26.3341 62.1367 26.6741 62.13C27.0207 62.1167 27.3374 62.1033 27.6241 62.09C27.9107 62.07 28.1407 62.0533 28.3141 62.04L28.7141 62.69C28.7141 62.8967 28.0574 63 26.7441 63H24.7341ZM24.6341 60.42H27.3841V59.78C27.3841 59.6467 27.3674 59.5533 27.3341 59.5C27.3074 59.4467 27.2207 59.4133 27.0741 59.4C26.9274 59.3867 26.6774 59.38 26.3241 59.38H25.1141C24.7941 59.38 24.6341 59.5133 24.6341 59.78V60.42ZM34.5052 63.1C34.2252 63.1 33.9852 63.0667 33.7852 63C33.5919 62.9333 33.3852 62.79 33.1652 62.57C33.1452 62.55 33.0919 62.4967 33.0052 62.41C32.9186 62.3233 32.8219 62.2267 32.7152 62.12C32.6152 62.0133 32.5219 61.9167 32.4352 61.83C32.3486 61.7433 32.2919 61.6867 32.2652 61.66C32.0986 61.4933 31.9386 61.3633 31.7852 61.27C31.6386 61.1767 31.4552 61.13 31.2352 61.13C31.0886 61.13 31.0019 61.1433 30.9752 61.17C30.9486 61.1967 30.9352 61.2867 30.9352 61.44V63H29.7152V56.67H30.9352V60.27H31.2552C31.3752 60.27 31.4819 60.2233 31.5752 60.13C31.6352 60.07 31.7486 59.95 31.9152 59.77C32.0819 59.59 32.2686 59.3867 32.4752 59.16C32.6886 58.9333 32.8819 58.7233 33.0552 58.53H34.5252L34.3652 58.84C34.2119 59 34.0452 59.17 33.8652 59.35C33.6852 59.5233 33.5086 59.6933 33.3352 59.86C33.1686 60.02 33.0152 60.1633 32.8752 60.29C32.7352 60.41 32.6286 60.49 32.5552 60.53C32.7552 60.6367 32.9352 60.76 33.0952 60.9C33.2552 61.0333 33.4286 61.1867 33.6152 61.36C33.8019 61.5267 34.0252 61.7167 34.2852 61.93C34.5186 62.1167 34.7352 62.2267 34.9352 62.26C35.1352 62.2867 35.2552 62.3 35.2952 62.3L35.1152 63C35.0486 63.02 34.9586 63.04 34.8452 63.06C34.7319 63.0867 34.6186 63.1 34.5052 63.1ZM37.8941 63V62.03C38.0075 61.9567 38.1775 61.8467 38.4041 61.7C38.6375 61.5533 38.8941 61.39 39.1741 61.21C39.4608 61.03 39.7508 60.8467 40.0441 60.66C40.3375 60.4667 40.6075 60.2867 40.8541 60.12C41.1075 59.9467 41.3075 59.8033 41.4541 59.69C41.6675 59.5233 41.8141 59.3633 41.8941 59.21C41.9808 59.05 42.0241 58.8933 42.0241 58.74V58.54C42.0241 58.3733 41.9575 58.2367 41.8241 58.13C41.6908 58.0233 41.4708 57.97 41.1641 57.97H40.8641C40.4775 57.97 40.0908 57.9833 39.7041 58.01C39.3175 58.0367 38.9708 58.0667 38.6641 58.1C38.3641 58.1267 38.1408 58.15 37.9941 58.17L37.8941 57.26C38.0808 57.2267 38.3375 57.19 38.6641 57.15C38.9908 57.11 39.3675 57.0767 39.7941 57.05C40.2208 57.0233 40.6675 57.01 41.1341 57.01H41.4141C41.8341 57.01 42.1708 57.06 42.4241 57.16C42.6775 57.2533 42.8708 57.3767 43.0041 57.53C43.1441 57.6833 43.2375 57.8533 43.2841 58.04C43.3308 58.22 43.3541 58.3967 43.3541 58.57V58.78C43.3541 59.1333 43.2375 59.4767 43.0041 59.81C42.7775 60.1367 42.4075 60.4433 41.8941 60.73C41.3341 61.0367 40.8608 61.2967 40.4741 61.51C40.0941 61.7167 39.8208 61.8667 39.6541 61.96V62.04H43.6541V63H37.8941Z" fill="#EF8D7A"/>
<path d="M6.4 75V74.03C6.51333 73.9567 6.68333 73.8467 6.91 73.7C7.14333 73.5533 7.4 73.39 7.68 73.21C7.96667 73.03 8.25667 72.8467 8.55 72.66C8.84333 72.4667 9.11333 72.2867 9.36 72.12C9.61333 71.9467 9.81333 71.8033 9.96 71.69C10.1733 71.5233 10.32 71.3633 10.4 71.21C10.4867 71.05 10.53 70.8933 10.53 70.74V70.54C10.53 70.3733 10.4633 70.2367 10.33 70.13C10.1967 70.0233 9.97667 69.97 9.67 69.97H9.37C8.98333 69.97 8.59667 69.9833 8.21 70.01C7.82333 70.0367 7.47667 70.0667 7.17 70.1C6.87 70.1267 6.64667 70.15 6.5 70.17L6.4 69.26C6.58667 69.2267 6.84333 69.19 7.17 69.15C7.49667 69.11 7.87333 69.0767 8.3 69.05C8.72667 69.0233 9.17333 69.01 9.64 69.01H9.92C10.34 69.01 10.6767 69.06 10.93 69.16C11.1833 69.2533 11.3767 69.3767 11.51 69.53C11.65 69.6833 11.7433 69.8533 11.79 70.04C11.8367 70.22 11.86 70.3967 11.86 70.57V70.78C11.86 71.1333 11.7433 71.4767 11.51 71.81C11.2833 72.1367 10.9133 72.4433 10.4 72.73C9.84 73.0367 9.36667 73.2967 8.98 73.51C8.6 73.7167 8.32667 73.8667 8.16 73.96V74.04H12.16V75H6.4ZM13.2574 75V69.92L13.1574 69.12H17.7974C18.3374 69.12 18.7508 69.1867 19.0374 69.32C19.3308 69.4533 19.5341 69.6533 19.6474 69.92C19.7608 70.18 19.8174 70.5067 19.8174 70.9V73.21C19.8174 73.61 19.7608 73.9433 19.6474 74.21C19.5408 74.47 19.3408 74.6667 19.0474 74.8C18.7608 74.9333 18.3441 75 17.7974 75H13.2574ZM14.5774 74.04H17.7174C18.2308 74.04 18.4908 73.8033 18.4974 73.33V70.78C18.4974 70.5867 18.4408 70.4233 18.3274 70.29C18.2141 70.15 18.0108 70.08 17.7174 70.08H14.5774V74.04ZM23.5113 75V69.92L23.4113 69.12H28.0513C28.5913 69.12 29.0047 69.1867 29.2913 69.32C29.5847 69.4533 29.788 69.6533 29.9013 69.92C30.0147 70.18 30.0713 70.5067 30.0713 70.9V73.21C30.0713 73.61 30.0147 73.9433 29.9013 74.21C29.7947 74.47 29.5947 74.6667 29.3013 74.8C29.0147 74.9333 28.598 75 28.0513 75H23.5113ZM24.8313 74.04H27.9713C28.4847 74.04 28.7447 73.8033 28.7513 73.33V70.78C28.7513 70.5867 28.6947 70.4233 28.5813 70.29C28.468 70.15 28.2647 70.08 27.9713 70.08H24.8313V74.04ZM32.488 75C32.1546 75 31.898 74.9567 31.718 74.87C31.538 74.7833 31.408 74.6733 31.328 74.54C31.2546 74.4067 31.208 74.2667 31.188 74.12C31.1746 73.9733 31.168 73.84 31.168 73.72V71.8C31.168 71.7 31.1746 71.58 31.188 71.44C31.208 71.2933 31.2546 71.15 31.328 71.01C31.408 70.87 31.538 70.7533 31.718 70.66C31.9046 70.5667 32.1613 70.52 32.488 70.52H34.638C35.078 70.52 35.4213 70.5633 35.668 70.65C35.9213 70.73 36.098 70.8633 36.198 71.05C36.3046 71.2367 36.358 71.4867 36.358 71.8V73.28H34.608C34.008 73.28 33.518 73.2667 33.138 73.24C32.7646 73.2133 32.5146 73.1967 32.388 73.19V73.74C32.3813 74.0067 32.5413 74.14 32.868 74.14H33.378C33.738 74.14 34.088 74.1367 34.428 74.13C34.7746 74.1167 35.0913 74.1033 35.378 74.09C35.6646 74.07 35.8946 74.0533 36.068 74.04L36.468 74.69C36.468 74.8967 35.8113 75 34.498 75H32.488ZM32.388 72.42H35.138V71.78C35.138 71.6467 35.1213 71.5533 35.088 71.5C35.0613 71.4467 34.9746 71.4133 34.828 71.4C34.6813 71.3867 34.4313 71.38 34.078 71.38H32.868C32.548 71.38 32.388 71.5133 32.388 71.78V72.42ZM38.5991 75C38.1525 75 37.8358 74.9767 37.6491 74.93C37.4625 74.8833 37.3691 74.8367 37.3691 74.79L37.6691 74.04C37.8625 74.06 38.2158 74.0833 38.7291 74.11C39.2491 74.13 39.8891 74.14 40.6491 74.14H41.1491C41.3158 74.14 41.4191 74.0967 41.4591 74.01C41.5058 73.9167 41.5291 73.7933 41.5291 73.64C41.5291 73.4867 41.5025 73.3633 41.4491 73.27C41.4025 73.1767 41.3025 73.13 41.1491 73.13H38.6891C38.2225 73.13 37.8858 73.0433 37.6791 72.87C37.4725 72.69 37.3691 72.4233 37.3691 72.07V71.67C37.3691 71.5767 37.3791 71.4667 37.3991 71.34C37.4191 71.2133 37.4691 71.0867 37.5491 70.96C37.6291 70.8333 37.7591 70.73 37.9391 70.65C38.1191 70.5633 38.3691 70.52 38.6891 70.52H41.4491C41.8491 70.52 42.1325 70.5433 42.2991 70.59C42.4658 70.6367 42.5491 70.6833 42.5491 70.73L42.4491 71.48C42.2558 71.46 41.8991 71.44 41.3791 71.42C40.8591 71.3933 40.2225 71.38 39.4691 71.38H38.9691C38.8025 71.38 38.6958 71.4267 38.6491 71.52C38.6091 71.6067 38.5891 71.71 38.5891 71.83C38.5891 71.9567 38.6091 72.0633 38.6491 72.15C38.6958 72.23 38.8025 72.27 38.9691 72.27H41.4291C41.8825 72.27 42.2158 72.3633 42.4291 72.55C42.6425 72.7367 42.7491 72.9733 42.7491 73.26V73.85C42.7491 73.97 42.7391 74.0967 42.7191 74.23C42.7058 74.3633 42.6591 74.49 42.5791 74.61C42.4991 74.7233 42.3691 74.8167 42.1891 74.89C42.0091 74.9633 41.7558 75 41.4291 75H38.5991ZM44.5561 69.89C44.3094 69.89 44.1294 69.84 44.0161 69.74C43.9028 69.64 43.8461 69.4733 43.8461 69.24C43.8461 69 43.8994 68.8333 44.0061 68.74C44.1194 68.64 44.3028 68.59 44.5561 68.59C44.8094 68.59 44.9928 68.64 45.1061 68.74C45.2194 68.8333 45.2761 69 45.2761 69.24C45.2761 69.4667 45.2194 69.6333 45.1061 69.74C44.9928 69.84 44.8094 69.89 44.5561 69.89ZM43.9461 75V70.52H45.1661V75H43.9461ZM49.763 76.76C49.0297 76.76 48.433 76.7533 47.973 76.74C47.513 76.7267 47.1597 76.7067 46.913 76.68C46.6664 76.6533 46.4964 76.62 46.403 76.58C46.3164 76.54 46.273 76.4967 46.273 76.45L46.573 75.7C46.6797 75.7333 46.8664 75.7733 47.133 75.82C47.4064 75.8733 47.753 75.9 48.173 75.9H49.883C50.1297 75.9 50.303 75.8633 50.403 75.79C50.5097 75.7167 50.563 75.5867 50.563 75.4V74.8C50.2764 74.8533 49.9364 74.9 49.543 74.94C49.1564 74.98 48.7097 75 48.203 75H47.703C47.3697 75 47.113 74.9567 46.933 74.87C46.753 74.7833 46.623 74.6733 46.543 74.54C46.4697 74.4067 46.423 74.2667 46.403 74.12C46.3897 73.9733 46.383 73.84 46.383 73.72V71.8C46.383 71.7 46.3897 71.58 46.403 71.44C46.423 71.2933 46.4697 71.15 46.543 71.01C46.623 70.87 46.753 70.7533 46.933 70.66C47.1197 70.5667 47.3764 70.52 47.703 70.52H48.213C48.913 70.52 49.4564 70.5333 49.843 70.56C50.2364 70.5867 50.523 70.6167 50.703 70.65L50.963 70.52H51.783V75.48C51.783 75.6 51.763 75.7333 51.723 75.88C51.6897 76.0267 51.6197 76.1667 51.513 76.3C51.4064 76.4333 51.253 76.5433 51.053 76.63C50.853 76.7167 50.5897 76.76 50.263 76.76H49.763ZM48.083 74.14H50.253C50.4064 74.14 50.4964 74.1267 50.523 74.1C50.5497 74.0733 50.563 73.9867 50.563 73.84V71.45C50.3364 71.4367 50.0497 71.4233 49.703 71.41C49.3564 71.39 48.9864 71.38 48.593 71.38H48.083C47.763 71.38 47.603 71.5133 47.603 71.78V73.74C47.5964 74.0067 47.7564 74.14 48.083 74.14ZM52.9867 75V70.52H53.8067L54.2067 70.72C54.4867 70.6667 54.8234 70.62 55.2167 70.58C55.6101 70.54 56.0601 70.52 56.5667 70.52H57.0667C57.4001 70.52 57.6567 70.5667 57.8367 70.66C58.0167 70.7533 58.1434 70.87 58.2167 71.01C58.2967 71.15 58.3434 71.2933 58.3567 71.44C58.3767 71.58 58.3867 71.7 58.3867 71.8V75H57.1667V71.78C57.1667 71.5133 57.0067 71.38 56.6867 71.38H54.5067C54.3801 71.38 54.2967 71.3933 54.2567 71.42C54.2234 71.44 54.2067 71.5 54.2067 71.6V75H52.9867ZM63.0267 75C62.5201 75 62.1534 74.8833 61.9267 74.65C61.7001 74.41 61.5867 74.0833 61.5867 73.67C61.5867 73.2367 61.7034 72.9033 61.9367 72.67C62.1767 72.4367 62.5401 72.32 63.0267 72.32H63.5367C64.0367 72.32 64.4867 72.3333 64.8867 72.36C65.2867 72.3867 65.6167 72.4133 65.8767 72.44V71.78C65.8767 71.72 65.8701 71.66 65.8567 71.6C65.8434 71.5333 65.8034 71.48 65.7367 71.44C65.6701 71.4 65.5567 71.38 65.3967 71.38H64.8967C64.1701 71.38 63.5634 71.3933 63.0767 71.42C62.5901 71.44 62.2601 71.46 62.0867 71.48L61.9767 70.72C61.9767 70.6267 62.2301 70.57 62.7367 70.55C63.2434 70.53 64.0901 70.52 65.2767 70.52H65.7767C66.1101 70.52 66.3667 70.5667 66.5467 70.66C66.7267 70.7533 66.8534 70.87 66.9267 71.01C67.0067 71.15 67.0534 71.2933 67.0667 71.44C67.0867 71.58 67.0967 71.7 67.0967 71.8V75H66.2767L65.8867 74.8C65.6067 74.8467 65.2701 74.8933 64.8767 74.94C64.4834 74.98 64.0334 75 63.5267 75H63.0267ZM63.2867 74.14H65.5767C65.7234 74.14 65.8101 74.1267 65.8367 74.1C65.8634 74.0733 65.8767 73.99 65.8767 73.85V73.08H63.2867C63.1067 73.08 62.9801 73.1233 62.9067 73.21C62.8401 73.2967 62.8067 73.4333 62.8067 73.62C62.8067 73.8067 62.8467 73.94 62.9267 74.02C63.0067 74.1 63.1267 74.14 63.2867 74.14ZM68.2504 75V70.52H69.0704L69.4704 70.72C69.7504 70.6667 70.0871 70.62 70.4804 70.58C70.8737 70.54 71.3237 70.52 71.8304 70.52H72.3304C72.6637 70.52 72.9204 70.5667 73.1004 70.66C73.2804 70.7533 73.4071 70.87 73.4804 71.01C73.5604 71.15 73.6071 71.2933 73.6204 71.44C73.6404 71.58 73.6504 71.7 73.6504 71.8V75H72.4304V71.78C72.4304 71.5133 72.2704 71.38 71.9504 71.38H69.7704C69.6437 71.38 69.5604 71.3933 69.5204 71.42C69.4871 71.44 69.4704 71.5 69.4704 71.6V75H68.2504ZM76.0231 75C75.6898 75 75.4331 74.9567 75.2531 74.87C75.0731 74.7833 74.9431 74.6733 74.8631 74.54C74.7898 74.4067 74.7431 74.2667 74.7231 74.12C74.7098 73.9733 74.7031 73.84 74.7031 73.72V71.8C74.7031 71.7 74.7098 71.58 74.7231 71.44C74.7431 71.2933 74.7898 71.15 74.8631 71.01C74.9431 70.87 75.0731 70.7533 75.2531 70.66C75.4398 70.5667 75.6965 70.52 76.0231 70.52H76.5331C77.1465 70.52 77.6398 70.5333 78.0131 70.56C78.3931 70.58 78.6831 70.6033 78.8831 70.63V68.66H80.1031V75H79.2831L78.8931 74.8C78.6131 74.8467 78.2765 74.8933 77.8831 74.94C77.4898 74.98 77.0365 75 76.5231 75H76.0231ZM76.4031 74.14H78.5731C78.7131 74.14 78.7998 74.1233 78.8331 74.09C78.8665 74.0567 78.8831 73.9733 78.8831 73.84V71.45C78.6565 71.4367 78.3698 71.4233 78.0231 71.41C77.6765 71.39 77.3065 71.38 76.9131 71.38H76.4031C76.0831 71.38 75.9231 71.5133 75.9231 71.78V73.74C75.9231 74.0067 76.0831 74.14 76.4031 74.14ZM8.53 87C8.05667 87 7.68667 86.9333 7.42 86.8C7.15333 86.6667 6.96667 86.4667 6.86 86.2C6.75333 85.9333 6.7 85.6033 6.7 85.21V82.98C6.7 82.34 6.84333 81.87 7.13 81.57C7.41667 81.2633 7.88333 81.11 8.53 81.11H11.54C12 81.11 12.35 81.1367 12.59 81.19C12.8367 81.2367 12.96 81.2867 12.96 81.34L12.76 82.17C12.6467 82.15 12.31 82.13 11.75 82.11C11.1967 82.0833 10.39 82.07 9.33 82.07H8.82C8.28667 82.07 8.02 82.3067 8.02 82.78V85.33C8.02 85.5567 8.07667 85.7333 8.19 85.86C8.31 85.98 8.52 86.04 8.82 86.04H9.23C10.3367 86.04 11.1933 86.03 11.8 86.01C12.4133 85.9833 12.7933 85.9567 12.94 85.93L13.35 86.59C13.35 86.6233 13.2933 86.6733 13.18 86.74C13.0733 86.8067 12.8733 86.8667 12.58 86.92C12.2867 86.9733 11.8633 87 11.31 87H8.53ZM15.4688 87C15.1422 87 14.8855 86.9567 14.6988 86.87C14.5188 86.7833 14.3888 86.6733 14.3088 86.54C14.2355 86.4067 14.1888 86.2667 14.1688 86.12C14.1555 85.9733 14.1488 85.84 14.1488 85.72V82.52H15.3688V85.74C15.3622 85.8867 15.4088 85.99 15.5088 86.05C15.6155 86.11 15.7288 86.14 15.8488 86.14H17.8288C17.9755 86.14 18.0622 86.1267 18.0888 86.1C18.1155 86.0733 18.1288 85.9867 18.1288 85.84V82.52H19.3488V87H18.5288L18.1488 86.8C17.8822 86.8533 17.5655 86.9 17.1988 86.94C16.8388 86.98 16.4322 87 15.9788 87H15.4688ZM22.2853 87C21.7786 87 21.432 86.8933 21.2453 86.68C21.0586 86.4667 20.9653 86.1467 20.9653 85.72V83.38H20.1453V82.52H20.5653C20.692 82.52 20.782 82.5 20.8353 82.46C20.8953 82.42 20.9386 82.34 20.9653 82.22L21.1653 81.15H22.1853V82.52H24.2653V83.38H22.1853V85.73C22.1853 85.8967 22.2253 86.0067 22.3053 86.06C22.3853 86.1133 22.5053 86.14 22.6653 86.14H24.0753L24.1753 86.9C24.0353 86.92 23.822 86.9433 23.5353 86.97C23.2486 86.99 22.9353 87 22.5953 87H22.2853ZM26.8068 87C26.3001 87 25.9535 86.8933 25.7668 86.68C25.5801 86.4667 25.4868 86.1467 25.4868 85.72V83.38H24.6668V82.52H25.0868C25.2135 82.52 25.3035 82.5 25.3568 82.46C25.4168 82.42 25.4601 82.34 25.4868 82.22L25.6868 81.15H26.7068V82.52H28.7868V83.38H26.7068V85.73C26.7068 85.8967 26.7468 86.0067 26.8268 86.06C26.9068 86.1133 27.0268 86.14 27.1868 86.14H28.5968L28.6968 86.9C28.5568 86.92 28.3435 86.9433 28.0568 86.97C27.7701 86.99 27.4568 87 27.1168 87H26.8068ZM30.2983 81.89C30.0516 81.89 29.8716 81.84 29.7583 81.74C29.6449 81.64 29.5883 81.4733 29.5883 81.24C29.5883 81 29.6416 80.8333 29.7483 80.74C29.8616 80.64 30.0449 80.59 30.2983 80.59C30.5516 80.59 30.7349 80.64 30.8483 80.74C30.9616 80.8333 31.0183 81 31.0183 81.24C31.0183 81.4667 30.9616 81.6333 30.8483 81.74C30.7349 81.84 30.5516 81.89 30.2983 81.89ZM29.6883 87V82.52H30.9083V87H29.6883ZM32.2152 87V82.52H33.0352L33.4352 82.72C33.7152 82.6667 34.0519 82.62 34.4452 82.58C34.8386 82.54 35.2886 82.52 35.7952 82.52H36.2952C36.6286 82.52 36.8852 82.5667 37.0652 82.66C37.2452 82.7533 37.3719 82.87 37.4452 83.01C37.5252 83.15 37.5719 83.2933 37.5852 83.44C37.6052 83.58 37.6152 83.7 37.6152 83.8V87H36.3952V83.78C36.3952 83.5133 36.2352 83.38 35.9152 83.38H33.7352C33.6086 83.38 33.5252 83.3933 33.4852 83.42C33.4519 83.44 33.4352 83.5 33.4352 83.6V87H32.2152ZM42.058 88.76C41.3246 88.76 40.728 88.7533 40.268 88.74C39.808 88.7267 39.4546 88.7067 39.208 88.68C38.9613 88.6533 38.7913 88.62 38.698 88.58C38.6113 88.54 38.568 88.4967 38.568 88.45L38.868 87.7C38.9746 87.7333 39.1613 87.7733 39.428 87.82C39.7013 87.8733 40.048 87.9 40.468 87.9H42.178C42.4246 87.9 42.598 87.8633 42.698 87.79C42.8046 87.7167 42.858 87.5867 42.858 87.4V86.8C42.5713 86.8533 42.2313 86.9 41.838 86.94C41.4513 86.98 41.0046 87 40.498 87H39.998C39.6646 87 39.408 86.9567 39.228 86.87C39.048 86.7833 38.918 86.6733 38.838 86.54C38.7646 86.4067 38.718 86.2667 38.698 86.12C38.6846 85.9733 38.678 85.84 38.678 85.72V83.8C38.678 83.7 38.6846 83.58 38.698 83.44C38.718 83.2933 38.7646 83.15 38.838 83.01C38.918 82.87 39.048 82.7533 39.228 82.66C39.4146 82.5667 39.6713 82.52 39.998 82.52H40.508C41.208 82.52 41.7513 82.5333 42.138 82.56C42.5313 82.5867 42.818 82.6167 42.998 82.65L43.258 82.52H44.078V87.48C44.078 87.6 44.058 87.7333 44.018 87.88C43.9846 88.0267 43.9146 88.1667 43.808 88.3C43.7013 88.4333 43.548 88.5433 43.348 88.63C43.148 88.7167 42.8846 88.76 42.558 88.76H42.058ZM40.378 86.14H42.548C42.7013 86.14 42.7913 86.1267 42.818 86.1C42.8446 86.0733 42.858 85.9867 42.858 85.84V83.45C42.6313 83.4367 42.3446 83.4233 41.998 83.41C41.6513 83.39 41.2813 83.38 40.888 83.38H40.378C40.058 83.38 39.898 83.5133 39.898 83.78V85.74C39.8913 86.0067 40.0513 86.14 40.378 86.14Z" fill="white"/>
<path d="M33.2857 7C32.9447 7 32.6177 7.07747 32.3766 7.21536C32.1355 7.35326 32 7.54028 32 7.73529V11.4118C32 12.1918 32.5418 12.9399 33.5063 13.4915C34.4708 14.0431 35.7789 14.3529 37.1429 14.3529H62.8571C64.2211 14.3529 65.5292 14.0431 66.4937 13.4915C67.4582 12.9399 68 12.1918 68 11.4118V7.73529C68 7.54028 67.8645 7.35326 67.6234 7.21536C67.3823 7.07747 67.0553 7 66.7143 7H33.2857ZM51.2857 18.7647H61.5714C62.5944 18.7647 63.5755 18.5323 64.2988 18.1186C65.0222 17.7049 65.4286 17.1439 65.4286 16.5588V15.8235H34.5714V16.5588C34.5714 17.1439 34.9778 17.7049 35.7012 18.1186C36.4245 18.5323 37.4056 18.7647 38.4286 18.7647H48.7143V22.4412C48.7143 22.6362 48.8497 22.8232 49.0909 22.9611C49.332 23.099 49.659 23.1765 50 23.1765C50.341 23.1765 50.668 23.099 50.9091 22.9611C51.1503 22.8232 51.2857 22.6362 51.2857 22.4412V18.7647ZM37.1429 25.3824C37.1429 25.1873 37.2783 25.0003 37.5194 24.8624C37.7606 24.7245 38.0876 24.6471 38.4286 24.6471H42.2857C42.6267 24.6471 42.9537 24.7245 43.1949 24.8624C43.436 25.0003 43.5714 25.1873 43.5714 25.3824C43.5714 25.5774 43.436 25.7644 43.1949 25.9023C42.9537 26.0402 42.6267 26.1176 42.2857 26.1176H38.4286C38.0876 26.1176 37.7606 26.0402 37.5194 25.9023C37.2783 25.7644 37.1429 25.5774 37.1429 25.3824ZM57.7143 24.6471C57.3733 24.6471 57.0463 24.7245 56.8051 24.8624C56.564 25.0003 56.4286 25.1873 56.4286 25.3824C56.4286 25.5774 56.564 25.7644 56.8051 25.9023C57.0463 26.0402 57.3733 26.1176 57.7143 26.1176H61.5714C61.9124 26.1176 62.2394 26.0402 62.4806 25.9023C62.7217 25.7644 62.8571 25.5774 62.8571 25.3824C62.8571 25.1873 62.7217 25.0003 62.4806 24.8624C62.2394 24.7245 61.9124 24.6471 61.5714 24.6471H57.7143ZM51.2857 25.3824C51.2857 25.5774 51.1503 25.7644 50.9091 25.9023C50.668 26.0402 50.341 26.1176 50 26.1176C49.659 26.1176 49.332 26.0402 49.0909 25.9023C48.8497 25.7644 48.7143 25.5774 48.7143 25.3824C48.7143 25.1873 48.8497 25.0003 49.0909 24.8624C49.332 24.7245 49.659 24.6471 50 24.6471C50.341 24.6471 50.668 24.7245 50.9091 24.8624C51.1503 25.0003 51.2857 25.1873 51.2857 25.3824ZM51.2857 28.3235C51.2857 28.1285 51.1503 27.9415 50.9091 27.8036C50.668 27.6657 50.341 27.5882 50 27.5882C49.659 27.5882 49.332 27.6657 49.0909 27.8036C48.8497 27.9415 48.7143 28.1285 48.7143 28.3235V31.2647C48.7143 31.4597 48.8497 31.6467 49.0909 31.7846C49.332 31.9225 49.659 32 50 32C50.341 32 50.668 31.9225 50.9091 31.7846C51.1503 31.6467 51.2857 31.4597 51.2857 31.2647V28.3235ZM47.0531 26.3324C47.1729 26.4007 47.2679 26.4818 47.3327 26.5711C47.3975 26.6605 47.4309 26.7562 47.4309 26.8529C47.4309 26.9497 47.3975 27.0454 47.3327 27.1348C47.2679 27.2241 47.1729 27.3052 47.0531 27.3735L43.196 29.5794C42.9546 29.7175 42.6271 29.795 42.2857 29.795C41.9443 29.795 41.6169 29.7175 41.3754 29.5794C41.134 29.4413 40.9984 29.2541 40.9984 29.0588C40.9984 28.8636 41.134 28.6763 41.3754 28.5382L45.2326 26.3324C45.352 26.2639 45.4939 26.2095 45.6501 26.1725C45.8063 26.1354 45.9737 26.1163 46.1429 26.1163C46.312 26.1163 46.4794 26.1354 46.6356 26.1725C46.7918 26.2095 46.9337 26.2639 47.0531 26.3324ZM52.9469 27.3735C52.7054 27.2355 52.5698 27.0482 52.5698 26.8529C52.5698 26.6577 52.7054 26.4704 52.9469 26.3324C53.1883 26.1943 53.5157 26.1167 53.8571 26.1167C54.1986 26.1167 54.526 26.1943 54.7674 26.3324L58.6246 28.5382C58.866 28.6763 59.0016 28.8636 59.0016 29.0588C59.0016 29.2541 58.866 29.4413 58.6246 29.5794C58.3831 29.7175 58.0557 29.795 57.7143 29.795C57.3729 29.795 57.0454 29.7175 56.804 29.5794L52.9469 27.3735Z" fill="#EF8D7A"/>
<path d="M47.5062 47.4938L55.25 38M44.75 38L52.4938 47.4938M43 49.375C43 49.7197 43.0679 50.0611 43.1998 50.3795C43.3317 50.698 43.5251 50.9874 43.7688 51.2312C44.0126 51.4749 44.302 51.6683 44.6205 51.8002C44.9389 51.9321 45.2803 52 45.625 52C45.9697 52 46.3111 51.9321 46.6295 51.8002C46.948 51.6683 47.2374 51.4749 47.4812 51.2312C47.7249 50.9874 47.9183 50.698 48.0502 50.3795C48.1821 50.0611 48.25 49.7197 48.25 49.375C48.25 49.0303 48.1821 48.6889 48.0502 48.3705C47.9183 48.052 47.7249 47.7626 47.4812 47.5188C47.2374 47.2751 46.948 47.0817 46.6295 46.9498C46.3111 46.8179 45.9697 46.75 45.625 46.75C45.2803 46.75 44.9389 46.8179 44.6205 46.9498C44.302 47.0817 44.0126 47.2751 43.7688 47.5188C43.5251 47.7626 43.3317 48.052 43.1998 48.3705C43.0679 48.6889 43 49.0303 43 49.375ZM51.75 49.375C51.75 50.0712 52.0266 50.7389 52.5188 51.2312C53.0111 51.7234 53.6788 52 54.375 52C55.0712 52 55.7389 51.7234 56.2312 51.2312C56.7234 50.7389 57 50.0712 57 49.375C57 48.6788 56.7234 48.0111 56.2312 47.5188C55.7389 47.0266 55.0712 46.75 54.375 46.75C53.6788 46.75 53.0111 47.0266 52.5188 47.5188C52.0266 48.0111 51.75 48.6788 51.75 49.375Z" stroke="white" stroke-width="2" stroke-linecap="round" stroke-linejoin="round"/>
</svg>
