<svg viewBox="0 0 100 100" fill="none" xmlns="http://www.w3.org/2000/svg">
<rect fill="black"/>
<path d="M8.25 63L6.1 57.13H7.5L8.91 60.97L9.14 61.94H9.24L9.37 61.26L10.7 57.13H12.4L13.79 61.26L13.97 61.94H14.07L14.3 60.97L15.61 57.13H17.01L16.91 57.73L14.85 63H13.15L11.79 59.07L11.59 58.43H11.49L11.3 59.07L9.95 63H8.25ZM18.5329 63C18.1996 63 17.9429 62.9567 17.7629 62.87C17.5829 62.7833 17.4529 62.6733 17.3729 62.54C17.2996 62.4067 17.2529 62.2667 17.2329 62.12C17.2196 61.9733 17.2129 61.84 17.2129 61.72V59.8C17.2129 59.7 17.2196 59.58 17.2329 59.44C17.2529 59.2933 17.2996 59.15 17.3729 59.01C17.4529 58.87 17.5829 58.7533 17.7629 58.66C17.9496 58.5667 18.2062 58.52 18.5329 58.52H20.6829C21.1229 58.52 21.4662 58.5633 21.7129 58.65C21.9662 58.73 22.1429 58.8633 22.2429 59.05C22.3496 59.2367 22.4029 59.4867 22.4029 59.8V61.28H20.6529C20.0529 61.28 19.5629 61.2667 19.1829 61.24C18.8096 61.2133 18.5596 61.1967 18.4329 61.19V61.74C18.4262 62.0067 18.5862 62.14 18.9129 62.14H19.4229C19.7829 62.14 20.1329 62.1367 20.4729 62.13C20.8196 62.1167 21.1362 62.1033 21.4229 62.09C21.7096 62.07 21.9396 62.0533 22.1129 62.04L22.5129 62.69C22.5129 62.8967 21.8562 63 20.5429 63H18.5329ZM18.4329 60.42H21.1829V59.78C21.1829 59.6467 21.1662 59.5533 21.1329 59.5C21.1062 59.4467 21.0196 59.4133 20.8729 59.4C20.7262 59.3867 20.4762 59.38 20.1229 59.38H18.9129C18.5929 59.38 18.4329 59.5133 18.4329 59.78V60.42ZM24.7341 63C24.4007 63 24.1441 62.9567 23.9641 62.87C23.7841 62.7833 23.6541 62.6733 23.5741 62.54C23.5007 62.4067 23.4541 62.2667 23.4341 62.12C23.4207 61.9733 23.4141 61.84 23.4141 61.72V59.8C23.4141 59.7 23.4207 59.58 23.4341 59.44C23.4541 59.2933 23.5007 59.15 23.5741 59.01C23.6541 58.87 23.7841 58.7533 23.9641 58.66C24.1507 58.5667 24.4074 58.52 24.7341 58.52H26.8841C27.3241 58.52 27.6674 58.5633 27.9141 58.65C28.1674 58.73 28.3441 58.8633 28.4441 59.05C28.5507 59.2367 28.6041 59.4867 28.6041 59.8V61.28H26.8541C26.2541 61.28 25.7641 61.2667 25.3841 61.24C25.0107 61.2133 24.7607 61.1967 24.6341 61.19V61.74C24.6274 62.0067 24.7874 62.14 25.1141 62.14H25.6241C25.9841 62.14 26.3341 62.1367 26.6741 62.13C27.0207 62.1167 27.3374 62.1033 27.6241 62.09C27.9107 62.07 28.1407 62.0533 28.3141 62.04L28.7141 62.69C28.7141 62.8967 28.0574 63 26.7441 63H24.7341ZM24.6341 60.42H27.3841V59.78C27.3841 59.6467 27.3674 59.5533 27.3341 59.5C27.3074 59.4467 27.2207 59.4133 27.0741 59.4C26.9274 59.3867 26.6774 59.38 26.3241 59.38H25.1141C24.7941 59.38 24.6341 59.5133 24.6341 59.78V60.42ZM34.5052 63.1C34.2252 63.1 33.9852 63.0667 33.7852 63C33.5919 62.9333 33.3852 62.79 33.1652 62.57C33.1452 62.55 33.0919 62.4967 33.0052 62.41C32.9186 62.3233 32.8219 62.2267 32.7152 62.12C32.6152 62.0133 32.5219 61.9167 32.4352 61.83C32.3486 61.7433 32.2919 61.6867 32.2652 61.66C32.0986 61.4933 31.9386 61.3633 31.7852 61.27C31.6386 61.1767 31.4552 61.13 31.2352 61.13C31.0886 61.13 31.0019 61.1433 30.9752 61.17C30.9486 61.1967 30.9352 61.2867 30.9352 61.44V63H29.7152V56.67H30.9352V60.27H31.2552C31.3752 60.27 31.4819 60.2233 31.5752 60.13C31.6352 60.07 31.7486 59.95 31.9152 59.77C32.0819 59.59 32.2686 59.3867 32.4752 59.16C32.6886 58.9333 32.8819 58.7233 33.0552 58.53H34.5252L34.3652 58.84C34.2119 59 34.0452 59.17 33.8652 59.35C33.6852 59.5233 33.5086 59.6933 33.3352 59.86C33.1686 60.02 33.0152 60.1633 32.8752 60.29C32.7352 60.41 32.6286 60.49 32.5552 60.53C32.7552 60.6367 32.9352 60.76 33.0952 60.9C33.2552 61.0333 33.4286 61.1867 33.6152 61.36C33.8019 61.5267 34.0252 61.7167 34.2852 61.93C34.5186 62.1167 34.7352 62.2267 34.9352 62.26C35.1352 62.2867 35.2552 62.3 35.2952 62.3L35.1152 63C35.0486 63.02 34.9586 63.04 34.8452 63.06C34.7319 63.0867 34.6186 63.1 34.5052 63.1ZM39.8341 63C39.3875 63 39.0308 62.98 38.7641 62.94C38.4975 62.9 38.2975 62.8567 38.1641 62.81C38.0375 62.7567 37.9475 62.72 37.8941 62.7L38.2841 61.93C38.4308 61.9433 38.7808 61.9667 39.3341 62C39.8875 62.0267 40.7175 62.04 41.8241 62.04C42.1175 62.04 42.3208 61.9767 42.4341 61.85C42.5475 61.7167 42.6041 61.5433 42.6041 61.33V60.95C42.6041 60.7567 42.5475 60.59 42.4341 60.45C42.3275 60.31 42.1208 60.24 41.8141 60.24H38.9941L38.1941 60.34V57.12H42.7141C43.0475 57.12 43.2841 57.1333 43.4241 57.16C43.5641 57.1867 43.6341 57.2133 43.6341 57.24L43.4341 58.08H39.5141V59.45C39.6008 59.4367 39.7741 59.42 40.0341 59.4C40.3008 59.38 40.6608 59.37 41.1141 59.37H41.9041C42.6508 59.37 43.1741 59.5067 43.4741 59.78C43.7741 60.0467 43.9241 60.4467 43.9241 60.98V61.21C43.9241 61.4167 43.9075 61.6267 43.8741 61.84C43.8408 62.0467 43.7675 62.24 43.6541 62.42C43.5408 62.5933 43.3608 62.7333 43.1141 62.84C42.8675 62.9467 42.5308 63 42.1041 63H39.8341Z" fill="#EF8D7A"/>
<path d="M8.32 75C7.82 75 7.43667 74.98 7.17 74.94C6.90333 74.9 6.71667 74.8567 6.61 74.81C6.50333 74.7567 6.43333 74.72 6.4 74.7L6.79 73.93C6.83 73.9367 6.91 73.9467 7.03 73.96C7.15 73.9733 7.33333 73.9867 7.58 74C7.83333 74.0067 8.17333 74.0167 8.6 74.03C9.02667 74.0367 9.56333 74.04 10.21 74.04C10.4567 74.04 10.6433 74.0067 10.77 73.94C10.8967 73.8733 10.98 73.7867 11.02 73.68C11.0667 73.5667 11.09 73.45 11.09 73.33V73.09C11.09 72.9167 11.0433 72.7733 10.95 72.66C10.8567 72.54 10.6733 72.48 10.4 72.48H7.56V71.6H9.89C10.2033 71.6 10.43 71.54 10.57 71.42C10.71 71.2933 10.78 71.1367 10.78 70.95V70.64C10.78 70.4533 10.7267 70.2967 10.62 70.17C10.5133 70.0433 10.3067 69.98 10 69.98H9.72C9.37333 69.98 9.01 69.9933 8.63 70.02C8.25 70.04 7.89333 70.0667 7.56 70.1C7.22667 70.1267 6.95667 70.1533 6.75 70.18L6.65 69.27C6.77667 69.25 7.00333 69.22 7.33 69.18C7.65667 69.14 8.05 69.1033 8.51 69.07C8.97 69.0367 9.46667 69.02 10 69.02H10.28C10.6867 69.02 11.01 69.07 11.25 69.17C11.49 69.2633 11.67 69.39 11.79 69.55C11.9167 69.7033 12 69.8733 12.04 70.06C12.08 70.24 12.1 70.4167 12.1 70.59V70.76C12.1 71.06 12.03 71.2933 11.89 71.46C11.75 71.6267 11.62 71.75 11.5 71.83C11.7933 71.9167 12.0167 72.0667 12.17 72.28C12.33 72.4933 12.41 72.7567 12.41 73.07V73.31C12.41 73.5033 12.3833 73.7 12.33 73.9C12.2833 74.1 12.1867 74.2833 12.04 74.45C11.8933 74.6167 11.68 74.75 11.4 74.85C11.12 74.95 10.75 75 10.29 75H8.32ZM13.8141 75V69.92L13.7141 69.12H18.3541C18.8941 69.12 19.3074 69.1867 19.5941 69.32C19.8874 69.4533 20.0907 69.6533 20.2041 69.92C20.3174 70.18 20.3741 70.5067 20.3741 70.9V73.21C20.3741 73.61 20.3174 73.9433 20.2041 74.21C20.0974 74.47 19.8974 74.6667 19.6041 74.8C19.3174 74.9333 18.9007 75 18.3541 75H13.8141ZM15.1341 74.04H18.2741C18.7874 74.04 19.0474 73.8033 19.0541 73.33V70.78C19.0541 70.5867 18.9974 70.4233 18.8841 70.29C18.7707 70.15 18.5674 70.08 18.2741 70.08H15.1341V74.04ZM24.068 75V69.92L23.968 69.12H28.608C29.148 69.12 29.5613 69.1867 29.848 69.32C30.1413 69.4533 30.3446 69.6533 30.458 69.92C30.5713 70.18 30.628 70.5067 30.628 70.9V73.21C30.628 73.61 30.5713 73.9433 30.458 74.21C30.3513 74.47 30.1513 74.6667 29.858 74.8C29.5713 74.9333 29.1546 75 28.608 75H24.068ZM25.388 74.04H28.528C29.0413 74.04 29.3013 73.8033 29.308 73.33V70.78C29.308 70.5867 29.2513 70.4233 29.138 70.29C29.0246 70.15 28.8213 70.08 28.528 70.08H25.388V74.04ZM33.0446 75C32.7113 75 32.4546 74.9567 32.2746 74.87C32.0946 74.7833 31.9646 74.6733 31.8846 74.54C31.8113 74.4067 31.7646 74.2667 31.7446 74.12C31.7313 73.9733 31.7246 73.84 31.7246 73.72V71.8C31.7246 71.7 31.7313 71.58 31.7446 71.44C31.7646 71.2933 31.8113 71.15 31.8846 71.01C31.9646 70.87 32.0946 70.7533 32.2746 70.66C32.4613 70.5667 32.7179 70.52 33.0446 70.52H35.1946C35.6346 70.52 35.9779 70.5633 36.2246 70.65C36.4779 70.73 36.6546 70.8633 36.7546 71.05C36.8613 71.2367 36.9146 71.4867 36.9146 71.8V73.28H35.1646C34.5646 73.28 34.0746 73.2667 33.6946 73.24C33.3213 73.2133 33.0713 73.1967 32.9446 73.19V73.74C32.9379 74.0067 33.0979 74.14 33.4246 74.14H33.9346C34.2946 74.14 34.6446 74.1367 34.9846 74.13C35.3313 74.1167 35.6479 74.1033 35.9346 74.09C36.2213 74.07 36.4513 74.0533 36.6246 74.04L37.0246 74.69C37.0246 74.8967 36.3679 75 35.0546 75H33.0446ZM32.9446 72.42H35.6946V71.78C35.6946 71.6467 35.6779 71.5533 35.6446 71.5C35.6179 71.4467 35.5313 71.4133 35.3846 71.4C35.2379 71.3867 34.9879 71.38 34.6346 71.38H33.4246C33.1046 71.38 32.9446 71.5133 32.9446 71.78V72.42ZM39.1558 75C38.7091 75 38.3924 74.9767 38.2058 74.93C38.0191 74.8833 37.9258 74.8367 37.9258 74.79L38.2258 74.04C38.4191 74.06 38.7724 74.0833 39.2858 74.11C39.8058 74.13 40.4458 74.14 41.2058 74.14H41.7058C41.8724 74.14 41.9758 74.0967 42.0158 74.01C42.0624 73.9167 42.0858 73.7933 42.0858 73.64C42.0858 73.4867 42.0591 73.3633 42.0058 73.27C41.9591 73.1767 41.8591 73.13 41.7058 73.13H39.2458C38.7791 73.13 38.4424 73.0433 38.2358 72.87C38.0291 72.69 37.9258 72.4233 37.9258 72.07V71.67C37.9258 71.5767 37.9358 71.4667 37.9558 71.34C37.9758 71.2133 38.0258 71.0867 38.1058 70.96C38.1858 70.8333 38.3158 70.73 38.4958 70.65C38.6758 70.5633 38.9258 70.52 39.2458 70.52H42.0058C42.4058 70.52 42.6891 70.5433 42.8558 70.59C43.0224 70.6367 43.1058 70.6833 43.1058 70.73L43.0058 71.48C42.8124 71.46 42.4558 71.44 41.9358 71.42C41.4158 71.3933 40.7791 71.38 40.0258 71.38H39.5258C39.3591 71.38 39.2524 71.4267 39.2058 71.52C39.1658 71.6067 39.1458 71.71 39.1458 71.83C39.1458 71.9567 39.1658 72.0633 39.2058 72.15C39.2524 72.23 39.3591 72.27 39.5258 72.27H41.9858C42.4391 72.27 42.7724 72.3633 42.9858 72.55C43.1991 72.7367 43.3058 72.9733 43.3058 73.26V73.85C43.3058 73.97 43.2958 74.0967 43.2758 74.23C43.2624 74.3633 43.2158 74.49 43.1358 74.61C43.0558 74.7233 42.9258 74.8167 42.7458 74.89C42.5658 74.9633 42.3124 75 41.9858 75H39.1558ZM45.1127 69.89C44.8661 69.89 44.6861 69.84 44.5727 69.74C44.4594 69.64 44.4027 69.4733 44.4027 69.24C44.4027 69 44.4561 68.8333 44.5627 68.74C44.6761 68.64 44.8594 68.59 45.1127 68.59C45.3661 68.59 45.5494 68.64 45.6627 68.74C45.7761 68.8333 45.8327 69 45.8327 69.24C45.8327 69.4667 45.7761 69.6333 45.6627 69.74C45.5494 69.84 45.3661 69.89 45.1127 69.89ZM44.5027 75V70.52H45.7227V75H44.5027ZM50.3197 76.76C49.5864 76.76 48.9897 76.7533 48.5297 76.74C48.0697 76.7267 47.7164 76.7067 47.4697 76.68C47.223 76.6533 47.053 76.62 46.9597 76.58C46.873 76.54 46.8297 76.4967 46.8297 76.45L47.1297 75.7C47.2364 75.7333 47.423 75.7733 47.6897 75.82C47.963 75.8733 48.3097 75.9 48.7297 75.9H50.4397C50.6864 75.9 50.8597 75.8633 50.9597 75.79C51.0664 75.7167 51.1197 75.5867 51.1197 75.4V74.8C50.833 74.8533 50.493 74.9 50.0997 74.94C49.713 74.98 49.2664 75 48.7597 75H48.2597C47.9264 75 47.6697 74.9567 47.4897 74.87C47.3097 74.7833 47.1797 74.6733 47.0997 74.54C47.0264 74.4067 46.9797 74.2667 46.9597 74.12C46.9464 73.9733 46.9397 73.84 46.9397 73.72V71.8C46.9397 71.7 46.9464 71.58 46.9597 71.44C46.9797 71.2933 47.0264 71.15 47.0997 71.01C47.1797 70.87 47.3097 70.7533 47.4897 70.66C47.6764 70.5667 47.933 70.52 48.2597 70.52H48.7697C49.4697 70.52 50.013 70.5333 50.3997 70.56C50.793 70.5867 51.0797 70.6167 51.2597 70.65L51.5197 70.52H52.3397V75.48C52.3397 75.6 52.3197 75.7333 52.2797 75.88C52.2464 76.0267 52.1764 76.1667 52.0697 76.3C51.963 76.4333 51.8097 76.5433 51.6097 76.63C51.4097 76.7167 51.1464 76.76 50.8197 76.76H50.3197ZM48.6397 74.14H50.8097C50.963 74.14 51.053 74.1267 51.0797 74.1C51.1064 74.0733 51.1197 73.9867 51.1197 73.84V71.45C50.893 71.4367 50.6064 71.4233 50.2597 71.41C49.913 71.39 49.543 71.38 49.1497 71.38H48.6397C48.3197 71.38 48.1597 71.5133 48.1597 71.78V73.74C48.153 74.0067 48.313 74.14 48.6397 74.14ZM53.5434 75V70.52H54.3634L54.7634 70.72C55.0434 70.6667 55.38 70.62 55.7734 70.58C56.1667 70.54 56.6167 70.52 57.1234 70.52H57.6234C57.9567 70.52 58.2134 70.5667 58.3934 70.66C58.5734 70.7533 58.7 70.87 58.7734 71.01C58.8534 71.15 58.9 71.2933 58.9134 71.44C58.9334 71.58 58.9434 71.7 58.9434 71.8V75H57.7234V71.78C57.7234 71.5133 57.5634 71.38 57.2434 71.38H55.0634C54.9367 71.38 54.8534 71.3933 54.8134 71.42C54.78 71.44 54.7634 71.5 54.7634 71.6V75H53.5434ZM68.6834 75.1C68.3367 75.1 68.0467 75.0467 67.8134 74.94C67.58 74.8333 67.3467 74.6833 67.1134 74.49C66.9934 74.57 66.85 74.65 66.6834 74.73C66.5234 74.8033 66.3067 74.8667 66.0334 74.92C65.76 74.9667 65.4034 74.99 64.9634 74.99H64.1234C63.71 74.99 63.3834 74.9233 63.1434 74.79C62.91 74.6567 62.7434 74.47 62.6434 74.23C62.5434 73.99 62.4934 73.71 62.4934 73.39V73.05C62.4934 72.53 62.5967 72.13 62.8034 71.85C63.01 71.57 63.3067 71.3867 63.6934 71.3C63.62 71.2067 63.5467 71.0833 63.4734 70.93C63.4067 70.77 63.3734 70.5767 63.3734 70.35V70.21C63.3734 70.05 63.4167 69.8867 63.5034 69.72C63.5967 69.5467 63.7467 69.4033 63.9534 69.29C64.16 69.17 64.4434 69.11 64.8034 69.11H65.8434C66.1767 69.11 66.4334 69.15 66.6134 69.23C66.7934 69.3033 66.92 69.4 66.9934 69.52C67.0734 69.64 67.12 69.7633 67.1334 69.89C67.1534 70.0167 67.1634 70.13 67.1634 70.23V70.6C67.1634 70.7133 67.13 70.7967 67.0634 70.85C67.0034 70.8967 66.92 70.92 66.8134 70.92H65.9634V70.43C65.9634 70.3167 65.9367 70.23 65.8834 70.17C65.83 70.1033 65.7367 70.07 65.6034 70.07H65.1134C64.9667 70.07 64.86 70.1033 64.7934 70.17C64.7334 70.23 64.7034 70.3167 64.7034 70.43C64.7034 70.6167 64.7434 70.7667 64.8234 70.88C64.9034 70.9867 65.0467 71.1167 65.2534 71.27C65.4934 71.4367 65.73 71.6067 65.9634 71.78C66.2034 71.9467 66.4267 72.1233 66.6334 72.31C66.74 72.4033 66.8567 72.5133 66.9834 72.64C67.11 72.76 67.2267 72.8733 67.3334 72.98C67.44 73.0867 67.51 73.16 67.5434 73.2L67.6434 73.13V71.35L69.0534 71.45V72.29C69.0534 72.43 69.0334 72.5533 68.9934 72.66C68.96 72.7667 68.8867 72.8767 68.7734 72.99C68.6667 73.0967 68.56 73.2033 68.4534 73.31C68.3467 73.4167 68.24 73.5233 68.1334 73.63C68.3667 73.8567 68.6134 74.02 68.8734 74.12C69.14 74.22 69.36 74.27 69.5334 74.27L69.4134 74.99C69.36 75.0167 69.2667 75.04 69.1334 75.06C69.0067 75.0867 68.8567 75.1 68.6834 75.1ZM64.4634 73.9H65.7134C65.9867 73.9 66.1767 73.8767 66.2834 73.83C66.3967 73.7833 66.46 73.7533 66.4734 73.74C66.3067 73.58 66.1067 73.3833 65.8734 73.15C65.64 72.9167 65.3767 72.68 65.0834 72.44C64.83 72.2333 64.59 72.13 64.3634 72.13C64.19 72.13 64.0467 72.19 63.9334 72.31C63.8267 72.4233 63.7734 72.58 63.7734 72.78V73.2C63.7734 73.4467 63.8267 73.6267 63.9334 73.74C64.04 73.8467 64.2167 73.9 64.4634 73.9ZM6.9 87V81.92L6.8 81.11H11.23C11.6567 81.11 11.99 81.1667 12.23 81.28C12.4767 81.3933 12.6567 81.5433 12.77 81.73C12.89 81.91 12.9667 82.1033 13 82.31C13.0333 82.5167 13.05 82.7133 13.05 82.9V83.49C13.05 83.6433 13.0267 83.8167 12.98 84.01C12.9333 84.1967 12.8467 84.38 12.72 84.56C12.5933 84.7333 12.41 84.88 12.17 85C11.93 85.1133 11.6167 85.17 11.23 85.17H10.21C9.79 85.17 9.39667 85.16 9.03 85.14C8.67 85.12 8.4 85.1033 8.22 85.09V87H6.9ZM8.22 84.21H10.94C11.24 84.21 11.4467 84.1367 11.56 83.99C11.6733 83.8433 11.73 83.6667 11.73 83.46V82.83C11.73 82.6167 11.6733 82.4367 11.56 82.29C11.4467 82.1433 11.2433 82.07 10.95 82.07H8.22V84.21ZM14.2465 87V82.52H15.0665L15.4465 82.72C15.6198 82.6267 15.8065 82.5533 16.0065 82.5C16.2065 82.4467 16.4598 82.42 16.7665 82.42C17.2532 82.42 17.6465 82.4733 17.9465 82.58C18.2532 82.6867 18.4565 82.7667 18.5565 82.82L18.2065 83.69C18.1265 83.65 17.9932 83.6 17.8065 83.54C17.6265 83.4733 17.4132 83.4133 17.1665 83.36C16.9198 83.3067 16.6498 83.28 16.3565 83.28H16.2465C15.9265 83.28 15.7165 83.3433 15.6165 83.47C15.5232 83.5967 15.4732 83.8067 15.4665 84.1V87H14.2465ZM19.9663 81.89C19.7196 81.89 19.5396 81.84 19.4263 81.74C19.3129 81.64 19.2563 81.4733 19.2563 81.24C19.2563 81 19.3096 80.8333 19.4163 80.74C19.5296 80.64 19.7129 80.59 19.9663 80.59C20.2196 80.59 20.4029 80.64 20.5163 80.74C20.6296 80.8333 20.6863 81 20.6863 81.24C20.6863 81.4667 20.6296 81.6333 20.5163 81.74C20.4029 81.84 20.2196 81.89 19.9663 81.89ZM19.3563 87V82.52H20.5763V87H19.3563ZM21.8832 87V82.52H22.7032L23.1032 82.72C23.3832 82.6667 23.7199 82.62 24.1132 82.58C24.5065 82.54 24.9565 82.52 25.4632 82.52H25.9632C26.2965 82.52 26.5532 82.5667 26.7332 82.66C26.9132 82.7533 27.0399 82.87 27.1132 83.01C27.1932 83.15 27.2399 83.2933 27.2532 83.44C27.2732 83.58 27.2832 83.7 27.2832 83.8V87H26.0632V83.78C26.0632 83.5133 25.9032 83.38 25.5832 83.38H23.4032C23.2765 83.38 23.1932 83.3933 23.1532 83.42C23.1199 83.44 23.1032 83.5 23.1032 83.6V87H21.8832ZM30.1759 87C29.6693 87 29.3226 86.8933 29.1359 86.68C28.9493 86.4667 28.8559 86.1467 28.8559 85.72V83.38H28.0359V82.52H28.4559C28.5826 82.52 28.6726 82.5 28.7259 82.46C28.7859 82.42 28.8293 82.34 28.8559 82.22L29.0559 81.15H30.0759V82.52H32.1559V83.38H30.0759V85.73C30.0759 85.8967 30.1159 86.0067 30.1959 86.06C30.2759 86.1133 30.3959 86.14 30.5559 86.14H31.9659L32.0659 86.9C31.9259 86.92 31.7126 86.9433 31.4259 86.97C31.1393 86.99 30.8259 87 30.4859 87H30.1759ZM33.6674 81.89C33.4208 81.89 33.2408 81.84 33.1274 81.74C33.0141 81.64 32.9574 81.4733 32.9574 81.24C32.9574 81 33.0108 80.8333 33.1174 80.74C33.2308 80.64 33.4141 80.59 33.6674 80.59C33.9208 80.59 34.1041 80.64 34.2174 80.74C34.3308 80.8333 34.3874 81 34.3874 81.24C34.3874 81.4667 34.3308 81.6333 34.2174 81.74C34.1041 81.84 33.9208 81.89 33.6674 81.89ZM33.0574 87V82.52H34.2774V87H33.0574ZM35.5844 87V82.52H36.4044L36.8044 82.72C37.0844 82.6667 37.421 82.62 37.8144 82.58C38.2077 82.54 38.6577 82.52 39.1644 82.52H39.6644C39.9977 82.52 40.2544 82.5667 40.4344 82.66C40.6144 82.7533 40.741 82.87 40.8144 83.01C40.8944 83.15 40.941 83.2933 40.9544 83.44C40.9744 83.58 40.9844 83.7 40.9844 83.8V87H39.7644V83.78C39.7644 83.5133 39.6044 83.38 39.2844 83.38H37.1044C36.9777 83.38 36.8944 83.3933 36.8544 83.42C36.821 83.44 36.8044 83.5 36.8044 83.6V87H35.5844ZM45.4271 88.76C44.6938 88.76 44.0971 88.7533 43.6371 88.74C43.1771 88.7267 42.8238 88.7067 42.5771 88.68C42.3304 88.6533 42.1604 88.62 42.0671 88.58C41.9804 88.54 41.9371 88.4967 41.9371 88.45L42.2371 87.7C42.3438 87.7333 42.5304 87.7733 42.7971 87.82C43.0704 87.8733 43.4171 87.9 43.8371 87.9H45.5471C45.7938 87.9 45.9671 87.8633 46.0671 87.79C46.1738 87.7167 46.2271 87.5867 46.2271 87.4V86.8C45.9404 86.8533 45.6004 86.9 45.2071 86.94C44.8204 86.98 44.3738 87 43.8671 87H43.3671C43.0338 87 42.7771 86.9567 42.5971 86.87C42.4171 86.7833 42.2871 86.6733 42.2071 86.54C42.1338 86.4067 42.0871 86.2667 42.0671 86.12C42.0538 85.9733 42.0471 85.84 42.0471 85.72V83.8C42.0471 83.7 42.0538 83.58 42.0671 83.44C42.0871 83.2933 42.1338 83.15 42.2071 83.01C42.2871 82.87 42.4171 82.7533 42.5971 82.66C42.7838 82.5667 43.0404 82.52 43.3671 82.52H43.8771C44.5771 82.52 45.1204 82.5333 45.5071 82.56C45.9004 82.5867 46.1871 82.6167 46.3671 82.65L46.6271 82.52H47.4471V87.48C47.4471 87.6 47.4271 87.7333 47.3871 87.88C47.3538 88.0267 47.2838 88.1667 47.1771 88.3C47.0704 88.4333 46.9171 88.5433 46.7171 88.63C46.5171 88.7167 46.2538 88.76 45.9271 88.76H45.4271ZM43.7471 86.14H45.9171C46.0704 86.14 46.1604 86.1267 46.1871 86.1C46.2138 86.0733 46.2271 85.9867 46.2271 85.84V83.45C46.0004 83.4367 45.7138 83.4233 45.3671 83.41C45.0204 83.39 44.6504 83.38 44.2571 83.38H43.7471C43.4271 83.38 43.2671 83.5133 43.2671 83.78V85.74C43.2604 86.0067 43.4204 86.14 43.7471 86.14Z" fill="white"/>
<path d="M74.75 19.1667H46.25V10.5H74.75V19.1667ZM74.75 31.0833C75.4229 31.0833 75.9874 30.8753 76.4434 30.4593C76.8994 30.0433 77.1266 29.5291 77.125 28.9167C77.125 28.3028 76.897 27.7886 76.441 27.374C75.985 26.9594 75.4213 26.7514 74.75 26.75C74.0771 26.75 73.5134 26.958 73.059 27.374C72.6046 27.79 72.3766 28.3042 72.375 28.9167C72.375 29.5306 72.603 30.0455 73.059 30.4615C73.515 30.8775 74.0787 31.0848 74.75 31.0833ZM70 45.1667V36.5H51V45.1667H70ZM74.75 49.5H46.25V40.8333H36.75V27.8333C36.75 25.9917 37.4427 24.4483 38.8281 23.2032C40.2135 21.9581 41.8958 21.3348 43.875 21.3333H77.125C79.1438 21.3333 80.8363 21.9566 82.2028 23.2032C83.5692 24.4497 84.2516 25.9931 84.25 27.8333V40.8333H74.75V49.5Z" fill="#EF8D7A"/>
</svg>
