<svg viewBox="0 0 100 100" fill="none" xmlns="http://www.w3.org/2000/svg">
<rect fill="black"/>
<path d="M8.25 63L6.1 57.13H7.5L8.91 60.97L9.14 61.94H9.24L9.37 61.26L10.7 57.13H12.4L13.79 61.26L13.97 61.94H14.07L14.3 60.97L15.61 57.13H17.01L16.91 57.73L14.85 63H13.15L11.79 59.07L11.59 58.43H11.49L11.3 59.07L9.95 63H8.25ZM18.5329 63C18.1996 63 17.9429 62.9567 17.7629 62.87C17.5829 62.7833 17.4529 62.6733 17.3729 62.54C17.2996 62.4067 17.2529 62.2667 17.2329 62.12C17.2196 61.9733 17.2129 61.84 17.2129 61.72V59.8C17.2129 59.7 17.2196 59.58 17.2329 59.44C17.2529 59.2933 17.2996 59.15 17.3729 59.01C17.4529 58.87 17.5829 58.7533 17.7629 58.66C17.9496 58.5667 18.2062 58.52 18.5329 58.52H20.6829C21.1229 58.52 21.4662 58.5633 21.7129 58.65C21.9662 58.73 22.1429 58.8633 22.2429 59.05C22.3496 59.2367 22.4029 59.4867 22.4029 59.8V61.28H20.6529C20.0529 61.28 19.5629 61.2667 19.1829 61.24C18.8096 61.2133 18.5596 61.1967 18.4329 61.19V61.74C18.4262 62.0067 18.5862 62.14 18.9129 62.14H19.4229C19.7829 62.14 20.1329 62.1367 20.4729 62.13C20.8196 62.1167 21.1362 62.1033 21.4229 62.09C21.7096 62.07 21.9396 62.0533 22.1129 62.04L22.5129 62.69C22.5129 62.8967 21.8562 63 20.5429 63H18.5329ZM18.4329 60.42H21.1829V59.78C21.1829 59.6467 21.1662 59.5533 21.1329 59.5C21.1062 59.4467 21.0196 59.4133 20.8729 59.4C20.7262 59.3867 20.4762 59.38 20.1229 59.38H18.9129C18.5929 59.38 18.4329 59.5133 18.4329 59.78V60.42ZM24.7341 63C24.4007 63 24.1441 62.9567 23.9641 62.87C23.7841 62.7833 23.6541 62.6733 23.5741 62.54C23.5007 62.4067 23.4541 62.2667 23.4341 62.12C23.4207 61.9733 23.4141 61.84 23.4141 61.72V59.8C23.4141 59.7 23.4207 59.58 23.4341 59.44C23.4541 59.2933 23.5007 59.15 23.5741 59.01C23.6541 58.87 23.7841 58.7533 23.9641 58.66C24.1507 58.5667 24.4074 58.52 24.7341 58.52H26.8841C27.3241 58.52 27.6674 58.5633 27.9141 58.65C28.1674 58.73 28.3441 58.8633 28.4441 59.05C28.5507 59.2367 28.6041 59.4867 28.6041 59.8V61.28H26.8541C26.2541 61.28 25.7641 61.2667 25.3841 61.24C25.0107 61.2133 24.7607 61.1967 24.6341 61.19V61.74C24.6274 62.0067 24.7874 62.14 25.1141 62.14H25.6241C25.9841 62.14 26.3341 62.1367 26.6741 62.13C27.0207 62.1167 27.3374 62.1033 27.6241 62.09C27.9107 62.07 28.1407 62.0533 28.3141 62.04L28.7141 62.69C28.7141 62.8967 28.0574 63 26.7441 63H24.7341ZM24.6341 60.42H27.3841V59.78C27.3841 59.6467 27.3674 59.5533 27.3341 59.5C27.3074 59.4467 27.2207 59.4133 27.0741 59.4C26.9274 59.3867 26.6774 59.38 26.3241 59.38H25.1141C24.7941 59.38 24.6341 59.5133 24.6341 59.78V60.42ZM34.5052 63.1C34.2252 63.1 33.9852 63.0667 33.7852 63C33.5919 62.9333 33.3852 62.79 33.1652 62.57C33.1452 62.55 33.0919 62.4967 33.0052 62.41C32.9186 62.3233 32.8219 62.2267 32.7152 62.12C32.6152 62.0133 32.5219 61.9167 32.4352 61.83C32.3486 61.7433 32.2919 61.6867 32.2652 61.66C32.0986 61.4933 31.9386 61.3633 31.7852 61.27C31.6386 61.1767 31.4552 61.13 31.2352 61.13C31.0886 61.13 31.0019 61.1433 30.9752 61.17C30.9486 61.1967 30.9352 61.2867 30.9352 61.44V63H29.7152V56.67H30.9352V60.27H31.2552C31.3752 60.27 31.4819 60.2233 31.5752 60.13C31.6352 60.07 31.7486 59.95 31.9152 59.77C32.0819 59.59 32.2686 59.3867 32.4752 59.16C32.6886 58.9333 32.8819 58.7233 33.0552 58.53H34.5252L34.3652 58.84C34.2119 59 34.0452 59.17 33.8652 59.35C33.6852 59.5233 33.5086 59.6933 33.3352 59.86C33.1686 60.02 33.0152 60.1633 32.8752 60.29C32.7352 60.41 32.6286 60.49 32.5552 60.53C32.7552 60.6367 32.9352 60.76 33.0952 60.9C33.2552 61.0333 33.4286 61.1867 33.6152 61.36C33.8019 61.5267 34.0252 61.7167 34.2852 61.93C34.5186 62.1167 34.7352 62.2267 34.9352 62.26C35.1352 62.2867 35.2552 62.3 35.2952 62.3L35.1152 63C35.0486 63.02 34.9586 63.04 34.8452 63.06C34.7319 63.0867 34.6186 63.1 34.5052 63.1ZM39.8441 63C39.2775 63 38.8675 62.97 38.6141 62.91C38.3608 62.85 38.1975 62.78 38.1241 62.7L38.5141 61.93C38.6208 61.9433 38.7975 61.96 39.0441 61.98C39.2908 62 39.6375 62.0167 40.0841 62.03C40.5375 62.0367 41.1208 62.04 41.8341 62.04C42.0475 62.04 42.2075 62.0033 42.3141 61.93C42.4275 61.8567 42.5041 61.7667 42.5441 61.66C42.5908 61.5467 42.6141 61.4367 42.6141 61.33V60.68C42.5541 60.6867 42.3908 60.7033 42.1241 60.73C41.8641 60.75 41.4575 60.76 40.9041 60.76H39.8141C39.1408 60.76 38.6675 60.62 38.3941 60.34C38.1275 60.0533 37.9941 59.62 37.9941 59.04V58.9C37.9941 58.7 38.0075 58.4967 38.0341 58.29C38.0675 58.0767 38.1408 57.8833 38.2541 57.71C38.3675 57.5367 38.5475 57.3967 38.7941 57.29C39.0408 57.1767 39.3775 57.12 39.8041 57.12H42.1141C42.5675 57.12 42.9175 57.1833 43.1641 57.31C43.4108 57.4367 43.5875 57.5967 43.6941 57.79C43.8075 57.9833 43.8741 58.18 43.8941 58.38C43.9208 58.58 43.9341 58.7533 43.9341 58.9V61.21C43.9341 61.3433 43.9208 61.51 43.8941 61.71C43.8741 61.91 43.8108 62.11 43.7041 62.31C43.5975 62.5033 43.4175 62.6667 43.1641 62.8C42.9175 62.9333 42.5675 63 42.1141 63H39.8441ZM40.1041 59.88H42.6141V58.78C42.6141 58.5933 42.5508 58.43 42.4241 58.29C42.3041 58.15 42.1075 58.08 41.8341 58.08H40.1041C39.7975 58.08 39.5875 58.1567 39.4741 58.31C39.3675 58.4633 39.3141 58.62 39.3141 58.78V59.16C39.3141 59.3867 39.3641 59.5633 39.4641 59.69C39.5641 59.8167 39.7775 59.88 40.1041 59.88Z" fill="#EF8D7A"/>
<path d="M13.19 75.1C12.9233 75.1 12.66 75.06 12.4 74.98C12.1467 74.8933 11.8567 74.6867 11.53 74.36L10.81 73.64C10.5167 73.34 10.1933 73.12 9.84 72.98C9.49333 72.84 9.05667 72.77 8.53 72.77H8.22V75H6.9V69.92L6.8 69.11H11.23C11.6567 69.11 11.99 69.1667 12.23 69.28C12.4767 69.3933 12.6567 69.5433 12.77 69.73C12.89 69.91 12.9667 70.1033 13 70.31C13.0333 70.5167 13.05 70.7133 13.05 70.9V71.09C13.05 71.2367 13.03 71.4 12.99 71.58C12.95 71.76 12.8733 71.9367 12.76 72.11C12.6467 72.2833 12.4833 72.43 12.27 72.55C12.0633 72.67 11.79 72.74 11.45 72.76C11.5367 72.8067 11.6467 72.88 11.78 72.98C11.9133 73.0733 12.05 73.1767 12.19 73.29C12.3367 73.4033 12.47 73.5067 12.59 73.6C12.71 73.6933 12.8033 73.76 12.87 73.8C13.11 73.94 13.3233 74.0367 13.51 74.09C13.6967 74.1433 13.85 74.1733 13.97 74.18C14.09 74.1867 14.16 74.19 14.18 74.19L13.98 75C13.92 75.02 13.82 75.04 13.68 75.06C13.54 75.0867 13.3767 75.1 13.19 75.1ZM9.72 71.86C9.97333 71.86 10.2 71.8567 10.4 71.85C10.6 71.8367 10.78 71.8233 10.94 71.81C11.2333 71.7767 11.4367 71.6967 11.55 71.57C11.67 71.4367 11.73 71.2667 11.73 71.06V70.83C11.73 70.6167 11.6733 70.4367 11.56 70.29C11.4467 70.1433 11.2433 70.07 10.95 70.07H8.22V71.81C8.51333 71.83 8.78333 71.8433 9.03 71.85C9.27667 71.8567 9.50667 71.86 9.72 71.86ZM16.1713 75C15.6646 75 15.2979 74.8833 15.0713 74.65C14.8446 74.41 14.7313 74.0833 14.7313 73.67C14.7313 73.2367 14.8479 72.9033 15.0813 72.67C15.3213 72.4367 15.6846 72.32 16.1713 72.32H16.6813C17.1813 72.32 17.6313 72.3333 18.0313 72.36C18.4313 72.3867 18.7613 72.4133 19.0213 72.44V71.78C19.0213 71.72 19.0146 71.66 19.0013 71.6C18.9879 71.5333 18.9479 71.48 18.8813 71.44C18.8146 71.4 18.7013 71.38 18.5413 71.38H18.0413C17.3146 71.38 16.7079 71.3933 16.2213 71.42C15.7346 71.44 15.4046 71.46 15.2313 71.48L15.1213 70.72C15.1213 70.6267 15.3746 70.57 15.8813 70.55C16.3879 70.53 17.2346 70.52 18.4213 70.52H18.9213C19.2546 70.52 19.5113 70.5667 19.6913 70.66C19.8713 70.7533 19.9979 70.87 20.0713 71.01C20.1513 71.15 20.1979 71.2933 20.2113 71.44C20.2313 71.58 20.2413 71.7 20.2413 71.8V75H19.4212L19.0313 74.8C18.7513 74.8467 18.4146 74.8933 18.0213 74.94C17.6279 74.98 17.1779 75 16.6713 75H16.1713ZM16.4313 74.14H18.7213C18.8679 74.14 18.9546 74.1267 18.9813 74.1C19.0079 74.0733 19.0213 73.99 19.0213 73.85V73.08H16.4313C16.2513 73.08 16.1246 73.1233 16.0513 73.21C15.9846 73.2967 15.9513 73.4333 15.9513 73.62C15.9513 73.8067 15.9913 73.94 16.0713 74.02C16.1513 74.1 16.2713 74.14 16.4313 74.14ZM22.6149 75C22.2816 75 22.0249 74.9567 21.8449 74.87C21.6649 74.7833 21.5349 74.6733 21.4549 74.54C21.3816 74.4067 21.3349 74.2667 21.3149 74.12C21.3016 73.9733 21.2949 73.84 21.2949 73.72V71.8C21.2949 71.7 21.3016 71.58 21.3149 71.44C21.3349 71.2933 21.3816 71.15 21.4549 71.01C21.5349 70.87 21.6649 70.7533 21.8449 70.66C22.0316 70.5667 22.2883 70.52 22.6149 70.52H23.1249C23.7383 70.52 24.2316 70.5333 24.6049 70.56C24.9849 70.58 25.2749 70.6033 25.4749 70.63V68.66H26.6949V75H25.8749L25.4849 74.8C25.2049 74.8467 24.8683 74.8933 24.4749 74.94C24.0816 74.98 23.6283 75 23.1149 75H22.6149ZM22.9949 74.14H25.1649C25.3049 74.14 25.3916 74.1233 25.4249 74.09C25.4583 74.0567 25.4749 73.9733 25.4749 73.84V71.45C25.2483 71.4367 24.9616 71.4233 24.6149 71.41C24.2683 71.39 23.8983 71.38 23.5049 71.38H22.9949C22.6749 71.38 22.5149 71.5133 22.5149 71.78V73.74C22.5149 74.0067 22.6749 74.14 22.9949 74.14ZM28.7065 69.89C28.4598 69.89 28.2798 69.84 28.1665 69.74C28.0532 69.64 27.9965 69.4733 27.9965 69.24C27.9965 69 28.0498 68.8333 28.1565 68.74C28.2698 68.64 28.4532 68.59 28.7065 68.59C28.9598 68.59 29.1432 68.64 29.2565 68.74C29.3698 68.8333 29.4265 69 29.4265 69.24C29.4265 69.4667 29.3698 69.6333 29.2565 69.74C29.1432 69.84 28.9598 69.89 28.7065 69.89ZM28.0965 75V70.52H29.3165V75H28.0965ZM31.8434 75C31.3968 75 31.0634 74.91 30.8434 74.73C30.6301 74.55 30.5234 74.2567 30.5234 73.85V71.8C30.5234 71.7 30.5301 71.58 30.5434 71.44C30.5634 71.2933 30.6101 71.15 30.6834 71.01C30.7634 70.87 30.8934 70.7533 31.0734 70.66C31.2601 70.5667 31.5168 70.52 31.8434 70.52H34.6034C34.9368 70.52 35.1934 70.5667 35.3734 70.66C35.5534 70.7533 35.6801 70.87 35.7534 71.01C35.8334 71.15 35.8801 71.2933 35.8934 71.44C35.9134 71.58 35.9234 71.7 35.9234 71.8V73.72C35.9234 73.84 35.9134 73.9733 35.8934 74.12C35.8801 74.2667 35.8334 74.4067 35.7534 74.54C35.6734 74.6733 35.5434 74.7833 35.3634 74.87C35.1834 74.9567 34.9301 75 34.6034 75H31.8434ZM32.2234 74.14H34.2234C34.5501 74.14 34.7134 74.0067 34.7134 73.74V71.78C34.7134 71.5133 34.5501 71.38 34.2234 71.38H32.2234C31.9034 71.38 31.7434 71.5133 31.7434 71.78V73.74C31.7434 74.0067 31.9034 74.14 32.2234 74.14ZM37.2799 76.38C37.1399 76.42 37.0566 76.4 37.0299 76.32C37.0099 76.2467 37.0233 76.17 37.0699 76.09C37.1099 76.0367 37.1633 75.95 37.2299 75.83C37.3033 75.71 37.3733 75.5733 37.4399 75.42C37.5066 75.2733 37.5499 75.1233 37.5699 74.97C37.3966 74.9433 37.2699 74.88 37.1899 74.78C37.1099 74.68 37.0699 74.5267 37.0699 74.32C37.0699 74.0867 37.1233 73.9233 37.2299 73.83C37.3433 73.73 37.5266 73.68 37.7799 73.68C38.0533 73.68 38.2566 73.74 38.3899 73.86C38.5299 73.9733 38.5999 74.1633 38.5999 74.43C38.5999 74.6233 38.5566 74.8267 38.4699 75.04C38.3899 75.2533 38.2833 75.4533 38.1499 75.64C38.0166 75.8333 37.8733 75.9933 37.7199 76.12C37.5666 76.2533 37.4199 76.34 37.2799 76.38ZM43.8457 75L41.6957 69.13H43.0957L44.5057 72.97L44.7357 73.94H44.8357L44.9657 73.26L46.2957 69.13H47.9957L49.3857 73.26L49.5657 73.94H49.6657L49.8957 72.97L51.2057 69.13H52.6057L52.5057 69.73L50.4457 75H48.7457L47.3857 71.07L47.1857 70.43H47.0857L46.8957 71.07L45.5457 75H43.8457ZM54.019 69.89C53.7723 69.89 53.5923 69.84 53.479 69.74C53.3657 69.64 53.309 69.4733 53.309 69.24C53.309 69 53.3623 68.8333 53.469 68.74C53.5823 68.64 53.7657 68.59 54.019 68.59C54.2723 68.59 54.4557 68.64 54.569 68.74C54.6823 68.8333 54.739 69 54.739 69.24C54.739 69.4667 54.6823 69.6333 54.569 69.74C54.4557 69.84 54.2723 69.89 54.019 69.89ZM53.409 75V70.52H54.629V75H53.409ZM56.2359 75V69.92L56.1359 69.12H62.3759V70.08H57.5559V71.54H61.2959V72.53H57.5559V75H56.2359ZM63.8823 69.89C63.6356 69.89 63.4556 69.84 63.3423 69.74C63.2289 69.64 63.1723 69.4733 63.1723 69.24C63.1723 69 63.2256 68.8333 63.3323 68.74C63.4456 68.64 63.6289 68.59 63.8823 68.59C64.1356 68.59 64.3189 68.64 64.4323 68.74C64.5456 68.8333 64.6023 69 64.6023 69.24C64.6023 69.4667 64.5456 69.6333 64.4323 69.74C64.3189 69.84 64.1356 69.89 63.8823 69.89ZM63.2723 75V70.52H64.4923V75H63.2723ZM66.0592 76.38C65.9192 76.42 65.8359 76.4 65.8092 76.32C65.7892 76.2467 65.8026 76.17 65.8492 76.09C65.8892 76.0367 65.9426 75.95 66.0092 75.83C66.0826 75.71 66.1526 75.5733 66.2192 75.42C66.2859 75.2733 66.3292 75.1233 66.3492 74.97C66.1759 74.9433 66.0492 74.88 65.9692 74.78C65.8892 74.68 65.8492 74.5267 65.8492 74.32C65.8492 74.0867 65.9026 73.9233 66.0092 73.83C66.1226 73.73 66.3059 73.68 66.5592 73.68C66.8326 73.68 67.0359 73.74 67.1692 73.86C67.3092 73.9733 67.3792 74.1633 67.3792 74.43C67.3792 74.6233 67.3359 74.8267 67.2492 75.04C67.1692 75.2533 67.0626 75.4533 66.9292 75.64C66.7959 75.8333 66.6526 75.9933 66.4992 76.12C66.3459 76.2533 66.1992 76.34 66.0592 76.38ZM6.8 87V81.11H11.15C11.7767 81.11 12.2333 81.2367 12.52 81.49C12.8067 81.7367 12.95 82.0367 12.95 82.39V82.69C12.95 82.9633 12.89 83.19 12.77 83.37C12.6567 83.5433 12.5333 83.6667 12.4 83.74C12.6933 83.8333 12.9267 83.9967 13.1 84.23C13.2733 84.4567 13.36 84.7567 13.36 85.13V85.31C13.36 85.51 13.3367 85.71 13.29 85.91C13.2433 86.11 13.1533 86.2933 13.02 86.46C12.8933 86.62 12.71 86.75 12.47 86.85C12.2367 86.95 11.93 87 11.55 87H6.8ZM8.12 83.47H10.94C11.1733 83.4767 11.3467 83.42 11.46 83.3C11.5733 83.1733 11.63 83.0167 11.63 82.83V82.73C11.63 82.5767 11.5767 82.43 11.47 82.29C11.3633 82.1433 11.1633 82.07 10.87 82.07H8.12V83.47ZM8.12 86.04H11.27C11.5233 86.04 11.7133 85.9767 11.84 85.85C11.9733 85.7233 12.04 85.55 12.04 85.33V85.15C12.04 84.9433 11.9633 84.7767 11.81 84.65C11.6567 84.5167 11.4033 84.45 11.05 84.45H8.12V86.04ZM14.659 87V81.46L14.559 80.66H15.879V87H14.659ZM18.3985 87C18.0718 87 17.8152 86.9567 17.6285 86.87C17.4485 86.7833 17.3185 86.6733 17.2385 86.54C17.1652 86.4067 17.1185 86.2667 17.0985 86.12C17.0852 85.9733 17.0785 85.84 17.0785 85.72V82.52H18.2985V85.74C18.2918 85.8867 18.3385 85.99 18.4385 86.05C18.5452 86.11 18.6585 86.14 18.7785 86.14H20.7585C20.9052 86.14 20.9918 86.1267 21.0185 86.1C21.0452 86.0733 21.0585 85.9867 21.0585 85.84V82.52H22.2785V87H21.4585L21.0785 86.8C20.8118 86.8533 20.4952 86.9 20.1285 86.94C19.7685 86.98 19.3618 87 18.9085 87H18.3985ZM24.695 87C24.3617 87 24.105 86.9567 23.925 86.87C23.745 86.7833 23.615 86.6733 23.535 86.54C23.4617 86.4067 23.415 86.2667 23.395 86.12C23.3817 85.9733 23.375 85.84 23.375 85.72V83.8C23.375 83.7 23.3817 83.58 23.395 83.44C23.415 83.2933 23.4617 83.15 23.535 83.01C23.615 82.87 23.745 82.7533 23.925 82.66C24.1117 82.5667 24.3683 82.52 24.695 82.52H26.845C27.285 82.52 27.6283 82.5633 27.875 82.65C28.1283 82.73 28.305 82.8633 28.405 83.05C28.5117 83.2367 28.565 83.4867 28.565 83.8V85.28H26.815C26.215 85.28 25.725 85.2667 25.345 85.24C24.9717 85.2133 24.7217 85.1967 24.595 85.19V85.74C24.5883 86.0067 24.7483 86.14 25.075 86.14H25.585C25.945 86.14 26.295 86.1367 26.635 86.13C26.9817 86.1167 27.2983 86.1033 27.585 86.09C27.8717 86.07 28.1017 86.0533 28.275 86.04L28.675 86.69C28.675 86.8967 28.0183 87 26.705 87H24.695ZM24.595 84.42H27.345V83.78C27.345 83.6467 27.3283 83.5533 27.295 83.5C27.2683 83.4467 27.1817 83.4133 27.035 83.4C26.8883 83.3867 26.6383 83.38 26.285 83.38H25.075C24.755 83.38 24.595 83.5133 24.595 83.78V84.42ZM31.4162 87C30.9095 87 30.5628 86.8933 30.3762 86.68C30.1895 86.4667 30.0962 86.1467 30.0962 85.72V83.38H29.2762V82.52H29.6962C29.8228 82.52 29.9128 82.5 29.9662 82.46C30.0262 82.42 30.0695 82.34 30.0962 82.22L30.2962 81.15H31.3162V82.52H33.3962V83.38H31.3162V85.73C31.3162 85.8967 31.3562 86.0067 31.4362 86.06C31.5162 86.1133 31.6362 86.14 31.7962 86.14H33.2062L33.3062 86.9C33.1662 86.92 32.9528 86.9433 32.6662 86.97C32.3795 86.99 32.0662 87 31.7262 87H31.4162ZM35.4177 87C34.971 87 34.6377 86.91 34.4177 86.73C34.2043 86.55 34.0977 86.2567 34.0977 85.85V83.8C34.0977 83.7 34.1043 83.58 34.1177 83.44C34.1377 83.2933 34.1843 83.15 34.2577 83.01C34.3377 82.87 34.4677 82.7533 34.6477 82.66C34.8343 82.5667 35.091 82.52 35.4177 82.52H38.1777C38.511 82.52 38.7677 82.5667 38.9477 82.66C39.1277 82.7533 39.2543 82.87 39.3277 83.01C39.4077 83.15 39.4543 83.2933 39.4677 83.44C39.4877 83.58 39.4977 83.7 39.4977 83.8V85.72C39.4977 85.84 39.4877 85.9733 39.4677 86.12C39.4543 86.2667 39.4077 86.4067 39.3277 86.54C39.2477 86.6733 39.1177 86.7833 38.9377 86.87C38.7577 86.9567 38.5043 87 38.1777 87H35.4177ZM35.7977 86.14H37.7977C38.1243 86.14 38.2877 86.0067 38.2877 85.74V83.78C38.2877 83.5133 38.1243 83.38 37.7977 83.38H35.7977C35.4777 83.38 35.3177 83.5133 35.3177 83.78V85.74C35.3177 86.0067 35.4777 86.14 35.7977 86.14ZM41.8141 87C41.3675 87 41.0341 86.91 40.8141 86.73C40.6008 86.55 40.4941 86.2567 40.4941 85.85V83.8C40.4941 83.7 40.5008 83.58 40.5141 83.44C40.5341 83.2933 40.5808 83.15 40.6541 83.01C40.7341 82.87 40.8641 82.7533 41.0441 82.66C41.2308 82.5667 41.4875 82.52 41.8141 82.52H44.5741C44.9075 82.52 45.1641 82.5667 45.3441 82.66C45.5241 82.7533 45.6508 82.87 45.7241 83.01C45.8041 83.15 45.8508 83.2933 45.8641 83.44C45.8841 83.58 45.8941 83.7 45.8941 83.8V85.72C45.8941 85.84 45.8841 85.9733 45.8641 86.12C45.8508 86.2667 45.8041 86.4067 45.7241 86.54C45.6441 86.6733 45.5141 86.7833 45.3341 86.87C45.1541 86.9567 44.9008 87 44.5741 87H41.8141ZM42.1941 86.14H44.1941C44.5208 86.14 44.6841 86.0067 44.6841 85.74V83.78C44.6841 83.5133 44.5208 83.38 44.1941 83.38H42.1941C41.8741 83.38 41.7141 83.5133 41.7141 83.78V85.74C41.7141 86.0067 41.8741 86.14 42.1941 86.14ZM48.7306 87C48.224 87 47.8773 86.8933 47.6906 86.68C47.504 86.4667 47.4106 86.1467 47.4106 85.72V83.38H46.5906V82.52H47.0106C47.1373 82.52 47.2273 82.5 47.2806 82.46C47.3406 82.42 47.384 82.34 47.4106 82.22L47.6106 81.15H48.6306V82.52H50.7106V83.38H48.6306V85.73C48.6306 85.8967 48.6706 86.0067 48.7506 86.06C48.8306 86.1133 48.9506 86.14 49.1106 86.14H50.5206L50.6206 86.9C50.4806 86.92 50.2673 86.9433 49.9806 86.97C49.694 86.99 49.3806 87 49.0406 87H48.7306ZM51.5121 87V80.52H52.7321V82.72C53.0121 82.6667 53.3488 82.62 53.7421 82.58C54.1354 82.54 54.5854 82.52 55.0921 82.52H55.5921C55.9254 82.52 56.1821 82.5667 56.3621 82.66C56.5421 82.7533 56.6688 82.87 56.7421 83.01C56.8221 83.15 56.8688 83.2933 56.8821 83.44C56.9021 83.58 56.9121 83.7 56.9121 83.8V87H55.6921V83.78C55.6921 83.5133 55.5321 83.38 55.2121 83.38H53.0321C52.9054 83.38 52.8221 83.3933 52.7821 83.42C52.7488 83.44 52.7321 83.5 52.7321 83.6V87H51.5121ZM61.8321 87.8C61.4388 87.8 61.1054 87.6933 60.8321 87.48C60.5654 87.2667 60.3488 86.9767 60.1821 86.61C60.0154 86.2433 59.8921 85.8333 59.8121 85.38C59.7388 84.92 59.7021 84.45 59.7021 83.97C59.7021 83.47 59.7388 83.0033 59.8121 82.57C59.8921 82.13 60.0154 81.7433 60.1821 81.41C60.3488 81.07 60.5654 80.8067 60.8321 80.62C61.1054 80.4267 61.4388 80.33 61.8321 80.33L62.0021 80.83C61.8821 80.95 61.7621 81.0867 61.6421 81.24C61.5288 81.3867 61.4254 81.5767 61.3321 81.81C61.2388 82.0367 61.1621 82.3267 61.1021 82.68C61.0488 83.0267 61.0221 83.4567 61.0221 83.97C61.0221 84.6567 61.0654 85.2133 61.1521 85.64C61.2454 86.06 61.3654 86.4 61.5121 86.66C61.6588 86.9133 61.8221 87.1267 62.0021 87.3L61.8321 87.8ZM63.4016 87V81.12H64.7216V87H63.4016ZM67.3415 87C66.8948 87 66.5615 86.91 66.3415 86.73C66.1282 86.55 66.0215 86.2567 66.0215 85.85V83.8C66.0215 83.7 66.0282 83.58 66.0415 83.44C66.0615 83.2933 66.1082 83.15 66.1815 83.01C66.2615 82.87 66.3915 82.7533 66.5715 82.66C66.7582 82.5667 67.0148 82.52 67.3415 82.52H70.1015C70.4348 82.52 70.6915 82.5667 70.8715 82.66C71.0515 82.7533 71.1782 82.87 71.2515 83.01C71.3315 83.15 71.3782 83.2933 71.3915 83.44C71.4115 83.58 71.4215 83.7 71.4215 83.8V85.72C71.4215 85.84 71.4115 85.9733 71.3915 86.12C71.3782 86.2667 71.3315 86.4067 71.2515 86.54C71.1715 86.6733 71.0415 86.7833 70.8615 86.87C70.6815 86.9567 70.4282 87 70.1015 87H67.3415ZM67.7215 86.14H69.7215C70.0482 86.14 70.2115 86.0067 70.2115 85.74V83.78C70.2115 83.5133 70.0482 83.38 69.7215 83.38H67.7215C67.4015 83.38 67.2415 83.5133 67.2415 83.78V85.74C67.2415 86.0067 67.4015 86.14 67.7215 86.14ZM74.728 87L74.718 82.07H72.118V81.11H78.658V82.07H76.048V87H74.728ZM79.4313 87.8L79.2613 87.3C79.4413 87.1267 79.6047 86.9133 79.7513 86.66C79.898 86.4 80.0147 86.06 80.1013 85.64C80.1947 85.2133 80.2413 84.6567 80.2413 83.97C80.2413 83.4567 80.2113 83.0267 80.1513 82.68C80.098 82.3267 80.0247 82.0367 79.9313 81.81C79.838 81.5767 79.7313 81.3867 79.6113 81.24C79.498 81.0867 79.3813 80.95 79.2613 80.83L79.4313 80.33C79.8247 80.33 80.1547 80.4267 80.4213 80.62C80.6947 80.8067 80.9147 81.07 81.0813 81.41C81.248 81.7433 81.368 82.13 81.4413 82.57C81.5213 83.0033 81.5613 83.47 81.5613 83.97C81.5613 84.45 81.5213 84.92 81.4413 85.38C81.368 85.8333 81.248 86.2433 81.0813 86.61C80.9147 86.9767 80.6947 87.2667 80.4213 87.48C80.1547 87.6933 79.8247 87.8 79.4313 87.8Z" fill="white"/>
<g clip-path="url(#clip0_135_8)">
<path d="M77 52.8281C78.0096 52.8281 78.8281 52.0096 78.8281 51C78.8281 49.9904 78.0096 49.1719 77 49.1719C75.9904 49.1719 75.1719 49.9904 75.1719 51C75.1719 52.0096 75.9904 52.8281 77 52.8281Z" fill="white"/>
<path d="M73.6606 55.3555C73.5028 55.3556 73.3466 55.3223 73.2025 55.2577C73.0585 55.1931 72.9297 55.0987 72.8248 54.9807C71.8502 53.884 71.3119 52.4677 71.3119 51.0005C71.3119 49.5333 71.8502 48.117 72.8248 47.0203C72.9214 46.9077 73.0395 46.8156 73.1722 46.7492C73.3048 46.6828 73.4494 46.6434 73.5974 46.6335C73.7454 46.6236 73.8939 46.6432 74.0343 46.6913C74.1746 46.7393 74.304 46.8149 74.4148 46.9135C74.5257 47.0121 74.6158 47.1317 74.6798 47.2655C74.7439 47.3993 74.7807 47.5445 74.7881 47.6927C74.7955 47.8409 74.7733 47.989 74.7228 48.1285C74.6723 48.268 74.5945 48.396 74.494 48.5051C73.883 49.1929 73.5456 50.0808 73.5456 51.0008C73.5456 51.9207 73.883 52.8086 74.494 53.4964C74.6369 53.6573 74.7303 53.8561 74.763 54.0689C74.7956 54.2817 74.7661 54.4993 74.6779 54.6957C74.5898 54.8921 74.4468 55.0589 74.2662 55.1759C74.0855 55.293 73.8749 55.3553 73.6596 55.3555H73.6606ZM80.3394 55.3555C80.1241 55.3553 79.9135 55.293 79.7329 55.1759C79.5522 55.0589 79.4092 54.8921 79.3211 54.6957C79.2329 54.4993 79.2034 54.2817 79.2361 54.0689C79.2687 53.8561 79.3621 53.6573 79.5051 53.4964C80.116 52.8086 80.4534 51.9207 80.4534 51.0008C80.4534 50.0808 80.116 49.1929 79.5051 48.5051C79.4045 48.396 79.3268 48.268 79.2763 48.1285C79.2258 47.989 79.2036 47.8409 79.2109 47.6927C79.2183 47.5445 79.2551 47.3993 79.3192 47.2655C79.3833 47.1317 79.4734 47.0121 79.5842 46.9135C79.695 46.8149 79.8244 46.7393 79.9647 46.6913C80.1051 46.6432 80.2536 46.6236 80.4016 46.6335C80.5496 46.6434 80.6942 46.6828 80.8268 46.7492C80.9595 46.8156 81.0776 46.9077 81.1742 47.0203C82.1488 48.117 82.6871 49.5333 82.6871 51.0005C82.6871 52.4677 82.1488 53.884 81.1742 54.9807C81.0694 55.0986 80.9408 55.1929 80.797 55.2575C80.6531 55.3221 80.4971 55.3555 80.3394 55.3555Z" fill="white"/>
<path d="M71.0733 57.9428C70.9201 57.9429 70.7685 57.9115 70.628 57.8503C70.4874 57.7891 70.3611 57.6996 70.2568 57.5873C68.5862 55.8001 67.6569 53.4451 67.6569 50.9987C67.6569 48.5523 68.5862 46.1973 70.2568 44.4101C70.3568 44.302 70.4771 44.2148 70.611 44.1534C70.7448 44.092 70.8894 44.0577 71.0365 44.0524C71.1837 44.0471 71.3304 44.0709 71.4683 44.1225C71.6062 44.1741 71.7325 44.2524 71.8401 44.353C71.9476 44.4536 72.0341 44.5744 72.0948 44.7086C72.1555 44.8428 72.189 44.9876 72.1935 45.1348C72.198 45.2819 72.1733 45.4285 72.121 45.5661C72.0686 45.7037 71.9896 45.8296 71.8884 45.9366C70.6049 47.3098 69.891 49.1193 69.891 50.999C69.891 52.8786 70.6049 54.6881 71.8884 56.0614C72.0367 56.2204 72.1353 56.4193 72.1721 56.6337C72.209 56.848 72.1825 57.0684 72.0959 57.2679C72.0094 57.4674 71.8664 57.6373 71.6847 57.7567C71.5029 57.8761 71.2903 57.9399 71.0728 57.9403L71.0733 57.9428ZM82.9267 57.9428C82.7092 57.9425 82.4966 57.8787 82.3148 57.7592C82.1331 57.6398 81.9902 57.4699 81.9036 57.2704C81.817 57.0709 81.7905 56.8505 81.8274 56.6362C81.8643 56.4219 81.9629 56.223 82.1112 56.0639C83.3946 54.6906 84.1085 52.8812 84.1085 51.0015C84.1085 49.1219 83.3946 47.3124 82.1112 45.9391C82.01 45.8322 81.9309 45.7063 81.8786 45.5687C81.8262 45.4311 81.8016 45.2845 81.8061 45.1373C81.8105 44.9901 81.8441 44.8453 81.9047 44.7111C81.9654 44.577 82.0519 44.4561 82.1595 44.3555C82.267 44.255 82.3933 44.1766 82.5312 44.125C82.6691 44.0734 82.8158 44.0496 82.963 44.0549C83.1101 44.0602 83.2548 44.0945 83.3886 44.1559C83.5224 44.2173 83.6428 44.3046 83.7428 44.4126C85.4133 46.1998 86.3426 48.5549 86.3426 51.0013C86.3426 53.4476 85.4133 55.8027 83.7428 57.5899C83.6383 57.7016 83.5119 57.7906 83.3715 57.8513C83.2311 57.9121 83.0797 57.9432 82.9267 57.9428Z" fill="white"/>
<path d="M85.7852 60.2422C85.5695 60.2421 85.3585 60.1797 85.1775 60.0623C84.9966 59.945 84.8535 59.7778 84.7655 59.5809C84.6775 59.384 84.6484 59.1658 84.6816 58.9527C84.7149 58.7396 84.8091 58.5407 84.9529 58.38C86.7646 56.3487 87.7658 53.7219 87.7658 51C87.7658 48.2781 86.7646 45.6513 84.9529 43.6199C84.7616 43.3983 84.665 43.1104 84.6838 42.8182C84.7027 42.526 84.8354 42.2529 85.0536 42.0576C85.2718 41.8624 85.5579 41.7605 85.8503 41.7741C86.1428 41.7876 86.4183 41.9154 86.6175 42.13C88.7958 44.5711 89.9997 47.7283 89.9997 51C89.9997 54.2716 88.7958 57.4289 86.6175 59.87C86.5127 59.987 86.3845 60.0807 86.241 60.1448C86.0976 60.209 85.9423 60.2421 85.7852 60.2422ZM68.2149 60.2422C68.0576 60.2425 67.902 60.2095 67.7583 60.1453C67.6147 60.0812 67.4863 59.9873 67.3816 59.87C65.2032 57.4289 63.9993 54.2716 63.9993 51C63.9993 47.7283 65.2032 44.5711 67.3816 42.13C67.5807 41.9154 67.8562 41.7876 68.1487 41.7741C68.4412 41.7605 68.7273 41.8624 68.9454 42.0576C69.1636 42.2529 69.2964 42.526 69.3152 42.8182C69.3341 43.1104 69.2374 43.3983 69.0462 43.6199C67.2344 45.6513 66.2332 48.2781 66.2332 51C66.2332 53.7219 67.2344 56.3487 69.0462 58.38C69.1899 58.5407 69.2841 58.7395 69.3174 58.9525C69.3507 59.1655 69.3216 59.3835 69.2338 59.5804C69.1459 59.7773 69.0029 59.9445 68.8221 60.0619C68.6414 60.1793 68.4304 60.2419 68.2149 60.2422Z" fill="white"/>
</g>
<path fill-rule="evenodd" clip-rule="evenodd" d="M49.2874 17.1037L52.9655 20.805L49.2874 24.5062V17.1037ZM49.2874 39.8963L52.9655 36.195L49.2874 32.4938V39.8963ZM45.3465 28.5253L37.3585 20.4366L39.6699 18.1106L46.0285 24.5062V9.1725L57.5912 20.805L49.9693 28.5281L57.6415 36.2484L46.0816 47.8838V32.4938L39.6699 38.8894L37.3585 36.5634L45.3465 28.5253ZM47.4986 51C57.2753 51 64 46.3453 64 28.4719C64 10.6547 57.2753 6 47.5014 6C37.7274 6 31 10.6547 31 28.5281C31 46.3425 37.7247 51 47.4986 51Z" fill="#EF8D7A"/>
<path d="M13 32.5525L15 34.5525C19.97 29.5825 28.03 29.5825 33 34.5525L35 32.5525C28.93 26.4825 19.08 26.4825 13 32.5525ZM21 40.5525L24 43.5525L27 40.5525C26.6064 40.1579 26.1388 39.8448 25.624 39.6311C25.1092 39.4175 24.5574 39.3075 24 39.3075C23.4426 39.3075 22.8908 39.4175 22.376 39.6311C21.8612 39.8448 21.3936 40.1579 21 40.5525ZM17 36.5525L19 38.5525C20.3265 37.2271 22.1249 36.4826 24 36.4826C25.8751 36.4826 27.6735 37.2271 29 38.5525L31 36.5525C27.14 32.6925 20.87 32.6925 17 36.5525Z" fill="white"/>
<defs>
<clipPath id="clip0_135_8">
<rect width="26" height="26" fill="white" transform="translate(64 38)"/>
</clipPath>
</defs>
</svg>
