<svg viewBox="0 0 100 100" fill="none" xmlns="http://www.w3.org/2000/svg">
<rect fill="black"/>
<path d="M8.25 63L6.1 57.13H7.5L8.91 60.97L9.14 61.94H9.24L9.37 61.26L10.7 57.13H12.4L13.79 61.26L13.97 61.94H14.07L14.3 60.97L15.61 57.13H17.01L16.91 57.73L14.85 63H13.15L11.79 59.07L11.59 58.43H11.49L11.3 59.07L9.95 63H8.25ZM18.5329 63C18.1996 63 17.9429 62.9567 17.7629 62.87C17.5829 62.7833 17.4529 62.6733 17.3729 62.54C17.2996 62.4067 17.2529 62.2667 17.2329 62.12C17.2196 61.9733 17.2129 61.84 17.2129 61.72V59.8C17.2129 59.7 17.2196 59.58 17.2329 59.44C17.2529 59.2933 17.2996 59.15 17.3729 59.01C17.4529 58.87 17.5829 58.7533 17.7629 58.66C17.9496 58.5667 18.2062 58.52 18.5329 58.52H20.6829C21.1229 58.52 21.4662 58.5633 21.7129 58.65C21.9662 58.73 22.1429 58.8633 22.2429 59.05C22.3496 59.2367 22.4029 59.4867 22.4029 59.8V61.28H20.6529C20.0529 61.28 19.5629 61.2667 19.1829 61.24C18.8096 61.2133 18.5596 61.1967 18.4329 61.19V61.74C18.4262 62.0067 18.5862 62.14 18.9129 62.14H19.4229C19.7829 62.14 20.1329 62.1367 20.4729 62.13C20.8196 62.1167 21.1362 62.1033 21.4229 62.09C21.7096 62.07 21.9396 62.0533 22.1129 62.04L22.5129 62.69C22.5129 62.8967 21.8562 63 20.5429 63H18.5329ZM18.4329 60.42H21.1829V59.78C21.1829 59.6467 21.1662 59.5533 21.1329 59.5C21.1062 59.4467 21.0196 59.4133 20.8729 59.4C20.7262 59.3867 20.4762 59.38 20.1229 59.38H18.9129C18.5929 59.38 18.4329 59.5133 18.4329 59.78V60.42ZM24.7341 63C24.4007 63 24.1441 62.9567 23.9641 62.87C23.7841 62.7833 23.6541 62.6733 23.5741 62.54C23.5007 62.4067 23.4541 62.2667 23.4341 62.12C23.4207 61.9733 23.4141 61.84 23.4141 61.72V59.8C23.4141 59.7 23.4207 59.58 23.4341 59.44C23.4541 59.2933 23.5007 59.15 23.5741 59.01C23.6541 58.87 23.7841 58.7533 23.9641 58.66C24.1507 58.5667 24.4074 58.52 24.7341 58.52H26.8841C27.3241 58.52 27.6674 58.5633 27.9141 58.65C28.1674 58.73 28.3441 58.8633 28.4441 59.05C28.5507 59.2367 28.6041 59.4867 28.6041 59.8V61.28H26.8541C26.2541 61.28 25.7641 61.2667 25.3841 61.24C25.0107 61.2133 24.7607 61.1967 24.6341 61.19V61.74C24.6274 62.0067 24.7874 62.14 25.1141 62.14H25.6241C25.9841 62.14 26.3341 62.1367 26.6741 62.13C27.0207 62.1167 27.3374 62.1033 27.6241 62.09C27.9107 62.07 28.1407 62.0533 28.3141 62.04L28.7141 62.69C28.7141 62.8967 28.0574 63 26.7441 63H24.7341ZM24.6341 60.42H27.3841V59.78C27.3841 59.6467 27.3674 59.5533 27.3341 59.5C27.3074 59.4467 27.2207 59.4133 27.0741 59.4C26.9274 59.3867 26.6774 59.38 26.3241 59.38H25.1141C24.7941 59.38 24.6341 59.5133 24.6341 59.78V60.42ZM34.5052 63.1C34.2252 63.1 33.9852 63.0667 33.7852 63C33.5919 62.9333 33.3852 62.79 33.1652 62.57C33.1452 62.55 33.0919 62.4967 33.0052 62.41C32.9186 62.3233 32.8219 62.2267 32.7152 62.12C32.6152 62.0133 32.5219 61.9167 32.4352 61.83C32.3486 61.7433 32.2919 61.6867 32.2652 61.66C32.0986 61.4933 31.9386 61.3633 31.7852 61.27C31.6386 61.1767 31.4552 61.13 31.2352 61.13C31.0886 61.13 31.0019 61.1433 30.9752 61.17C30.9486 61.1967 30.9352 61.2867 30.9352 61.44V63H29.7152V56.67H30.9352V60.27H31.2552C31.3752 60.27 31.4819 60.2233 31.5752 60.13C31.6352 60.07 31.7486 59.95 31.9152 59.77C32.0819 59.59 32.2686 59.3867 32.4752 59.16C32.6886 58.9333 32.8819 58.7233 33.0552 58.53H34.5252L34.3652 58.84C34.2119 59 34.0452 59.17 33.8652 59.35C33.6852 59.5233 33.5086 59.6933 33.3352 59.86C33.1686 60.02 33.0152 60.1633 32.8752 60.29C32.7352 60.41 32.6286 60.49 32.5552 60.53C32.7552 60.6367 32.9352 60.76 33.0952 60.9C33.2552 61.0333 33.4286 61.1867 33.6152 61.36C33.8019 61.5267 34.0252 61.7167 34.2852 61.93C34.5186 62.1167 34.7352 62.2267 34.9352 62.26C35.1352 62.2867 35.2552 62.3 35.2952 62.3L35.1152 63C35.0486 63.02 34.9586 63.04 34.8452 63.06C34.7319 63.0867 34.6186 63.1 34.5052 63.1ZM38.9641 63V58.08L37.7641 58.17L37.6941 57.32L40.2841 57.02V63H38.9641Z" fill="#EF8D7A"/>
<path d="M6.8 75V69.12H8.12V75H6.8ZM9.51992 75V70.52H10.3399L10.7399 70.72C11.0199 70.6667 11.3566 70.62 11.7499 70.58C12.1433 70.54 12.5933 70.52 13.0999 70.52H13.5999C13.9333 70.52 14.1899 70.5667 14.3699 70.66C14.5499 70.7533 14.6766 70.87 14.7499 71.01C14.8299 71.15 14.8766 71.2933 14.8899 71.44C14.9099 71.58 14.9199 71.7 14.9199 71.8V75H13.6999V71.78C13.6999 71.5133 13.5399 71.38 13.2199 71.38H11.0399C10.9133 71.38 10.8299 71.3933 10.7899 71.42C10.7566 71.44 10.7399 71.5 10.7399 71.6V75H9.51992ZM17.8127 75C17.306 75 16.9593 74.8933 16.7727 74.68C16.586 74.4667 16.4927 74.1467 16.4927 73.72V71.38H15.6727V70.52H16.0927C16.2193 70.52 16.3093 70.5 16.3627 70.46C16.4227 70.42 16.466 70.34 16.4927 70.22L16.6927 69.15H17.7127V70.52H19.7927V71.38H17.7127V73.73C17.7127 73.8967 17.7527 74.0067 17.8327 74.06C17.9127 74.1133 18.0327 74.14 18.1927 74.14H19.6027L19.7027 74.9C19.5627 74.92 19.3493 74.9433 19.0627 74.97C18.776 74.99 18.4627 75 18.1227 75H17.8127ZM20.5941 75V70.52H21.4141L21.7941 70.72C21.9675 70.6267 22.1541 70.5533 22.3541 70.5C22.5541 70.4467 22.8075 70.42 23.1141 70.42C23.6008 70.42 23.9941 70.4733 24.2941 70.58C24.6008 70.6867 24.8041 70.7667 24.9041 70.82L24.5541 71.69C24.4741 71.65 24.3408 71.6 24.1541 71.54C23.9741 71.4733 23.7608 71.4133 23.5141 71.36C23.2675 71.3067 22.9975 71.28 22.7041 71.28H22.5941C22.2741 71.28 22.0641 71.3433 21.9641 71.47C21.8708 71.5967 21.8208 71.8067 21.8141 72.1V75H20.5941ZM26.8239 75C26.3772 75 26.0439 74.91 25.8239 74.73C25.6106 74.55 25.5039 74.2567 25.5039 73.85V71.8C25.5039 71.7 25.5106 71.58 25.5239 71.44C25.5439 71.2933 25.5906 71.15 25.6639 71.01C25.7439 70.87 25.8739 70.7533 26.0539 70.66C26.2406 70.5667 26.4972 70.52 26.8239 70.52H29.5839C29.9172 70.52 30.1739 70.5667 30.3539 70.66C30.5339 70.7533 30.6606 70.87 30.7339 71.01C30.8139 71.15 30.8606 71.2933 30.8739 71.44C30.8939 71.58 30.9039 71.7 30.9039 71.8V73.72C30.9039 73.84 30.8939 73.9733 30.8739 74.12C30.8606 74.2667 30.8139 74.4067 30.7339 74.54C30.6539 74.6733 30.5239 74.7833 30.3439 74.87C30.1639 74.9567 29.9106 75 29.5839 75H26.8239ZM27.2039 74.14H29.2039C29.5306 74.14 29.6939 74.0067 29.6939 73.74V71.78C29.6939 71.5133 29.5306 71.38 29.2039 71.38H27.2039C26.8839 71.38 26.7239 71.5133 26.7239 71.78V73.74C26.7239 74.0067 26.8839 74.14 27.2039 74.14ZM33.2204 75C32.8871 75 32.6304 74.9567 32.4504 74.87C32.2704 74.7833 32.1404 74.6733 32.0604 74.54C31.9871 74.4067 31.9404 74.2667 31.9204 74.12C31.9071 73.9733 31.9004 73.84 31.9004 73.72V71.8C31.9004 71.7 31.9071 71.58 31.9204 71.44C31.9404 71.2933 31.9871 71.15 32.0604 71.01C32.1404 70.87 32.2704 70.7533 32.4504 70.66C32.6371 70.5667 32.8937 70.52 33.2204 70.52H33.7304C34.3437 70.52 34.8371 70.5333 35.2104 70.56C35.5904 70.58 35.8804 70.6033 36.0804 70.63V68.66H37.3004V75H36.4804L36.0904 74.8C35.8104 74.8467 35.4737 74.8933 35.0804 74.94C34.6871 74.98 34.2337 75 33.7204 75H33.2204ZM33.6004 74.14H35.7704C35.9104 74.14 35.9971 74.1233 36.0304 74.09C36.0637 74.0567 36.0804 73.9733 36.0804 73.84V71.45C35.8537 71.4367 35.5671 71.4233 35.2204 71.41C34.8737 71.39 34.5037 71.38 34.1104 71.38H33.6004C33.2804 71.38 33.1204 71.5133 33.1204 71.78V73.74C33.1204 74.0067 33.2804 74.14 33.6004 74.14ZM39.922 75C39.5953 75 39.3386 74.9567 39.152 74.87C38.972 74.7833 38.842 74.6733 38.762 74.54C38.6886 74.4067 38.642 74.2667 38.622 74.12C38.6086 73.9733 38.602 73.84 38.602 73.72V70.52H39.822V73.74C39.8153 73.8867 39.862 73.99 39.962 74.05C40.0686 74.11 40.182 74.14 40.302 74.14H42.282C42.4286 74.14 42.5153 74.1267 42.542 74.1C42.5686 74.0733 42.582 73.9867 42.582 73.84V70.52H43.802V75H42.982L42.602 74.8C42.3353 74.8533 42.0186 74.9 41.652 74.94C41.292 74.98 40.8853 75 40.432 75H39.922ZM46.2184 75C45.8851 75 45.6284 74.9567 45.4484 74.87C45.2684 74.7833 45.1384 74.6733 45.0584 74.54C44.9851 74.4067 44.9384 74.2667 44.9184 74.12C44.9051 73.9733 44.8984 73.84 44.8984 73.72V71.8C44.8984 71.7 44.9051 71.58 44.9184 71.44C44.9384 71.2933 44.9851 71.15 45.0584 71.01C45.1384 70.87 45.2684 70.7533 45.4484 70.66C45.6351 70.5667 45.8918 70.52 46.2184 70.52H47.6084C48.4418 70.52 49.0318 70.5433 49.3784 70.59C49.7318 70.63 49.9084 70.6733 49.9084 70.72L49.7084 71.48C49.5218 71.4667 49.2851 71.4533 48.9984 71.44C48.7118 71.42 48.4018 71.4067 48.0684 71.4C47.7418 71.3867 47.4218 71.38 47.1084 71.38H46.5984C46.2784 71.38 46.1184 71.5133 46.1184 71.78V73.74C46.1118 74.0067 46.2718 74.14 46.5984 74.14H47.1084C47.4684 74.14 47.8184 74.1367 48.1584 74.13C48.5051 74.1167 48.8218 74.1033 49.1084 74.09C49.3951 74.07 49.6251 74.0533 49.7984 74.04L50.1984 74.69C50.1984 74.8967 49.5418 75 48.2284 75H46.2184ZM52.6369 75C52.1302 75 51.7835 74.8933 51.5969 74.68C51.4102 74.4667 51.3169 74.1467 51.3169 73.72V71.38H50.4969V70.52H50.9169C51.0435 70.52 51.1335 70.5 51.1869 70.46C51.2469 70.42 51.2902 70.34 51.3169 70.22L51.5169 69.15H52.5369V70.52H54.6169V71.38H52.5369V73.73C52.5369 73.8967 52.5769 74.0067 52.6569 74.06C52.7369 74.1133 52.8569 74.14 53.0169 74.14H54.4269L54.5269 74.9C54.3869 74.92 54.1735 74.9433 53.8869 74.97C53.6002 74.99 53.2869 75 52.9469 75H52.6369ZM56.1284 69.89C55.8817 69.89 55.7017 69.84 55.5884 69.74C55.475 69.64 55.4184 69.4733 55.4184 69.24C55.4184 69 55.4717 68.8333 55.5784 68.74C55.6917 68.64 55.875 68.59 56.1284 68.59C56.3817 68.59 56.565 68.64 56.6784 68.74C56.7917 68.8333 56.8484 69 56.8484 69.24C56.8484 69.4667 56.7917 69.6333 56.6784 69.74C56.565 69.84 56.3817 69.89 56.1284 69.89ZM55.5184 75V70.52H56.7384V75H55.5184ZM59.2653 75C58.8186 75 58.4853 74.91 58.2653 74.73C58.052 74.55 57.9453 74.2567 57.9453 73.85V71.8C57.9453 71.7 57.952 71.58 57.9653 71.44C57.9853 71.2933 58.032 71.15 58.1053 71.01C58.1853 70.87 58.3153 70.7533 58.4953 70.66C58.682 70.5667 58.9386 70.52 59.2653 70.52H62.0253C62.3586 70.52 62.6153 70.5667 62.7953 70.66C62.9753 70.7533 63.102 70.87 63.1753 71.01C63.2553 71.15 63.302 71.2933 63.3153 71.44C63.3353 71.58 63.3453 71.7 63.3453 71.8V73.72C63.3453 73.84 63.3353 73.9733 63.3153 74.12C63.302 74.2667 63.2553 74.4067 63.1753 74.54C63.0953 74.6733 62.9653 74.7833 62.7853 74.87C62.6053 74.9567 62.352 75 62.0253 75H59.2653ZM59.6453 74.14H61.6453C61.972 74.14 62.1353 74.0067 62.1353 73.74V71.78C62.1353 71.5133 61.972 71.38 61.6453 71.38H59.6453C59.3253 71.38 59.1653 71.5133 59.1653 71.78V73.74C59.1653 74.0067 59.3253 74.14 59.6453 74.14ZM64.4418 75V70.52H65.2618L65.6618 70.72C65.9418 70.6667 66.2785 70.62 66.6718 70.58C67.0651 70.54 67.5151 70.52 68.0218 70.52H68.5218C68.8551 70.52 69.1118 70.5667 69.2918 70.66C69.4718 70.7533 69.5985 70.87 69.6718 71.01C69.7518 71.15 69.7985 71.2933 69.8118 71.44C69.8318 71.58 69.8418 71.7 69.8418 71.8V75H68.6218V71.78C68.6218 71.5133 68.4618 71.38 68.1418 71.38H65.9618C65.8351 71.38 65.7518 71.3933 65.7118 71.42C65.6785 71.44 65.6618 71.5 65.6618 71.6V75H64.4418ZM74.4818 75C73.9751 75 73.6085 74.8833 73.3818 74.65C73.1551 74.41 73.0418 74.0833 73.0418 73.67C73.0418 73.2367 73.1585 72.9033 73.3918 72.67C73.6318 72.4367 73.9951 72.32 74.4818 72.32H74.9918C75.4918 72.32 75.9418 72.3333 76.3418 72.36C76.7418 72.3867 77.0718 72.4133 77.3318 72.44V71.78C77.3318 71.72 77.3251 71.66 77.3118 71.6C77.2985 71.5333 77.2585 71.48 77.1918 71.44C77.1251 71.4 77.0118 71.38 76.8518 71.38H76.3518C75.6251 71.38 75.0185 71.3933 74.5318 71.42C74.0451 71.44 73.7151 71.46 73.5418 71.48L73.4318 70.72C73.4318 70.6267 73.6851 70.57 74.1918 70.55C74.6985 70.53 75.5451 70.52 76.7318 70.52H77.2318C77.5651 70.52 77.8218 70.5667 78.0018 70.66C78.1818 70.7533 78.3085 70.87 78.3818 71.01C78.4618 71.15 78.5085 71.2933 78.5218 71.44C78.5418 71.58 78.5518 71.7 78.5518 71.8V75H77.7318L77.3418 74.8C77.0618 74.8467 76.7251 74.8933 76.3318 74.94C75.9385 74.98 75.4885 75 74.9818 75H74.4818ZM74.7418 74.14H77.0318C77.1785 74.14 77.2651 74.1267 77.2918 74.1C77.3185 74.0733 77.3318 73.99 77.3318 73.85V73.08H74.7418C74.5618 73.08 74.4351 73.1233 74.3618 73.21C74.2951 73.2967 74.2618 73.4333 74.2618 73.62C74.2618 73.8067 74.3018 73.94 74.3818 74.02C74.4618 74.1 74.5818 74.14 74.7418 74.14ZM79.7055 75V70.52H80.5255L80.9255 70.72C81.2055 70.6667 81.5421 70.62 81.9355 70.58C82.3288 70.54 82.7788 70.52 83.2855 70.52H83.7855C84.1188 70.52 84.3755 70.5667 84.5555 70.66C84.7355 70.7533 84.8621 70.87 84.9355 71.01C85.0155 71.15 85.0621 71.2933 85.0755 71.44C85.0955 71.58 85.1055 71.7 85.1055 71.8V75H83.8855V71.78C83.8855 71.5133 83.7255 71.38 83.4055 71.38H81.2255C81.0988 71.38 81.0155 71.3933 80.9755 71.42C80.9421 71.44 80.9255 71.5 80.9255 71.6V75H79.7055ZM87.4782 75C87.1449 75 86.8882 74.9567 86.7082 74.87C86.5282 74.7833 86.3982 74.6733 86.3182 74.54C86.2449 74.4067 86.1982 74.2667 86.1782 74.12C86.1649 73.9733 86.1582 73.84 86.1582 73.72V71.8C86.1582 71.7 86.1649 71.58 86.1782 71.44C86.1982 71.2933 86.2449 71.15 86.3182 71.01C86.3982 70.87 86.5282 70.7533 86.7082 70.66C86.8949 70.5667 87.1515 70.52 87.4782 70.52H87.9882C88.6015 70.52 89.0949 70.5333 89.4682 70.56C89.8482 70.58 90.1382 70.6033 90.3382 70.63V68.66H91.5582V75H90.7382L90.3482 74.8C90.0682 74.8467 89.7315 74.8933 89.3382 74.94C88.9449 74.98 88.4915 75 87.9782 75H87.4782ZM87.8582 74.14H90.0282C90.1682 74.14 90.2549 74.1233 90.2882 74.09C90.3215 74.0567 90.3382 73.9733 90.3382 73.84V71.45C90.1115 71.4367 89.8249 71.4233 89.4782 71.41C89.1315 71.39 88.7615 71.38 88.3682 71.38H87.8582C87.5382 71.38 87.3782 71.5133 87.3782 71.78V73.74C87.3782 74.0067 87.5382 74.14 87.8582 74.14ZM6.9 87V81.92L6.8 81.12H11.44C11.98 81.12 12.3933 81.1867 12.68 81.32C12.9733 81.4533 13.1767 81.6533 13.29 81.92C13.4033 82.18 13.46 82.5067 13.46 82.9V85.21C13.46 85.61 13.4033 85.9433 13.29 86.21C13.1833 86.47 12.9833 86.6667 12.69 86.8C12.4033 86.9333 11.9867 87 11.44 87H6.9ZM8.22 86.04H11.36C11.8733 86.04 12.1333 85.8033 12.14 85.33V82.78C12.14 82.5867 12.0833 82.4233 11.97 82.29C11.8567 82.15 11.6533 82.08 11.36 82.08H8.22V86.04ZM15.8766 87C15.43 87 15.0966 86.91 14.8766 86.73C14.6633 86.55 14.5566 86.2567 14.5566 85.85V83.8C14.5566 83.7 14.5633 83.58 14.5766 83.44C14.5966 83.2933 14.6433 83.15 14.7166 83.01C14.7966 82.87 14.9266 82.7533 15.1066 82.66C15.2933 82.5667 15.55 82.52 15.8766 82.52H18.6366C18.97 82.52 19.2266 82.5667 19.4066 82.66C19.5866 82.7533 19.7133 82.87 19.7866 83.01C19.8666 83.15 19.9133 83.2933 19.9266 83.44C19.9466 83.58 19.9566 83.7 19.9566 83.8V85.72C19.9566 85.84 19.9466 85.9733 19.9266 86.12C19.9133 86.2667 19.8666 86.4067 19.7866 86.54C19.7066 86.6733 19.5766 86.7833 19.3966 86.87C19.2166 86.9567 18.9633 87 18.6366 87H15.8766ZM16.2566 86.14H18.2566C18.5833 86.14 18.7466 86.0067 18.7466 85.74V83.78C18.7466 83.5133 18.5833 83.38 18.2566 83.38H16.2566C15.9366 83.38 15.7766 83.5133 15.7766 83.78V85.74C15.7766 86.0067 15.9366 86.14 16.2566 86.14ZM22.2731 87C21.9398 87 21.6831 86.9567 21.5031 86.87C21.3231 86.7833 21.1931 86.6733 21.1131 86.54C21.0398 86.4067 20.9931 86.2667 20.9731 86.12C20.9598 85.9733 20.9531 85.84 20.9531 85.72V83.8C20.9531 83.7 20.9598 83.58 20.9731 83.44C20.9931 83.2933 21.0398 83.15 21.1131 83.01C21.1931 82.87 21.3231 82.7533 21.5031 82.66C21.6898 82.5667 21.9465 82.52 22.2731 82.52H23.6631C24.4965 82.52 25.0865 82.5433 25.4331 82.59C25.7865 82.63 25.9631 82.6733 25.9631 82.72L25.7631 83.48C25.5765 83.4667 25.3398 83.4533 25.0531 83.44C24.7665 83.42 24.4565 83.4067 24.1231 83.4C23.7965 83.3867 23.4765 83.38 23.1631 83.38H22.6531C22.3331 83.38 22.1731 83.5133 22.1731 83.78V85.74C22.1665 86.0067 22.3265 86.14 22.6531 86.14H23.1631C23.5231 86.14 23.8731 86.1367 24.2131 86.13C24.5598 86.1167 24.8765 86.1033 25.1631 86.09C25.4498 86.07 25.6798 86.0533 25.8531 86.04L26.2531 86.69C26.2531 86.8967 25.5965 87 24.2831 87H22.2731ZM28.2716 87C27.9449 87 27.6882 86.9567 27.5016 86.87C27.3216 86.7833 27.1916 86.6733 27.1116 86.54C27.0382 86.4067 26.9916 86.2667 26.9716 86.12C26.9582 85.9733 26.9516 85.84 26.9516 85.72V82.52H28.1716V85.74C28.1649 85.8867 28.2116 85.99 28.3116 86.05C28.4182 86.11 28.5316 86.14 28.6516 86.14H30.6316C30.7782 86.14 30.8649 86.1267 30.8916 86.1C30.9182 86.0733 30.9316 85.9867 30.9316 85.84V82.52H32.1516V87H31.3316L30.9516 86.8C30.6849 86.8533 30.3682 86.9 30.0016 86.94C29.6416 86.98 29.2349 87 28.7816 87H28.2716ZM33.348 87V82.52H34.168L34.418 82.64C34.6114 82.6067 34.848 82.58 35.128 82.56C35.408 82.5333 35.7414 82.52 36.128 82.52H36.628C36.8214 82.52 37.008 82.5467 37.188 82.6C37.368 82.6467 37.5014 82.7167 37.588 82.81C37.7614 82.7233 38.0014 82.6533 38.308 82.6C38.6147 82.5467 39.0147 82.52 39.508 82.52H40.008C40.3414 82.52 40.598 82.5667 40.778 82.66C40.958 82.7533 41.0847 82.87 41.158 83.01C41.238 83.15 41.2847 83.2933 41.298 83.44C41.318 83.58 41.328 83.7 41.328 83.8V87H40.108V83.78C40.108 83.5133 39.948 83.38 39.628 83.38H38.228C38.1214 83.38 38.048 83.3933 38.008 83.42C37.968 83.4467 37.948 83.5067 37.948 83.6V87H36.728V83.78C36.728 83.5133 36.568 83.38 36.248 83.38H34.868C34.7414 83.38 34.658 83.3933 34.618 83.42C34.5847 83.44 34.568 83.5 34.568 83.6V87H33.348ZM43.6989 87C43.3656 87 43.1089 86.9567 42.9289 86.87C42.7489 86.7833 42.6189 86.6733 42.5389 86.54C42.4656 86.4067 42.4189 86.2667 42.3989 86.12C42.3856 85.9733 42.3789 85.84 42.3789 85.72V83.8C42.3789 83.7 42.3856 83.58 42.3989 83.44C42.4189 83.2933 42.4656 83.15 42.5389 83.01C42.6189 82.87 42.7489 82.7533 42.9289 82.66C43.1156 82.5667 43.3722 82.52 43.6989 82.52H45.8489C46.2889 82.52 46.6322 82.5633 46.8789 82.65C47.1322 82.73 47.3089 82.8633 47.4089 83.05C47.5156 83.2367 47.5689 83.4867 47.5689 83.8V85.28H45.8189C45.2189 85.28 44.7289 85.2667 44.3489 85.24C43.9756 85.2133 43.7256 85.1967 43.5989 85.19V85.74C43.5922 86.0067 43.7522 86.14 44.0789 86.14H44.5889C44.9489 86.14 45.2989 86.1367 45.6389 86.13C45.9856 86.1167 46.3022 86.1033 46.5889 86.09C46.8756 86.07 47.1056 86.0533 47.2789 86.04L47.6789 86.69C47.6789 86.8967 47.0222 87 45.7089 87H43.6989ZM43.5989 84.42H46.3489V83.78C46.3489 83.6467 46.3322 83.5533 46.2989 83.5C46.2722 83.4467 46.1856 83.4133 46.0389 83.4C45.8922 83.3867 45.6422 83.38 45.2889 83.38H44.0789C43.7589 83.38 43.5989 83.5133 43.5989 83.78V84.42ZM48.6801 87V82.52H49.5001L49.9001 82.72C50.1801 82.6667 50.5167 82.62 50.9101 82.58C51.3034 82.54 51.7534 82.52 52.2601 82.52H52.7601C53.0934 82.52 53.3501 82.5667 53.5301 82.66C53.7101 82.7533 53.8367 82.87 53.9101 83.01C53.9901 83.15 54.0367 83.2933 54.0501 83.44C54.0701 83.58 54.0801 83.7 54.0801 83.8V87H52.8601V83.78C52.8601 83.5133 52.7001 83.38 52.3801 83.38H50.2001C50.0734 83.38 49.9901 83.3933 49.9501 83.42C49.9167 83.44 49.9001 83.5 49.9001 83.6V87H48.6801ZM56.9728 87C56.4661 87 56.1195 86.8933 55.9328 86.68C55.7461 86.4667 55.6528 86.1467 55.6528 85.72V83.38H54.8328V82.52H55.2528C55.3795 82.52 55.4695 82.5 55.5228 82.46C55.5828 82.42 55.6261 82.34 55.6528 82.22L55.8528 81.15H56.8728V82.52H58.9528V83.38H56.8728V85.73C56.8728 85.8967 56.9128 86.0067 56.9928 86.06C57.0728 86.1133 57.1928 86.14 57.3528 86.14H58.7628L58.8628 86.9C58.7228 86.92 58.5095 86.9433 58.2228 86.97C57.9361 86.99 57.6228 87 57.2828 87H56.9728ZM61.0443 87C60.5376 87 60.171 86.8833 59.9443 86.65C59.7176 86.41 59.6043 86.0833 59.6043 85.67C59.6043 85.2367 59.721 84.9033 59.9543 84.67C60.1943 84.4367 60.5576 84.32 61.0443 84.32H61.5543C62.0543 84.32 62.5043 84.3333 62.9043 84.36C63.3043 84.3867 63.6343 84.4133 63.8943 84.44V83.78C63.8943 83.72 63.8876 83.66 63.8743 83.6C63.861 83.5333 63.821 83.48 63.7543 83.44C63.6876 83.4 63.5743 83.38 63.4143 83.38H62.9143C62.1876 83.38 61.581 83.3933 61.0943 83.42C60.6076 83.44 60.2776 83.46 60.1043 83.48L59.9943 82.72C59.9943 82.6267 60.2476 82.57 60.7543 82.55C61.261 82.53 62.1076 82.52 63.2943 82.52H63.7943C64.1276 82.52 64.3843 82.5667 64.5643 82.66C64.7443 82.7533 64.871 82.87 64.9443 83.01C65.0243 83.15 65.071 83.2933 65.0843 83.44C65.1043 83.58 65.1143 83.7 65.1143 83.8V87H64.2943L63.9043 86.8C63.6243 86.8467 63.2876 86.8933 62.8943 86.94C62.501 86.98 62.051 87 61.5443 87H61.0443ZM61.3043 86.14H63.5943C63.741 86.14 63.8276 86.1267 63.8543 86.1C63.881 86.0733 63.8943 85.99 63.8943 85.85V85.08H61.3043C61.1243 85.08 60.9976 85.1233 60.9243 85.21C60.8576 85.2967 60.8243 85.4333 60.8243 85.62C60.8243 85.8067 60.8643 85.94 60.9443 86.02C61.0243 86.1 61.1443 86.14 61.3043 86.14ZM68.008 87C67.5013 87 67.1546 86.8933 66.968 86.68C66.7813 86.4667 66.688 86.1467 66.688 85.72V83.38H65.868V82.52H66.288C66.4146 82.52 66.5046 82.5 66.558 82.46C66.618 82.42 66.6613 82.34 66.688 82.22L66.888 81.15H67.908V82.52H69.988V83.38H67.908V85.73C67.908 85.8967 67.948 86.0067 68.028 86.06C68.108 86.1133 68.228 86.14 68.388 86.14H69.798L69.898 86.9C69.758 86.92 69.5446 86.9433 69.258 86.97C68.9713 86.99 68.658 87 68.318 87H68.008ZM71.4995 81.89C71.2528 81.89 71.0728 81.84 70.9595 81.74C70.8461 81.64 70.7895 81.4733 70.7895 81.24C70.7895 81 70.8428 80.8333 70.9495 80.74C71.0628 80.64 71.2461 80.59 71.4995 80.59C71.7528 80.59 71.9361 80.64 72.0495 80.74C72.1628 80.8333 72.2195 81 72.2195 81.24C72.2195 81.4667 72.1628 81.6333 72.0495 81.74C71.9361 81.84 71.7528 81.89 71.4995 81.89ZM70.8895 87V82.52H72.1095V87H70.8895ZM74.6364 87C74.1897 87 73.8564 86.91 73.6364 86.73C73.4231 86.55 73.3164 86.2567 73.3164 85.85V83.8C73.3164 83.7 73.3231 83.58 73.3364 83.44C73.3564 83.2933 73.4031 83.15 73.4764 83.01C73.5564 82.87 73.6864 82.7533 73.8664 82.66C74.0531 82.5667 74.3097 82.52 74.6364 82.52H77.3964C77.7297 82.52 77.9864 82.5667 78.1664 82.66C78.3464 82.7533 78.4731 82.87 78.5464 83.01C78.6264 83.15 78.6731 83.2933 78.6864 83.44C78.7064 83.58 78.7164 83.7 78.7164 83.8V85.72C78.7164 85.84 78.7064 85.9733 78.6864 86.12C78.6731 86.2667 78.6264 86.4067 78.5464 86.54C78.4664 86.6733 78.3364 86.7833 78.1564 86.87C77.9764 86.9567 77.7231 87 77.3964 87H74.6364ZM75.0164 86.14H77.0164C77.3431 86.14 77.5064 86.0067 77.5064 85.74V83.78C77.5064 83.5133 77.3431 83.38 77.0164 83.38H75.0164C74.6964 83.38 74.5364 83.5133 74.5364 83.78V85.74C74.5364 86.0067 74.6964 86.14 75.0164 86.14ZM79.8129 87V82.52H80.6329L81.0329 82.72C81.3129 82.6667 81.6496 82.62 82.0429 82.58C82.4362 82.54 82.8862 82.52 83.3929 82.52H83.8929C84.2262 82.52 84.4829 82.5667 84.6629 82.66C84.8429 82.7533 84.9696 82.87 85.0429 83.01C85.1229 83.15 85.1696 83.2933 85.1829 83.44C85.2029 83.58 85.2129 83.7 85.2129 83.8V87H83.9929V83.78C83.9929 83.5133 83.8329 83.38 83.5129 83.38H81.3329C81.2062 83.38 81.1229 83.3933 81.0829 83.42C81.0496 83.44 81.0329 83.5 81.0329 83.6V87H79.8129Z" fill="white"/>
<path d="M60.25 6.875C55.0092 6.875 50.9717 11.2463 50.75 16.625V36.125H65V23.8725C66.7417 25.4813 68.9583 26.375 71.3333 26.375C76.5742 26.375 80.8333 22.0037 80.8333 16.625C80.8333 11.2463 76.5742 6.875 71.3333 6.875H60.25ZM60.25 10.125H64.2717C62.7042 11.9125 61.8333 14.1875 61.8333 16.625V21.5H60.25V23.125H61.8333V32.875H53.9167V23.125H55.5V21.5H53.9167V16.625C53.9167 13.0337 56.7508 10.125 60.25 10.125ZM71.3333 10.125C74.8325 10.125 77.6667 13.0337 77.6667 16.625C77.6667 20.2163 74.8325 23.125 71.3333 23.125C67.8342 23.125 65 20.2163 65 16.625C65 13.0337 67.8342 10.125 71.3333 10.125ZM71.3333 13.7812C69.7975 13.7812 68.5625 15.0487 68.5625 16.625C68.5625 18.2013 69.7975 19.4688 71.3333 19.4688C72.8692 19.4688 74.1042 18.2013 74.1042 16.625C74.1042 15.0487 72.8692 13.7812 71.3333 13.7812ZM57.0833 21.5V23.125H58.6667V21.5H57.0833Z" fill="#EF8D7A"/>
<path d="M37.9326 30.3402C37.9283 30.3441 37.924 30.348 37.9196 30.3517C37.9181 30.353 37.9169 30.3543 37.9155 30.3557C37.9219 30.3499 37.9236 30.3486 37.9326 30.3402ZM37.9753 30.3754C37.9231 30.3739 37.8853 30.3901 37.8739 30.3942C36.8388 31.3013 36.4001 32.2871 35.4186 33.3391C34.4415 34.3861 32.9441 35.3898 29.9427 36.2406L28.1819 38.6268C28.135 38.6904 28.0739 38.7423 28.0035 38.7782C27.9331 38.8142 27.8553 38.8333 27.7762 38.834L24.9017 38.8594L24.0697 38.3868L23.9211 45.1692L24.7483 44.692H27.9926C28.0677 44.692 28.1418 44.7085 28.2097 44.7405C28.2776 44.7725 28.3376 44.819 28.3854 44.8768C29.1515 45.8029 29.5196 46.6916 30.5347 47.1333L41.8943 50.6381C42.6011 50.6076 43.1655 50.524 43.5156 50.3227C43.8139 50.1514 44.0193 49.8997 44.136 49.3834C43.8269 49.2528 42.8032 48.8201 41.4634 48.2589C40.699 47.9388 39.9324 47.6192 39.3543 47.3813C39.0653 47.2624 38.8229 47.1637 38.6537 47.0966C38.5898 47.071 38.5257 47.0461 38.4612 47.022C38.4495 47.0176 38.4469 47.0169 38.4405 47.0146C38.4316 47.0159 38.4235 47.0206 38.333 46.9763C38.2767 46.9487 38.0673 46.3767 38.0673 46.3766C38.0673 46.3766 38.3868 46.0352 38.4337 46.0235C38.5776 45.9875 38.6025 46.0093 38.631 46.0133C38.6423 46.0149 38.6453 46.0161 38.653 46.0175C38.6603 46.0184 38.6696 46.0195 38.6891 46.0216C38.7395 46.027 38.8209 46.035 38.926 46.0448C39.1363 46.0644 39.4431 46.0917 39.8135 46.1239C40.5545 46.1885 41.5513 46.2731 42.5532 46.3568C43.5552 46.4405 44.5626 46.5235 45.3255 46.5851C45.7069 46.6159 46.0274 46.6413 46.2548 46.6587C46.3684 46.6675 46.459 46.6743 46.5211 46.6787C46.5463 46.6804 46.563 46.6815 46.5777 46.6824C47.0283 46.6489 47.2629 46.5164 47.3922 46.378C47.5233 46.2376 47.5777 46.0629 47.5664 45.8413C47.5442 45.4051 47.1781 44.8954 46.8209 44.7822L39.7382 43.8539C39.6138 43.8375 39.4998 43.7759 39.4181 43.6808C39.3363 43.5857 39.2925 43.4637 39.295 43.3383C39.2975 43.2129 39.3461 43.0928 39.4316 43.001C39.5171 42.9093 39.6335 42.8522 39.7584 42.8408C39.7584 42.8408 41.7068 42.6644 43.6805 42.4812C44.6675 42.3894 45.6608 42.2959 46.4191 42.222C46.7983 42.185 47.1189 42.1529 47.3491 42.1285C47.4641 42.1163 47.557 42.106 47.6209 42.0983C47.6501 42.0948 47.6856 42.0872 47.7067 42.083C48.3245 41.9077 48.6241 41.6769 48.7356 41.5135C48.8494 41.3468 48.8485 41.2253 48.7649 41.0239C48.598 40.6218 47.8991 40.13 47.4468 40.0994L39.4967 39.892C39.3716 39.8887 39.252 39.8395 39.1608 39.7537C39.0696 39.6679 39.0131 39.5515 39.0023 39.4267C38.9914 39.302 39.0268 39.1776 39.1017 39.0773C39.1767 38.977 39.286 38.9078 39.4087 38.8828C39.4087 38.8828 41.137 38.5319 42.915 38.1724C43.8039 37.9927 44.7052 37.8107 45.4094 37.6695C46.1137 37.5281 46.5904 37.4325 46.732 37.408C47.2695 37.3149 47.517 37.1092 47.6463 36.8889C47.7756 36.6687 47.7967 36.3859 47.7027 36.086C47.5384 35.5611 47.0536 35.077 46.3903 35.0627C46.2914 35.0608 46.1927 35.0688 46.0955 35.0866C46.0919 35.0872 46.0883 35.0878 46.0847 35.0883L37.6479 36.4287C37.2225 37.0166 36.8266 37.3291 36.2912 37.7301C36.1766 40.9631 35.5861 42.5754 34.7432 43.4269C33.8775 44.3012 32.7947 44.2439 32.4586 44.328L32.2112 43.339C32.8985 43.1671 33.4555 43.2787 34.0186 42.7098C34.5818 42.1409 35.1959 40.748 35.2838 37.4533C35.2859 37.3764 35.3053 37.301 35.3407 37.2327C35.3761 37.1643 35.4265 37.1049 35.4881 37.0588C36.1918 36.5324 36.463 36.3635 36.9082 35.7059L38.9205 31.2636C38.8602 30.8108 38.6365 30.6016 38.3745 30.4767C38.2329 30.4092 38.0801 30.3781 37.9756 30.3753L37.9753 30.3754Z" fill="white"/>
</svg>
