<svg viewBox="0 0 100 100" fill="none" xmlns="http://www.w3.org/2000/svg">
<rect fill="black"/>
<path d="M8.25 63L6.1 57.13H7.5L8.91 60.97L9.14 61.94H9.24L9.37 61.26L10.7 57.13H12.4L13.79 61.26L13.97 61.94H14.07L14.3 60.97L15.61 57.13H17.01L16.91 57.73L14.85 63H13.15L11.79 59.07L11.59 58.43H11.49L11.3 59.07L9.95 63H8.25ZM18.5329 63C18.1996 63 17.9429 62.9567 17.7629 62.87C17.5829 62.7833 17.4529 62.6733 17.3729 62.54C17.2996 62.4067 17.2529 62.2667 17.2329 62.12C17.2196 61.9733 17.2129 61.84 17.2129 61.72V59.8C17.2129 59.7 17.2196 59.58 17.2329 59.44C17.2529 59.2933 17.2996 59.15 17.3729 59.01C17.4529 58.87 17.5829 58.7533 17.7629 58.66C17.9496 58.5667 18.2062 58.52 18.5329 58.52H20.6829C21.1229 58.52 21.4662 58.5633 21.7129 58.65C21.9662 58.73 22.1429 58.8633 22.2429 59.05C22.3496 59.2367 22.4029 59.4867 22.4029 59.8V61.28H20.6529C20.0529 61.28 19.5629 61.2667 19.1829 61.24C18.8096 61.2133 18.5596 61.1967 18.4329 61.19V61.74C18.4262 62.0067 18.5862 62.14 18.9129 62.14H19.4229C19.7829 62.14 20.1329 62.1367 20.4729 62.13C20.8196 62.1167 21.1362 62.1033 21.4229 62.09C21.7096 62.07 21.9396 62.0533 22.1129 62.04L22.5129 62.69C22.5129 62.8967 21.8562 63 20.5429 63H18.5329ZM18.4329 60.42H21.1829V59.78C21.1829 59.6467 21.1662 59.5533 21.1329 59.5C21.1062 59.4467 21.0196 59.4133 20.8729 59.4C20.7262 59.3867 20.4762 59.38 20.1229 59.38H18.9129C18.5929 59.38 18.4329 59.5133 18.4329 59.78V60.42ZM24.7341 63C24.4007 63 24.1441 62.9567 23.9641 62.87C23.7841 62.7833 23.6541 62.6733 23.5741 62.54C23.5007 62.4067 23.4541 62.2667 23.4341 62.12C23.4207 61.9733 23.4141 61.84 23.4141 61.72V59.8C23.4141 59.7 23.4207 59.58 23.4341 59.44C23.4541 59.2933 23.5007 59.15 23.5741 59.01C23.6541 58.87 23.7841 58.7533 23.9641 58.66C24.1507 58.5667 24.4074 58.52 24.7341 58.52H26.8841C27.3241 58.52 27.6674 58.5633 27.9141 58.65C28.1674 58.73 28.3441 58.8633 28.4441 59.05C28.5507 59.2367 28.6041 59.4867 28.6041 59.8V61.28H26.8541C26.2541 61.28 25.7641 61.2667 25.3841 61.24C25.0107 61.2133 24.7607 61.1967 24.6341 61.19V61.74C24.6274 62.0067 24.7874 62.14 25.1141 62.14H25.6241C25.9841 62.14 26.3341 62.1367 26.6741 62.13C27.0207 62.1167 27.3374 62.1033 27.6241 62.09C27.9107 62.07 28.1407 62.0533 28.3141 62.04L28.7141 62.69C28.7141 62.8967 28.0574 63 26.7441 63H24.7341ZM24.6341 60.42H27.3841V59.78C27.3841 59.6467 27.3674 59.5533 27.3341 59.5C27.3074 59.4467 27.2207 59.4133 27.0741 59.4C26.9274 59.3867 26.6774 59.38 26.3241 59.38H25.1141C24.7941 59.38 24.6341 59.5133 24.6341 59.78V60.42ZM34.5052 63.1C34.2252 63.1 33.9852 63.0667 33.7852 63C33.5919 62.9333 33.3852 62.79 33.1652 62.57C33.1452 62.55 33.0919 62.4967 33.0052 62.41C32.9186 62.3233 32.8219 62.2267 32.7152 62.12C32.6152 62.0133 32.5219 61.9167 32.4352 61.83C32.3486 61.7433 32.2919 61.6867 32.2652 61.66C32.0986 61.4933 31.9386 61.3633 31.7852 61.27C31.6386 61.1767 31.4552 61.13 31.2352 61.13C31.0886 61.13 31.0019 61.1433 30.9752 61.17C30.9486 61.1967 30.9352 61.2867 30.9352 61.44V63H29.7152V56.67H30.9352V60.27H31.2552C31.3752 60.27 31.4819 60.2233 31.5752 60.13C31.6352 60.07 31.7486 59.95 31.9152 59.77C32.0819 59.59 32.2686 59.3867 32.4752 59.16C32.6886 58.9333 32.8819 58.7233 33.0552 58.53H34.5252L34.3652 58.84C34.2119 59 34.0452 59.17 33.8652 59.35C33.6852 59.5233 33.5086 59.6933 33.3352 59.86C33.1686 60.02 33.0152 60.1633 32.8752 60.29C32.7352 60.41 32.6286 60.49 32.5552 60.53C32.7552 60.6367 32.9352 60.76 33.0952 60.9C33.2552 61.0333 33.4286 61.1867 33.6152 61.36C33.8019 61.5267 34.0252 61.7167 34.2852 61.93C34.5186 62.1167 34.7352 62.2267 34.9352 62.26C35.1352 62.2867 35.2552 62.3 35.2952 62.3L35.1152 63C35.0486 63.02 34.9586 63.04 34.8452 63.06C34.7319 63.0867 34.6186 63.1 34.5052 63.1ZM40.1141 63C39.6675 63 39.3175 62.9367 39.0641 62.81C38.8175 62.6833 38.6375 62.5233 38.5241 62.33C38.4175 62.1367 38.3508 61.94 38.3241 61.74C38.3041 61.54 38.2941 61.3667 38.2941 61.22V58.91C38.2941 58.7767 38.3041 58.61 38.3241 58.41C38.3508 58.21 38.4175 58.0133 38.5241 57.82C38.6308 57.62 38.8075 57.4533 39.0541 57.32C39.3075 57.1867 39.6608 57.12 40.1141 57.12H41.9641C42.4841 57.12 42.8775 57.14 43.1441 57.18C43.4108 57.22 43.5941 57.2633 43.6941 57.31C43.8008 57.3567 43.8675 57.3933 43.8941 57.42L43.7141 58.18C43.6275 58.1667 43.3008 58.1467 42.7341 58.12C42.1675 58.0933 41.3875 58.08 40.3941 58.08C40.0808 58.08 39.8708 58.1567 39.7641 58.31C39.6641 58.4567 39.6141 58.6167 39.6141 58.79V59.44C39.6941 59.4267 39.8775 59.41 40.1641 59.39C40.4508 59.37 40.8708 59.36 41.4241 59.36H42.4141C42.8941 59.36 43.2641 59.42 43.5241 59.54C43.7908 59.66 43.9741 59.84 44.0741 60.08C44.1808 60.32 44.2341 60.62 44.2341 60.98V61.22C44.2341 61.42 44.2175 61.6267 44.1841 61.84C44.1575 62.0467 44.0875 62.2367 43.9741 62.41C43.8608 62.5833 43.6808 62.7267 43.4341 62.84C43.1941 62.9467 42.8575 63 42.4241 63H40.1141ZM40.3941 62.04H42.1341C42.3541 62.04 42.5175 62.0067 42.6241 61.94C42.7375 61.8667 42.8141 61.7767 42.8541 61.67C42.8941 61.5567 42.9141 61.4433 42.9141 61.33V60.85C42.9141 60.67 42.8708 60.5233 42.7841 60.41C42.6975 60.2967 42.5108 60.24 42.2241 60.24H39.6141V61.34C39.6141 61.5333 39.6708 61.7 39.7841 61.84C39.9041 61.9733 40.1075 62.04 40.3941 62.04Z" fill="#EF8D7A"/>
<path d="M6.8 75V69.12H13.02V70.08H8.12V71.46H11.86V72.45H8.12V74.04H13.06L13.46 74.89C13.46 74.9167 13.37 74.9433 13.19 74.97C13.01 74.99 12.7 75 12.26 75H6.8ZM14.3563 75V69.46L14.2563 68.66H15.5763V75H14.3563ZM17.9958 75C17.6624 75 17.4058 74.9567 17.2258 74.87C17.0458 74.7833 16.9158 74.6733 16.8358 74.54C16.7624 74.4067 16.7158 74.2667 16.6958 74.12C16.6824 73.9733 16.6758 73.84 16.6758 73.72V71.8C16.6758 71.7 16.6824 71.58 16.6958 71.44C16.7158 71.2933 16.7624 71.15 16.8358 71.01C16.9158 70.87 17.0458 70.7533 17.2258 70.66C17.4124 70.5667 17.6691 70.52 17.9958 70.52H20.1458C20.5858 70.52 20.9291 70.5633 21.1758 70.65C21.4291 70.73 21.6058 70.8633 21.7058 71.05C21.8124 71.2367 21.8658 71.4867 21.8658 71.8V73.28H20.1158C19.5158 73.28 19.0258 73.2667 18.6458 73.24C18.2724 73.2133 18.0224 73.1967 17.8958 73.19V73.74C17.8891 74.0067 18.0491 74.14 18.3758 74.14H18.8858C19.2458 74.14 19.5958 74.1367 19.9358 74.13C20.2824 74.1167 20.5991 74.1033 20.8858 74.09C21.1724 74.07 21.4024 74.0533 21.5758 74.04L21.9758 74.69C21.9758 74.8967 21.3191 75 20.0058 75H17.9958ZM17.8958 72.42H20.6458V71.78C20.6458 71.6467 20.6291 71.5533 20.5958 71.5C20.5691 71.4467 20.4824 71.4133 20.3358 71.4C20.1891 71.3867 19.9391 71.38 19.5858 71.38H18.3758C18.0558 71.38 17.8958 71.5133 17.8958 71.78V72.42ZM24.197 75C23.8636 75 23.607 74.9567 23.427 74.87C23.247 74.7833 23.117 74.6733 23.037 74.54C22.9636 74.4067 22.917 74.2667 22.897 74.12C22.8836 73.9733 22.877 73.84 22.877 73.72V71.8C22.877 71.7 22.8836 71.58 22.897 71.44C22.917 71.2933 22.9636 71.15 23.037 71.01C23.117 70.87 23.247 70.7533 23.427 70.66C23.6136 70.5667 23.8703 70.52 24.197 70.52H25.587C26.4203 70.52 27.0103 70.5433 27.357 70.59C27.7103 70.63 27.887 70.6733 27.887 70.72L27.687 71.48C27.5003 71.4667 27.2636 71.4533 26.977 71.44C26.6903 71.42 26.3803 71.4067 26.047 71.4C25.7203 71.3867 25.4003 71.38 25.087 71.38H24.577C24.257 71.38 24.097 71.5133 24.097 71.78V73.74C24.0903 74.0067 24.2503 74.14 24.577 74.14H25.087C25.447 74.14 25.797 74.1367 26.137 74.13C26.4836 74.1167 26.8003 74.1033 27.087 74.09C27.3736 74.07 27.6036 74.0533 27.777 74.04L28.177 74.69C28.177 74.8967 27.5203 75 26.207 75H24.197ZM30.6154 75C30.1087 75 29.7621 74.8933 29.5754 74.68C29.3887 74.4667 29.2954 74.1467 29.2954 73.72V71.38H28.4754V70.52H28.8954C29.0221 70.52 29.1121 70.5 29.1654 70.46C29.2254 70.42 29.2687 70.34 29.2954 70.22L29.4954 69.15H30.5154V70.52H32.5954V71.38H30.5154V73.73C30.5154 73.8967 30.5554 74.0067 30.6354 74.06C30.7154 74.1133 30.8354 74.14 30.9954 74.14H32.4054L32.5054 74.9C32.3654 74.92 32.1521 74.9433 31.8654 74.97C31.5787 74.99 31.2654 75 30.9254 75H30.6154ZM33.3969 75V70.52H34.2169L34.5969 70.72C34.7702 70.6267 34.9569 70.5533 35.1569 70.5C35.3569 70.4467 35.6102 70.42 35.9169 70.42C36.4035 70.42 36.7969 70.4733 37.0969 70.58C37.4035 70.6867 37.6069 70.7667 37.7069 70.82L37.3569 71.69C37.2769 71.65 37.1435 71.6 36.9569 71.54C36.7769 71.4733 36.5635 71.4133 36.3169 71.36C36.0702 71.3067 35.8002 71.28 35.5069 71.28H35.3969C35.0769 71.28 34.8669 71.3433 34.7669 71.47C34.6735 71.5967 34.6235 71.8067 34.6169 72.1V75H33.3969ZM39.6266 75C39.18 75 38.8466 74.91 38.6266 74.73C38.4133 74.55 38.3066 74.2567 38.3066 73.85V71.8C38.3066 71.7 38.3133 71.58 38.3266 71.44C38.3466 71.2933 38.3933 71.15 38.4666 71.01C38.5466 70.87 38.6766 70.7533 38.8566 70.66C39.0433 70.5667 39.3 70.52 39.6266 70.52H42.3866C42.72 70.52 42.9766 70.5667 43.1566 70.66C43.3366 70.7533 43.4633 70.87 43.5366 71.01C43.6166 71.15 43.6633 71.2933 43.6766 71.44C43.6966 71.58 43.7066 71.7 43.7066 71.8V73.72C43.7066 73.84 43.6966 73.9733 43.6766 74.12C43.6633 74.2667 43.6166 74.4067 43.5366 74.54C43.4566 74.6733 43.3266 74.7833 43.1466 74.87C42.9666 74.9567 42.7133 75 42.3866 75H39.6266ZM40.0066 74.14H42.0066C42.3333 74.14 42.4966 74.0067 42.4966 73.74V71.78C42.4966 71.5133 42.3333 71.38 42.0066 71.38H40.0066C39.6866 71.38 39.5266 71.5133 39.5266 71.78V73.74C39.5266 74.0067 39.6866 74.14 40.0066 74.14ZM44.8031 75V70.52H45.6231L46.0231 70.72C46.3031 70.6667 46.6398 70.62 47.0331 70.58C47.4265 70.54 47.8765 70.52 48.3831 70.52H48.8831C49.2165 70.52 49.4731 70.5667 49.6531 70.66C49.8331 70.7533 49.9598 70.87 50.0331 71.01C50.1131 71.15 50.1598 71.2933 50.1731 71.44C50.1931 71.58 50.2031 71.7 50.2031 71.8V75H48.9831V71.78C48.9831 71.5133 48.8231 71.38 48.5031 71.38H46.3231C46.1965 71.38 46.1131 71.3933 46.0731 71.42C46.0398 71.44 46.0231 71.5 46.0231 71.6V75H44.8031ZM52.0659 69.89C51.8192 69.89 51.6392 69.84 51.5259 69.74C51.4125 69.64 51.3559 69.4733 51.3559 69.24C51.3559 69 51.4092 68.8333 51.5159 68.74C51.6292 68.64 51.8125 68.59 52.0659 68.59C52.3192 68.59 52.5025 68.64 52.6159 68.74C52.7292 68.8333 52.7859 69 52.7859 69.24C52.7859 69.4667 52.7292 69.6333 52.6159 69.74C52.5025 69.84 52.3192 69.89 52.0659 69.89ZM51.4559 75V70.52H52.6759V75H51.4559ZM55.2028 75C54.8695 75 54.6128 74.9567 54.4328 74.87C54.2528 74.7833 54.1228 74.6733 54.0428 74.54C53.9695 74.4067 53.9228 74.2667 53.9028 74.12C53.8895 73.9733 53.8828 73.84 53.8828 73.72V71.8C53.8828 71.7 53.8895 71.58 53.9028 71.44C53.9228 71.2933 53.9695 71.15 54.0428 71.01C54.1228 70.87 54.2528 70.7533 54.4328 70.66C54.6195 70.5667 54.8761 70.52 55.2028 70.52H56.5928C57.4261 70.52 58.0161 70.5433 58.3628 70.59C58.7161 70.63 58.8928 70.6733 58.8928 70.72L58.6928 71.48C58.5061 71.4667 58.2695 71.4533 57.9828 71.44C57.6961 71.42 57.3861 71.4067 57.0528 71.4C56.7261 71.3867 56.4061 71.38 56.0928 71.38H55.5828C55.2628 71.38 55.1028 71.5133 55.1028 71.78V73.74C55.0961 74.0067 55.2561 74.14 55.5828 74.14H56.0928C56.4528 74.14 56.8028 74.1367 57.1428 74.13C57.4895 74.1167 57.8061 74.1033 58.0928 74.09C58.3795 74.07 58.6095 74.0533 58.7828 74.04L59.1828 74.69C59.1828 74.8967 58.5261 75 57.2128 75H55.2028ZM62.2785 75V69.12H63.5985V75H62.2785ZM64.9984 75V70.52H65.8184L66.2184 70.72C66.4984 70.6667 66.8351 70.62 67.2284 70.58C67.6218 70.54 68.0718 70.52 68.5784 70.52H69.0784C69.4118 70.52 69.6684 70.5667 69.8484 70.66C70.0284 70.7533 70.1551 70.87 70.2284 71.01C70.3084 71.15 70.3551 71.2933 70.3684 71.44C70.3884 71.58 70.3984 71.7 70.3984 71.8V75H69.1784V71.78C69.1784 71.5133 69.0184 71.38 68.6984 71.38H66.5184C66.3918 71.38 66.3084 71.3933 66.2684 71.42C66.2351 71.44 66.2184 71.5 66.2184 71.6V75H64.9984ZM71.5512 76.86V70.52H72.3712L72.6212 70.65C72.9212 70.6167 73.2778 70.5867 73.6912 70.56C74.1112 70.5333 74.5878 70.52 75.1212 70.52H75.6312C75.9645 70.52 76.2212 70.5633 76.4012 70.65C76.5812 70.7367 76.7078 70.8467 76.7812 70.98C76.8612 71.1133 76.9078 71.2533 76.9212 71.4C76.9412 71.5467 76.9512 71.68 76.9512 71.8V73.72C76.9512 73.82 76.9412 73.9433 76.9212 74.09C76.9078 74.23 76.8612 74.37 76.7812 74.51C76.7078 74.65 76.5812 74.7667 76.4012 74.86C76.2212 74.9533 75.9645 75 75.6312 75H75.1212C74.6145 75 74.1645 74.9867 73.7712 74.96C73.3778 74.9333 73.0445 74.9067 72.7712 74.88V76.86H71.5512ZM73.0812 74.14H75.2512C75.3778 74.14 75.4878 74.1067 75.5812 74.04C75.6812 73.9733 75.7312 73.8733 75.7312 73.74V71.78C75.7378 71.6333 75.7012 71.53 75.6212 71.47C75.5478 71.41 75.4245 71.38 75.2512 71.38H74.7512C74.3245 71.38 73.9445 71.39 73.6112 71.41C73.2845 71.4233 73.0045 71.44 72.7712 71.46V73.83C72.7712 73.9767 72.7845 74.0667 72.8112 74.1C72.8445 74.1267 72.9345 74.14 73.0812 74.14ZM79.3751 75C79.0484 75 78.7917 74.9567 78.6051 74.87C78.4251 74.7833 78.2951 74.6733 78.2151 74.54C78.1417 74.4067 78.0951 74.2667 78.0751 74.12C78.0617 73.9733 78.0551 73.84 78.0551 73.72V70.52H79.2751V73.74C79.2684 73.8867 79.3151 73.99 79.4151 74.05C79.5217 74.11 79.6351 74.14 79.7551 74.14H81.7351C81.8817 74.14 81.9684 74.1267 81.9951 74.1C82.0217 74.0733 82.0351 73.9867 82.0351 73.84V70.52H83.2551V75H82.4351L82.0551 74.8C81.7884 74.8533 81.4717 74.9 81.1051 74.94C80.7451 74.98 80.3384 75 79.8851 75H79.3751ZM86.1916 75C85.6849 75 85.3382 74.8933 85.1516 74.68C84.9649 74.4667 84.8716 74.1467 84.8716 73.72V71.38H84.0516V70.52H84.4716C84.5982 70.52 84.6882 70.5 84.7416 70.46C84.8016 70.42 84.8449 70.34 84.8716 70.22L85.0716 69.15H86.0916V70.52H88.1716V71.38H86.0916V73.73C86.0916 73.8967 86.1316 74.0067 86.2116 74.06C86.2916 74.1133 86.4116 74.14 86.5716 74.14H87.9816L88.0816 74.9C87.9416 74.92 87.7282 74.9433 87.4416 74.97C87.1549 74.99 86.8416 75 86.5016 75H86.1916ZM6.9 87V81.92L6.8 81.12H11.44C11.98 81.12 12.3933 81.1867 12.68 81.32C12.9733 81.4533 13.1767 81.6533 13.29 81.92C13.4033 82.18 13.46 82.5067 13.46 82.9V85.21C13.46 85.61 13.4033 85.9433 13.29 86.21C13.1833 86.47 12.9833 86.6667 12.69 86.8C12.4033 86.9333 11.9867 87 11.44 87H6.9ZM8.22 86.04H11.36C11.8733 86.04 12.1333 85.8033 12.14 85.33V82.78C12.14 82.5867 12.0833 82.4233 11.97 82.29C11.8567 82.15 11.6533 82.08 11.36 82.08H8.22V86.04ZM15.8766 87C15.5433 87 15.2866 86.9567 15.1066 86.87C14.9266 86.7833 14.7966 86.6733 14.7166 86.54C14.6433 86.4067 14.5966 86.2667 14.5766 86.12C14.5633 85.9733 14.5566 85.84 14.5566 85.72V83.8C14.5566 83.7 14.5633 83.58 14.5766 83.44C14.5966 83.2933 14.6433 83.15 14.7166 83.01C14.7966 82.87 14.9266 82.7533 15.1066 82.66C15.2933 82.5667 15.55 82.52 15.8766 82.52H18.0266C18.4666 82.52 18.81 82.5633 19.0566 82.65C19.31 82.73 19.4866 82.8633 19.5866 83.05C19.6933 83.2367 19.7466 83.4867 19.7466 83.8V85.28H17.9966C17.3966 85.28 16.9066 85.2667 16.5266 85.24C16.1533 85.2133 15.9033 85.1967 15.7766 85.19V85.74C15.77 86.0067 15.93 86.14 16.2566 86.14H16.7666C17.1266 86.14 17.4766 86.1367 17.8166 86.13C18.1633 86.1167 18.48 86.1033 18.7666 86.09C19.0533 86.07 19.2833 86.0533 19.4566 86.04L19.8566 86.69C19.8566 86.8967 19.2 87 17.8866 87H15.8766ZM15.7766 84.42H18.5266V83.78C18.5266 83.6467 18.51 83.5533 18.4766 83.5C18.45 83.4467 18.3633 83.4133 18.2166 83.4C18.07 83.3867 17.82 83.38 17.4666 83.38H16.2566C15.9366 83.38 15.7766 83.5133 15.7766 83.78V84.42ZM22.4178 87L20.3578 82.52H21.7578L22.9078 85.28L23.1678 86H23.2678L23.5278 85.28L24.6978 82.52H26.0578L25.8978 83.13L24.0178 87H22.4178ZM27.4663 81.89C27.2196 81.89 27.0396 81.84 26.9263 81.74C26.8129 81.64 26.7563 81.4733 26.7563 81.24C26.7563 81 26.8096 80.8333 26.9163 80.74C27.0296 80.64 27.2129 80.59 27.4663 80.59C27.7196 80.59 27.9029 80.64 28.0163 80.74C28.1296 80.8333 28.1863 81 28.1863 81.24C28.1863 81.4667 28.1296 81.6333 28.0163 81.74C27.9029 81.84 27.7196 81.89 27.4663 81.89ZM26.8563 87V82.52H28.0763V87H26.8563ZM30.6032 87C30.2699 87 30.0132 86.9567 29.8332 86.87C29.6532 86.7833 29.5232 86.6733 29.4432 86.54C29.3699 86.4067 29.3232 86.2667 29.3032 86.12C29.2899 85.9733 29.2832 85.84 29.2832 85.72V83.8C29.2832 83.7 29.2899 83.58 29.3032 83.44C29.3232 83.2933 29.3699 83.15 29.4432 83.01C29.5232 82.87 29.6532 82.7533 29.8332 82.66C30.0199 82.5667 30.2765 82.52 30.6032 82.52H31.9932C32.8265 82.52 33.4165 82.5433 33.7632 82.59C34.1165 82.63 34.2932 82.6733 34.2932 82.72L34.0932 83.48C33.9065 83.4667 33.6699 83.4533 33.3832 83.44C33.0965 83.42 32.7865 83.4067 32.4532 83.4C32.1265 83.3867 31.8065 83.38 31.4932 83.38H30.9832C30.6632 83.38 30.5032 83.5133 30.5032 83.78V85.74C30.4965 86.0067 30.6565 86.14 30.9832 86.14H31.4932C31.8532 86.14 32.2032 86.1367 32.5432 86.13C32.8899 86.1167 33.2065 86.1033 33.4932 86.09C33.7799 86.07 34.0099 86.0533 34.1832 86.04L34.5832 86.69C34.5832 86.8967 33.9265 87 32.6132 87H30.6032ZM36.5016 87C36.1683 87 35.9116 86.9567 35.7316 86.87C35.5516 86.7833 35.4216 86.6733 35.3416 86.54C35.2683 86.4067 35.2216 86.2667 35.2016 86.12C35.1883 85.9733 35.1816 85.84 35.1816 85.72V83.8C35.1816 83.7 35.1883 83.58 35.2016 83.44C35.2216 83.2933 35.2683 83.15 35.3416 83.01C35.4216 82.87 35.5516 82.7533 35.7316 82.66C35.9183 82.5667 36.175 82.52 36.5016 82.52H38.6516C39.0916 82.52 39.435 82.5633 39.6816 82.65C39.935 82.73 40.1116 82.8633 40.2116 83.05C40.3183 83.2367 40.3716 83.4867 40.3716 83.8V85.28H38.6216C38.0216 85.28 37.5316 85.2667 37.1516 85.24C36.7783 85.2133 36.5283 85.1967 36.4016 85.19V85.74C36.395 86.0067 36.555 86.14 36.8816 86.14H37.3916C37.7516 86.14 38.1016 86.1367 38.4416 86.13C38.7883 86.1167 39.105 86.1033 39.3916 86.09C39.6783 86.07 39.9083 86.0533 40.0816 86.04L40.4816 86.69C40.4816 86.8967 39.825 87 38.5116 87H36.5016ZM36.4016 84.42H39.1516V83.78C39.1516 83.6467 39.135 83.5533 39.1016 83.5C39.075 83.4467 38.9883 83.4133 38.8416 83.4C38.695 83.3867 38.445 83.38 38.0916 83.38H36.8816C36.5616 83.38 36.4016 83.5133 36.4016 83.78V84.42ZM42.6128 87C42.1661 87 41.8495 86.9767 41.6628 86.93C41.4761 86.8833 41.3828 86.8367 41.3828 86.79L41.6828 86.04C41.8761 86.06 42.2295 86.0833 42.7428 86.11C43.2628 86.13 43.9028 86.14 44.6628 86.14H45.1628C45.3295 86.14 45.4328 86.0967 45.4728 86.01C45.5195 85.9167 45.5428 85.7933 45.5428 85.64C45.5428 85.4867 45.5161 85.3633 45.4628 85.27C45.4161 85.1767 45.3161 85.13 45.1628 85.13H42.7028C42.2361 85.13 41.8995 85.0433 41.6928 84.87C41.4861 84.69 41.3828 84.4233 41.3828 84.07V83.67C41.3828 83.5767 41.3928 83.4667 41.4128 83.34C41.4328 83.2133 41.4828 83.0867 41.5628 82.96C41.6428 82.8333 41.7728 82.73 41.9528 82.65C42.1328 82.5633 42.3828 82.52 42.7028 82.52H45.4628C45.8628 82.52 46.1461 82.5433 46.3128 82.59C46.4795 82.6367 46.5628 82.6833 46.5628 82.73L46.4628 83.48C46.2695 83.46 45.9128 83.44 45.3928 83.42C44.8728 83.3933 44.2361 83.38 43.4828 83.38H42.9828C42.8161 83.38 42.7095 83.4267 42.6628 83.52C42.6228 83.6067 42.6028 83.71 42.6028 83.83C42.6028 83.9567 42.6228 84.0633 42.6628 84.15C42.7095 84.23 42.8161 84.27 42.9828 84.27H45.4428C45.8961 84.27 46.2295 84.3633 46.4428 84.55C46.6561 84.7367 46.7628 84.9733 46.7628 85.26V85.85C46.7628 85.97 46.7528 86.0967 46.7328 86.23C46.7195 86.3633 46.6728 86.49 46.5928 86.61C46.5128 86.7233 46.3828 86.8167 46.2028 86.89C46.0228 86.9633 45.7695 87 45.4428 87H42.6128Z" fill="white"/>
<path d="M80.9063 10.3854H32.0938C31.3092 10.3854 30.5567 10.5917 30.0019 10.959C29.4471 11.3262 29.1354 11.8244 29.1354 12.3437V44.6562C29.1354 45.1756 29.4471 45.6737 30.0019 46.041C30.5567 46.4083 31.3092 46.6146 32.0938 46.6146H80.9063C81.6909 46.6146 82.4433 46.4083 82.9981 46.041C83.5529 45.6737 83.8646 45.1756 83.8646 44.6562V12.3437C83.8646 11.8244 83.5529 11.3262 82.9981 10.959C82.4433 10.5917 81.6909 10.3854 80.9063 10.3854Z" stroke="white" stroke-linecap="round" stroke-linejoin="round"/>
<path d="M29.1354 25.6115C29.1354 25.6115 30.2049 25.3667 30.7004 25.1924C31.0332 25.0749 31.2625 24.8056 31.6337 24.7723C31.9725 24.7429 32.2713 24.9358 32.6011 24.9936C32.9502 25.0543 33.3111 25.0827 33.6676 25.1258C33.9782 25.164 34.3007 25.1698 34.6009 25.2364C34.9308 25.3089 35.2192 25.4479 35.5343 25.5449C35.9411 25.6702 36.3197 25.8954 36.7679 25.8974C37.0919 25.9003 37.3448 25.6771 37.6687 25.6555C38.4557 25.6026 39.2337 26.0697 40.0014 25.9424C40.2085 25.9081 40.3061 25.7338 40.5013 25.678C41.1078 25.5018 41.8429 25.6261 42.4686 25.4793C42.6757 25.4303 42.8473 25.3324 43.0352 25.258C43.5055 25.071 44.0173 24.9202 44.4359 24.6842C44.6933 24.5393 44.8738 24.3425 45.1015 24.177C45.319 24.0193 45.6133 23.8999 45.7687 23.7138C46.0734 23.3486 46.1133 22.909 46.2361 22.4997C46.3115 22.2451 46.3115 21.9807 46.4017 21.7271C46.523 21.3883 46.9017 20.7342 46.9017 20.7342L47.835 21.0652L48.4016 22.015C48.4016 22.015 48.9355 22.4556 49.0021 22.6544C49.0687 22.8531 49.5346 23.7579 49.5346 23.7579L49.9029 24.3973L50.3689 24.6186L51.6705 24.5079L52.3687 24.5745L52.9027 24.4639L54.0357 24.3532L54.5682 24.5961C54.5682 24.5961 54.7028 24.8389 54.8359 24.883C54.9691 24.927 55.5371 24.9936 55.5371 24.9936L56.8698 22.1912L57.8372 19.0354L58.6034 23.471L59.2365 24.9495L60.1373 24.7948L60.7363 22.8306L61.8043 22.1256L62.7036 23.0069L63.0379 23.9782L64.4372 22.5222L65.9371 24.5295L66.437 24.7733L67.0716 24.883L68.2372 24.6186L68.6366 24.883L70.7044 23.5151L71.8375 24.7733L73.0711 24.0223L73.9719 25.258L75.2721 24.221L76.4392 24.927L77.4051 24.7723L78.0382 25.3461L78.2393 25.8983L78.8384 25.8318L79.6386 24.221L80.4063 25.0151L81.0719 25.0592L82.1724 25.1473L82.7049 25.5008H83.8646M29.1354 32.6517L31.1338 33.0042L31.968 33.5554L33.3008 32.9816L34.3347 33.2245L35.2015 32.9376L36.3685 32.3422L37.1348 32.7388L39.7677 32.496L42.3355 32.872L43.936 33.5114L45.9698 34.8137L46.8026 37.6601L49.0687 36.2041L50.1366 33.6876L53.302 33.9745L54.4706 33.8208L55.3699 33.3126L56.7367 35.4531L57.7366 39.028L58.9362 33.3782L59.4687 33.1579L60.371 33.6661L60.936 35.9172L61.9034 36.2697L62.603 35.7625L63.2702 34.4386L64.3366 35.8731L65.5703 34.5042L66.6042 33.4898L67.8038 33.8648L68.6381 33.6661L69.8036 34.1517L70.7044 34.7686L72.0372 33.4663L72.9705 34.4827L74.1391 33.0042L75.1715 34.1517L76.3386 33.3351L77.2379 33.4448L78.7053 32.3187L79.572 33.9745L80.6385 33.1138L81.8056 33.246L82.8055 32.6947H83.8646" stroke="white" stroke-linecap="round" stroke-linejoin="round"/>
<g clip-path="url(#clip0_128_8)">
<path fill-rule="evenodd" clip-rule="evenodd" d="M6.00464 49.6786C6.00464 49.8633 6.07801 50.0404 6.20862 50.171C6.33922 50.3016 6.51636 50.375 6.70107 50.375C6.88577 50.375 7.06291 50.3016 7.19352 50.171C7.32412 50.0404 7.3975 49.8633 7.3975 49.6786L7.3975 49.2069C8.34005 49.1472 9.22447 48.7306 9.87084 48.042C10.5172 47.3534 10.877 46.4444 10.877 45.5C10.877 44.5556 10.5172 43.6466 9.87084 42.958C9.22447 42.2694 8.34005 41.8528 7.3975 41.7931L7.3975 41.3214C7.3975 41.1367 7.32412 40.9596 7.19352 40.829C7.06291 40.6984 6.88577 40.625 6.70107 40.625C6.51636 40.625 6.33922 40.6984 6.20862 40.829C6.07801 40.9596 6.00464 41.1367 6.00464 41.3214L6.00464 49.6786ZM13.1546 48.1316C13.0103 48.0162 12.8261 47.9629 12.6425 47.9833C12.4588 48.0038 12.2908 48.0964 12.1755 48.2407C12.0601 48.385 12.0068 48.5692 12.0272 48.7529C12.0477 48.9365 12.1403 49.1045 12.2846 49.2199C12.9847 49.7798 13.6626 49.9748 14.3321 49.8884C14.9208 49.8132 15.4315 49.5207 15.8085 49.3034L15.8503 49.2802C16.2821 49.0341 16.5671 48.8809 16.8569 48.8438C17.0871 48.8141 17.3954 48.8512 17.856 49.2199C18.0003 49.3352 18.1845 49.3886 18.3682 49.3681C18.5518 49.3476 18.7198 49.2551 18.8352 49.1107C18.9506 48.9664 19.0039 48.7822 18.9834 48.5986C18.963 48.4149 18.8704 48.2469 18.7261 48.1316C18.025 47.5716 17.3471 47.3766 16.6786 47.463C16.0899 47.5382 15.5791 47.8307 15.2021 48.048L15.1594 48.0712C14.7286 48.3173 14.4426 48.4705 14.1538 48.5076C13.9235 48.5374 13.6152 48.5002 13.1546 48.1316ZM13.1546 44.9559C13.0832 44.8987 13.0012 44.8562 12.9133 44.8308C12.8254 44.8054 12.7334 44.7975 12.6425 44.8076C12.5515 44.8177 12.4635 44.8457 12.3834 44.8898C12.3032 44.934 12.2326 44.9935 12.1755 45.065C12.1183 45.1364 12.0758 45.2184 12.0504 45.3063C12.025 45.3942 12.0171 45.4862 12.0272 45.5772C12.0374 45.6681 12.0653 45.7561 12.1094 45.8362C12.1536 45.9164 12.2131 45.987 12.2846 46.0441C12.9847 46.6041 13.6626 46.7991 14.3321 46.7127C14.9208 46.6375 15.4315 46.345 15.8085 46.1277L15.8503 46.1045C16.2821 45.8584 16.5671 45.7052 16.8569 45.6681C17.0871 45.6384 17.3954 45.6755 17.856 46.0441C17.9275 46.1013 18.0095 46.1438 18.0973 46.1692C18.1852 46.1946 18.2773 46.2025 18.3682 46.1924C18.4591 46.1823 18.5471 46.1543 18.6273 46.1102C18.7074 46.066 18.778 46.0065 18.8352 45.935C18.8923 45.8636 18.9348 45.7816 18.9602 45.6937C18.9857 45.6058 18.9935 45.5138 18.9834 45.4228C18.9733 45.3319 18.9453 45.2439 18.9012 45.1638C18.857 45.0836 18.7975 45.013 18.7261 44.9559C18.025 44.3959 17.3471 44.2009 16.6786 44.2873C16.0899 44.3625 15.5791 44.655 15.2021 44.8723L15.1594 44.8955C14.7286 45.1416 14.4426 45.2948 14.1538 45.3319C13.9235 45.3616 13.6152 45.3245 13.1546 44.9559ZM12.1759 41.8888C12.2913 41.7446 12.4593 41.6522 12.6428 41.6318C12.8263 41.6114 13.0104 41.6648 13.1546 41.7801C13.6143 42.1488 13.9235 42.1859 14.1538 42.1562C14.4426 42.1191 14.7286 41.9659 15.1594 41.7198L15.2012 41.6956C15.5791 41.4793 16.0899 41.1868 16.6776 41.1106C17.3471 41.0252 18.025 41.2202 18.7261 41.7801C18.8704 41.8955 18.963 42.0635 18.9834 42.2471C19.0039 42.4308 18.9506 42.615 18.8352 42.7593C18.7198 42.9036 18.5518 42.9962 18.3682 43.0167C18.1845 43.0371 18.0003 42.9838 17.856 42.8684C17.3954 42.4998 17.0871 42.4626 16.8569 42.4924C16.5671 42.5295 16.2811 42.6827 15.8503 42.9288L15.8085 42.9529C15.4315 43.1693 14.9208 43.4618 14.3321 43.5379C13.6635 43.6234 12.9856 43.4284 12.2846 42.8684C12.2131 42.8113 12.1535 42.7406 12.1093 42.6604C12.0652 42.5802 12.0372 42.4921 12.0271 42.4011C12.017 42.3101 12.025 42.2181 12.0505 42.1301C12.0761 42.0422 12.1187 41.9602 12.1759 41.8888Z" fill="#EF8D7A"/>
</g>
<defs>
<clipPath id="clip0_128_8">
<rect width="13" height="13" fill="white" transform="translate(6 52) rotate(-90)"/>
</clipPath>
</defs>
</svg>
